<svg width="79" height="57" viewBox="0 0 79 57" fill="none" xmlns="http://www.w3.org/2000/svg">
<path d="M15.7995 49.3999C15.0728 49.3999 14.483 50.0078 14.483 50.7569V54.2856H2.63306V44.7857C2.63306 44.0366 2.04326 43.4287 1.31653 43.4287C0.589797 43.4287 0 44.0366 0 44.7857V55.643C0 56.3921 0.589797 57 1.31653 57H15.7995C16.5263 57 17.1161 56.3921 17.1161 55.643V50.7573C17.1161 50.0078 16.5263 49.3999 15.7995 49.3999Z" fill="url(#paint0_linear)"/>
<path d="M77.6826 43.4283C76.9559 43.4283 76.3661 44.0362 76.3661 44.7853V54.2852H64.5161V50.8925C64.5161 50.1434 63.9263 49.5354 63.1996 49.5354C62.4729 49.5354 61.8831 50.1434 61.8831 50.8925V55.6426C61.8831 56.3917 62.4729 56.9996 63.1996 56.9996H77.683C78.4097 56.9996 78.9995 56.3917 78.9995 55.6426V44.7853C78.9991 44.0366 78.4093 43.4283 77.6826 43.4283Z" fill="url(#paint1_linear)"/>
<path d="M77.6826 31.214C76.9559 31.214 76.3661 31.8219 76.3661 32.571V44.07C76.3661 46.7097 74.2831 48.8567 71.7222 48.8567H50.5597C49.833 48.8567 49.2432 49.4647 49.2432 50.2137C49.2432 50.9628 49.833 51.5708 50.5597 51.5708H71.7222C75.7346 51.5708 78.9995 48.2059 78.9995 44.07V32.571C78.9992 31.8223 78.4094 31.214 77.6826 31.214Z" fill="url(#paint2_linear)"/>
<path d="M27.2552 48.8571H7.27698C4.71683 48.8571 2.63306 46.7101 2.63306 44.0704V32.9785C2.63306 32.2295 2.04326 31.6215 1.31653 31.6215C0.589797 31.6215 0 32.2295 0 32.9785V44.0704C0 48.2062 3.26452 51.5711 7.27737 51.5711H27.2556C27.9823 51.5711 28.5721 50.9632 28.5721 50.2141C28.5718 49.465 27.982 48.8571 27.2552 48.8571Z" fill="url(#paint3_linear)"/>
<path d="M70.6378 16.935L69.9886 12.2529C69.0208 5.26781 63.1283 0 56.2829 0H22.7155C15.8701 0 9.97793 5.26781 9.00972 12.2525L8.36592 16.8964C8.26255 17.6388 8.76285 18.3262 9.48303 18.432C10.1993 18.5385 10.8701 18.0236 10.9728 17.2809L11.6166 12.6369C12.4008 6.97988 17.1724 2.71402 22.7155 2.71402H56.2829C61.826 2.71402 66.5976 6.97948 67.3818 12.6369L68.031 17.3191C68.1251 17.9958 68.6887 18.4841 69.3333 18.4841C69.3958 18.4841 69.4583 18.4793 69.5207 18.4705C70.2402 18.364 70.7405 17.6773 70.6378 16.935Z" fill="url(#paint4_linear)"/>
<path d="M73.3249 20.532C72.1222 19.3134 71.1983 17.8518 70.5796 16.1863C70.4237 15.7664 70.0758 15.4535 69.6515 15.3501C69.2276 15.2495 68.7805 15.3684 68.4592 15.6726C66.1953 17.8188 63.2663 19.0005 60.2128 19.0005H18.7878C15.7343 19.0005 12.8058 17.8192 10.5411 15.6726C10.2198 15.368 9.77423 15.2491 9.34838 15.3501C8.92368 15.4531 8.57613 15.766 8.42029 16.1863C7.80195 17.8514 6.87926 19.313 5.67575 20.532C1.92327 24.3307 -0.091065 29.4097 0.00344125 34.8345C0.098719 40.3214 4.5841 44.7857 10.0022 44.7857H68.9973C74.4154 44.7857 78.9004 40.3214 78.9968 34.8345C79.0913 29.4097 77.077 24.3315 73.3249 20.532ZM68.9965 42.0713H10.0014C6.0098 42.0713 2.70516 38.8034 2.63612 34.7848C2.55511 30.1142 4.28901 25.7394 7.52036 22.468C8.57381 21.4004 9.45176 20.1833 10.1426 18.8343C12.6569 20.7018 15.6672 21.7141 18.7867 21.7149H60.212C63.3311 21.7149 66.3422 20.7026 68.8565 18.8351C69.547 20.1841 70.4245 21.4016 71.4787 22.4688C74.7093 25.7402 76.444 30.1142 76.363 34.7856C76.2928 38.8034 72.9878 42.0713 68.9965 42.0713Z" fill="url(#paint5_linear)"/>
<path d="M21.9972 5.82601C21.4838 5.29601 20.649 5.29601 20.1356 5.82601L16.1856 9.89744C15.6714 10.4274 15.6714 11.2867 16.1856 11.8163C16.4425 12.0815 16.7793 12.2139 17.1164 12.2139C17.4536 12.2139 17.7907 12.0815 18.0472 11.8163L21.9972 7.74483C22.511 7.21523 22.511 6.35601 21.9972 5.82601Z" fill="url(#paint6_linear)"/>
<path d="M28.5803 4.46899C28.0668 3.93898 27.2321 3.93898 26.7187 4.46899L16.8437 14.6476C16.3295 15.1776 16.3295 16.0368 16.8437 16.5664C17.1006 16.8316 17.4374 16.964 17.7745 16.964C18.1117 16.964 18.4488 16.8316 18.7053 16.5664L28.5803 6.38781C29.0945 5.85781 29.0945 4.99899 28.5803 4.46899Z" fill="url(#paint7_linear)"/>
<path d="M53.9828 10.8569C48.9007 10.8569 44.7663 15.1184 44.7663 20.3568C44.7663 21.1058 45.3561 21.7138 46.0829 21.7138C46.8096 21.7138 47.3994 21.1058 47.3994 20.3568C47.3994 16.6149 50.3526 13.5709 53.9828 13.5709C57.613 13.5709 60.5663 16.6149 60.5663 20.3568C60.5663 21.1058 61.1561 21.7138 61.8828 21.7138C62.6095 21.7138 63.1993 21.1058 63.1993 20.3568C63.1993 15.1184 59.065 10.8569 53.9828 10.8569Z" fill="url(#paint8_linear)"/>
<path d="M15.7995 31.214H5.2661C4.53937 31.214 3.94957 31.8219 3.94957 32.571V35.2854C3.94957 37.5307 5.72128 39.3569 7.89955 39.3569H15.7995C17.9778 39.3569 19.7495 37.5307 19.7495 35.2854C19.7495 33.0402 17.9778 31.214 15.7995 31.214ZM15.7995 36.6428H7.89955C7.17359 36.6428 6.58302 36.0341 6.58302 35.2858V33.9288H15.7995C16.5255 33.9288 17.116 34.5375 17.116 35.2858C17.116 36.0341 16.5255 36.6428 15.7995 36.6428Z" fill="url(#paint9_linear)"/>
<path d="M73.7327 31.214H63.1993C61.021 31.214 59.2493 33.0402 59.2493 35.2854C59.2493 37.5307 61.021 39.3569 63.1993 39.3569H71.0993C73.2775 39.3569 75.0492 37.5307 75.0492 35.2854V32.571C75.0492 31.8223 74.4594 31.214 73.7327 31.214ZM72.4158 35.2854C72.4158 36.0337 71.8252 36.6424 71.0993 36.6424H63.1993C62.4733 36.6424 61.8828 36.0337 61.8828 35.2854C61.8828 34.5371 62.4733 33.9284 63.1993 33.9284H72.4158V35.2854Z" fill="url(#paint10_linear)"/>
<path d="M50.0329 42.0713H27.6495C26.9228 42.0713 26.333 42.6792 26.333 43.4283V51.5711C26.333 52.3202 26.9228 52.9281 27.6495 52.9281H50.0329C50.7596 52.9281 51.3494 52.3202 51.3494 51.5711V43.4283C51.3494 42.6792 50.7596 42.0713 50.0329 42.0713ZM48.716 50.2141H28.9661V44.7857H48.716V50.2141Z" fill="url(#paint11_linear)"/>
<path d="M52.0077 29.857H26.991C24.4497 29.857 22.3825 31.9885 22.3825 34.6071C22.3825 37.2257 24.4497 39.3572 26.991 39.3572H52.0074C54.5486 39.3572 56.6158 37.2257 56.6158 34.6071C56.6158 31.9885 54.5486 29.857 52.0077 29.857ZM52.0077 36.6428H26.991C25.902 36.6428 25.016 35.7295 25.016 34.6071C25.016 33.4847 25.902 32.5714 26.991 32.5714H52.0074C53.0963 32.5714 53.9823 33.4847 53.9823 34.6071C53.9827 35.7295 53.0967 36.6428 52.0077 36.6428Z" fill="url(#paint12_linear)"/>
<path d="M31.5995 29.857C30.8728 29.857 30.283 30.4649 30.283 31.214V37.9998C30.283 38.7489 30.8728 39.3568 31.5995 39.3568C32.3262 39.3568 32.916 38.7489 32.916 37.9998V31.214C32.916 30.4649 32.3262 29.857 31.5995 29.857Z" fill="url(#paint13_linear)"/>
<path d="M39.4993 29.857C38.7726 29.857 38.1828 30.4649 38.1828 31.214V37.9998C38.1828 38.7489 38.7726 39.3568 39.4993 39.3568C40.226 39.3568 40.8158 38.7489 40.8158 37.9998V31.214C40.8158 30.4649 40.226 29.857 39.4993 29.857Z" fill="url(#paint14_linear)"/>
<path d="M47.3993 29.857C46.6726 29.857 46.0828 30.4649 46.0828 31.214V37.9998C46.0828 38.7489 46.6726 39.3568 47.3993 39.3568C48.1261 39.3568 48.7159 38.7489 48.7159 37.9998V31.214C48.7159 30.4649 48.1261 29.857 47.3993 29.857Z" fill="url(#paint15_linear)"/>
<defs>
<linearGradient id="paint0_linear" x1="73.9214" y1="7.32853" x2="-5.97738" y2="12.5939" gradientUnits="userSpaceOnUse">
<stop offset="1" stop-color="#F93F20"/>
</linearGradient>
<linearGradient id="paint1_linear" x1="73.9214" y1="7.32853" x2="-5.97738" y2="12.5939" gradientUnits="userSpaceOnUse">
<stop offset="1" stop-color="#F93F20"/>
</linearGradient>
<linearGradient id="paint2_linear" x1="73.9214" y1="7.32853" x2="-5.97738" y2="12.5939" gradientUnits="userSpaceOnUse">
<stop offset="1" stop-color="#F93F20"/>
</linearGradient>
<linearGradient id="paint3_linear" x1="73.9214" y1="7.32853" x2="-5.97738" y2="12.5939" gradientUnits="userSpaceOnUse">
<stop offset="1" stop-color="#F93F20"/>
</linearGradient>
<linearGradient id="paint4_linear" x1="73.9214" y1="7.32853" x2="-5.97738" y2="12.5939" gradientUnits="userSpaceOnUse">
<stop offset="1" stop-color="#F93F20"/>
</linearGradient>
<linearGradient id="paint5_linear" x1="73.9214" y1="7.32853" x2="-5.97738" y2="12.5939" gradientUnits="userSpaceOnUse">
<stop offset="1" stop-color="#F93F20"/>
</linearGradient>
<linearGradient id="paint6_linear" x1="73.9214" y1="7.32853" x2="-5.97738" y2="12.5939" gradientUnits="userSpaceOnUse">
<stop offset="1" stop-color="#F93F20"/>
</linearGradient>
<linearGradient id="paint7_linear" x1="73.9214" y1="7.32853" x2="-5.97738" y2="12.5939" gradientUnits="userSpaceOnUse">
<stop offset="1" stop-color="#F93F20"/>
</linearGradient>
<linearGradient id="paint8_linear" x1="73.9214" y1="7.32853" x2="-5.97738" y2="12.5939" gradientUnits="userSpaceOnUse">
<stop offset="1" stop-color="#F93F20"/>
</linearGradient>
<linearGradient id="paint9_linear" x1="73.9214" y1="7.32853" x2="-5.97738" y2="12.5939" gradientUnits="userSpaceOnUse">
<stop offset="1" stop-color="#F93F20"/>
</linearGradient>
<linearGradient id="paint10_linear" x1="73.9214" y1="7.32853" x2="-5.97738" y2="12.5939" gradientUnits="userSpaceOnUse">
<stop offset="1" stop-color="#F93F20"/>
</linearGradient>
<linearGradient id="paint11_linear" x1="73.9214" y1="7.32853" x2="-5.97738" y2="12.5939" gradientUnits="userSpaceOnUse">
<stop offset="1" stop-color="#F93F20"/>
</linearGradient>
<linearGradient id="paint12_linear" x1="73.9214" y1="7.32853" x2="-5.97738" y2="12.5939" gradientUnits="userSpaceOnUse">
<stop offset="1" stop-color="#F93F20"/>
</linearGradient>
<linearGradient id="paint13_linear" x1="73.9214" y1="7.32853" x2="-5.97738" y2="12.5939" gradientUnits="userSpaceOnUse">
<stop offset="1" stop-color="#F93F20"/>
</linearGradient>
<linearGradient id="paint14_linear" x1="73.9214" y1="7.32853" x2="-5.97738" y2="12.5939" gradientUnits="userSpaceOnUse">
<stop offset="1" stop-color="#F93F20"/>
</linearGradient>
<linearGradient id="paint15_linear" x1="73.9214" y1="7.32853" x2="-5.97738" y2="12.5939" gradientUnits="userSpaceOnUse">
<stop offset="1" stop-color="#F93F20"/>
</linearGradient>
</defs>
</svg>
