<svg width="80" height="73" viewBox="0 0 80 73" fill="none" xmlns="http://www.w3.org/2000/svg">
<path d="M70.5291 40.3326C75.9038 36.7117 79.189 30.6098 79.189 24.0792C79.189 20.9754 78.483 18.0053 77.0902 15.2521C76.8012 14.6804 76.1031 14.4514 75.5317 14.7405C74.96 15.0295 74.7308 15.7275 75.02 16.299C76.2468 18.7248 76.8691 21.3425 76.8691 24.0792C76.8691 29.9525 73.854 35.4322 68.9443 38.5982L62.1908 31.2081C61.4063 30.3494 60.2892 29.8571 59.1262 29.8571H43.3339C42.6756 28.006 42.3417 26.066 42.3417 24.0792C42.3417 14.56 50.0861 6.81567 59.6054 6.81567C64.5433 6.81567 69.2551 8.93831 72.5328 12.6393C72.9572 13.1188 73.6904 13.1636 74.1703 12.7386C74.6499 12.3139 74.6945 11.5808 74.2696 11.1012C72.5655 9.1768 70.5186 7.63014 68.2627 6.51763V2.58896C68.2627 1.16139 67.1013 0 65.6737 0H53.5372C52.1096 0 50.9483 1.16139 50.9483 2.58896V6.51655C44.4803 9.71783 40.0217 16.387 40.0217 24.0792C40.0217 26.0564 40.3143 27.9929 40.8905 29.8571H11.3104C9.83073 29.8571 8.61521 31.001 8.49658 32.4508H4.25332C3.61269 32.4508 3.09332 32.97 3.09332 33.6108C3.09332 34.2516 3.61269 34.7708 4.25332 34.7708H8.48483V45.9829H1.16C0.519369 45.9829 0 46.5021 0 47.1429C0 47.7836 0.519369 48.3028 1.16 48.3028H8.48483V51.6958C7.84931 51.7016 7.33566 52.2182 7.33566 52.8551C7.33566 53.492 7.84915 54.0086 8.48483 54.0145V62.2199C8.48483 63.4377 9.47562 64.4283 10.6933 64.4283H13.8143V65.2358H10.1951C9.5545 65.2358 9.03513 65.7551 9.03513 66.3958C9.03513 67.0366 9.5545 67.5558 10.1951 67.5558H14.9743C15.6149 67.5558 16.1343 67.0366 16.1343 66.3958V64.4283H17.1927C17.5608 69.0071 21.4019 72.621 26.0738 72.621C27.6155 72.621 29.1374 72.2187 30.4748 71.4578C31.0316 71.1408 31.226 70.4326 30.9092 69.8758C30.5925 69.3189 29.8844 69.1248 29.3273 69.4412C28.339 70.0037 27.2138 70.301 26.0738 70.301C22.4386 70.301 19.4811 67.3436 19.4811 63.7084C19.4811 60.0731 22.4386 57.1157 26.0738 57.1157C29.7089 57.1157 32.6664 60.0731 32.6664 63.7084C32.6664 64.6995 32.4516 65.6527 32.0278 66.5415C31.752 67.1198 31.9975 67.8121 32.5756 68.0877C33.1541 68.3633 33.8462 68.118 34.122 67.5399C34.592 66.5541 34.8687 65.5099 34.9545 64.4283H55.8119C56.18 69.0071 60.0211 72.621 64.693 72.621C69.3648 72.621 73.2058 69.0071 73.5741 64.4283H75.9619C77.7414 64.4283 79.189 62.9807 79.189 61.2012V51.4155C79.189 50.3791 78.8041 49.3869 78.1048 48.6219L70.5291 40.3326ZM53.2682 2.58896C53.2682 2.44063 53.3889 2.31999 53.5372 2.31999H65.6737C65.822 2.31999 65.9427 2.44063 65.9427 2.58896V5.55329C63.9226 4.86146 61.7837 4.49583 59.6054 4.49583C57.3886 4.49583 55.2568 4.86672 53.2681 5.54865V2.58896H53.2682ZM60.4783 32.7733L72.55 45.9829H63.8969C63.2561 45.9829 62.7369 46.5021 62.7369 47.1429C62.7369 47.7836 63.2561 48.3028 63.8969 48.3028H74.6702L76.3924 50.1875C77.0946 50.9558 76.7995 51.7896 76.8691 52.6745H75.9748C75.334 52.6745 74.8148 53.1937 74.8148 53.8345C74.8148 54.4753 75.334 54.9945 75.9748 54.9945H76.8691V56.711H70.2028C68.6852 55.5134 66.7718 54.796 64.6931 54.796C62.6144 54.796 60.701 55.5134 59.1835 56.711H46.5446V32.1772H51.5476V45.9683C51.5476 47.2556 52.5948 48.303 53.8821 48.303H59.2594C59.9002 48.303 60.4194 47.7838 60.4194 47.143C60.4194 46.5022 59.9002 45.983 59.2594 45.983H53.8821C53.8741 45.983 53.8676 45.9764 53.8676 45.9683V32.1772H59.1265C59.6393 32.1772 60.1322 32.3945 60.4783 32.7733ZM55.927 62.1087H46.5443V59.0309H57.1108C56.5367 59.958 56.1293 60.9978 55.927 62.1087ZM33.6558 59.0309H44.2243V62.1087H34.8396C34.6373 60.9978 34.2299 59.958 33.6558 59.0309ZM10.8048 59.0309H18.4914C17.9173 59.958 17.5099 60.9978 17.3076 62.1087H10.8048V59.0309ZM20.5639 56.711H10.8048V54.0153H15.8315C16.4721 54.0153 16.9915 53.4961 16.9915 52.8553C16.9915 52.2145 16.4721 51.6953 15.8315 51.6953H10.8048V48.3028H15.8315C16.4721 48.3028 16.9915 47.7836 16.9915 47.1429C16.9915 46.5021 16.4721 45.9829 15.8315 45.9829H10.8048V32.6828C10.8048 32.4039 11.0316 32.177 11.3104 32.177H44.2243V56.7108H31.5834C30.0659 55.5132 28.1525 54.7959 26.0738 54.7959C23.9951 54.7959 22.0817 55.5134 20.5639 56.711ZM64.693 70.3013C61.0577 70.3013 58.1003 67.3439 58.1003 63.7087C58.1003 60.0734 61.0577 57.116 64.693 57.116C68.3282 57.116 71.2856 60.0734 71.2856 63.7087C71.2856 67.3439 68.3282 70.3013 64.693 70.3013ZM75.9618 62.1087H73.4588C73.2565 60.9978 72.8491 59.958 72.275 59.0309H76.8691V61.2015C76.8691 61.7017 76.4621 62.1087 75.9618 62.1087Z" fill="url(#paint0_linear)"/>
<defs>
<linearGradient id="paint0_linear" x1="74.0983" y1="9.33693" x2="-6.12384" y2="13.4963" gradientUnits="userSpaceOnUse">
<stop offset="1" stop-color="#F93F20"/>
</linearGradient>
</defs>
</svg>
