<svg width="74" height="74" viewBox="0 0 74 74" fill="none" xmlns="http://www.w3.org/2000/svg">
<path d="M72.7667 64.1333C73.4478 64.1333 74 63.5811 74 62.9V57.9667C74 57.2856 73.4478 56.7333 72.7667 56.7333H65.3667V30.8333C65.3667 30.1522 64.8144 29.6 64.1333 29.6H57.9667V13.5667C57.9667 12.8856 57.4144 12.3333 56.7333 12.3333H45.6333V1.23333C45.6333 0.55223 45.0811 0 44.4 0H29.6C28.9189 0 28.3667 0.55223 28.3667 1.23333V12.3333H17.2667C16.5856 12.3333 16.0333 12.8856 16.0333 13.5667V29.6H9.86667C9.18556 29.6 8.63333 30.1522 8.63333 30.8333V56.7333H1.23333C0.55223 56.7333 0 57.2856 0 57.9667V62.9C0 63.5811 0.55223 64.1333 1.23333 64.1333H2.46667V66.6H1.23333C0.55223 66.6 0 67.1522 0 67.8333V72.7667C0 73.4478 0.55223 74 1.23333 74H72.7667C73.4478 74 74 73.4478 74 72.7667V67.8333C74 67.1522 73.4478 66.6 72.7667 66.6H71.5333V64.1333H72.7667ZM62.9 56.7333H38.2333V32.0667H45.6333V40.7C45.6333 41.3811 46.1856 41.9333 46.8667 41.9333H54.2667C54.9478 41.9333 55.5 41.3811 55.5 40.7V32.0667H62.9V56.7333ZM48.1 32.0667H53.0333V39.4667H48.1V32.0667ZM55.5 29.6H38.2333V14.8H43.1667V20.9667C43.1667 21.6478 43.7189 22.2 44.4 22.2H49.3333C50.0144 22.2 50.5667 21.6478 50.5667 20.9667V14.8H55.5V29.6ZM45.6333 14.8H48.1V19.7333H45.6333V14.8ZM35.7667 2.46667H38.2333V4.93333H35.7667V2.46667ZM30.8333 2.46667H33.3V6.16667C33.3 6.84777 33.8522 7.4 34.5333 7.4H39.4667C40.1478 7.4 40.7 6.84777 40.7 6.16667V2.46667H43.1667V12.3333H30.8333V2.46667ZM25.9 14.8H28.3667V19.7333H25.9V14.8ZM18.5 14.8H23.4333V20.9667C23.4333 21.6478 23.9856 22.2 24.6667 22.2H29.6C30.2811 22.2 30.8333 21.6478 30.8333 20.9667V14.8H35.7667V29.6H18.5V14.8ZM20.9667 32.0667H25.9V39.4667H20.9667V32.0667ZM11.1 32.0667H18.5V40.7C18.5 41.3811 19.0522 41.9333 19.7333 41.9333H27.1333C27.8144 41.9333 28.3667 41.3811 28.3667 40.7V32.0667H35.7667V56.7333H11.1V32.0667ZM2.46667 59.2H71.5333V61.6667H2.46667V59.2ZM9.86667 66.6V64.1333H64.1333V66.6H9.86667ZM4.93333 64.1333H7.4V66.6H4.93333V64.1333ZM71.5333 71.5333H2.46667V69.0667H71.5333V71.5333ZM69.0667 66.6H66.6V64.1333H69.0667V66.6Z" fill="url(#paint0_linear)"/>
<defs>
<linearGradient id="paint0_linear" x1="69.2429" y1="9.51423" x2="-5.75453" y2="13.0802" gradientUnits="userSpaceOnUse">
<stop offset="1" stop-color="#F93F20"/>
</linearGradient>
</defs>
</svg>
