<svg width="73" height="73" viewBox="0 0 73 73" fill="none" xmlns="http://www.w3.org/2000/svg">
<path d="M71.7833 25.55V23.1167C71.7833 21.101 70.149 19.4667 68.1333 19.4667V17.0333C68.1333 16.3614 67.5886 15.8167 66.9167 15.8167V10.95C66.9167 10.2781 66.3719 9.73333 65.7 9.73333H58.4C57.7281 9.73333 57.1833 10.2781 57.1833 10.95V15.8167C56.5114 15.8167 55.9667 16.3614 55.9667 17.0333V19.4667H54.75V15.8167C54.75 15.1448 54.2052 14.6 53.5333 14.6H52.3167V3.65C52.3167 1.6343 50.6824 0 48.6667 0H24.3333C22.3176 0 20.6833 1.6343 20.6833 3.65V14.6H19.4667C18.7948 14.6 18.25 15.1448 18.25 15.8167V19.4667H17.0333V17.0333C17.0333 16.3614 16.4886 15.8167 15.8167 15.8167V10.95C15.8167 10.2781 15.2719 9.73333 14.6 9.73333H7.3C6.6281 9.73333 6.08333 10.2781 6.08333 10.95V15.8167C5.41143 15.8167 4.86667 16.3614 4.86667 17.0333V19.4667C2.85097 19.4667 1.21667 21.101 1.21667 23.1167V25.55C0.544767 25.55 0 26.0948 0 26.7667V41.3667C0 42.0386 0.544767 42.5833 1.21667 42.5833H2.43333V71.7833C2.43333 72.4552 2.9781 73 3.65 73H69.35C70.0219 73 70.5667 72.4552 70.5667 71.7833V42.5833H71.7833C72.4552 42.5833 73 42.0386 73 41.3667V26.7667C73 26.0948 72.4552 25.55 71.7833 25.55ZM59.6167 12.1667H64.4833V15.8167H59.6167V12.1667ZM58.4 18.25H65.7V19.4667H58.4V18.25ZM23.1167 3.65C23.1167 2.9781 23.6614 2.43333 24.3333 2.43333H48.6667C49.3386 2.43333 49.8833 2.9781 49.8833 3.65V14.6H23.1167V3.65ZM20.6833 17.0333H52.3167V19.4667H20.6833V17.0333ZM8.51667 12.1667H13.3833V15.8167H8.51667V12.1667ZM7.3 18.25H14.6V19.4667H7.3V18.25ZM3.65 23.1167C3.65 22.4448 4.19477 21.9 4.86667 21.9H68.1333C68.8052 21.9 69.35 22.4448 69.35 23.1167V25.55H3.65V23.1167ZM13.3833 70.5667V66.9167H59.6167V70.5667H13.3833ZM68.1333 70.5667H62.05V65.7C62.05 65.0281 61.5052 64.4833 60.8333 64.4833H12.1667C11.4948 64.4833 10.95 65.0281 10.95 65.7V70.5667H4.86667V42.5833H68.1333V70.5667ZM70.5667 40.15H2.43333V27.9833H70.5667V40.15Z" fill="url(#paint0_linear)"/>
<path d="M10.95 38.9333C13.6376 38.9333 15.8167 36.7543 15.8167 34.0667C15.8167 31.3791 13.6376 29.2 10.95 29.2C8.2624 29.2 6.08333 31.3791 6.08333 34.0667C6.08333 36.7543 8.2624 38.9333 10.95 38.9333ZM10.95 31.6333C12.2938 31.6333 13.3833 32.7229 13.3833 34.0667C13.3833 35.4105 12.2938 36.5 10.95 36.5C9.6062 36.5 8.51667 35.4105 8.51667 34.0667C8.51667 32.7229 9.6062 31.6333 10.95 31.6333Z" fill="url(#paint1_linear)"/>
<path d="M9.73333 32.85H12.1667V35.2833H9.73333V32.85Z" fill="url(#paint2_linear)"/>
<path d="M62.05 38.9333C64.7376 38.9333 66.9167 36.7543 66.9167 34.0667C66.9167 31.3791 64.7376 29.2 62.05 29.2C59.3624 29.2 57.1833 31.3791 57.1833 34.0667C57.1833 36.7543 59.3624 38.9333 62.05 38.9333ZM62.05 31.6333C63.3938 31.6333 64.4833 32.7229 64.4833 34.0667C64.4833 35.4105 63.3938 36.5 62.05 36.5C60.7062 36.5 59.6167 35.4105 59.6167 34.0667C59.6167 32.7229 60.7062 31.6333 62.05 31.6333Z" fill="url(#paint3_linear)"/>
<path d="M60.8333 32.85H63.2667V35.2833H60.8333V32.85Z" fill="url(#paint4_linear)"/>
<defs>
<linearGradient id="paint0_linear" x1="68.3071" y1="9.38566" x2="-5.67677" y2="12.9035" gradientUnits="userSpaceOnUse">
<stop offset="1" stop-color="#F93F20"/>
</linearGradient>
<linearGradient id="paint1_linear" x1="68.3071" y1="9.38566" x2="-5.67677" y2="12.9035" gradientUnits="userSpaceOnUse">
<stop offset="1" stop-color="#F93F20"/>
</linearGradient>
<linearGradient id="paint2_linear" x1="68.3071" y1="9.38566" x2="-5.67677" y2="12.9035" gradientUnits="userSpaceOnUse">
<stop offset="1" stop-color="#F93F20"/>
</linearGradient>
<linearGradient id="paint3_linear" x1="68.3071" y1="9.38566" x2="-5.67677" y2="12.9035" gradientUnits="userSpaceOnUse">
<stop offset="1" stop-color="#F93F20"/>
</linearGradient>
<linearGradient id="paint4_linear" x1="68.3071" y1="9.38566" x2="-5.67677" y2="12.9035" gradientUnits="userSpaceOnUse">
<stop offset="1" stop-color="#F93F20"/>
</linearGradient>
</defs>
</svg>
