<svg width="69" height="81" viewBox="0 0 69 81" fill="none" xmlns="http://www.w3.org/2000/svg">
<path d="M25.2113 33.7511H17.2498C16.5171 33.7511 15.9229 34.3556 15.9229 35.1011C15.9229 35.8466 16.5171 36.451 17.2498 36.451H25.2113C25.9441 36.451 26.5382 35.8466 26.5382 35.1011C26.5382 34.3556 25.9441 33.7511 25.2113 33.7511Z" fill="url(#paint0_linear)"/>
<path d="M25.2113 71.5502H17.2498C16.5171 71.5502 15.9229 72.1547 15.9229 72.9002C15.9229 73.6457 16.5171 74.2502 17.2498 74.2502H25.2113C25.9441 74.2502 26.5382 73.6457 26.5382 72.9002C26.5382 72.1547 25.9441 71.5502 25.2113 71.5502Z" fill="url(#paint1_linear)"/>
<path d="M67.3979 51.9757L47.9179 17.6523C49.1166 16.4428 50.1772 15.0987 51.0784 13.6459C53.2904 10.0008 53.6856 6.54081 52.1902 3.90613C49.2144 -1.33884 39.8159 -1.29665 30.7937 4.00171C29.5958 4.71558 28.4438 5.50592 27.3443 6.36811L26.2733 5.13152C24.9963 3.66026 23.1601 2.81653 21.2306 2.81521C19.3018 2.81653 17.4656 3.66026 16.1886 5.13152L1.68262 21.8552C0.598019 23.1049 -0.000647382 24.7153 5.25348e-07 26.383V68.8503C0.00777541 75.5573 5.34977 80.9928 11.9422 81H30.519C37.1115 80.9928 42.4541 75.5573 42.4613 68.8503V26.383C42.4587 25.0824 42.09 23.8096 41.4 22.7147H41.4104C42.9971 21.7813 44.5028 20.7128 45.9114 19.5211L65.0998 53.3257C67.6668 57.8455 66.1455 63.6264 61.7015 66.2367L45.614 75.6865C44.9065 76.0978 44.1478 76.4122 43.3586 76.6205C42.6505 76.8123 42.2287 77.5519 42.4172 78.2724C42.6051 78.9928 43.3321 79.422 44.0409 79.2301C45.0529 78.9592 46.0261 78.5538 46.9344 78.0245L63.022 68.5748C68.7372 65.2216 70.6971 57.7888 67.3979 51.9757ZM39.8074 68.8503C39.8016 74.0669 35.6466 78.2941 30.519 78.3001H11.9422C6.81534 78.2941 2.65966 74.0669 2.65383 68.8503V26.383C2.65383 25.3731 3.01601 24.3982 3.67299 23.6409L18.179 6.91917C18.9513 6.02732 20.0625 5.51581 21.2306 5.51515C22.3988 5.51581 23.5106 6.02732 24.2829 6.91917L37.2242 21.84C34.2659 23.2599 31.0328 23.9895 27.7622 23.9757C27.8224 23.6376 27.8568 23.2948 27.8652 22.9514C27.8613 19.2251 24.8933 16.2061 21.2306 16.2015C21.0849 16.2061 20.941 16.2358 20.805 16.2892C20.1363 16.2055 19.5143 16.6511 19.3653 17.3195C18.893 19.1645 19.1249 21.1228 20.0139 22.8011C20.8957 24.2868 22.2673 25.4054 23.8845 25.9565C22.7215 27.0362 21.0401 27.3124 19.6018 26.6611C18.1628 26.0092 17.2402 24.5531 17.2499 22.9514C17.2499 22.2058 16.6558 21.6014 15.923 21.6014C15.1902 21.6014 14.5961 22.2058 14.5961 22.9514C14.5928 25.944 16.5288 28.5806 19.3511 29.4257C22.1727 30.2707 25.2043 29.1218 26.7949 26.6045C27.3171 26.6605 27.8419 26.6901 28.3673 26.6921C32.0714 26.5781 35.7075 25.6467 39.0235 23.9625C39.5295 24.6652 39.8036 25.5122 39.8074 26.383V68.8503ZM25.2114 22.9514C25.2062 23.1491 25.1868 23.3462 25.1531 23.5413C23.9823 23.2315 22.9683 22.486 22.3126 21.4511C21.9032 20.6911 21.7276 19.8236 21.8079 18.9608C23.7568 19.2515 25.2036 20.9475 25.2114 22.9514ZM40.0822 20.3648C39.95 20.4432 39.8172 20.5105 39.6843 20.5863L29.1085 8.39174C30.0713 7.64886 31.0775 6.96597 32.1207 6.34635C39.5956 1.95368 47.7346 1.45733 49.8908 5.26664C50.8769 7.00156 50.496 9.4787 48.8198 12.2393C48.157 13.3104 47.3931 14.313 46.5379 15.2319L46.5243 15.2075C45.706 13.7633 44.3959 12.673 42.8422 12.1417L37.646 10.3547C36.9592 10.1418 36.2303 10.5235 36.0016 11.2156C35.7723 11.9084 36.1267 12.6605 36.8011 12.9129L41.9974 14.6907C42.9375 15.013 43.7299 15.6729 44.2262 16.5469L44.5644 17.1421C43.172 18.357 41.6715 19.4367 40.0822 20.3688V20.3648Z" fill="url(#paint2_linear)"/>
<path d="M45.2933 54.4153C45.6593 55.0606 46.4711 55.2821 47.1054 54.909L56.2986 49.5091C56.7126 49.2698 56.9685 48.8229 56.9698 48.3384C56.9705 47.8539 56.7165 47.4064 56.3038 47.1651C55.8904 46.9239 55.3824 46.9258 54.9717 47.171L45.7785 52.5709C45.1442 52.944 44.9265 53.7693 45.2933 54.4153Z" fill="url(#paint3_linear)"/>
<path d="M46.9732 62.7754C47.3387 63.4214 48.1505 63.6436 48.7854 63.2705L60.2767 56.5206C60.9117 56.1482 61.1294 55.3223 60.7626 54.6763C60.3966 54.0303 59.5847 53.8088 58.9498 54.1813L47.4585 60.9311C46.8242 61.3042 46.6065 62.1295 46.9732 62.7754Z" fill="url(#paint4_linear)"/>
<path d="M47.7229 46.5448C47.9555 46.5448 48.1842 46.4822 48.3863 46.3636L52.9826 43.6636C53.3966 43.4244 53.6525 42.9774 53.6538 42.493C53.6545 42.0091 53.4005 41.5609 52.9878 41.3196C52.575 41.0784 52.0664 41.0804 51.6557 41.3256L47.0594 44.0255C46.5391 44.3314 46.2858 44.9536 46.4413 45.5442C46.5968 46.1342 47.1222 46.5448 47.7229 46.5448Z" fill="url(#paint5_linear)"/>
<defs>
<linearGradient id="paint0_linear" x1="64.5643" y1="10.4142" x2="-5.40901" y2="13.2484" gradientUnits="userSpaceOnUse">
<stop offset="1" stop-color="#F93F20"/>
</linearGradient>
<linearGradient id="paint1_linear" x1="64.5643" y1="10.4142" x2="-5.40901" y2="13.2484" gradientUnits="userSpaceOnUse">
<stop offset="1" stop-color="#F93F20"/>
</linearGradient>
<linearGradient id="paint2_linear" x1="64.5643" y1="10.4142" x2="-5.40901" y2="13.2484" gradientUnits="userSpaceOnUse">
<stop offset="1" stop-color="#F93F20"/>
</linearGradient>
<linearGradient id="paint3_linear" x1="64.5643" y1="10.4142" x2="-5.40901" y2="13.2484" gradientUnits="userSpaceOnUse">
<stop offset="1" stop-color="#F93F20"/>
</linearGradient>
<linearGradient id="paint4_linear" x1="64.5643" y1="10.4142" x2="-5.40901" y2="13.2484" gradientUnits="userSpaceOnUse">
<stop offset="1" stop-color="#F93F20"/>
</linearGradient>
<linearGradient id="paint5_linear" x1="64.5643" y1="10.4142" x2="-5.40901" y2="13.2484" gradientUnits="userSpaceOnUse">
<stop offset="1" stop-color="#F93F20"/>
</linearGradient>
</defs>
</svg>
