<svg width="69" height="69" viewBox="0 0 69 69" fill="none" xmlns="http://www.w3.org/2000/svg">
<path d="M35.6129 69H69V42.2903H35.6129V69ZM48.9677 44.5161H55.6452V46.7419H48.9677V44.5161ZM37.8387 44.5161H46.7419V48.9677H57.871V44.5161H66.7742V66.7742H37.8387V44.5161Z" fill="url(#paint0_linear)"/>
<path d="M62.3226 62.3226H64.5484V64.5484H62.3226V62.3226Z" fill="url(#paint1_linear)"/>
<path d="M57.871 62.3226H60.0968V64.5484H57.871V62.3226Z" fill="url(#paint2_linear)"/>
<path d="M53.4194 62.3226H55.6452V64.5484H53.4194V62.3226Z" fill="url(#paint3_linear)"/>
<path d="M66.7742 22.2581H64.5484V0H35.6129V22.2581H33.3871V0H4.45161V22.2581H2.22581C0.998274 22.2581 0 23.2563 0 24.4839V26.7097C0 27.9372 0.998274 28.9355 2.22581 28.9355H8.08302C7.89827 29.6489 7.79032 30.3912 7.79032 31.1613C7.79032 34.2552 9.37844 36.9829 11.7801 38.5788C4.96577 40.6822 0 47.0369 0 54.5323C0 56.8081 1.37666 58.7635 3.33871 59.6249V69H33.3871V54.5323C33.3871 47.0369 28.4213 40.6822 21.607 38.5788C24.0087 36.9829 25.5968 34.2552 25.5968 31.1613C25.5968 30.3912 25.4888 29.6489 25.3041 28.9355H66.7742C68.0017 28.9355 69 27.9372 69 26.7097V24.4839C69 23.2563 68.0017 22.2581 66.7742 22.2581ZM46.7419 2.22581H53.4194V4.45161H46.7419V2.22581ZM37.8387 2.22581H44.5161V6.67742H55.6452V2.22581H62.3226V22.2581H55.6452V17.8065H44.5161V22.2581H37.8387V2.22581ZM53.4194 22.2581H46.7419V20.0323H53.4194V22.2581ZM15.5806 2.22581H22.2581V4.45161H15.5806V2.22581ZM6.67742 2.22581H13.3548V6.67742H24.4839V2.22581H31.1613V22.2581H24.4839V17.8065H13.3548V22.2581H6.67742V2.22581ZM15.5806 22.2581V20.0323H22.2581V22.2581H15.5806ZM2.22581 26.7097V24.4839H10.8241C10.1007 25.1205 9.48193 25.8717 8.99448 26.7097H2.22581ZM5.56452 60.0968H10.0161V66.7742H5.56452V60.0968ZM16.1371 52.3064H12.2419V46.7419H20.0323V52.3064H25.5968V66.7742H12.2419V60.0968H16.1371C18.285 60.0968 20.0323 58.3495 20.0323 56.2016C20.0323 54.0537 18.285 52.3064 16.1371 52.3064ZM22.2581 48.3156L24.0231 50.0806H22.2581V48.3156ZM31.1613 54.5323V66.7742H27.8226V50.7328L21.6059 44.5161H10.0161V52.3064H6.67742V54.5323H16.1371C17.0575 54.5323 17.8065 55.2812 17.8065 56.2016C17.8065 57.122 17.0575 57.871 16.1371 57.871H5.56452C3.72377 57.871 2.22581 56.373 2.22581 54.5323C2.22581 46.555 8.71626 40.0645 16.6935 40.0645C24.6708 40.0645 31.1613 46.555 31.1613 54.5323ZM16.6935 37.8387C13.011 37.8387 10.0161 34.8439 10.0161 31.1613C10.0161 27.4787 13.011 24.4839 16.6935 24.4839C20.3761 24.4839 23.371 27.4787 23.371 31.1613C23.371 34.8439 20.3761 37.8387 16.6935 37.8387ZM66.7742 26.7097H24.3926C23.9063 25.8717 23.2864 25.1205 22.563 24.4839H66.7742V26.7097Z" fill="url(#paint4_linear)"/>
<path d="M53.4194 57.871H64.5484V60.0968H53.4194V57.871Z" fill="url(#paint5_linear)"/>
<defs>
<linearGradient id="paint0_linear" x1="64.5643" y1="8.87138" x2="-5.36571" y2="12.1964" gradientUnits="userSpaceOnUse">
<stop offset="1" stop-color="#F93F20"/>
</linearGradient>
<linearGradient id="paint1_linear" x1="64.5643" y1="8.87138" x2="-5.36571" y2="12.1964" gradientUnits="userSpaceOnUse">
<stop offset="1" stop-color="#F93F20"/>
</linearGradient>
<linearGradient id="paint2_linear" x1="64.5643" y1="8.87138" x2="-5.36571" y2="12.1964" gradientUnits="userSpaceOnUse">
<stop offset="1" stop-color="#F93F20"/>
</linearGradient>
<linearGradient id="paint3_linear" x1="64.5643" y1="8.87138" x2="-5.36571" y2="12.1964" gradientUnits="userSpaceOnUse">
<stop offset="1" stop-color="#F93F20"/>
</linearGradient>
<linearGradient id="paint4_linear" x1="64.5643" y1="8.87138" x2="-5.36571" y2="12.1964" gradientUnits="userSpaceOnUse">
<stop offset="1" stop-color="#F93F20"/>
</linearGradient>
<linearGradient id="paint5_linear" x1="64.5643" y1="8.87138" x2="-5.36571" y2="12.1964" gradientUnits="userSpaceOnUse">
<stop offset="1" stop-color="#F93F20"/>
</linearGradient>
</defs>
</svg>
