<svg width="30" height="30" viewBox="0 0 30 30" fill="none" xmlns="http://www.w3.org/2000/svg">
<path d="M15 30C11.4483 30 8.00355 28.7365 5.30021 26.4421C4.66547 25.9038 4.07004 25.3069 3.53063 24.6682C1.25373 21.9694 0 18.536 0 15C0 10.9933 1.56023 7.22648 4.39336 4.39336C7.22648 1.56023 10.9933 0 15 0C19.0067 0 22.7735 1.56023 25.6066 4.39336C28.4398 7.22648 30 10.9933 30 15C30 18.536 28.7463 21.9694 26.4697 24.6679C25.93 25.3069 25.3345 25.9038 24.6996 26.4423C21.9964 28.7365 18.5517 30 15 30ZM15 1.875C7.76285 1.875 1.875 7.76285 1.875 15C1.875 18.094 2.97182 21.0981 4.96342 23.4588C5.43568 24.0179 5.95723 24.5408 6.51328 25.0124C8.87836 27.0196 11.8922 28.125 15 28.125C18.1078 28.125 21.1216 27.0196 23.4865 25.0126C24.0428 24.5408 24.5643 24.0179 25.0369 23.4584C27.0282 21.0981 28.125 18.0941 28.125 15C28.125 7.76285 22.2371 1.875 15 1.875Z" fill="#313235"/>
<path d="M15 15C11.8983 15 9.375 12.4767 9.375 9.375C9.375 6.27334 11.8983 3.75 15 3.75C18.1017 3.75 20.625 6.27334 20.625 9.375C20.625 12.4767 18.1017 15 15 15ZM15 5.625C12.9322 5.625 11.25 7.30723 11.25 9.375C11.25 11.4428 12.9322 13.125 15 13.125C17.0678 13.125 18.75 11.4428 18.75 9.375C18.75 7.30723 17.0678 5.625 15 5.625Z" fill="#313235"/>
<path d="M24.0939 26.6651C24.0183 26.6651 23.9415 26.6559 23.8649 26.6367C23.3627 26.5106 23.0578 26.0013 23.1838 25.4991C23.3521 24.8286 23.4375 24.135 23.4375 23.4375C23.4375 18.8505 19.7082 15.0664 15.1235 15.0006L15 15L14.8765 15.0006C10.2918 15.0664 6.5625 18.8505 6.5625 23.4375C6.5625 24.135 6.64787 24.8286 6.81615 25.4991C6.94219 26.0013 6.63727 26.5106 6.13512 26.6367C5.63297 26.7627 5.12361 26.4578 4.99758 25.9556C4.7918 25.136 4.6875 24.2888 4.6875 23.4375C4.6875 20.7083 5.74318 18.1358 7.66008 16.1936C9.5751 14.2533 12.1299 13.1638 14.8539 13.1257C14.8583 13.1256 14.8626 13.1256 14.867 13.1256L15 13.125L15.133 13.1256C15.1374 13.1256 15.1417 13.1256 15.1461 13.1256C17.8701 13.1637 20.4249 14.2532 22.3399 16.1935C24.2568 18.1358 25.3125 20.7083 25.3125 23.4375C25.3125 24.2888 25.2082 25.136 25.0024 25.9556C24.8956 26.3811 24.5136 26.665 24.0939 26.6651Z" fill="#313235"/>
</svg>
