<svg width="36" height="39" viewBox="0 0 36 39" fill="none" xmlns="http://www.w3.org/2000/svg">
<path d="M13.0006 32.8755C11.3465 32.8755 10.0004 34.2216 10.0004 35.8756C10.0004 37.5297 11.3465 38.8758 13.0006 38.8758C14.6546 38.8758 16.0007 37.5297 16.0007 35.8756C16.0007 34.2216 14.6546 32.8755 13.0006 32.8755ZM13.0006 36.8757C12.4485 36.8757 12.0005 36.4277 12.0005 35.8756C12.0005 35.3236 12.4485 34.8756 13.0006 34.8756C13.5526 34.8756 14.0006 35.3236 14.0006 35.8756C14.0006 36.4277 13.5526 36.8757 13.0006 36.8757Z" fill="#313235"/>
<path d="M25.0012 32.8755C23.3472 32.8755 22.0011 34.2216 22.0011 35.8756C22.0011 37.5297 23.3472 38.8758 25.0012 38.8758C26.6553 38.8758 28.0014 37.5297 28.0014 35.8756C28.0014 34.2216 26.6553 32.8755 25.0012 32.8755ZM25.0012 36.8757C24.4492 36.8757 24.0012 36.4277 24.0012 35.8756C24.0012 35.3236 24.4492 34.8756 25.0012 34.8756C25.5533 34.8756 26.0013 35.3236 26.0013 35.8756C26.0013 36.4277 25.5533 36.8757 25.0012 36.8757Z" fill="#313235"/>
<path d="M31.7675 13.36C31.5795 13.132 31.2974 13 31.0014 13H7.49635L6.62631 9.742C6.5103 9.304 6.11428 9 5.66026 9H1.00005C0.448021 9 0 9.448 0 10C0 10.552 0.448021 11 1.00005 11H4.89223L10.0345 30.258C10.1505 30.696 10.5465 31 11.0005 31H27.0012C27.5533 31 28.0013 30.552 28.0013 30C28.0013 29.448 27.5533 29 27.0012 29H11.7685L11.1825 26.804L29.0453 26C29.5114 25.978 29.9014 25.638 29.9834 25.18L31.9835 14.18C32.0375 13.888 31.9575 13.588 31.7675 13.36ZM28.1613 24.038L10.6525 24.826L8.03037 15H29.8034L28.1613 24.038Z" fill="#313235"/>
<circle cx="27" cy="9" r="9" fill="url(#paint0_linear)"/>
<defs>
<linearGradient id="paint0_linear" x1="34.8429" y1="2.31427" x2="16.6002" y2="3.18168" gradientUnits="userSpaceOnUse">
<stop offset="1" stop-color="#F93F20"/>
</linearGradient>
</defs>
</svg>
