<svg width="22" height="20" viewBox="0 0 22 20" fill="none" xmlns="http://www.w3.org/2000/svg">
<path d="M8.5836 15.7642C7.49151 15.7642 6.60278 16.6529 6.60278 17.745C6.60278 18.8371 7.49151 19.7258 8.5836 19.7258C9.67569 19.7258 10.5644 18.8371 10.5644 17.745C10.5644 16.6529 9.67569 15.7642 8.5836 15.7642ZM8.5836 18.4052C8.21913 18.4052 7.92333 18.1094 7.92333 17.745C7.92333 17.3805 8.21913 17.0847 8.5836 17.0847C8.94807 17.0847 9.24387 17.3805 9.24387 17.745C9.24387 18.1094 8.94807 18.4052 8.5836 18.4052Z" fill="white"/>
<path d="M16.5069 15.7642C15.4148 15.7642 14.5261 16.6529 14.5261 17.745C14.5261 18.8371 15.4148 19.7258 16.5069 19.7258C17.599 19.7258 18.4878 18.8371 18.4878 17.745C18.4878 16.6529 17.599 15.7642 16.5069 15.7642ZM16.5069 18.4052C16.1425 18.4052 15.8467 18.1094 15.8467 17.745C15.8467 17.3805 16.1425 17.0847 16.5069 17.0847C16.8714 17.0847 17.1672 17.3805 17.1672 17.745C17.1672 18.1094 16.8714 18.4052 16.5069 18.4052Z" fill="white"/>
<path d="M20.9742 2.87865C20.8501 2.72812 20.6639 2.64097 20.4684 2.64097H4.9494L4.37496 0.489899C4.29837 0.200713 4.0369 0 3.73714 0H0.660272C0.295802 0 0 0.295788 0 0.660241C0 1.02469 0.295802 1.32048 0.660272 1.32048H3.23005L6.62517 14.0354C6.70176 14.3246 6.96323 14.5253 7.26299 14.5253H17.8273C18.1918 14.5253 18.4876 14.2295 18.4876 13.8651C18.4876 13.5006 18.1918 13.2048 17.8273 13.2048H7.77008L7.38316 11.7549L19.1769 11.2241C19.4846 11.2096 19.7421 10.9851 19.7963 10.6827L21.1168 3.42005C21.1525 3.22726 21.0996 3.02919 20.9742 2.87865ZM18.5933 9.92871L7.03322 10.449L5.30198 3.96145H19.6774L18.5933 9.92871Z" fill="white"/>
</svg>
