<svg width="32" height="30" viewBox="0 0 32 30" fill="none" xmlns="http://www.w3.org/2000/svg">
<path d="M13.0006 23.8755C11.3465 23.8755 10.0004 25.2216 10.0004 26.8756C10.0004 28.5297 11.3465 29.8758 13.0006 29.8758C14.6546 29.8758 16.0007 28.5297 16.0007 26.8756C16.0007 25.2216 14.6546 23.8755 13.0006 23.8755ZM13.0006 27.8757C12.4485 27.8757 12.0005 27.4277 12.0005 26.8756C12.0005 26.3236 12.4485 25.8756 13.0006 25.8756C13.5526 25.8756 14.0006 26.3236 14.0006 26.8756C14.0006 27.4277 13.5526 27.8757 13.0006 27.8757Z" fill="#313235"/>
<path d="M25.0012 23.8755C23.3472 23.8755 22.0011 25.2216 22.0011 26.8756C22.0011 28.5297 23.3472 29.8758 25.0012 29.8758C26.6553 29.8758 28.0014 28.5297 28.0014 26.8756C28.0014 25.2216 26.6553 23.8755 25.0012 23.8755ZM25.0012 27.8757C24.4492 27.8757 24.0012 27.4277 24.0012 26.8756C24.0012 26.3236 24.4492 25.8756 25.0012 25.8756C25.5533 25.8756 26.0013 26.3236 26.0013 26.8756C26.0013 27.4277 25.5533 27.8757 25.0012 27.8757Z" fill="#313235"/>
<path d="M31.7675 4.36C31.5795 4.132 31.2974 4 31.0014 4H7.49635L6.62631 0.742C6.5103 0.304 6.11428 0 5.66026 0H1.00005C0.448021 0 0 0.448 0 1C0 1.552 0.448021 2 1.00005 2H4.89223L10.0345 21.258C10.1505 21.696 10.5465 22 11.0005 22H27.0012C27.5533 22 28.0013 21.552 28.0013 21C28.0013 20.448 27.5533 20 27.0012 20H11.7685L11.1825 17.804L29.0453 17C29.5114 16.978 29.9014 16.638 29.9834 16.18L31.9835 5.18C32.0375 4.888 31.9575 4.588 31.7675 4.36ZM28.1613 15.038L10.6525 15.826L8.03037 6H29.8034L28.1613 15.038Z" fill="#313235"/>
</svg>
