<svg width="22" height="23" viewBox="0 0 22 23" fill="none" xmlns="http://www.w3.org/2000/svg">
<path d="M8.5836 18.7642C7.49151 18.7642 6.60278 19.6529 6.60278 20.745C6.60278 21.8371 7.49151 22.7258 8.5836 22.7258C9.67569 22.7258 10.5644 21.8371 10.5644 20.745C10.5644 19.6529 9.67569 18.7642 8.5836 18.7642ZM8.5836 21.4052C8.21913 21.4052 7.92333 21.1094 7.92333 20.745C7.92333 20.3805 8.21913 20.0847 8.5836 20.0847C8.94807 20.0847 9.24387 20.3805 9.24387 20.745C9.24387 21.1094 8.94807 21.4052 8.5836 21.4052Z" fill="white"/>
<path d="M16.5069 18.7642C15.4148 18.7642 14.5261 19.6529 14.5261 20.745C14.5261 21.8371 15.4148 22.7258 16.5069 22.7258C17.599 22.7258 18.4878 21.8371 18.4878 20.745C18.4878 19.6529 17.599 18.7642 16.5069 18.7642ZM16.5069 21.4052C16.1425 21.4052 15.8467 21.1094 15.8467 20.745C15.8467 20.3805 16.1425 20.0847 16.5069 20.0847C16.8714 20.0847 17.1672 20.3805 17.1672 20.745C17.1672 21.1094 16.8714 21.4052 16.5069 21.4052Z" fill="white"/>
<path d="M20.9742 5.87865C20.8501 5.72812 20.6639 5.64097 20.4684 5.64097H4.9494L4.37496 3.4899C4.29837 3.20071 4.0369 3 3.73714 3H0.660272C0.295802 3 0 3.29579 0 3.66024C0 4.02469 0.295802 4.32048 0.660272 4.32048H3.23005L6.62517 17.0354C6.70176 17.3246 6.96323 17.5253 7.26299 17.5253H17.8273C18.1918 17.5253 18.4876 17.2295 18.4876 16.8651C18.4876 16.5006 18.1918 16.2048 17.8273 16.2048H7.77008L7.38316 14.7549L19.1769 14.2241C19.4846 14.2096 19.7421 13.9851 19.7963 13.6827L21.1168 6.42005C21.1525 6.22726 21.0996 6.02919 20.9742 5.87865ZM18.5933 12.9287L7.03322 13.449L5.30198 6.96145H19.6774L18.5933 12.9287Z" fill="white"/>
<g clip-path="url(#clip0)">
<path d="M18.1804 2.61538L18.1805 2.61545L18.1804 2.61538ZM18.1804 2.61538L18.1804 2.61532L18.1804 2.61538ZM17.827 2.26188L17.8269 2.2619L12.4298 7.6591L10.5729 5.8022C10.5729 5.80219 10.5729 5.80218 10.5729 5.80218C10.1901 5.4194 9.56967 5.41953 9.18698 5.80214L9.18696 5.80216C8.80421 6.18488 8.80423 6.80538 9.18695 7.18809L9.18695 7.18809L11.7368 9.73789C11.7368 9.73791 11.7368 9.73792 11.7368 9.73794C12.1196 10.1208 12.7403 10.1204 13.1228 9.73794L19.2129 3.64785C19.2129 3.64784 19.2129 3.64783 19.2129 3.64783C19.5956 3.26508 19.5955 2.6446 19.2129 2.26191C18.8302 1.87915 18.2097 1.8792 17.827 2.26188Z" fill="white" stroke="#7DC900"/>
</g>
<defs>
<clipPath id="clip0">
<rect width="12" height="12" fill="white" transform="translate(7)"/>
</clipPath>
</defs>
</svg>
