<svg width="28" height="28" viewBox="0 0 28 28" fill="none" xmlns="http://www.w3.org/2000/svg">
<g clip-path="url(#clip0)">
<path d="M27.454 4.83476L21.3869 2.6448V0.820312C21.3869 0.367281 21.0196 0 20.5666 0H7.44162C6.98859 0 6.6213 0.367281 6.6213 0.820312V2.64179L0.545906 4.83476C0.118304 4.98914 -0.102305 5.46224 0.0543198 5.88897L6.6213 23.7822V27.1797C6.6213 27.6327 6.98859 28 7.44162 28H20.5666C21.0196 28 21.3869 27.6327 21.3869 27.1797V23.7596L27.9456 5.88897C28.1022 5.46224 27.8816 4.98909 27.454 4.83476ZM1.87864 6.09793L6.6213 4.38605V19.0204L1.87864 6.09793ZM19.7463 26.3594H8.26193V1.64062H19.7463V26.3594ZM21.3869 18.9978V4.38905L26.1213 6.09793L21.3869 18.9978Z" fill="#F93F20"/>
<path d="M10.7227 11.5938H17.2851C17.7382 11.5938 18.1055 11.2265 18.1055 10.7734V5.85156C18.1055 5.39853 17.7382 5.03125 17.2851 5.03125H10.7227C10.2696 5.03125 9.90234 5.39853 9.90234 5.85156V10.7734C9.90234 11.2265 10.2696 11.5938 10.7227 11.5938ZM11.543 6.67188H16.4648V9.95312H11.543V6.67188Z" fill="#F93F20"/>
<path d="M17.2851 14.875H12.3633C11.9102 14.875 11.543 15.2423 11.543 15.6953C11.543 16.1483 11.9102 16.5156 12.3633 16.5156H17.2851C17.7382 16.5156 18.1055 16.1483 18.1055 15.6953C18.1055 15.2423 17.7382 14.875 17.2851 14.875Z" fill="#F93F20"/>
<path d="M10.7227 19.7969H17.2851C17.7382 19.7969 18.1055 19.4296 18.1055 18.9766C18.1055 18.5235 17.7382 18.1562 17.2851 18.1562H10.7227C10.2696 18.1562 9.90234 18.5235 9.90234 18.9766C9.90234 19.4296 10.2696 19.7969 10.7227 19.7969Z" fill="#F93F20"/>
<path d="M10.7227 23.0781H15.6445C16.0975 23.0781 16.4648 22.7108 16.4648 22.2578C16.4648 21.8048 16.0975 21.4375 15.6445 21.4375H10.7227C10.2696 21.4375 9.90234 21.8048 9.90234 22.2578C9.90234 22.7108 10.2696 23.0781 10.7227 23.0781Z" fill="#F93F20"/>
</g>
<defs>
<clipPath id="clip0">
<rect width="28" height="28" fill="white"/>
</clipPath>
</defs>
</svg>
