<svg width="20" height="20" viewBox="0 0 20 20" fill="none" xmlns="http://www.w3.org/2000/svg">
<path d="M10 20C7.32891 20 4.8177 18.9598 2.92891 17.0711C1.0402 15.1823 0 12.6711 0 10C0 7.32891 1.0402 4.8177 2.92891 2.92891C4.8177 1.0402 7.32891 0 10 0C12.6711 0 15.1823 1.0402 17.0711 2.92891C18.9598 4.8177 20 7.32891 20 10C20 12.6711 18.9598 15.1823 17.0711 17.0711C15.1823 18.9598 12.6711 20 10 20ZM10 1.17188C7.64191 1.17188 5.425 2.09016 3.75758 3.75758C2.09016 5.425 1.17188 7.64191 1.17188 10C1.17188 12.3581 2.09016 14.575 3.75758 16.2424C5.425 17.9098 7.64191 18.8281 10 18.8281C12.3581 18.8281 14.575 17.9098 16.2424 16.2424C17.9098 14.575 18.8281 12.3581 18.8281 10C18.8281 7.64191 17.9098 5.425 16.2424 3.75758C14.575 2.09016 12.3581 1.17188 10 1.17188Z" fill="white"/>
<path d="M9.41406 2.34534H10.5859V3.90909H9.41406V2.34534Z" fill="white"/>
<path d="M13.8907 5.27979L14.9963 4.17422L15.8248 5.00273L14.7192 6.1083L13.8907 5.27979Z" fill="white"/>
<path d="M16.0911 9.41406H17.6548V10.5859H16.0911V9.41406Z" fill="white"/>
<path d="M13.8897 14.7214L14.7183 13.8929L15.8238 14.9985L14.9953 15.827L13.8897 14.7214Z" fill="white"/>
<path d="M9.41406 16.0909H10.5859V17.6547H9.41406V16.0909Z" fill="white"/>
<path d="M4.1709 14.9973L5.27647 13.8917L6.10499 14.7203L4.99942 15.8258L4.1709 14.9973Z" fill="white"/>
<path d="M2.34515 9.41406H3.90891V10.5859H2.34515V9.41406Z" fill="white"/>
<path d="M4.17194 5.00159L5.00045 4.17307L6.10603 5.27864L5.27751 6.10716L4.17194 5.00159Z" fill="white"/>
<path d="M14.1364 10.586H9.41406V5.86365H10.5859V9.41412H14.1364V10.586Z" fill="white"/>
</svg>
