<svg width="8" height="8" viewBox="0 0 8 8" fill="none" xmlns="http://www.w3.org/2000/svg">
<path d="M4.44171 4.00074L7.90822 0.53422C8.03027 0.412173 8.03027 0.214298 7.90822 0.0922674C7.78618 -0.0297636 7.5883 -0.0297792 7.46627 0.0922674L3.99975 3.55879L0.533236 0.0922674C0.411189 -0.0297792 0.213314 -0.0297792 0.0912832 0.0922674C-0.0307478 0.214314 -0.0307634 0.412189 0.0912832 0.53422L3.55779 4.00073L0.0912832 7.46725C-0.0307634 7.5893 -0.0307634 7.78717 0.0912832 7.90921C0.152299 7.97022 0.232283 8.00072 0.312267 8.00072C0.392251 8.00072 0.47222 7.97022 0.533251 7.90921L3.99975 4.4427L7.46626 7.90921C7.52727 7.97022 7.60725 8.00072 7.68724 8.00072C7.76722 8.00072 7.84719 7.97022 7.90822 7.90921C8.03027 7.78716 8.03027 7.58928 7.90822 7.46725L4.44171 4.00074Z" fill="#313235"/>
</svg>
