<svg width="12" height="12" viewBox="0 0 12 12" fill="none" xmlns="http://www.w3.org/2000/svg">
<path d="M6.66295 6.00099L11.8627 0.801207C12.0458 0.618137 12.0458 0.321326 11.8627 0.138279C11.6796 -0.0447675 11.3828 -0.0447909 11.1998 0.138279L5.99999 5.33807L0.800231 0.138279C0.617161 -0.0447909 0.320349 -0.0447909 0.137302 0.138279C-0.0457441 0.321349 -0.0457675 0.618161 0.137302 0.801207L5.33707 6.00097L0.137302 11.2008C-0.0457675 11.3838 -0.0457675 11.6806 0.137302 11.8637C0.228826 11.9552 0.348802 12.001 0.468778 12.001C0.588755 12.001 0.708708 11.9552 0.800254 11.8637L5.99999 6.66392L11.1998 11.8637C11.2913 11.9552 11.4113 12.001 11.5312 12.001C11.6512 12.001 11.7712 11.9552 11.8627 11.8637C12.0458 11.6806 12.0458 11.3838 11.8627 11.2008L6.66295 6.00099Z" fill="#F93F20"/>
</svg>
