<svg width="18" height="17" viewBox="0 0 18 17" fill="none" xmlns="http://www.w3.org/2000/svg">
    <g clip-path="url(#clip0_1498_4763)">
        <path
            d="M8.97012 1.44103H2.24251C1.82988 1.44103 1.49502 1.75733 1.49502 2.147V14.8547C1.49502 15.2444 1.82992 15.5606 2.24251 15.5606H8.97012C9.38348 15.5606 9.71761 15.8762 9.71761 16.2666C9.71761 16.657 9.38348 16.9726 8.97012 16.9726H2.24251C1.00614 16.9726 0 16.0224 0 14.8547V2.14703C0 0.979343 1.00614 0.029103 2.24251 0.029103H8.97012C9.38348 0.029103 9.71761 0.344665 9.71761 0.735068C9.71761 1.12547 9.38348 1.44103 8.97012 1.44103Z"
            fill="#313235" />
        <path
            d="M17.7772 9.002L13.2323 13.2379C12.9393 13.5118 12.4654 13.5083 12.1753 13.2308C11.8853 12.9534 11.8883 12.5065 12.1828 12.2326L15.4307 9.20533H6.72747C6.31411 9.20533 5.97998 8.88977 5.97998 8.49937C5.97998 8.10897 6.31411 7.79337 6.72747 7.79337H15.4307L12.1828 4.76614C11.8883 4.49222 11.8861 4.04533 12.1753 3.76789C12.3218 3.6281 12.5147 3.55751 12.7076 3.55751C12.8974 3.55751 13.0873 3.62528 13.2323 3.76085L17.7772 7.99674C17.9192 8.12945 17.9999 8.31021 17.9999 8.4994C17.9999 8.68853 17.9199 8.86855 17.7772 9.002Z"
            fill="#313235" />
    </g>
    <defs>
        <clipPath id="clip0_1498_4763">
            <rect width="18" height="17" fill="white" transform="matrix(1 0 0 -1 0 17)" />
        </clipPath>
    </defs>
</svg>
