<svg width="18" height="18" viewBox="0 0 18 18" fill="none" xmlns="http://www.w3.org/2000/svg">
    <g clip-path="url(#clip0_1498_4757)">
        <path
            d="M17.7977 6.87954L14.9065 4.47204V2.53141C14.9065 2.38223 14.8472 2.23915 14.7417 2.13367C14.6362 2.02818 14.4932 1.96891 14.344 1.96891C14.1948 1.96891 14.0517 2.02818 13.9462 2.13367C13.8407 2.23915 13.7815 2.38223 13.7815 2.53141V3.53266L10.0802 0.450163C9.77699 0.197601 9.39485 0.0592957 9.00022 0.0592957C8.60559 0.0592957 8.22344 0.197601 7.92022 0.450163L0.202716 6.87954C0.0878441 6.97502 0.0156055 7.11222 0.00189194 7.26096C-0.0118217 7.4097 0.0341131 7.55779 0.129591 7.67266C0.225069 7.78754 0.362269 7.85977 0.511009 7.87349C0.659749 7.8872 0.807844 7.84127 0.922716 7.74579L8.64022 1.3136C8.74129 1.22941 8.86867 1.18331 9.00022 1.18331C9.13176 1.18331 9.25914 1.22941 9.36022 1.3136L15.7502 6.63766V16.3127C15.7502 16.4618 15.691 16.6049 15.5855 16.7104C15.48 16.8159 15.3369 16.8752 15.1877 16.8752H12.3752V10.6877C12.3752 10.2401 12.1974 9.81089 11.881 9.49442C11.5645 9.17795 11.1353 9.00016 10.6877 9.00016H7.31272C6.86516 9.00016 6.43594 9.17795 6.11947 9.49442C5.80301 9.81089 5.62522 10.2401 5.62522 10.6877V16.8752H2.81272C2.66353 16.8752 2.52046 16.8159 2.41497 16.7104C2.30948 16.6049 2.25022 16.4618 2.25022 16.3127V9.56266C2.25022 9.41348 2.19095 9.2704 2.08546 9.16492C1.97997 9.05943 1.8369 9.00016 1.68772 9.00016C1.53853 9.00016 1.39546 9.05943 1.28997 9.16492C1.18448 9.2704 1.12522 9.41348 1.12522 9.56266V16.3127C1.12522 16.7602 1.30301 17.1894 1.61947 17.5059C1.93594 17.8224 2.36516 18.0002 2.81272 18.0002H15.1877C15.6353 18.0002 16.0645 17.8224 16.381 17.5059C16.6974 17.1894 16.8752 16.7602 16.8752 16.3127V7.57704L17.0777 7.74579C17.1789 7.82965 17.3063 7.87542 17.4377 7.87516C17.5535 7.87539 17.6666 7.83986 17.7615 7.77341C17.8564 7.70697 17.9284 7.61286 17.9678 7.50394C18.0072 7.39501 18.012 7.27658 17.9815 7.16483C17.9511 7.05307 17.8869 6.95344 17.7977 6.87954ZM6.75022 16.8752V10.6877C6.75022 10.5385 6.80948 10.3954 6.91497 10.2899C7.02046 10.1844 7.16353 10.1252 7.31272 10.1252H10.6877C10.8369 10.1252 10.98 10.1844 11.0855 10.2899C11.191 10.3954 11.2502 10.5385 11.2502 10.6877V16.8752H6.75022Z"
            fill="#313235" />
        <path
            d="M8.4375 14.0625C8.74816 14.0625 9 13.8107 9 13.5C9 13.1893 8.74816 12.9375 8.4375 12.9375C8.12684 12.9375 7.875 13.1893 7.875 13.5C7.875 13.8107 8.12684 14.0625 8.4375 14.0625Z"
            fill="#313235" />
    </g>
    <defs>
        <clipPath id="clip0_1498_4757">
            <rect width="18" height="18" fill="white" />
        </clipPath>
    </defs>
</svg>
