<svg width="23" height="23" viewBox="0 0 23 23" fill="none" xmlns="http://www.w3.org/2000/svg">
    <path
        d="M16.5312 8.625H7.90625V6.26031C7.90625 5.36247 8.26292 4.5014 8.89779 3.86654C9.53265 3.23167 10.3937 2.875 11.2916 2.875H11.7084C12.6063 2.875 13.4673 3.23167 14.1022 3.86654C14.7371 4.5014 15.0938 5.36247 15.0938 6.26031C15.0938 6.45094 15.1695 6.63375 15.3043 6.76855C15.4391 6.90334 15.6219 6.97906 15.8125 6.97906C16.0031 6.97906 16.1859 6.90334 16.3207 6.76855C16.4555 6.63375 16.5312 6.45094 16.5312 6.26031C16.5293 4.98181 16.0206 3.75621 15.1166 2.85217C14.2125 1.94813 12.9869 1.4394 11.7084 1.4375H11.2916C10.0131 1.4394 8.78746 1.94813 7.88342 2.85217C6.97938 3.75621 6.47065 4.98181 6.46875 6.26031V8.625C5.89688 8.625 5.34843 8.85218 4.94405 9.25655C4.53968 9.66093 4.3125 10.2094 4.3125 10.7812V17.4656C4.3144 18.5516 4.74664 19.5926 5.51455 20.3605C6.28245 21.1284 7.3234 21.5606 8.40937 21.5625H14.5906C15.6766 21.5606 16.7176 21.1284 17.4855 20.3605C18.2534 19.5926 18.6856 18.5516 18.6875 17.4656V10.7812C18.6875 10.2094 18.4603 9.66093 18.0559 9.25655C17.6516 8.85218 17.1031 8.625 16.5312 8.625ZM17.25 17.4656C17.25 18.1709 16.9698 18.8474 16.4711 19.3461C15.9724 19.8448 15.2959 20.125 14.5906 20.125H8.40937C7.70406 20.125 7.02764 19.8448 6.52891 19.3461C6.03018 18.8474 5.75 18.1709 5.75 17.4656V10.7812C5.75 10.5906 5.82573 10.4078 5.96052 10.273C6.09531 10.1382 6.27813 10.0625 6.46875 10.0625H16.5312C16.7219 10.0625 16.9047 10.1382 17.0395 10.273C17.1743 10.4078 17.25 10.5906 17.25 10.7812V17.4656ZM12.2188 14.8925V17.25C12.2188 17.4406 12.143 17.6234 12.0082 17.7582C11.8734 17.893 11.6906 17.9688 11.5 17.9688C11.3094 17.9688 11.1266 17.893 10.9918 17.7582C10.857 17.6234 10.7812 17.4406 10.7812 17.25V14.8925C10.5072 14.7343 10.293 14.4901 10.1719 14.1977C10.0508 13.9053 10.0296 13.5812 10.1115 13.2755C10.1934 12.9699 10.3739 12.6998 10.6249 12.5071C10.876 12.3145 11.1836 12.2101 11.5 12.2101C11.8164 12.2101 12.124 12.3145 12.3751 12.5071C12.6261 12.6998 12.8066 12.9699 12.8885 13.2755C12.9704 13.5812 12.9492 13.9053 12.8281 14.1977C12.707 14.4901 12.4928 14.7343 12.2188 14.8925Z"
        fill="#313235" />
</svg>
