<svg width="191" height="34" viewBox="0 0 191 34" fill="none" xmlns="http://www.w3.org/2000/svg">
<path d="M9.55322 16.481H15.9448L12.8003 6.56885L9.55322 16.481ZM9.87793 0.80957H15.8252L24.7461 26H19.0381L17.4146 20.8218H8.13477L6.3916 26H0.888672L9.87793 0.80957Z" fill="#313235"/>
<path d="M37.7515 7.37207H42.981L36.2646 26H31.1206L24.4385 7.37207H29.9072L33.7866 21.1123L37.7515 7.37207Z" fill="#313235"/>
<path d="M44.2798 13.9346H54.0894V18.5488H44.2798V13.9346Z" fill="#313235"/>
<path d="M70.2393 16.686C70.2393 15.2505 69.9089 13.9801 69.248 12.875C68.5986 11.7699 67.5391 11.2173 66.0693 11.2173C64.3034 11.2173 63.09 12.0547 62.4292 13.7295C62.0874 14.6182 61.9165 15.7461 61.9165 17.1133C61.9165 19.278 62.4919 20.799 63.6426 21.6763C64.3262 22.189 65.1351 22.4453 66.0693 22.4453C67.4251 22.4453 68.4562 21.9212 69.1626 20.873C69.8804 19.8249 70.2393 18.4292 70.2393 16.686ZM67.4707 6.96191C69.6468 6.96191 71.4868 7.76514 72.9907 9.37158C74.506 10.978 75.2637 13.3364 75.2637 16.4468C75.2637 19.728 74.5231 22.2288 73.042 23.9492C71.5723 25.6696 69.6753 26.5298 67.3511 26.5298C65.87 26.5298 64.6395 26.1595 63.6597 25.4189C63.1242 25.0088 62.6001 24.4106 62.0874 23.6245V33.3315H57.2681V7.37207H61.9336V10.1235C62.4577 9.31462 63.0159 8.6766 63.6084 8.20947C64.6908 7.37777 65.9782 6.96191 67.4707 6.96191Z" fill="#313235"/>
<path d="M89.0723 16.9424C88.7646 17.1361 88.4513 17.2956 88.1323 17.4209C87.8247 17.5348 87.3975 17.6431 86.8506 17.7456L85.7568 17.9507C84.7314 18.133 83.9966 18.3551 83.5522 18.6172C82.8003 19.0615 82.4243 19.7508 82.4243 20.6851C82.4243 21.5168 82.6522 22.1206 83.1079 22.4966C83.575 22.8612 84.139 23.0435 84.7998 23.0435C85.848 23.0435 86.8107 22.7358 87.688 22.1206C88.5767 21.5054 89.0381 20.3831 89.0723 18.7539V16.9424ZM86.1157 14.6694C87.0158 14.5555 87.6595 14.4131 88.0469 14.2422C88.7419 13.946 89.0894 13.4845 89.0894 12.8579C89.0894 12.0946 88.8216 11.5705 88.2861 11.2856C87.762 10.9894 86.9873 10.8413 85.9619 10.8413C84.8112 10.8413 83.9966 11.1261 83.5181 11.6958C83.1763 12.1174 82.9484 12.687 82.8345 13.4048H78.1348C78.2373 11.7756 78.693 10.4368 79.502 9.38867C80.7894 7.74805 82.9997 6.92773 86.1328 6.92773C88.1722 6.92773 89.9837 7.33219 91.5674 8.14111C93.151 8.95003 93.9429 10.4767 93.9429 12.7212V21.2661C93.9429 21.8586 93.9543 22.5763 93.9771 23.4194C94.0112 24.0575 94.1081 24.4904 94.2676 24.7183C94.4271 24.9461 94.6663 25.1341 94.9854 25.2822V26H89.6875C89.5394 25.624 89.4369 25.2708 89.3799 24.9404C89.3229 24.61 89.2773 24.234 89.2432 23.8125C88.571 24.5417 87.7962 25.1626 86.9189 25.6753C85.8708 26.2791 84.6859 26.5811 83.3643 26.5811C81.6781 26.5811 80.2824 26.1025 79.1772 25.1455C78.0835 24.1771 77.5366 22.8099 77.5366 21.0439C77.5366 18.7539 78.4196 17.0962 80.1855 16.0708C81.154 15.5125 82.5781 15.1138 84.458 14.8745L86.1157 14.6694Z" fill="#313235"/>
<path d="M108.401 6.92773C108.492 6.92773 108.566 6.93343 108.623 6.94482C108.691 6.94482 108.834 6.95052 109.05 6.96191V11.9521C108.743 11.918 108.469 11.8952 108.23 11.8838C107.991 11.8724 107.797 11.8667 107.649 11.8667C105.689 11.8667 104.373 12.5047 103.701 13.7808C103.325 14.4985 103.137 15.6037 103.137 17.0962V26H98.2324V7.37207H102.881V10.6191C103.633 9.37728 104.288 8.52848 104.846 8.07275C105.758 7.30941 106.943 6.92773 108.401 6.92773Z" fill="#313235"/>
<path d="M110.007 11.0122V7.54297H112.605V2.34766H117.424V7.54297H120.449V11.0122H117.424V20.856C117.424 21.6193 117.521 22.0978 117.715 22.2915C117.909 22.4738 118.501 22.5649 119.492 22.5649C119.64 22.5649 119.794 22.5649 119.954 22.5649C120.125 22.5535 120.29 22.5422 120.449 22.5308V26.1709L118.142 26.2563C115.841 26.3361 114.268 25.9373 113.425 25.0601C112.878 24.5018 112.605 23.6416 112.605 22.4795V11.0122H110.007Z" fill="#313235"/>
<path d="M127.371 20.0527C127.473 20.9186 127.695 21.5339 128.037 21.8984C128.641 22.5479 129.757 22.8726 131.387 22.8726C132.344 22.8726 133.101 22.7301 133.66 22.4453C134.229 22.1605 134.514 21.7332 134.514 21.1636C134.514 20.6167 134.286 20.2008 133.831 19.916C133.375 19.6312 131.683 19.1413 128.755 18.4463C126.647 17.9222 125.16 17.2671 124.294 16.481C123.429 15.7062 122.996 14.5897 122.996 13.1313C122.996 11.411 123.668 9.93555 125.012 8.70508C126.368 7.46322 128.271 6.84229 130.72 6.84229C133.044 6.84229 134.936 7.30941 136.394 8.24365C137.864 9.1665 138.707 10.7673 138.923 13.0459H134.053C133.984 12.4193 133.808 11.9237 133.523 11.5591C132.987 10.8983 132.076 10.5679 130.789 10.5679C129.729 10.5679 128.971 10.7331 128.516 11.0635C128.071 11.3939 127.849 11.7812 127.849 12.2256C127.849 12.7839 128.088 13.1883 128.567 13.439C129.045 13.701 130.737 14.151 133.643 14.7891C135.579 15.2448 137.032 15.9341 138 16.8569C138.958 17.7912 139.436 18.959 139.436 20.3604C139.436 22.2061 138.747 23.7157 137.368 24.8892C136.001 26.0513 133.882 26.6323 131.011 26.6323C128.083 26.6323 125.918 26.0171 124.517 24.7866C123.127 23.5448 122.432 21.9668 122.432 20.0527H127.371Z" fill="#313235"/>
<path d="M142.974 20.9072H148.152V26H142.974V20.9072Z" fill="#313235"/>
<path d="M162.866 6.96191C165.316 6.96191 167.23 7.84489 168.608 9.61084C169.998 11.3768 170.693 13.6554 170.693 16.4468C170.693 19.3407 170.01 21.7389 168.643 23.6416C167.275 25.5443 165.367 26.4956 162.917 26.4956C161.379 26.4956 160.143 26.188 159.209 25.5728C158.651 25.2082 158.047 24.5702 157.397 23.6587V26H152.629V0.84375H157.483V9.79883C158.098 8.93294 158.776 8.27214 159.517 7.81641C160.394 7.24674 161.51 6.96191 162.866 6.96191ZM161.619 22.4795C162.872 22.4795 163.846 21.9725 164.541 20.9585C165.236 19.9445 165.583 18.6115 165.583 16.9595C165.583 15.6379 165.413 14.5441 165.071 13.6782C164.421 12.0376 163.225 11.2173 161.482 11.2173C159.716 11.2173 158.503 12.0205 157.842 13.627C157.5 14.4814 157.329 15.5866 157.329 16.9424C157.329 18.5374 157.682 19.859 158.389 20.9072C159.095 21.9554 160.172 22.4795 161.619 22.4795Z" fill="#313235"/>
<path d="M174.949 29.5718L175.564 29.606C176.042 29.6287 176.498 29.6117 176.931 29.5547C177.364 29.4977 177.729 29.3667 178.025 29.1616C178.31 28.9679 178.572 28.5635 178.811 27.9482C179.062 27.333 179.164 26.957 179.119 26.8203L172.283 7.37207H177.7L181.768 21.1123L185.613 7.37207H190.791L184.399 25.6924C183.169 29.2243 182.195 31.4118 181.477 32.2549C180.759 33.1094 179.324 33.5366 177.17 33.5366C176.737 33.5366 176.39 33.5309 176.128 33.5195C175.866 33.5195 175.473 33.5024 174.949 33.4683V29.5718Z" fill="#313235"/>
</svg>
