<svg version="1.1" id="Слой_1" xmlns="http://www.w3.org/2000/svg" xmlns:xlink="http://www.w3.org/1999/xlink" x="0px" y="0px"
	 viewBox="0 0 352 118" style="enable-background:new 0 0 352 118;" xml:space="preserve">
<style type="text/css">
	.st0{fill:#F93F20;}
	.st1{fill:#FFFFFF;}
	.st2{fill:#7C7C7C;}
	.st3{fill:#313235;}
</style>
<g id="_x34_">
	<path class="st0" d="M107,118H10.9c-6.1,0-11-4.9-11-11V10.9c0-6.1,4.9-11,11-11H107c6.1,0,11,4.9,11,11V107
		C118,113.1,113.1,118,107,118z"/>
	<g>
		<path class="st1" d="M41.5,30.8l19,49.9H49l-3.9-11.1H26.5l-4.1,11.1H11.3l19-49.9H41.5z M42.4,61.6L35.9,43l-6.6,18.6H42.4z"/>
		<path class="st1" d="M59.3,30.9h11.4l11.2,35l11.3-35h11.3L88,80.7H75.6L59.3,30.9z"/>
	</g>
	<g>
		<path class="st2" d="M142.9,37.4h18.4c4.8,0,8.6,1.2,11.4,3.5c2.8,2.3,4.2,5.7,4.2,10.3c0,4.5-1.4,7.9-4.2,10.2
			c-2.8,2.3-6.5,3.5-11,3.5h-9.6v15.4h-9.3V37.4z M152.2,45.1v12.3h8.3c4.9,0,7.3-2,7.3-6.1c0-4.1-2.4-6.2-7.3-6.2H152.2z"/>
		<path class="st2" d="M204.1,37.3l16.3,42.8h-9.8l-3.4-9.5h-15.9l-3.5,9.5h-9.6l16.3-42.8H204.1z M204.9,63.7l-5.6-15.9l-5.7,15.9
			H204.9z"/>
		<path class="st2" d="M224.3,37.4h21.2c4.2,0,7.7,1,10.4,3c2.7,2,4,5,4,9.1c0,2.5-0.6,4.6-1.8,6.5c-1.2,1.9-2.9,3.2-5,4
			c3.7,0.8,5.8,4.1,6.3,10c0,0.2,0,0.8,0.1,1.9c0.1,1,0.2,1.9,0.2,2.5c0.1,0.6,0.2,1.4,0.3,2.3c0.1,0.9,0.3,1.6,0.5,2.2
			c0.2,0.6,0.5,1,0.8,1.3h-9.7c-0.3-0.6-0.6-1.4-0.7-2.4c-0.2-1-0.3-2.2-0.4-3.8c-0.1-1.5-0.2-2.4-0.2-2.5c-0.3-3-1.1-5.1-2.3-6.2
			c-1.2-1.2-3.3-1.7-6.3-1.7h-8.3v16.7h-9.3V37.4z M233.6,44.8v11.8h8.9c2.6,0,4.6-0.4,6.1-1.2c1.5-0.8,2.2-2.4,2.2-4.8
			c0-2.2-0.7-3.8-2.1-4.6c-1.4-0.8-3.3-1.2-5.7-1.2H233.6z"/>
		<path class="st2" d="M299,37.4v8h-12.8v34.7h-9.4V45.4h-12.8v-8H299z"/>
		<path class="st2" d="M335.5,50.1h-8.9c-0.4-4.2-3.1-6.4-8.1-6.4c-2.2,0-3.9,0.4-5.1,1.3c-1.2,0.9-1.8,2.1-1.8,3.6
			c0,0.5,0.1,1,0.2,1.4c0.2,0.4,0.5,0.8,0.9,1.1c0.4,0.3,0.9,0.6,1.3,0.8c0.4,0.2,1.1,0.5,2,0.7c0.9,0.3,1.6,0.5,2.3,0.7
			c0.7,0.2,1.7,0.5,3,0.8c1.3,0.3,2.4,0.6,3.4,0.9c4.2,1.2,7.3,2.7,9.4,4.5c2.1,1.8,3.1,4.4,3.1,7.7c0,2.4-0.5,4.6-1.5,6.4
			c-1,1.8-2.4,3.3-4,4.3c-1.7,1.1-3.6,1.8-5.6,2.3c-2,0.5-4.2,0.8-6.5,0.8c-5.8,0-10.3-1.3-13.6-4c-3.3-2.7-4.9-6.4-5-11.3h9.3
			c0.2,5.4,3.4,8,9.7,8c2.4,0,4.4-0.5,5.8-1.5c1.4-1,2.1-2.4,2.1-4.2c0-1.5-0.7-2.6-2-3.2c-1.3-0.7-4-1.6-8.2-2.8
			c-0.2,0-0.4-0.1-0.5-0.1c-0.1,0-0.3-0.1-0.5-0.1s-0.4-0.1-0.5-0.1c-1.4-0.4-2.4-0.7-3-0.9c-0.6-0.2-1.5-0.5-2.7-0.9
			c-1.2-0.4-2.1-0.8-2.7-1.2c-0.6-0.4-1.3-0.9-2.1-1.5c-0.8-0.6-1.4-1.3-1.8-2c-0.4-0.7-0.7-1.6-1-2.6c-0.3-1-0.5-2.1-0.5-3.3
			c0-3.9,1.5-7,4.5-9.3c3-2.3,7-3.5,11.9-3.5c4.8,0,8.7,1.1,11.8,3.4C333.9,42.1,335.5,45.5,335.5,50.1z"/>
		<path class="st2" d="M351.8,70.7v9.4h-9.5v-9.4H351.8z"/>
	</g>
	<g>
		<path class="st3" d="M140.1,37.4h18.4c4.8,0,8.6,1.2,11.4,3.5c2.8,2.3,4.2,5.7,4.2,10.3c0,4.5-1.4,7.9-4.2,10.2
			c-2.8,2.3-6.5,3.5-11,3.5h-9.6v15.4h-9.3V37.4z M149.4,45.1v12.3h8.3c4.9,0,7.3-2,7.3-6.1c0-4.1-2.4-6.2-7.3-6.2H149.4z"/>
		<path class="st3" d="M201.3,37.3l16.3,42.8h-9.8l-3.4-9.5h-15.9l-3.5,9.5h-9.6l16.3-42.8H201.3z M202.1,63.7l-5.6-15.9l-5.7,15.9
			H202.1z"/>
		<path class="st3" d="M221.5,37.4h21.2c4.2,0,7.7,1,10.4,3c2.7,2,4,5,4,9.1c0,2.5-0.6,4.6-1.8,6.5c-1.2,1.9-2.9,3.2-5,4
			c3.7,0.8,5.8,4.1,6.3,10c0,0.2,0,0.8,0.1,1.9c0.1,1,0.2,1.9,0.2,2.5c0.1,0.6,0.2,1.4,0.3,2.3c0.1,0.9,0.3,1.6,0.5,2.2
			c0.2,0.6,0.5,1,0.8,1.3H249c-0.3-0.6-0.6-1.4-0.7-2.4c-0.2-1-0.3-2.2-0.4-3.8c-0.1-1.5-0.2-2.4-0.2-2.5c-0.3-3-1.1-5.1-2.3-6.2
			c-1.2-1.2-3.3-1.7-6.3-1.7h-8.3v16.7h-9.3V37.4z M230.8,44.8v11.8h8.9c2.6,0,4.6-0.4,6.1-1.2c1.5-0.8,2.2-2.4,2.2-4.8
			c0-2.2-0.7-3.8-2.1-4.6c-1.4-0.8-3.3-1.2-5.7-1.2H230.8z"/>
		<path class="st3" d="M296.2,37.4v8h-12.8v34.7H274V45.4h-12.8v-8H296.2z"/>
		<path class="st3" d="M332.8,50.1h-8.9c-0.4-4.2-3.1-6.4-8.1-6.4c-2.2,0-3.9,0.4-5.1,1.3c-1.2,0.9-1.8,2.1-1.8,3.6
			c0,0.5,0.1,1,0.2,1.4c0.2,0.4,0.5,0.8,0.9,1.1c0.4,0.3,0.9,0.6,1.3,0.8c0.4,0.2,1.1,0.5,2,0.7c0.9,0.3,1.6,0.5,2.3,0.7
			c0.7,0.2,1.7,0.5,3,0.8c1.3,0.3,2.4,0.6,3.4,0.9c4.2,1.2,7.3,2.7,9.4,4.5c2.1,1.8,3.1,4.4,3.1,7.7c0,2.4-0.5,4.6-1.5,6.4
			c-1,1.8-2.4,3.3-4,4.3c-1.7,1.1-3.6,1.8-5.6,2.3c-2,0.5-4.2,0.8-6.5,0.8c-5.8,0-10.3-1.3-13.6-4c-3.3-2.7-4.9-6.4-5-11.3h9.3
			c0.2,5.4,3.4,8,9.7,8c2.4,0,4.4-0.5,5.8-1.5c1.4-1,2.1-2.4,2.1-4.2c0-1.5-0.7-2.6-2-3.2c-1.3-0.7-4-1.6-8.2-2.8
			c-0.2,0-0.4-0.1-0.5-0.1c-0.1,0-0.3-0.1-0.5-0.1s-0.4-0.1-0.5-0.1c-1.4-0.4-2.4-0.7-3-0.9c-0.6-0.2-1.5-0.5-2.7-0.9
			c-1.2-0.4-2.1-0.8-2.7-1.2c-0.6-0.4-1.3-0.9-2.1-1.5c-0.8-0.6-1.4-1.3-1.8-2c-0.4-0.7-0.7-1.6-1-2.6c-0.3-1-0.5-2.1-0.5-3.3
			c0-3.9,1.5-7,4.5-9.3c3-2.3,7-3.5,11.9-3.5c4.8,0,8.7,1.1,11.8,3.4C331.1,42.1,332.7,45.5,332.8,50.1z"/>
		<path class="st3" d="M349,70.7v9.4h-9.5v-9.4H349z"/>
	</g>
</g>
</svg>
