<svg width="20" height="16" viewBox="0 0 20 16" fill="none" xmlns="http://www.w3.org/2000/svg">
<path d="M17.4724 0.674927H2.52761C1.13391 0.674927 0 1.80884 0 3.20253V12.7972C0 14.1909 1.13391 15.3248 2.52761 15.3248H17.4724C18.8661 15.3248 20 14.1909 20 12.7972V3.20253C20 1.80884 18.8661 0.674927 17.4724 0.674927ZM17.0775 2.30536L10 7.77264L2.9225 2.30536H17.0775ZM17.4724 13.6945H2.52761C2.03293 13.6945 1.63043 13.292 1.63043 12.7973V3.36754L9.50163 9.44797C9.64837 9.56134 9.82424 9.61797 10 9.61797C10.1758 9.61797 10.3516 9.56134 10.4984 9.44797L18.3696 3.36754V12.7972C18.3696 13.292 17.9671 13.6945 17.4724 13.6945Z" fill="#313235"/>
</svg>
