<svg width="20" height="20" viewBox="0 0 20 20" fill="none" xmlns="http://www.w3.org/2000/svg">
<path d="M17.4724 2.67493H2.52761C1.13391 2.67493 0 3.80884 0 5.20253V14.7972C0 16.1909 1.13391 17.3248 2.52761 17.3248H17.4724C18.8661 17.3248 20 16.1909 20 14.7972V5.20253C20 3.80884 18.8661 2.67493 17.4724 2.67493ZM17.0775 4.30536L10 9.77264L2.9225 4.30536H17.0775ZM17.4724 15.6945H2.52761C2.03293 15.6945 1.63043 15.292 1.63043 14.7973V5.36754L9.50163 11.448C9.64837 11.5613 9.82424 11.618 10 11.618C10.1758 11.618 10.3516 11.5613 10.4984 11.448L18.3696 5.36754V14.7972C18.3696 15.292 17.9671 15.6945 17.4724 15.6945Z" fill="white"/>
</svg>
