<?xml version="1.0" encoding="utf-8"?>
<!-- Generator: Adobe Illustrator 25.0.0, SVG Export Plug-In . SVG Version: 6.00 Build 0)  -->
<svg version="1.1" id="Layer_1" xmlns="http://www.w3.org/2000/svg" xmlns:xlink="http://www.w3.org/1999/xlink" x="0px" y="0px"
	 viewBox="0 0 74 45" style="enable-background:new 0 0 74 45;" xml:space="preserve">
<style type="text/css">
	.st0{fill:#FFFFFF;}
	.st1{fill:none;stroke:#FFFFFF;}
	.st2{fill:#FFB600;}
	.st3{fill:#F7981D;}
	.st4{fill:#FF8500;}
	.st5{fill:#FF5050;}
	.st6{fill:#E52836;}
	.st7{fill:#CB2026;}
	.st8{fill:#DCE5E5;}
</style>
<g>
	<path class="st0" d="M3,0h68c1.7,0,3,1.3,3,3v39c0,1.7-1.3,3-3,3H3c-1.7,0-3-1.3-3-3V3C0,1.3,1.3,0,3,0z"/>
	<path class="st1" d="M3,0.5h68c1.4,0,2.5,1.1,2.5,2.5v39c0,1.4-1.1,2.5-2.5,2.5H3c-1.4,0-2.5-1.1-2.5-2.5V3C0.5,1.6,1.6,0.5,3,0.5z
		"/>
</g>
<path class="st2" d="M58,22c0,6.6-5.3,12-12,12c-6.6,0-12-5.4-12-12c0-6.6,5.3-12,11.9-12C52.7,10,58,15.4,58,22z"/>
<path class="st3" d="M46,10c6.6,0,12,5.4,12,12c0,6.6-5.3,12-12,12c-6.6,0-12-5.4-12-12"/>
<path class="st4" d="M46,10c6.6,0,12,5.4,12,12c0,6.6-5.3,12-12,12"/>
<path class="st5" d="M29.9,10C23.3,10.1,18,15.4,18,22c0,6.6,5.3,12,12,12c3.1,0,5.9-1.2,8.1-3.1c0.4-0.4,0.8-0.8,1.2-1.3h-2.5
	c-0.3-0.4-0.6-0.8-0.9-1.2h4.3c0.3-0.4,0.5-0.8,0.7-1.3h-5.7c-0.2-0.4-0.4-0.8-0.5-1.3h6.6c0.4-1.2,0.6-2.5,0.6-3.8
	c0-0.9-0.1-1.7-0.3-2.5h-7.4c0.1-0.4,0.2-0.8,0.3-1.3h6.6c-0.1-0.4-0.3-0.9-0.5-1.3h-5.6c0.2-0.4,0.4-0.8,0.7-1.3h4.3
	c-0.3-0.4-0.6-0.9-1-1.3h-2.3c0.4-0.4,0.8-0.8,1.2-1.2c-2.1-2-5-3.1-8.1-3.1C29.9,10,29.9,10,29.9,10z"/>
<path class="st6" d="M18,21.9C18,28.6,23.3,34,30,34c3.1,0,5.9-1.2,8.1-3.1c0.4-0.4,0.8-0.8,1.2-1.3h-2.5c-0.3-0.4-0.6-0.8-0.9-1.2
	h4.3c0.3-0.4,0.5-0.8,0.7-1.3h-5.7c-0.2-0.4-0.4-0.8-0.5-1.3h6.6c0.4-1.2,0.6-2.5,0.6-3.8c0-0.9-0.1-1.7-0.3-2.6h-7.4
	c0.1-0.4,0.2-0.8,0.3-1.3h6.6c-0.1-0.4-0.3-0.9-0.5-1.3h-5.6c0.2-0.4,0.4-0.8,0.7-1.3h4.3c-0.3-0.4-0.6-0.9-1-1.3h-2.4
	c0.4-0.4,0.8-0.8,1.2-1.2c-2.1-2-5-3.1-8.1-3.1h-0.1"/>
<path class="st7" d="M29.8,34c3.2,0,6.1-1.2,8.3-3.1c0.5-0.4,0.8-0.8,1.2-1.3h-2.5c-0.3-0.4-0.7-0.8-0.9-1.2h4.4
	c0.3-0.4,0.5-0.8,0.7-1.3h-5.8c-0.2-0.4-0.4-0.8-0.5-1.3h6.8c0.4-1.2,0.7-2.5,0.7-3.8c0-0.9-0.1-1.7-0.3-2.6h-7.5
	c0.1-0.4,0.2-0.8,0.3-1.3h6.8c-0.1-0.4-0.3-0.9-0.5-1.3H35c0.2-0.4,0.5-0.8,0.7-1.3h4.4c-0.3-0.4-0.6-0.9-1-1.3h-2.4
	c0.4-0.4,0.8-0.8,1.2-1.2c-2.1-2-5.1-3.1-8.3-3.1h-0.1"/>
<path class="st0" d="M34.3,25l0.2-1.1c-0.1,0-0.2,0.1-0.3,0.1c-0.4,0-0.5-0.3-0.4-0.4l0.4-2.2h0.7l0.2-1.2h-0.6l0.1-0.8h-1.3
	c0,0-0.8,4.2-0.8,4.7c0,0.8,0.4,1.1,1,1.1C33.8,25.2,34.1,25.1,34.3,25z"/>
<path class="st0" d="M34.7,23c0,1.8,1.2,2.2,2.2,2.2c1,0,1.3-0.2,1.3-0.2l0.3-1.2c0,0-0.7,0.3-1.3,0.3c-1.4,0-1.1-1-1.1-1h2.6
	c0,0,0.2-0.8,0.2-1.1c0-0.8-0.4-1.8-1.8-1.8C35.7,20,34.7,21.4,34.7,23z M36.9,21.2c0.7,0,0.6,0.8,0.6,0.9h-1.4
	C36.1,22,36.2,21.2,36.9,21.2z"/>
<path class="st0" d="M45,25l0.3-1.4c0,0-0.6,0.3-1.1,0.3c-0.9,0-1.3-0.7-1.3-1.5c0-1.5,0.8-2.3,1.7-2.3c0.6,0,1.1,0.4,1.1,0.4
	l0.2-1.3c0,0-0.8-0.3-1.5-0.3c-1.5,0-2.9,1.3-2.9,3.7c0,1.6,0.8,2.7,2.3,2.7C44.3,25.2,45,25,45,25z"/>
<path class="st0" d="M27.3,20c-0.9,0-1.5,0.3-1.5,0.3l-0.2,1.1c0,0,0.6-0.3,1.4-0.3c0.4,0,0.8,0.1,0.8,0.4c0,0.3-0.1,0.3-0.1,0.3
	s-0.4,0-0.6,0c-1.1,0-2.3,0.4-2.3,1.9c0,1.1,0.8,1.4,1.2,1.4c0.9,0,1.3-0.6,1.3-0.6l-0.1,0.5h1.1l0.5-3.5C29,20.1,27.7,20,27.3,20z
	 M27.5,22.9c0,0.2-0.1,1.2-0.9,1.2c-0.4,0-0.5-0.3-0.5-0.5c0-0.3,0.2-0.8,1.1-0.8C27.5,22.9,27.5,22.9,27.5,22.9z"/>
<path class="st0" d="M30.2,25.2c0.3,0,1.9,0.1,1.9-1.7c0-1.6-1.5-1.3-1.5-1.9c0-0.3,0.3-0.4,0.7-0.4c0.2,0,0.9,0.1,0.9,0.1l0.2-1.1
	c0,0-0.4-0.1-1.2-0.1c-1,0-1.9,0.4-1.9,1.7c0,1.5,1.6,1.3,1.6,1.9c0,0.4-0.4,0.4-0.8,0.4c-0.6,0-1.1-0.2-1.1-0.2l-0.2,1.1
	C28.8,25,29.1,25.2,30.2,25.2z"/>
<path class="st0" d="M55.5,19l-0.3,1.7c0,0-0.5-0.6-1.2-0.6c-1.1,0-2.2,1.4-2.2,3c0,1,0.5,2.1,1.6,2.1c0.8,0,1.2-0.5,1.2-0.5
	l-0.1,0.4h1.3l1-6.1L55.5,19z M55,22.4c0,0.7-0.3,1.6-1,1.6c-0.4,0-0.7-0.4-0.7-1c0-1,0.4-1.7,1-1.7C54.7,21.3,55,21.6,55,22.4z"/>
<path class="st0" d="M20.3,25.1l0.8-4.6l0.1,4.6h0.9l1.7-4.6l-0.7,4.6h1.3l1-6.1h-2.1l-1.3,3.7L22,19h-1.8l-1,6.1H20.3z"/>
<path class="st0" d="M40,25.1c0.4-2.1,0.4-3.8,1.3-3.5c0.1-0.8,0.3-1.1,0.4-1.5c0,0-0.1,0-0.3,0c-0.6,0-1,0.8-1,0.8l0.1-0.7h-1.2
	l-0.8,5L40,25.1L40,25.1z"/>
<path class="st0" d="M47.9,20c-0.9,0-1.5,0.3-1.5,0.3l-0.2,1.1c0,0,0.6-0.3,1.4-0.3c0.4,0,0.8,0.1,0.8,0.4c0,0.3-0.1,0.3-0.1,0.3
	s-0.4,0-0.6,0c-1.1,0-2.3,0.4-2.3,1.9c0,1.1,0.8,1.4,1.2,1.4c0.9,0,1.3-0.6,1.3-0.6L48,25.1h1.1l0.5-3.5C49.7,20.1,48.3,20,47.9,20z
	 M48.2,22.9c0,0.2-0.1,1.2-0.9,1.2c-0.4,0-0.5-0.3-0.5-0.5c0-0.3,0.2-0.8,1.1-0.8C48.2,22.9,48.2,22.9,48.2,22.9z"/>
<path class="st0" d="M50.7,25.1c0.4-2.1,0.4-3.8,1.3-3.5c0.1-0.8,0.3-1.1,0.4-1.5c0,0-0.1,0-0.3,0c-0.6,0-1,0.8-1,0.8l0.1-0.7h-1.2
	l-0.8,5L50.7,25.1L50.7,25.1z"/>
<path class="st8" d="M32.3,24.2c0,0.8,0.4,1.1,1,1.1c0.4,0,0.8-0.1,1-0.2l0.2-1.1c-0.1,0-0.2,0.1-0.3,0.1c-0.4,0-0.5-0.3-0.4-0.4
	l0.4-2.2h0.7l0.2-1.2h-0.6l0.1-0.8"/>
<path class="st8" d="M35.3,23c0,1.8,0.6,2.2,1.6,2.2c1,0,1.3-0.2,1.3-0.2l0.3-1.2c0,0-0.7,0.3-1.3,0.3c-1.4,0-1.1-1-1.1-1h2.6
	c0,0,0.2-0.8,0.2-1.1c0-0.8-0.4-1.8-1.8-1.8C35.7,20,35.3,21.4,35.3,23z M36.9,21.2c0.7,0,0.8,0.8,0.8,0.9h-1.7
	C36.1,22,36.2,21.2,36.9,21.2z"/>
<path class="st8" d="M45,25l0.3-1.4c0,0-0.6,0.3-1.1,0.3c-0.9,0-1.3-0.7-1.3-1.5c0-1.5,0.8-2.3,1.7-2.3c0.6,0,1.1,0.4,1.1,0.4
	l0.2-1.3c0,0-0.8-0.3-1.5-0.3c-1.5,0-2.3,1.3-2.3,3.7c0,1.6,0.1,2.7,1.7,2.7C44.3,25.2,45,25,45,25z"/>
<path class="st8" d="M25.6,21.4c0,0,0.6-0.3,1.4-0.3c0.4,0,0.8,0.1,0.8,0.4c0,0.3-0.1,0.3-0.1,0.3s-0.4,0-0.6,0
	c-1.1,0-2.3,0.4-2.3,1.9c0,1.1,0.8,1.4,1.2,1.4c0.9,0,1.3-0.6,1.3-0.6l-0.1,0.5h1.1l0.5-3.5c0-1.5-1.3-1.5-1.8-1.5L25.6,21.4z
	 M28.2,22.9c0,0.2-0.8,1.2-1.5,1.2c-0.4,0-0.5-0.3-0.5-0.5c0-0.3,0.2-0.8,1.1-0.8C27.5,22.9,28.2,22.9,28.2,22.9z"/>
<path class="st8" d="M28.8,25c0,0,0.4,0.1,1.5,0.1c0.3,0,1.9,0.1,1.9-1.7c0-1.6-1.5-1.3-1.5-1.9c0-0.3,0.3-0.4,0.7-0.4
	c0.2,0,0.9,0.1,0.9,0.1l0.2-1.1c0,0-0.4-0.1-1.2-0.1c-1,0-1.3,0.4-1.3,1.7c0,1.5,1,1.3,1,1.9c0,0.4-0.4,0.4-0.8,0.4"/>
<path class="st8" d="M55.3,20.7c0,0-0.5-0.6-1.2-0.6c-1.1,0-1.5,1.4-1.5,3c0,1-0.1,2.1,1,2.1c0.8,0,1.2-0.5,1.2-0.5l-0.1,0.4h1.3
	l1-6.1L55.3,20.7z M55.2,22.4c0,0.7-0.6,1.6-1.3,1.6c-0.4,0-0.7-0.4-0.7-1c0-1,0.4-1.7,1-1.7C54.7,21.3,55.2,21.6,55.2,22.4z"/>
<path class="st8" d="M20.3,25.1l0.8-4.6l0.1,4.6h0.9l1.7-4.6l-0.7,4.6h1.3l1-6.1h-1.6l-1.8,3.7L22,19h-0.7l-2.2,6.1H20.3z"/>
<path class="st8" d="M38.7,25.1H40c0.4-2.1,0.4-3.8,1.3-3.5c0.1-0.8,0.3-1.1,0.4-1.5c0,0-0.1,0-0.3,0c-0.6,0-1,0.8-1,0.8l0.1-0.7"/>
<path class="st8" d="M46.2,21.4c0,0,0.6-0.3,1.4-0.3c0.4,0,0.8,0.1,0.8,0.4c0,0.3-0.1,0.3-0.1,0.3s-0.4,0-0.6,0
	c-1.1,0-2.3,0.4-2.3,1.9c0,1.1,0.8,1.4,1.2,1.4c0.9,0,1.3-0.6,1.3-0.6L48,25.2h1.1l0.5-3.5c0-1.5-1.3-1.5-1.8-1.5L46.2,21.4z
	 M48.8,22.9c0,0.2-0.8,1.2-1.5,1.2c-0.4,0-0.5-0.3-0.5-0.5c0-0.3,0.2-0.8,1.1-0.8C48.2,22.9,48.8,22.9,48.8,22.9z"/>
<path class="st8" d="M49.4,25.1h1.3c0.4-2.1,0.4-3.8,1.3-3.5c0.1-0.8,0.3-1.1,0.4-1.5c0,0-0.1,0-0.3,0c-0.6,0-1,0.8-1,0.8l0.1-0.7"
	/>
</svg>
