<svg width="26" height="26" viewBox="0 0 26 26" fill="none" xmlns="http://www.w3.org/2000/svg">
<path d="M10.0141 7.13566L10.0141 7.13565L10.0136 7.13426C9.5596 5.75906 9.3289 4.31596 9.3289 2.8446C9.32896 1.71888 8.41328 0.803198 7.28762 0.803198H2.84451C1.71891 0.803198 0.803229 1.71887 0.803229 2.84448C0.803229 15.1698 10.8302 25.1967 23.1555 25.1967C24.2812 25.1967 25.1968 24.2811 25.1968 23.1554V18.7248C25.1968 17.5992 24.2811 16.6835 23.1555 16.6835C21.6849 16.6835 20.2413 16.4535 18.8735 16.0016C18.1557 15.757 17.3359 15.943 16.8579 16.4252L14.1944 18.4359C11.109 16.7782 9.1978 14.8675 7.56269 11.8056L9.51334 9.21266C10.0539 8.66911 10.247 7.87741 10.0141 7.13566ZM8.35486 8.19695L8.35435 8.19646L13.9628 19.9448L13.9164 20.0335C13.9165 20.0335 13.9167 20.0336 13.9168 20.0336C14.1787 20.1705 14.4982 20.1413 14.7345 19.963L14.7346 19.9629L17.8644 17.5917L17.865 17.5925L17.8748 17.5827C18.0061 17.4514 18.2032 17.4044 18.3809 17.4649L18.3818 17.4652C19.9139 17.9713 21.52 18.2276 23.1555 18.2276C23.4297 18.2276 23.6527 18.4506 23.6527 18.7248V23.1555C23.6527 23.4297 23.4297 23.6527 23.1555 23.6527C11.6816 23.6527 2.34736 14.3184 2.34736 2.84454C2.34736 2.57032 2.57035 2.34733 2.84457 2.34733H7.28768C7.5619 2.34733 7.78489 2.57032 7.78489 2.84454C7.78489 4.48037 8.04175 6.08614 8.5444 7.60766C8.60041 7.78831 8.56098 7.98238 8.35486 8.19695Z" fill="#313235" stroke="#313235" stroke-width="0.2"/>
</svg>
