<svg width="22" height="21" viewBox="0 0 22 21" fill="none" xmlns="http://www.w3.org/2000/svg">
<path d="M8.83534 6.38467L8.83535 6.38467L8.83485 6.38323C8.50309 5.42402 8.33452 4.41748 8.33452 3.39121C8.33457 2.5823 7.64669 1.93223 6.81091 1.93223H3.55263C2.7169 1.93223 2.02903 2.5823 2.02903 3.39112C2.02903 12.0398 9.39854 19.0677 18.4474 19.0677C19.2831 19.0677 19.971 18.4176 19.971 17.6088V14.5073C19.971 13.6985 19.2831 13.0484 18.4474 13.0484C17.3712 13.0484 16.315 12.8878 15.3144 12.5722C14.7816 12.399 14.1719 12.5294 13.8133 12.8735L11.8738 14.2711C9.62971 13.1179 8.23714 11.7896 7.0458 9.66697L8.4618 7.87025C8.86505 7.48219 9.01004 6.91582 8.83534 6.38467ZM7.57596 7.11541L7.57545 7.1149L7.56802 7.12431L5.87389 9.26598L5.87385 9.26604C5.73595 9.44062 5.7138 9.67583 5.81782 9.87155L5.81787 9.87166C7.21081 12.4851 8.90676 14.1035 11.6617 15.451C11.8618 15.5507 12.1054 15.5296 12.2862 15.3993L12.2863 15.3992L14.5816 13.7394L14.5821 13.7402L14.592 13.7307C14.6809 13.6458 14.8162 13.6145 14.9387 13.6543L14.9395 13.6545C16.0655 14.0096 17.2457 14.1893 18.4474 14.1893C18.6382 14.1893 18.7853 14.3363 18.7853 14.5074V17.6088C18.7853 17.7799 18.6382 17.9269 18.4474 17.9269C10.0435 17.9269 3.21472 11.4019 3.21472 3.39117C3.21472 3.22011 3.36188 3.07312 3.55268 3.07312H6.81096C7.00176 3.07312 7.14892 3.22011 7.14892 3.39117C7.14892 4.53979 7.33784 5.66736 7.70757 6.73576C7.74369 6.84726 7.72147 6.97082 7.57596 7.11541Z" fill="white" stroke="white" stroke-width="0.2"/>
</svg>
