<svg width="46" height="33" viewBox="0 0 46 33" fill="none" xmlns="http://www.w3.org/2000/svg">
<path d="M36.8519 0C36.9185 0.000717163 36.9847 0.0103645 37.0489 0.0286942C37.1951 0.072155 37.3235 0.162781 37.4148 0.286957C37.5062 0.411133 37.5556 0.562168 37.5556 0.717392V14.6599H45.2963C45.4829 14.6599 45.6619 14.7355 45.7939 14.87C45.9259 15.0045 46 15.187 46 15.3773V32.2826C46 32.4729 45.9259 32.6553 45.7939 32.7899C45.6619 32.9244 45.4829 33 45.2963 33H27.7037C27.5171 33 27.3381 32.9244 27.2061 32.7899C27.0741 32.6553 27 32.4729 27 32.2826V15.3916C27 15.2557 27.0378 15.1226 27.1091 15.0078L36.2572 0.333588C36.3207 0.231384 36.4085 0.147202 36.5125 0.0888786C36.6164 0.0305557 36.7332 -1.90735e-05 36.8519 0Z" fill="#313235"/>
<path d="M9.85185 0C9.91848 0.000717163 9.98473 0.0103645 10.0489 0.0286942C10.1951 0.072155 10.3235 0.162781 10.4148 0.286957C10.5062 0.411133 10.5556 0.562168 10.5556 0.717392V14.6599H18.2963C18.4829 14.6599 18.6619 14.7355 18.7939 14.87C18.9259 15.0045 19 15.187 19 15.3773V32.2826C19 32.4729 18.9259 32.6553 18.7939 32.7899C18.6619 32.9244 18.4829 33 18.2963 33H0.703703C0.517069 33 0.338079 32.9244 0.20611 32.7899C0.0741405 32.6553 0 32.4729 0 32.2826V15.3916C-3.05176e-05 15.2557 0.0377941 15.1226 0.109074 15.0078L9.25722 0.333588C9.32071 0.231384 9.40852 0.147202 9.51248 0.0888786C9.61644 0.0305557 9.73319 -1.90735e-05 9.85185 0Z" fill="#313235"/>
</svg>
