<svg width="39" height="24" viewBox="0 0 39 24" fill="none" xmlns="http://www.w3.org/2000/svg">
    <path
        d="M15.6113 3.05469H5.3335C4.78121 3.05469 4.3335 3.5024 4.3335 4.05469V13.8039C4.3335 14.3562 4.78121 14.8039 5.3335 14.8039H8.79743C9.34971 14.8039 9.79743 15.2516 9.79743 15.8039V21.5547C9.79743 22.107 10.2451 22.5547 10.7974 22.5547H13.0097C13.4344 22.5547 13.8127 22.2865 13.9533 21.8858L16.5549 14.4725C16.5922 14.3661 16.6113 14.2542 16.6113 14.1414V4.05469C16.6113 3.5024 16.1636 3.05469 15.6113 3.05469Z"
        fill="#F93F20" fill-opacity="0.35" />
    <path
        d="M14.1667 0.166016H1C0.447715 0.166016 0 0.613732 0 1.16602V13.5262C0 14.0784 0.447716 14.5262 1 14.5262H5.74956C6.30185 14.5262 6.74956 14.9739 6.74956 15.5262V22.9993C6.74956 23.5516 7.19728 23.9993 7.74956 23.9993H10.887C11.3104 23.9993 11.6879 23.7327 11.8295 23.3336L15.1091 14.0869C15.1472 13.9795 15.1667 13.8665 15.1667 13.7526V1.16602C15.1667 0.613731 14.719 0.166016 14.1667 0.166016Z"
        fill="#F93F20" />
    <path
        d="M36.5553 0.166016H23.3887C22.8364 0.166016 22.3887 0.613732 22.3887 1.16602V13.5262C22.3887 14.0784 22.8364 14.5262 23.3887 14.5262H28.1382C28.6905 14.5262 29.1382 14.9739 29.1382 15.5262V22.9993C29.1382 23.5516 29.5859 23.9993 30.1382 23.9993H33.2757C33.6991 23.9993 34.0766 23.7327 34.2182 23.3336L37.4978 14.0869C37.5359 13.9795 37.5553 13.8665 37.5553 13.7526V1.16602C37.5553 0.613731 37.1076 0.166016 36.5553 0.166016Z"
        fill="#F93F20" />
    <path
        d="M37.9999 3.05469H27.7222C27.1699 3.05469 26.7222 3.5024 26.7222 4.05469V13.8039C26.7222 14.3562 27.1699 14.8039 27.7222 14.8039H31.1861C31.7384 14.8039 32.1861 15.2516 32.1861 15.8039V21.5547C32.1861 22.107 32.6338 22.5547 33.1861 22.5547H35.3984C35.8231 22.5547 36.2014 22.2865 36.342 21.8858L38.9435 14.4725C38.9809 14.3661 38.9999 14.2542 38.9999 14.1414V4.05469C38.9999 3.5024 38.5522 3.05469 37.9999 3.05469Z"
        fill="#F93F20" fill-opacity="0.35" />
</svg>
