<svg width="46" height="33" viewBox="0 0 46 33" fill="none" xmlns="http://www.w3.org/2000/svg">
<path d="M9.14815 33C9.08152 32.9993 9.01527 32.9896 8.95111 32.9713C8.80494 32.9278 8.67654 32.8372 8.58519 32.713C8.49383 32.5889 8.44444 32.4378 8.44444 32.2826V18.3401H0.703704C0.51707 18.3401 0.33808 18.2645 0.20611 18.13C0.07414 17.9955 0 17.813 0 17.6227V0.717391C0 0.527127 0.07414 0.344656 0.20611 0.210119C0.33808 0.0755822 0.51707 0 0.703704 0H18.2963C18.4829 0 18.6619 0.0755822 18.7939 0.210119C18.9259 0.344656 19 0.527127 19 0.717391V17.6084C19 17.7443 18.9622 17.8774 18.8909 17.9922L9.74278 32.6664C9.67929 32.7686 9.59148 32.8528 9.48752 32.9111C9.38356 32.9694 9.26681 33 9.14815 33Z" fill="#313235"/>
<path d="M36.1481 33C36.0815 32.9993 36.0153 32.9896 35.9511 32.9713C35.8049 32.9278 35.6765 32.8372 35.5852 32.713C35.4938 32.5889 35.4444 32.4378 35.4444 32.2826V18.3401H27.7037C27.5171 18.3401 27.3381 18.2645 27.2061 18.13C27.0741 17.9955 27 17.813 27 17.6227V0.717391C27 0.527127 27.0741 0.344656 27.2061 0.210119C27.3381 0.0755822 27.5171 0 27.7037 0H45.2963C45.4829 0 45.6619 0.0755822 45.7939 0.210119C45.9259 0.344656 46 0.527127 46 0.717391V17.6084C46 17.7443 45.9622 17.8774 45.8909 17.9922L36.7428 32.6664C36.6793 32.7686 36.5915 32.8528 36.4875 32.9111C36.3836 32.9694 36.2668 33 36.1481 33Z" fill="#313235"/>
</svg>
