<svg width="26" height="24" viewBox="0 0 26 24" fill="none" xmlns="http://www.w3.org/2000/svg">
<path d="M22.4924 14.7894C22.169 14.6442 21.8013 14.6335 21.47 14.7595C21.1388 14.8854 20.8711 15.1379 20.726 15.4612C20.0705 16.9228 19.0138 18.1685 17.6786 19.0535C16.3435 19.9386 14.7846 20.4268 13.1831 20.4613C11.5816 20.4959 10.0032 20.0754 8.63109 19.2487C7.25901 18.422 6.14959 17.2231 5.43167 15.7911L6.18855 16.1281C6.51234 16.2722 6.88014 16.2819 7.21104 16.1549C7.54194 16.0278 7.80882 15.7746 7.95298 15.4508C8.09715 15.127 8.10678 14.7592 7.97976 14.4283C7.85274 14.0974 7.59947 13.8305 7.27568 13.6863L3.75845 12.1204C3.59813 12.049 3.42531 12.0099 3.24987 12.0053C3.07443 12.0007 2.8998 12.0308 2.73596 12.0936C2.57211 12.1565 2.42226 12.2511 2.29496 12.3719C2.16766 12.4927 2.0654 12.6374 1.99402 12.7977L0.428039 16.3148C0.283876 16.6386 0.274245 17.0064 0.401264 17.3373C0.528283 17.6682 0.781548 17.9351 1.10534 18.0793C1.42914 18.2234 1.79694 18.2331 2.12784 18.1061C2.45873 17.979 2.72562 17.7258 2.86978 17.402L3.04839 17.0008C3.97568 18.8452 5.39725 20.3955 7.15445 21.4789C8.91164 22.5623 10.9353 23.136 12.9997 23.1361C13.0642 23.1361 13.1292 23.1355 13.1939 23.1344C15.3089 23.0979 17.3698 22.4598 19.1355 21.2948C20.9011 20.1298 22.2985 18.4861 23.1642 16.556C23.3094 16.2326 23.3201 15.8648 23.1941 15.5335C23.0682 15.2022 22.8157 14.9346 22.4924 14.7894Z" fill="#F93F20"/>
<path d="M24.8947 5.91956C24.5709 5.7754 24.2031 5.76578 23.8722 5.8928C23.5413 6.01982 23.2744 6.27307 23.1303 6.59686L22.9516 6.99799C22.0093 5.12355 20.5567 3.55335 18.7612 2.46817C16.9657 1.38299 14.9002 0.826939 12.8025 0.864048C10.7048 0.901157 8.66031 1.52991 6.90429 2.67793C5.14827 3.82594 3.75215 5.44654 2.87668 7.35313C2.80315 7.51262 2.76178 7.68503 2.75492 7.86052C2.74807 8.03601 2.77587 8.21112 2.83674 8.37586C2.89761 8.54059 2.99035 8.69172 3.10966 8.82059C3.22897 8.94946 3.37252 9.05354 3.53208 9.1269C3.69165 9.20026 3.86411 9.24145 4.0396 9.24811C4.2151 9.25477 4.39018 9.22678 4.55485 9.16573C4.71952 9.10469 4.87054 9.01178 4.99928 8.89233C5.12802 8.77288 5.23195 8.62922 5.30514 8.46958C5.97086 7.01959 7.03274 5.78722 8.3684 4.91449C9.70406 4.04176 11.2591 3.5642 12.8544 3.53683C14.4497 3.50946 16.0202 3.93341 17.385 4.75981C18.7498 5.58622 19.8534 6.78144 20.5684 8.20774L19.8115 7.87075C19.4881 7.72878 19.1216 7.72064 18.7922 7.84809C18.4627 7.97555 18.1972 8.22824 18.0535 8.55094C17.9098 8.87363 17.8997 9.24008 18.0255 9.57018C18.1512 9.90028 18.4025 10.1672 18.7244 10.3125L22.2314 11.8738L22.2378 11.8766C22.3982 11.9486 22.5712 11.9883 22.747 11.9933C22.9227 11.9983 23.0978 11.9686 23.262 11.9058C23.4262 11.8431 23.5765 11.7485 23.7041 11.6276C23.8318 11.5067 23.9343 11.3617 24.0058 11.2011L25.5718 7.68399C25.716 7.36023 25.7256 6.99244 25.5986 6.66155C25.4717 6.33066 25.2185 6.06376 24.8947 5.91956Z" fill="#F93F20"/>
</svg>
