<svg width="20" height="32" viewBox="0 0 20 32" fill="none" xmlns="http://www.w3.org/2000/svg">
    <line x1="1.43239" y1="0.748932" x2="19.4324" y2="31.7489" stroke="#ADADAE" />
    <line y1="-0.5" x2="35.8469" y2="-0.5"
        transform="matrix(-0.502136 0.864789 0.864789 0.502136 19 1)" stroke="#ADADAE" />
    <path fill-rule="evenodd" clip-rule="evenodd"
        d="M3.66965 2.13749C2.88725 2.42849 2.33253 3.01535 2.09284 3.80549C1.96905 4.21381 1.96905 29.7838 2.09284 30.1921C2.33744 30.9986 2.92654 31.6062 3.73102 31.8816C4.06984 31.9976 4.20793 32 10.5 32C16.7921 32 16.9302 31.9976 17.269 31.8816C18.0735 31.6062 18.6626 30.9986 18.9072 30.1921C19.0309 29.7838 19.0309 4.21381 18.9072 3.80549C18.6626 2.999 18.0735 2.39145 17.269 2.11604C16.9299 1.99996 16.7963 1.99767 10.4762 2.00066L4.02926 2.00371L3.66965 2.13749ZM17.1372 3.16806C17.4547 3.33032 17.7353 3.62038 17.8572 3.91232C17.9019 4.01938 17.9552 4.30475 17.9755 4.54653L18.0127 4.98613H10.5H2.98733L3.02381 4.55409C3.0439 4.31647 3.08905 4.04627 3.12424 3.95369C3.28627 3.52727 3.7408 3.1455 4.19534 3.05414C4.32944 3.02713 7.23242 3.00914 10.6464 3.01406L16.8536 3.02309L17.1372 3.16806ZM17.9955 16.5007V26.9605H10.5H3.00449V16.5007V6.0409H10.5H17.9955V16.5007ZM3.99998 9.9963V10.4944H4.78941C5.5597 10.4944 5.57961 10.4976 5.61041 10.6262C5.6278 10.6988 6.05077 12.6039 6.55039 14.86C7.04996 17.116 7.48639 19.048 7.52024 19.1533C7.64122 19.5295 7.51333 19.5185 11.7724 19.5185C15.9121 19.5185 15.7845 19.5274 15.9441 19.2291C16.0064 19.1126 17 13.2346 17 12.9824C17 12.8913 16.9307 12.7599 16.8288 12.658L16.6577 12.4867H12.3198H7.98198V13.0141V13.5415H11.9358H15.8896L15.8594 13.6733C15.827 13.8149 15.0676 18.3782 15.0676 18.4318C15.0676 18.4494 14.0399 18.4638 12.7838 18.4638H10.5V17.4676V16.4714H10.0023H9.5045V17.4676V18.4638H8.95797H8.41145L8.16193 17.3357C8.02466 16.7153 7.87768 16.0561 7.83523 15.8708L7.75811 15.5338H10.1246H12.491V16.5323V17.5308L13.0034 17.5138L13.5158 17.4969L13.5318 16.5177L13.5479 15.5385L14.0296 15.5215L14.5113 15.5045L14.5282 14.9918L14.5451 14.4791H11.0356H7.52621L7.43785 14.0835C7.3893 13.866 7.15706 12.82 6.92183 11.7592C6.57569 10.1983 6.46747 9.7987 6.35445 9.66428L6.21479 9.49821H5.10739H3.99998V9.9963ZM8.22482 20.5222C7.27904 20.6967 6.72472 21.7415 7.12503 22.595C7.60105 23.6099 8.88893 23.8144 9.62917 22.9927C9.88906 22.7042 9.99721 22.4039 9.99405 21.9797C9.9872 21.0434 9.1477 20.3519 8.22482 20.5222ZM14.2083 20.5205C13.8795 20.5813 13.675 20.6958 13.4162 20.964C12.6856 21.721 12.9423 22.9698 13.9146 23.3883C14.2709 23.5417 14.7946 23.5285 15.1497 23.3572C16.2639 22.8199 16.2848 21.2133 15.1847 20.6812C14.8104 20.5003 14.5494 20.4573 14.2083 20.5205ZM8.70318 21.579C9.14401 21.814 9.01267 22.4485 8.52318 22.4485C8.00739 22.4485 7.85075 21.8267 8.30405 21.5786C8.45601 21.4954 8.54636 21.4955 8.70318 21.579ZM14.848 21.6934C14.9872 21.8612 14.9798 22.1847 14.8333 22.3313C14.6543 22.5105 14.2897 22.4911 14.1349 22.2941C13.998 22.1199 13.9839 21.9916 14.0788 21.7833C14.2096 21.4961 14.6423 21.4454 14.848 21.6934ZM17.9833 28.9382C17.9548 29.9435 17.9087 30.1286 17.5984 30.4822C17.5007 30.5936 17.2932 30.7499 17.1372 30.8296L16.8536 30.9745H10.5H4.14638L3.86278 30.8296C3.70684 30.7499 3.49931 30.5936 3.40163 30.4822C3.09133 30.1286 3.04518 29.9435 3.01667 28.9382L2.99049 28.0153H10.5H18.0095L17.9833 28.9382ZM9.5045 29.4803V30.0077H10.5H11.4955V29.4803V28.9529H10.5H9.5045V29.4803Z"
        fill="#ADADAE" />
</svg>
