<svg width="18" height="18" viewBox="0 0 18 18" fill="none" xmlns="http://www.w3.org/2000/svg">
<g clip-path="url(#clip0)">
<path d="M17.3666 10.4194C17.9036 5.89915 17.1086 3.0454 15.6746 1.75465L15.6753 1.7539C13.3608 -0.450348 5.5443 -0.776598 2.7753 1.8529C1.5318 3.13915 1.0938 5.0269 1.0458 7.3639C0.997804 9.70165 0.940804 14.0809 5.02155 15.2689H5.0253L5.02155 17.0832C5.02155 17.0832 4.9938 17.8182 5.4633 17.9659C6.0003 18.1399 6.2433 17.7987 7.91355 15.8037C10.7066 16.0459 12.8516 15.4909 13.0953 15.4099C13.6593 15.2209 16.8506 14.7987 17.3666 10.4194ZM8.1888 14.5272C8.1888 14.5272 6.42105 16.7314 5.8713 17.3037C5.6913 17.4897 5.49405 17.4724 5.49705 17.1034C5.49705 16.8612 5.51055 14.0914 5.51055 14.0914C2.0508 13.0999 2.2548 9.3709 2.2923 7.42015C2.3298 5.46865 2.6868 3.8704 3.7398 2.79415C6.16905 0.516402 13.0218 1.02565 14.7678 2.66665C16.9023 4.5589 16.1426 9.9049 16.1471 10.0872C15.7083 13.7427 13.1223 13.9744 12.6468 14.1327C12.4436 14.2002 10.5573 14.6854 8.1888 14.5272Z" fill="#313235"/>
<path d="M9.16627 3.22229C8.87752 3.22229 8.87752 3.67229 9.16627 3.67604C11.4065 3.69329 13.2515 5.25479 13.2718 8.11904C13.2718 8.42129 13.7143 8.41754 13.7105 8.11529H13.7098C13.6858 5.02904 11.6713 3.23954 9.16627 3.22229Z" fill="#313235"/>
<path d="M12.1132 7.64404C12.1065 7.94254 12.5482 7.95679 12.552 7.65454C12.5887 5.95279 11.5395 4.55104 9.5677 4.40329C9.27895 4.38229 9.24895 4.83604 9.53695 4.85704C11.247 4.98679 12.1477 6.15379 12.1132 7.64404Z" fill="#313235"/>
<path d="M11.6407 9.58119C11.2702 9.36669 10.8929 9.50019 10.7369 9.71094L10.4107 10.1332C10.2449 10.3477 9.93517 10.3192 9.93517 10.3192C7.67467 9.72144 7.07017 7.35594 7.07017 7.35594C7.07017 7.35594 7.04242 7.03569 7.24942 6.86394L7.65742 6.52644C7.86142 6.36444 7.99042 5.97444 7.78267 5.59119C7.22767 4.58844 6.85492 4.24269 6.66517 3.97719C6.46567 3.72744 6.16567 3.67119 5.85367 3.83994H5.84692C5.19817 4.21944 4.48792 4.92969 4.71517 5.66094C5.10292 6.43194 5.81542 8.88969 8.08642 10.7467C9.15367 11.6249 10.8427 12.5249 11.5597 12.7327L11.5664 12.7432C12.2729 12.9787 12.9599 12.2407 13.3267 11.5724V11.5672C13.4894 11.2439 13.4354 10.9379 13.1977 10.7377C12.7762 10.3267 12.1402 9.87294 11.6407 9.58119Z" fill="#313235"/>
<path d="M9.87652 6.07789C10.5973 6.11989 10.9468 6.49639 10.9843 7.26964C10.9978 7.57189 11.4365 7.55089 11.423 7.24864C11.375 6.23914 10.8485 5.67664 9.90052 5.62414C9.61177 5.60689 9.58477 6.06064 9.87652 6.07789Z" fill="#313235"/>
</g>
<defs>
<clipPath id="clip0">
<rect width="18" height="18" fill="white"/>
</clipPath>
</defs>
</svg>
