<?xml version="1.0" encoding="utf-8"?>
<!-- Generator: Adobe Illustrator 25.0.0, SVG Export Plug-In . SVG Version: 6.00 Build 0)  -->
<svg version="1.1" id="Layer_1" xmlns="http://www.w3.org/2000/svg" xmlns:xlink="http://www.w3.org/1999/xlink" x="0px" y="0px"
	 viewBox="0 0 74 45" style="enable-background:new 0 0 74 45;" xml:space="preserve">
<style type="text/css">
	.st0{fill:#FFFFFF;}
	.st1{fill:none;stroke:#FFFFFF;}
	.st2{fill:#3C58BF;}
	.st3{fill:#FFBC00;}
	.st4{fill:#F7981D;}
	.st5{fill:#ED7C00;}
</style>
<g>
	<path class="st0" d="M3,0h68c1.7,0,3,1.3,3,3v39c0,1.7-1.3,3-3,3H3c-1.7,0-3-1.3-3-3V3C0,1.3,1.3,0,3,0z"/>
	<path class="st1" d="M3,0.5h68c1.4,0,2.5,1.1,2.5,2.5v39c0,1.4-1.1,2.5-2.5,2.5H3c-1.4,0-2.5-1.1-2.5-2.5V3C0.5,1.6,1.6,0.5,3,0.5z
		"/>
</g>
<path class="st2" d="M26.1,31.5l3.2-18h5l-3.1,18H26.1z"/>
<path class="st2" d="M26.1,31.5l4.1-18h4.1l-3.1,18H26.1z"/>
<path class="st2" d="M49.3,13.8c-1-0.4-2.6-0.8-4.6-0.8c-5,0-8.6,2.5-8.6,6.1c0,2.7,2.5,4.1,4.5,5c2,0.9,2.6,1.5,2.6,2.3
	c0,1.2-1.6,1.8-3,1.8c-2,0-3.1-0.3-4.8-1l-0.7-0.3L34,31c1.2,0.5,3.4,1,5.7,1c5.3,0,8.8-2.5,8.8-6.3c0-2.1-1.3-3.7-4.3-5
	c-1.8-0.9-2.9-1.4-2.9-2.3c0-0.8,0.9-1.6,2.9-1.6c1.7,0,2.9,0.3,3.8,0.7l0.5,0.2L49.3,13.8z"/>
<path class="st2" d="M49.3,13.8c-1-0.4-2.6-0.8-4.6-0.8c-5,0-7.7,2.5-7.7,6.1c0,2.7,1.6,4.1,3.6,5c2,0.9,2.6,1.5,2.6,2.3
	c0,1.2-1.6,1.8-3,1.8c-2,0-3.1-0.3-4.8-1l-0.7-0.3L34,31c1.2,0.5,3.4,1,5.7,1c5.3,0,8.8-2.5,8.8-6.3c0-2.1-1.3-3.7-4.3-5
	c-1.8-0.9-2.9-1.4-2.9-2.3c0-0.8,0.9-1.6,2.9-1.6c1.7,0,2.9,0.3,3.8,0.7l0.5,0.2L49.3,13.8z"/>
<path class="st2" d="M57.9,13.5c-1.2,0-2.1,0.1-2.6,1.3l-7.5,16.7h5.4l1-3h6.4l0.6,3H66l-4.2-18H57.9z M55.6,25.5
	c0.3-0.9,2-5.3,2-5.3s0.4-1.1,0.7-1.8l0.3,1.7c0,0,1,4.5,1.2,5.5h-4.2V25.5z"/>
<path class="st2" d="M59.1,13.5c-1.2,0-2.1,0.1-2.6,1.3l-8.7,16.7h5.4l1-3h6.4l0.6,3H66l-4.2-18H59.1z M55.6,25.5c0.4-1,2-5.3,2-5.3
	s0.4-1.1,0.7-1.8l0.3,1.7c0,0,1,4.5,1.2,5.5h-4.2V25.5z"/>
<path class="st2" d="M16.9,26.2l-0.5-2.6c-0.9-3-3.8-6.3-7-7.9l4.5,16h5.4l8.1-18H22L16.9,26.2z"/>
<path class="st2" d="M16.9,26.2l-0.5-2.6c-0.9-3-3.8-6.3-7-7.9l4.5,16h5.4l8.1-18H23L16.9,26.2z"/>
<path class="st3" d="M3,13.5l0.9,0.2c6.4,1.5,10.8,5.3,12.5,9.8L14.6,15c-0.3-1.2-1.2-1.5-2.3-1.5H3z"/>
<path class="st4" d="M3,13.5C9.4,15,14.7,19,16.4,23.5l-1.7-7.1c-0.3-1.2-1.3-1.9-2.4-1.9L3,13.5z"/>
<path class="st5" d="M3,13.5C9.4,15,14.7,19,16.4,23.5l-1.2-3.9c-0.3-1.2-0.7-2.4-2.1-2.9L3,13.5z"/>
<path class="st2" d="M21.9,25.5l-3.4-3.4l-1.6,3.8l-0.4-2.5c-0.9-3-3.8-6.3-7-7.9l4.5,16h5.4L21.9,25.5z"/>
<path class="st2" d="M31.2,31.5l-4.3-4.4l-0.8,4.4H31.2z"/>
<path class="st2" d="M42.7,25.3c0.4,0.4,0.6,0.7,0.5,1.1c0,1.2-1.6,1.8-3,1.8c-2,0-3.1-0.3-4.8-1l-0.7-0.3L34,31
	c1.2,0.5,3.4,1,5.7,1c3.2,0,5.8-0.9,7.3-2.5L42.7,25.3z"/>
<path class="st2" d="M48.5,31.5h4.7l1-3h6.4l0.6,3H66l-1.7-7.3l-6-5.8l0.3,1.6c0,0,1,4.5,1.2,5.5h-4.2c0.4-1,2-5.3,2-5.3
	s0.4-1.1,0.7-1.8"/>
</svg>
