<svg width="50" height="50" viewBox="0 0 50 50" fill="none" xmlns="http://www.w3.org/2000/svg">
<rect width="50" height="50" fill="white"/>
<g clip-path="url(#clip0)">
<mask id="path-1-inside-1" fill="white">
<path d="M43.5278 26.3456L35.1613 28.5863L31.9364 26.7259V23.2348L35.1245 21.4041L43.5276 23.6557C43.6965 23.7008 43.8662 23.723 44.0344 23.723C44.8976 23.723 45.6874 23.1466 45.9207 22.2734C46.2002 21.2299 45.5816 20.1575 44.5382 19.8783L39.9314 18.644L44.1782 16.2058C45.1143 15.6682 45.4382 14.473 44.9005 13.5366C44.3609 12.6002 43.1682 12.2758 42.2318 12.8147L37.9763 15.2586L39.2103 10.6503C39.4895 9.6071 38.8718 8.53453 37.8279 8.25529C36.791 7.9833 35.7142 8.59511 35.4346 9.63759L33.1923 18.0045L29.9843 19.8468L26.9431 18.0885V14.399L33.093 8.24913C33.8565 7.4853 33.8565 6.24808 33.093 5.48414C32.3294 4.7204 31.0925 4.7204 30.3283 5.48414L26.9431 8.86918V3.95508C26.9432 2.87545 26.0676 2 24.9878 2C23.9083 2 23.0328 2.87536 23.0328 3.95508V8.84495L19.6723 5.48414C18.9085 4.7204 17.6713 4.7204 16.9074 5.48414C16.1436 6.24798 16.1436 7.4852 16.9074 8.24913L23.0328 14.3744V18.1027L20.0146 19.8438L16.8066 18.0032L14.5659 9.63769C14.2868 8.5952 13.2151 7.98171 12.1727 8.25539C11.1294 8.53463 10.5103 9.6072 10.7898 10.6504L12.0237 15.2579L7.76841 12.8147C6.8303 12.2757 5.63618 12.5994 5.09935 13.5371C4.56202 14.4737 4.88605 15.6681 5.82237 16.2057L10.0688 18.6439L5.4619 19.8782C4.41853 20.1574 3.79957 21.2298 4.07901 22.2733C4.31287 23.1465 5.10253 23.7229 5.96577 23.7229C6.13389 23.7229 6.30369 23.7007 6.47311 23.6556L14.8773 21.4032L18.0619 23.2316L18.0651 26.7258L14.8392 28.5896L6.47311 26.3455C5.43708 26.0736 4.35885 26.6861 4.07901 27.7282C3.79957 28.7713 4.41853 29.844 5.4619 30.1217L10.0519 31.3528L5.81751 33.7972C4.88277 34.3375 4.56202 35.5322 5.10263 36.4671C5.46478 37.0962 6.12177 37.4446 6.79673 37.4446C7.12811 37.4446 7.46445 37.3622 7.77258 37.1818L12.0284 34.7259L10.7898 39.3511C10.5103 40.396 11.1294 41.4653 12.1727 41.7462C12.3416 41.792 12.5113 41.8136 12.6795 41.8136C13.5424 41.8136 14.332 41.2363 14.5659 40.3625L16.8177 31.961L20.0204 30.1131L23.0328 31.8513V35.6273L16.9074 41.7528C16.1436 42.5164 16.1436 43.7534 16.9074 44.5175C17.2893 44.8995 17.7887 45.0887 18.2898 45.0887C18.7892 45.0887 19.2903 44.8995 19.6723 44.5175L23.0328 41.1569V46.0451C23.0328 47.1267 23.9083 48.0003 24.9878 48.0003C26.0676 48.0003 26.9432 47.1265 26.9432 46.0451V41.1325L30.3284 44.5175C30.7102 44.8995 31.2096 45.0887 31.7107 45.0887C32.2119 45.0887 32.7113 44.8995 33.0931 44.5175C33.8566 43.7536 33.8566 42.5166 33.0931 41.7528L26.9432 35.6028V31.8664L29.9814 30.1129L33.1832 31.9608L35.435 40.3623C35.6686 41.2361 36.4582 41.8134 37.321 41.8134C37.4886 41.8134 37.6588 41.7918 37.8281 41.746C38.872 41.4651 39.4896 40.3958 39.2105 39.3509L37.9705 34.7257L42.2279 37.1816C42.5362 37.3618 42.8724 37.4444 43.2039 37.4444C43.8788 37.4444 44.5356 37.096 44.8979 36.4669C45.4384 35.532 45.1178 34.3375 44.183 33.797L39.9486 31.353L44.5385 30.1218C45.5819 29.844 46.2005 28.7713 45.921 27.7284C45.6432 26.6861 44.5694 26.0723 43.5278 26.3456ZM28.026 26.7259L25.0001 28.4736L21.9763 26.7258L21.9729 23.2285L25.0001 21.482L28.026 23.2311V26.7259Z"/>
</mask>
<path d="M43.5278 26.3456L35.1613 28.5863L31.9364 26.7259V23.2348L35.1245 21.4041L43.5276 23.6557C43.6965 23.7008 43.8662 23.723 44.0344 23.723C44.8976 23.723 45.6874 23.1466 45.9207 22.2734C46.2002 21.2299 45.5816 20.1575 44.5382 19.8783L39.9314 18.644L44.1782 16.2058C45.1143 15.6682 45.4382 14.473 44.9005 13.5366C44.3609 12.6002 43.1682 12.2758 42.2318 12.8147L37.9763 15.2586L39.2103 10.6503C39.4895 9.6071 38.8718 8.53453 37.8279 8.25529C36.791 7.9833 35.7142 8.59511 35.4346 9.63759L33.1923 18.0045L29.9843 19.8468L26.9431 18.0885V14.399L33.093 8.24913C33.8565 7.4853 33.8565 6.24808 33.093 5.48414C32.3294 4.7204 31.0925 4.7204 30.3283 5.48414L26.9431 8.86918V3.95508C26.9432 2.87545 26.0676 2 24.9878 2C23.9083 2 23.0328 2.87536 23.0328 3.95508V8.84495L19.6723 5.48414C18.9085 4.7204 17.6713 4.7204 16.9074 5.48414C16.1436 6.24798 16.1436 7.4852 16.9074 8.24913L23.0328 14.3744V18.1027L20.0146 19.8438L16.8066 18.0032L14.5659 9.63769C14.2868 8.5952 13.2151 7.98171 12.1727 8.25539C11.1294 8.53463 10.5103 9.6072 10.7898 10.6504L12.0237 15.2579L7.76841 12.8147C6.8303 12.2757 5.63618 12.5994 5.09935 13.5371C4.56202 14.4737 4.88605 15.6681 5.82237 16.2057L10.0688 18.6439L5.4619 19.8782C4.41853 20.1574 3.79957 21.2298 4.07901 22.2733C4.31287 23.1465 5.10253 23.7229 5.96577 23.7229C6.13389 23.7229 6.30369 23.7007 6.47311 23.6556L14.8773 21.4032L18.0619 23.2316L18.0651 26.7258L14.8392 28.5896L6.47311 26.3455C5.43708 26.0736 4.35885 26.6861 4.07901 27.7282C3.79957 28.7713 4.41853 29.844 5.4619 30.1217L10.0519 31.3528L5.81751 33.7972C4.88277 34.3375 4.56202 35.5322 5.10263 36.4671C5.46478 37.0962 6.12177 37.4446 6.79673 37.4446C7.12811 37.4446 7.46445 37.3622 7.77258 37.1818L12.0284 34.7259L10.7898 39.3511C10.5103 40.396 11.1294 41.4653 12.1727 41.7462C12.3416 41.792 12.5113 41.8136 12.6795 41.8136C13.5424 41.8136 14.332 41.2363 14.5659 40.3625L16.8177 31.961L20.0204 30.1131L23.0328 31.8513V35.6273L16.9074 41.7528C16.1436 42.5164 16.1436 43.7534 16.9074 44.5175C17.2893 44.8995 17.7887 45.0887 18.2898 45.0887C18.7892 45.0887 19.2903 44.8995 19.6723 44.5175L23.0328 41.1569V46.0451C23.0328 47.1267 23.9083 48.0003 24.9878 48.0003C26.0676 48.0003 26.9432 47.1265 26.9432 46.0451V41.1325L30.3284 44.5175C30.7102 44.8995 31.2096 45.0887 31.7107 45.0887C32.2119 45.0887 32.7113 44.8995 33.0931 44.5175C33.8566 43.7536 33.8566 42.5166 33.0931 41.7528L26.9432 35.6028V31.8664L29.9814 30.1129L33.1832 31.9608L35.435 40.3623C35.6686 41.2361 36.4582 41.8134 37.321 41.8134C37.4886 41.8134 37.6588 41.7918 37.8281 41.746C38.872 41.4651 39.4896 40.3958 39.2105 39.3509L37.9705 34.7257L42.2279 37.1816C42.5362 37.3618 42.8724 37.4444 43.2039 37.4444C43.8788 37.4444 44.5356 37.096 44.8979 36.4669C45.4384 35.532 45.1178 34.3375 44.183 33.797L39.9486 31.353L44.5385 30.1218C45.5819 29.844 46.2005 28.7713 45.921 27.7284C45.6432 26.6861 44.5694 26.0723 43.5278 26.3456ZM28.026 26.7259L25.0001 28.4736L21.9763 26.7258L21.9729 23.2285L25.0001 21.482L28.026 23.2311V26.7259Z" fill="#F93F20" stroke="white" stroke-width="2.4" mask="url(#path-1-inside-1)"/>
</g>
<defs>
<clipPath id="clip0">
<rect width="46" height="46" fill="white" transform="translate(2 2)"/>
</clipPath>
</defs>
</svg>
