<svg width="50" height="50" viewBox="0 0 50 50" fill="none" xmlns="http://www.w3.org/2000/svg">
<rect width="50" height="50" fill="white"/>
<mask id="path-1-inside-1" fill="white">
<path d="M45.2138 10.5605C45.7557 10.344 46.2633 10.0173 46.7013 9.57926C48.4329 7.84771 48.4329 5.03027 46.7013 3.29873C44.9699 1.56709 42.1523 1.56709 40.4208 3.29873C39.9828 3.73673 39.656 4.24437 39.4396 4.78624L37.9521 3.29873C36.2206 1.56709 33.403 1.56709 31.6715 3.29873L28.5312 6.43899L31.8121 9.71996L28.9091 12.623L26.0147 10.5556L24.4479 12.749L26.9767 14.5553L24.5344 16.9976L21.64 14.9302L20.0732 17.1236L22.602 18.9299L20.1597 21.3722L17.2653 19.3048L15.6986 21.4982L18.2273 23.3045L16.7367 24.795L13.4558 21.5141L10.3155 24.6543C9.47668 25.4931 9.01469 26.6083 9.01469 27.7945C9.01469 28.9809 9.47668 30.0961 10.3155 30.9348L11.5498 32.1691L7.68727 36.0317C6.20065 36.1046 4.8134 36.7181 3.75356 37.778C2.62282 38.9092 2 40.4128 2 42.0122C2 43.6117 2.62282 45.1153 3.75383 46.2462C4.88474 47.3772 6.38835 48 7.98782 48C9.5872 48 11.0908 47.3772 12.2217 46.2462C13.2816 45.1863 13.8952 43.7991 13.9681 42.3125L17.8306 38.4499L19.065 39.6842C19.9038 40.5231 21.019 40.9851 22.2053 40.9851C23.3916 40.9851 24.5068 40.5231 25.3455 39.6842L28.4858 36.544L25.2048 33.263L28.1066 30.3612L31.0099 32.435L32.5766 30.2416L30.039 28.4289L32.4813 25.9866L35.3846 28.0604L36.9513 25.867L34.4137 24.0543L36.856 21.612L39.7592 23.6858L41.326 21.4924L38.7884 19.6798L40.2801 18.188L43.5611 21.469L46.7013 18.3287C48.4329 16.5972 48.4329 13.7797 46.7013 12.0482L45.2138 10.5605ZM42.3266 5.20466C42.667 4.86441 43.114 4.69415 43.561 4.69415C44.008 4.69415 44.455 4.86441 44.7953 5.20466C45.4759 5.88526 45.4759 6.99272 44.7953 7.67341C44.1146 8.35391 43.0073 8.35391 42.3266 7.67341C41.6461 6.99272 41.6461 5.88526 42.3266 5.20466ZM10.3158 44.3402C9.03203 45.624 6.94334 45.6239 5.65977 44.3402C4.37611 43.0566 4.37611 40.9679 5.65977 39.6842C6.28161 39.0624 7.10839 38.72 7.98782 38.72C8.86716 38.72 9.69393 39.0625 10.3158 39.6842C10.9376 40.306 11.28 41.1329 11.28 42.0122C11.28 42.8916 10.9376 43.7184 10.3158 44.3402ZM13.2743 39.1945C12.9991 38.6797 12.6462 38.2027 12.2217 37.7783C11.7973 37.3539 11.3204 37.001 10.8055 36.7257L13.456 34.0752L15.9248 36.544L13.2743 39.1945ZM23.4395 37.7783C23.1098 38.108 22.6715 38.2895 22.2053 38.2895C21.739 38.2895 21.3007 38.108 20.971 37.7783L12.2217 29.029V29.0289C11.892 28.6993 11.7105 28.261 11.7105 27.7947C11.7105 27.3285 11.8921 26.8902 12.2217 26.5605L13.456 25.3261L24.674 36.544L23.4395 37.7783ZM23.299 31.3571L18.643 26.7011L20.4511 24.8929L25.8832 28.7729L23.299 31.3571ZM27.8154 26.8406L22.3834 22.9606L24.8257 20.5183L30.2578 24.3983L27.8154 26.8406ZM32.1901 22.466L26.7581 18.586L29.2004 16.1437L34.6324 20.0237L32.1901 22.466ZM36.5647 18.0913L31.1327 14.2114L33.7182 11.6259L38.3742 16.2819L36.5647 18.0913ZM44.7954 16.4226L43.5611 17.6569L32.343 6.43899L33.5774 5.20466C34.258 4.52416 35.3653 4.52416 36.0461 5.20466L44.7954 13.9539C45.476 14.6345 45.476 15.742 44.7954 16.4226Z"/>
</mask>
<path d="M45.2138 10.5605C45.7557 10.344 46.2633 10.0173 46.7013 9.57926C48.4329 7.84771 48.4329 5.03027 46.7013 3.29873C44.9699 1.56709 42.1523 1.56709 40.4208 3.29873C39.9828 3.73673 39.656 4.24437 39.4396 4.78624L37.9521 3.29873C36.2206 1.56709 33.403 1.56709 31.6715 3.29873L28.5312 6.43899L31.8121 9.71996L28.9091 12.623L26.0147 10.5556L24.4479 12.749L26.9767 14.5553L24.5344 16.9976L21.64 14.9302L20.0732 17.1236L22.602 18.9299L20.1597 21.3722L17.2653 19.3048L15.6986 21.4982L18.2273 23.3045L16.7367 24.795L13.4558 21.5141L10.3155 24.6543C9.47668 25.4931 9.01469 26.6083 9.01469 27.7945C9.01469 28.9809 9.47668 30.0961 10.3155 30.9348L11.5498 32.1691L7.68727 36.0317C6.20065 36.1046 4.8134 36.7181 3.75356 37.778C2.62282 38.9092 2 40.4128 2 42.0122C2 43.6117 2.62282 45.1153 3.75383 46.2462C4.88474 47.3772 6.38835 48 7.98782 48C9.5872 48 11.0908 47.3772 12.2217 46.2462C13.2816 45.1863 13.8952 43.7991 13.9681 42.3125L17.8306 38.4499L19.065 39.6842C19.9038 40.5231 21.019 40.9851 22.2053 40.9851C23.3916 40.9851 24.5068 40.5231 25.3455 39.6842L28.4858 36.544L25.2048 33.263L28.1066 30.3612L31.0099 32.435L32.5766 30.2416L30.039 28.4289L32.4813 25.9866L35.3846 28.0604L36.9513 25.867L34.4137 24.0543L36.856 21.612L39.7592 23.6858L41.326 21.4924L38.7884 19.6798L40.2801 18.188L43.5611 21.469L46.7013 18.3287C48.4329 16.5972 48.4329 13.7797 46.7013 12.0482L45.2138 10.5605ZM42.3266 5.20466C42.667 4.86441 43.114 4.69415 43.561 4.69415C44.008 4.69415 44.455 4.86441 44.7953 5.20466C45.4759 5.88526 45.4759 6.99272 44.7953 7.67341C44.1146 8.35391 43.0073 8.35391 42.3266 7.67341C41.6461 6.99272 41.6461 5.88526 42.3266 5.20466ZM10.3158 44.3402C9.03203 45.624 6.94334 45.6239 5.65977 44.3402C4.37611 43.0566 4.37611 40.9679 5.65977 39.6842C6.28161 39.0624 7.10839 38.72 7.98782 38.72C8.86716 38.72 9.69393 39.0625 10.3158 39.6842C10.9376 40.306 11.28 41.1329 11.28 42.0122C11.28 42.8916 10.9376 43.7184 10.3158 44.3402ZM13.2743 39.1945C12.9991 38.6797 12.6462 38.2027 12.2217 37.7783C11.7973 37.3539 11.3204 37.001 10.8055 36.7257L13.456 34.0752L15.9248 36.544L13.2743 39.1945ZM23.4395 37.7783C23.1098 38.108 22.6715 38.2895 22.2053 38.2895C21.739 38.2895 21.3007 38.108 20.971 37.7783L12.2217 29.029V29.0289C11.892 28.6993 11.7105 28.261 11.7105 27.7947C11.7105 27.3285 11.8921 26.8902 12.2217 26.5605L13.456 25.3261L24.674 36.544L23.4395 37.7783ZM23.299 31.3571L18.643 26.7011L20.4511 24.8929L25.8832 28.7729L23.299 31.3571ZM27.8154 26.8406L22.3834 22.9606L24.8257 20.5183L30.2578 24.3983L27.8154 26.8406ZM32.1901 22.466L26.7581 18.586L29.2004 16.1437L34.6324 20.0237L32.1901 22.466ZM36.5647 18.0913L31.1327 14.2114L33.7182 11.6259L38.3742 16.2819L36.5647 18.0913ZM44.7954 16.4226L43.5611 17.6569L32.343 6.43899L33.5774 5.20466C34.258 4.52416 35.3653 4.52416 36.0461 5.20466L44.7954 13.9539C45.476 14.6345 45.476 15.742 44.7954 16.4226Z" fill="#F93F20" stroke="white" mask="url(#path-1-inside-1)"/>
</svg>
