<svg width="50" height="50" viewBox="0 0 50 50" fill="none" xmlns="http://www.w3.org/2000/svg">
<rect width="50" height="50" fill="white"/>
<path d="M39.3421 16.4486H39.0421V16.7486V18.114H38.1598V16.7493V16.4493H37.8598H36.4951V15.5644H37.8598H38.1598V15.2644V13.899H39.0421V15.2644V15.5644H39.3421H40.7075V16.4486H39.3421ZM41.1513 9.62952H47.7V43.6593H2.3V9.62952H8.8507H9.1507V9.32952V7.16328H13.3658V9.32952V9.62952H13.6658H36.3356H36.6356V9.32952V7.16328H40.8513V9.32952V9.62952H41.1513ZM4.66846 40.9916V41.2916H4.96846H21.2305H21.2681H21.5226H21.6974H45.0289H45.3289V40.9916V12.2979H45.0322V11.9979H45.0289H44.7289H29.928H29.7562L29.6692 12.1461L24.5233 20.9135L24.2581 21.3653H24.7821H30.3342L21.6881 40.2899L23.901 26.9021L23.9587 26.5532H23.605H16.734L22.6594 12.4126L22.8337 11.9966H22.3827H4.96846H4.66846V12.2966V40.9916ZM9.1507 15.5644H13.3658V16.4493H9.1507V15.5644Z" fill="#F93F20" stroke="white" stroke-width="0.6"/>
<rect x="15" y="18" width="1" height="6" transform="rotate(90 15 18)" fill="#F93F20"/>
<rect x="36" y="13" width="6" height="5" fill="white"/>
<rect x="9" y="13" width="6" height="5" fill="white"/>
<rect x="38" y="16" width="1" height="5" fill="#F93F20"/>
<rect x="41" y="18" width="1" height="5" transform="rotate(90 41 18)" fill="#F93F20"/>
</svg>
