<svg width="50" height="50" viewBox="0 0 50 50" fill="none" xmlns="http://www.w3.org/2000/svg">
<rect width="50" height="50" fill="white"/>
<path d="M47.693 16.9725V17.2725H47.7V41.209L47.6959 41.379C47.6124 44.8208 44.8287 47.6042 41.3861 47.6877L41.2161 47.6918H13.4949V47.6795L13.19 47.6845C13.1261 47.6856 13.0647 47.6866 13.0037 47.6866C10.2605 47.6866 7.51873 46.6429 5.43139 44.5555L5.21926 44.7677L5.43137 44.5555C1.54686 40.6717 1.2771 34.5205 4.62149 30.3207L4.62155 30.3207L4.62573 30.3152L22.6507 6.57754C25.4225 3.81353 29.1024 2.29219 33.018 2.29219C36.9403 2.29219 40.6262 3.8188 43.3996 6.5919C46.2619 9.4538 47.693 13.2123 47.693 16.9725ZM6.91421 30.8955L6.9142 30.8955C3.55636 34.253 3.55636 39.7156 6.9142 43.0731C10.272 46.4306 15.735 46.4306 19.0931 43.0731L18.881 42.861L19.0931 43.0731C22.451 39.7156 22.451 34.253 19.0931 30.8955L19.0931 30.8955C17.4141 29.2168 15.2079 28.3773 13.0037 28.3773C10.7988 28.3773 8.59359 29.2165 6.91421 30.8955ZM45.1221 36.055L45.603 36.4184V35.8156V25.549V24.596L45.0571 25.3771C44.5718 26.0714 44.0195 26.7331 43.3999 27.3527C40.6265 30.1261 36.9403 31.6527 33.018 31.6527C29.096 31.6527 25.4098 30.1258 22.6363 27.3527C19.6675 24.3842 18.2387 20.4503 18.3499 16.5511L18.3766 15.6136L17.8107 16.3616L10.4913 26.0369L10.008 26.6757L10.7921 26.5115C14.2165 25.7943 17.9243 26.7618 20.576 29.4131C24.7509 33.5877 24.7509 40.3809 20.576 44.5555L20.7881 44.7677L20.5759 44.5555C20.3973 44.7342 20.2133 44.9049 20.0248 45.0687L19.4193 45.5951H20.2216H35.8221H36.4248L36.0614 45.1143C35.2415 44.0293 34.7544 42.6808 34.7544 41.2199C34.7544 37.6515 37.6582 34.748 41.2274 34.748C42.6883 34.748 44.0371 35.2351 45.1221 36.055ZM33.018 4.38888C29.657 4.38888 26.4955 5.69829 24.1191 8.07469C19.2122 12.9812 19.2122 20.9637 24.1191 25.8702C26.4955 28.2466 29.657 29.556 33.018 29.556C36.3789 29.556 39.5404 28.2466 41.9168 25.8703C46.8241 20.9637 46.8241 12.9812 41.9168 8.07469C39.5404 5.69829 36.3789 4.38888 33.018 4.38888ZM36.8515 41.2199C36.8515 43.6328 38.8143 45.5951 41.2274 45.5951C43.6402 45.5951 45.603 43.6328 45.603 41.2199C45.603 38.8071 43.6402 36.8447 41.2274 36.8447C38.8143 36.8447 36.8515 38.8071 36.8515 41.2199Z" fill="#F93F20" stroke="white" stroke-width="0.6"/>
<path d="M26.4253 11.9697L26.4252 11.9696C25.9237 11.6802 25.2825 11.8523 24.9932 12.3538L24.9932 12.3539C24.1865 13.7522 23.7598 15.3496 23.7598 16.973V16.9825C23.7598 17.5615 24.229 18.0308 24.8085 18.0308C25.3875 18.0308 25.8568 17.5615 25.8568 16.9825V16.973C25.8568 15.7174 26.1859 14.4826 26.8097 13.4014L26.4253 11.9697ZM26.4253 11.9697C26.9271 12.2589 27.099 12.8998 26.8098 13.4013L26.4253 11.9697Z" fill="#F93F20" stroke="white" stroke-width="0.6"/>
<path d="M36.5998 23.1739L36.5998 23.1739C37.1011 22.8835 37.7426 23.0547 38.0327 23.5556L38.0327 23.5556C38.323 24.0569 38.152 24.698 37.6507 24.9881L37.6506 24.9881C36.2502 25.799 34.6501 26.2284 33.0229 26.2294H33.0224C32.4433 26.2294 31.974 25.7603 31.9737 25.1816C31.9735 24.6026 32.4425 24.133 33.0215 24.1327H33.0216C34.2801 24.132 35.5175 23.8007 36.5998 23.1739Z" fill="#F93F20" stroke="white" stroke-width="0.6"/>
<path d="M25.0038 21.6095L25.0037 21.6095C24.7131 21.1084 24.8837 20.467 25.3846 20.1767C25.8857 19.8863 26.5275 20.057 26.8178 20.5575C27.4474 21.6439 28.3549 22.5495 29.4423 23.1772C29.9436 23.4672 30.1153 24.1081 29.8256 24.6095L29.8255 24.6096C29.6318 24.9453 29.2797 25.1337 28.9163 25.1337C28.7388 25.1337 28.5591 25.0887 28.3932 24.9929L28.3932 24.9929C26.9892 24.1821 25.8169 23.0118 25.0038 21.6095Z" fill="#F93F20" stroke="white" stroke-width="0.6"/>
<path d="M39.6041 21.9826L39.6045 21.9829C39.7696 22.0786 39.9497 22.1238 40.1278 22.1238C40.4906 22.1238 40.8422 21.9358 41.0367 21.6001C41.8468 20.1994 42.2753 18.599 42.2753 16.9718V16.9528C42.2753 16.3738 41.806 15.9045 41.2269 15.9045C40.6475 15.9045 40.1782 16.3739 40.1782 16.9528V16.9718C40.1782 18.2303 39.8476 19.4677 39.2213 20.5504L39.6041 21.9826ZM39.6041 21.9826C39.1029 21.6929 38.9315 21.0517 39.2212 20.5504L39.6041 21.9826Z" fill="#F93F20" stroke="white" stroke-width="0.6"/>
<path d="M29.4278 10.7762L29.428 10.776C30.5099 10.1482 31.7469 9.8154 33.0051 9.8132L33.0052 9.8132C33.5842 9.81238 34.0529 9.34222 34.0518 8.76331C34.0507 8.18469 33.5816 7.7165 33.0035 7.7165H33.0035H33.0035H33.0035H33.0035H33.0035H33.0035H33.0035H33.0035H33.0034H33.0034H33.0034H33.0034H33.0034H33.0034H33.0034H33.0034H33.0034H33.0034H33.0034H33.0034H33.0034H33.0034H33.0034H33.0034H33.0034H33.0034H33.0034H33.0034H33.0034H33.0034H33.0034H33.0034H33.0033H33.0033H33.0033H33.0033H33.0033H33.0033H33.0033H33.0033H33.0033H33.0033H33.0033H33.0033H33.0033H33.0033H33.0033H33.0033H33.0033H33.0033H33.0033H33.0033H33.0033H33.0033H33.0032H33.0032H33.0032H33.0032H33.0032H33.0032H33.0032H33.0032H33.0032H33.0032H33.0032H33.0032H33.0032H33.0032H33.0032H33.0032H33.0032H33.0032H33.0032H33.0032H33.0032H33.0032H33.0031H33.0031H33.0031H33.0031H33.0031H33.0031H33.0031H33.0031H33.0031H33.0031H33.0031H33.0031H33.0031H33.0031H33.0031H33.0031H33.0031H33.0031H33.0031H33.0031H33.0031H33.003H33.003H33.003H33.003H33.003H33.003H33.003H33.003H33.003H33.003H33.003H33.003H33.003H33.003H33.003H33.003H33.003H33.003H33.003H33.003H33.003H33.0029H33.0029H33.0029H33.0029H33.0029H33.0029H33.0029H33.0029H33.0029H33.0029H33.0029H33.0029H33.0029H33.0029H33.0029H33.0029H33.0029H33.0029H33.0029H33.0029H33.0029H33.0028H33.0028H33.0028H33.0028H33.0028H33.0028H33.0028H33.0028H33.0028H33.0028H33.0028H33.0028H33.0028H33.0028H33.0028H33.0028H33.0028H33.0028H33.0028H33.0028H33.0027H33.0027H33.0027H33.0027H33.0027H33.0027H33.0027H33.0027H33.0027H33.0027H33.0027H33.0027H33.0027H33.0027H33.0027H33.0027H33.0027H33.0027H33.0027H33.0027H33.0026H33.0026H33.0026H33.0026H33.0026H33.0026H33.0026H33.0026H33.0026H33.0026H33.0026H33.0026H33.0026H33.0026H33.0026H33.0026H33.0026H33.0026H33.0026H33.0025H33.0025H33.0025H33.0025H33.0025H33.0025H33.0025H33.0025H33.0025H33.0025H33.0025H33.0025H33.0025H33.0025H33.0025H33.0025H33.0025H33.0025H33.0025H33.0025H33.0024H33.0024H33.0024H33.0024H33.0024H33.0024H33.0024H33.0024H33.0024H33.0024H33.0024H33.0024H33.0024H33.0024H33.0024H33.0024H33.0024H33.0024H33.0024H33.0023H33.0023H33.0023H33.0023H33.0023H33.0023H33.0023H33.0023H33.0023H33.0023H33.0023H33.0023H33.0023H33.0023H33.0023H33.0023H33.0023H33.0023H33.0023H33.0023H33.0022H33.0022H33.0022H33.0022H33.0022H33.0022H33.0022H33.0022H33.0022H33.0022H33.0022H33.0022H33.0022H33.0022H33.0022H33.0022H33.0022H33.0022H33.0022H33.0021H33.0021H33.0021H33.0021H33.0021H33.0021H33.0021H33.0021H33.0021H33.0021H33.0021H33.0021H33.0021H33.0021H33.0021H33.0021H33.0021H33.0021H33.0021H33.0021H33.002H33.002H33.002H33.002H33.002H33.002H33.002H33.002H33.002H33.002H33.002H33.002H33.002H33.002H33.002H33.002H33.002H33.002H33.002H33.0019H33.0019H33.0019H33.0019H33.0019H33.0019H33.0019H33.0019H33.0019H33.0019H33.0019H33.0019H33.0019H33.0019H33.0019H33.0019H33.0019H33.0019H33.0019H33.0019H33.0018H33.0018H33.0018H33.0018H33.0018H33.0018H33.0018H33.0018H33.0018H33.0018H33.0018H33.0018H33.0018H33.0018H33.0018H33.0018H33.0018H33.0018H33.0018H33.0018H33.0017H33.0017H33.0017H33.0017H33.0017H33.0017H33.0017H33.0017H33.0017H33.0017H33.0017H33.0017H33.0017H33.0017H33.0017H33.0017H33.0017H33.0017H33.0017H33.0017H33.0016H33.0016H33.0016H33.0016H33.0016H33.0016H33.0016H33.0016H33.0016H33.0016H33.0016H33.0016H33.0016H33.0016H33.0016H33.0016H33.0016H33.0016H33.0016H33.0016H33.0016H33.0015H33.0015H33.0015H33.0015H33.0015H33.0015H33.0015H33.0015H33.0015H33.0015H33.0015H33.0015H33.0015H33.0015H33.0015H33.0015H33.0015H33.0015H33.0015H33.0015H33.0015H33.0014H33.0014H33.0014H33.0014H33.0014H33.0014H33.0014H33.0014H33.0014H33.0014H33.0014H33.0014H33.0014H33.0014H33.0014H33.0014H33.0014H33.0014H33.0014H33.0014H33.0014H33.0013H33.0013H33.0013H33.0013H33.0013H33.0013H33.0013H33.0013H33.0013H33.0013H33.0013H33.0013H33.0013H33.0013H33.0013H33.0013C31.3742 7.71927 29.7746 8.1504 28.3749 8.96284L29.4278 10.7762ZM29.4278 10.7762C29.2617 10.8727 29.0809 10.9183 28.9026 10.9183C28.5406 10.9183 28.1892 10.7308 27.9948 10.396L27.9948 10.3959C27.704 9.89533 27.8741 9.25386 28.3749 8.96289L28.2243 8.70344C27.5803 9.07755 27.3613 9.90263 27.7354 10.5466C27.9856 10.9776 28.438 11.2183 28.9026 11.2183C29.1325 11.2183 29.3655 11.1594 29.5786 11.0355C30.6146 10.4343 31.7997 10.1153 33.0056 10.1132L29.4278 10.7762Z" fill="#F93F20" stroke="white" stroke-width="0.6"/>
<path d="M36.5858 10.7627L36.5859 10.7627C37.6736 11.3893 38.5821 12.2938 39.2132 13.3794L39.2132 13.3795C39.4076 13.7139 39.7586 13.9012 40.1207 13.9012C40.299 13.9012 40.4799 13.8554 40.6466 13.7586L36.5858 10.7627ZM36.5858 10.7627C36.0841 10.4737 35.9116 9.83283 36.2005 9.331L36.5858 10.7627ZM41.0259 12.3257L41.0258 12.3256C40.211 10.924 39.0373 9.75512 37.6327 8.94605L41.0259 12.3257ZM41.0259 12.3257C41.317 12.826 41.1471 13.4677 40.6467 13.7586L41.0259 12.3257ZM36.2006 9.33093C36.4895 8.82958 37.1304 8.65698 37.6326 8.946L36.2006 9.33093Z" fill="#F93F20" stroke="white" stroke-width="0.6"/>
<path d="M36.9956 16.9721C36.9956 19.1647 35.211 20.9494 33.0175 20.9494C30.8241 20.9494 29.0394 19.1647 29.0394 16.9721C29.0394 14.7791 30.8241 12.9947 33.0175 12.9947C35.211 12.9947 36.9956 14.7791 36.9956 16.9721ZM34.8986 16.9721C34.8986 15.9345 34.0549 15.0914 33.0175 15.0914C31.9802 15.0914 31.1365 15.9345 31.1365 16.9721C31.1365 18.0092 31.9801 18.8528 33.0175 18.8528C34.0549 18.8528 34.8986 18.0092 34.8986 16.9721Z" fill="#F93F20" stroke="white" stroke-width="0.6"/>
<path d="M9.02515 36.9846C9.02515 34.792 10.8098 33.0073 13.0032 33.0073C15.1963 33.0073 16.9813 34.792 16.9813 36.9846C16.9813 39.1776 15.1963 40.962 13.0032 40.962C10.8101 40.962 9.02515 39.1776 9.02515 36.9846ZM11.1222 36.9846C11.1222 38.0222 11.9659 38.8653 13.0032 38.8653C14.0406 38.8653 14.8843 38.0222 14.8843 36.9846C14.8843 35.9475 14.0406 35.104 13.0032 35.104C11.9658 35.104 11.1222 35.9475 11.1222 36.9846Z" fill="#F93F20" stroke="white" stroke-width="0.6"/>
<path d="M40.1782 40.7702C40.1782 40.1912 40.6475 39.7219 41.2269 39.7219C41.806 39.7219 42.2753 40.1912 42.2753 40.7702V41.6694C42.2753 42.2484 41.806 42.7177 41.2269 42.7177C40.6475 42.7177 40.1782 42.2483 40.1782 41.6694V40.7702Z" fill="#F93F20" stroke="white" stroke-width="0.6"/>
</svg>
