<svg width="50" height="50" viewBox="0 0 50 50" fill="none" xmlns="http://www.w3.org/2000/svg">
<rect width="50" height="50" fill="white"/>
<path d="M47.6937 41.2597L47.6957 41.261C47.7841 41.3186 47.8875 41.3479 47.9788 41.3479C48.0458 41.3479 48.1379 41.3359 48.2074 41.2884C48.3726 41.2115 48.4744 41.0364 48.4744 40.8621V20.6072C48.4744 19.598 47.9642 18.6539 47.1033 18.0679C44.5245 16.3059 42.2994 13.8848 41.2044 12.604C40.7108 12.0078 40.0491 11.5646 39.3105 11.3115C25.6624 6.61032 14.5032 10.1013 11.4097 11.2874C10.735 11.5409 10.1254 11.9716 9.65835 12.529C8.55045 13.8226 6.31257 16.281 3.69565 18.0553L3.69553 18.0554C2.8346 18.6415 2.32441 19.5855 2.32441 20.5948V40.8621C2.32441 41.0536 2.43074 41.215 2.59358 41.3017L2.59339 41.3021L2.60057 41.305C2.7741 41.3756 2.96672 41.363 3.11728 41.2601L3.11743 41.2603L3.12229 41.2563C3.1222 41.2564 3.1225 41.2562 3.12322 41.2557C3.12585 41.2538 3.13409 41.2479 3.14994 41.2369C3.16863 41.2239 3.19564 41.2055 3.23086 41.1819C3.30128 41.1347 3.40434 41.0671 3.53904 40.9821C3.80843 40.812 4.20426 40.5721 4.71861 40.2857C5.74734 39.7128 7.24999 38.9541 9.16326 38.1961C12.9898 36.68 18.4579 35.1669 25.0615 35.1482C31.659 35.1606 37.2964 36.6738 41.2956 38.1918C43.2952 38.9508 44.8849 39.7108 45.9799 40.2848C46.5274 40.5718 46.9512 40.8123 47.2408 40.9828C47.3855 41.068 47.4967 41.1358 47.5729 41.1831C47.6111 41.2068 47.6404 41.2253 47.6609 41.2384L47.6847 41.2538L47.6914 41.2582C47.6932 41.2594 47.6938 41.2598 47.6937 41.2597ZM47.9788 41.2729C47.9023 41.2729 47.8131 41.248 47.7366 41.1982L48.17 41.2231C48.119 41.2604 48.0425 41.2729 47.9788 41.2729ZM47.4832 39.9854C46.4743 39.4078 44.5139 38.3632 41.7728 37.3187C38.0453 35.8973 32.122 34.189 25.0618 34.1765H25.0615C18.0011 34.189 12.256 35.8974 8.68093 37.319L8.68079 37.3191C6.1048 38.3495 4.2825 39.3685 3.31564 39.9564V20.5948C3.31564 19.9115 3.67172 19.262 4.26389 18.8644L4.26433 18.8641C6.97484 17.0159 9.28701 14.4826 10.4227 13.149L10.4236 13.1479C10.7722 12.7224 11.2455 12.3817 11.7683 12.1872L11.769 12.1869C14.781 11.0325 25.659 7.62708 38.9805 12.2249C39.5428 12.4325 40.0541 12.774 40.44 13.2239C41.5633 14.5454 43.8625 17.041 46.5345 18.8641L46.5349 18.8644C47.1271 19.262 47.4832 19.9115 47.4832 20.5948V39.9854Z" fill="#F93F20" stroke="#F93F20" stroke-width="0.15"/>
<path d="M11.2212 34.8658L11.2212 34.8663L11.7275 35.2604L11.7294 35.3352L11.7294 35.2954C11.7294 35.2825 11.7294 35.2705 11.7294 35.2604L11.7333 35.3353C12.0148 35.3208 12.2272 35.0883 12.2122 34.8208C11.8942 28.5967 13.4718 21.6723 14.8604 16.9439L14.8606 16.9433C14.936 16.6782 14.7839 16.4129 14.5149 16.34C14.2479 16.2675 13.9763 16.4125 13.9007 16.6779C12.4979 21.4608 10.9019 28.5041 11.2212 34.8658Z" fill="#F93F20" stroke="#F93F20" stroke-width="0.15"/>
<path d="M14.5513 14.5723L14.5512 14.5723L14.5506 14.5745C14.4761 14.8366 14.6237 15.0965 14.8708 15.186C14.9265 15.2181 14.9922 15.2179 15.0257 15.2178C15.0274 15.2178 15.0291 15.2178 15.0306 15.2178C15.2412 15.2178 15.4354 15.0853 15.5095 14.8683L15.5095 14.8683L15.5098 14.8672C15.7136 14.2392 15.8854 13.7386 16.0064 13.3936C16.0668 13.2211 16.1146 13.0875 16.1472 12.9961L16.1847 12.8908L16.1947 12.8619L16.1978 12.8521L16.1989 12.848C16.286 12.5869 16.152 12.3092 15.8963 12.2211L15.8963 12.221L15.8951 12.2206C15.6316 12.1349 15.3467 12.2615 15.2542 12.5127C15.25 12.5225 15.2437 12.5387 15.2367 12.557C15.2268 12.5827 15.2131 12.6192 15.1958 12.6662C15.1612 12.7601 15.1121 12.8963 15.0507 13.0717C14.9277 13.4225 14.7554 13.9305 14.5513 14.5723Z" fill="#F93F20" stroke="#F93F20" stroke-width="0.15"/>
<path d="M39.0526 35.3364L39.0526 35.3365H39.0567H39.0567H39.0568H39.0569H39.057H39.057H39.0571H39.0572H39.0573H39.0573H39.0574H39.0575H39.0575H39.0576H39.0577H39.0578H39.0578H39.0579H39.058H39.058H39.0581H39.0582H39.0582H39.0583H39.0584H39.0585H39.0585H39.0586H39.0587H39.0587H39.0588H39.0589H39.0589H39.059H39.0591H39.0591H39.0592H39.0592H39.0593H39.0594H39.0594H39.0595H39.0596H39.0596H39.0597H39.0598H39.0598H39.0599H39.0599H39.06H39.0601H39.0601H39.0602H39.0603H39.0603H39.0604H39.0604H39.0605H39.0606H39.0606H39.0607H39.0607H39.0608H39.0608H39.0609H39.061H39.061H39.0611H39.0611H39.0612H39.0613H39.0613H39.0614H39.0614H39.0615H39.0615H39.0616H39.0616H39.0617H39.0618H39.0618H39.0619H39.0619H39.062H39.062H39.0621H39.0621H39.0622H39.0622H39.0623H39.0624H39.0624H39.0625H39.0625H39.0626H39.0626H39.0627H39.0627H39.0628H39.0628H39.0629H39.0629H39.063H39.063H39.0631H39.0631H39.0632H39.0632H39.0633H39.0633H39.0634H39.0634H39.0635H39.0635H39.0636H39.0636H39.0637H39.0637H39.0638H39.0638H39.0639H39.0639H39.064H39.064H39.0641H39.0641H39.0641H39.0642H39.0642H39.0643H39.0643H39.0644H39.0644H39.0645H39.0645H39.0646H39.0646H39.0647H39.0647H39.0647H39.0648H39.0648H39.0649H39.0649H39.065H39.065H39.0651H39.0651H39.0651H39.0652H39.0652H39.0653H39.0653H39.0654H39.0654H39.0655H39.0655H39.0655H39.0656H39.0656H39.0657H39.0657H39.0658H39.0658H39.0658H39.0659H39.0659H39.066H39.066H39.066H39.0661H39.0661H39.0662H39.0662H39.0663H39.0663H39.0663H39.0664H39.0664H39.0665H39.0665H39.0665H39.0666H39.0666H39.0667H39.0667H39.0667H39.0668H39.0668H39.0669H39.0669H39.0669H39.067H39.067H39.0671H39.0671H39.0671H39.0672H39.0672H39.0673H39.0673H39.0673H39.0674H39.0674H39.0675H39.0675H39.0675H39.0676H39.0676H39.0676H39.0677H39.0677H39.0678H39.0678H39.0678H39.0679H39.0679H39.068H39.068H39.068H39.0681H39.0681H39.0681H39.0682H39.0682H39.0683H39.0683H39.0683H39.0684H39.0684H39.0684H39.0685H39.0685H39.0686H39.0686H39.0686H39.0687H39.0687H39.0687H39.0688H39.0688H39.0689H39.0689H39.0689H39.069H39.069H39.069H39.0691H39.0691H39.0692H39.0692H39.0692H39.0693H39.0693H39.0693H39.0694H39.0694H39.0695H39.0695H39.0695H39.0696H39.0696H39.0696H39.0697H39.0697H39.0698H39.0698H39.0698H39.0699H39.0699H39.0699H39.07H39.07H39.0701H39.0701H39.0701H39.0702H39.0702H39.0702H39.0703H39.0703H39.0704H39.0704H39.0704H39.0705H39.0705H39.0705H39.0706H39.0706H39.0707H39.0707H39.0707H39.0708H39.0708H39.0708H39.0709H39.0709H39.071H39.071H39.071H39.0711H39.0711H39.0712H39.0712H39.0712H39.0713H39.0713H39.0713H39.0714H39.0714H39.0715H39.0715H39.0715H39.0716H39.0716H39.0717H39.0717H39.0717H39.0718H39.0718H39.0719H39.0719H39.0719H39.072H39.072H39.0721H39.0721H39.0721H39.0722H39.0722H39.0723H39.0723H39.0723H39.0724H39.0724H39.0725H39.0725H39.0725H39.0726H39.0726H39.0727H39.0727H39.0728H39.0728H39.0728H39.0729H39.0729H39.073H39.073H39.073H39.0731H39.0731H39.0732H39.0732H39.0733H39.0733H39.0733H39.0734H39.0734H39.0735H39.0735H39.0736H39.0736H39.0736H39.0737H39.0737H39.0738H39.0738H39.0739H39.0739H39.074H39.074H39.074H39.0741H39.0741H39.0742H39.0742H39.0743H39.0743H39.0744H39.0744H39.0745H39.0745H39.0745H39.0746H39.0746H39.0747H39.0747H39.0748H39.0748H39.0749H39.0749H39.075H39.075H39.0751H39.0751H39.0752H39.0752H39.0753H39.0753H39.0754H39.0754H39.0755H39.0755H39.0756H39.0756H39.0757H39.0757H39.0758H39.0758H39.0759H39.0759H39.076H39.076H39.0761H39.0761H39.0762H39.0762H39.0763H39.0763H39.0764H39.0764H39.0765H39.0765H39.0766H39.0766H39.0767H39.0768H39.0768H39.0769H39.0769H39.077H39.077H39.0771H39.0771H39.0772H39.0772H39.0773H39.0774H39.0774H39.0775H39.0775H39.0776H39.0776H39.0777H39.0778H39.0778H39.0779H39.0779H39.078H39.078H39.0781H39.0782H39.0782H39.0783H39.0783H39.0784H39.0785H39.0785H39.0786H39.0786H39.0787H39.0788H39.0788H39.0789H39.079H39.079H39.0791H39.0791H39.0792H39.0793H39.0793H39.0794H39.0795H39.0795H39.0796H39.0797H39.0797H39.0798H39.0799H39.0799H39.08H39.08H39.0801H39.0802H39.0802H39.0803H39.0804H39.0805H39.0805H39.0806H39.0807H39.0807H39.0808H39.0809H39.0809H39.081H39.0811H39.0811H39.0812H39.0813H39.0814H39.0814H39.0815H39.0816H39.0816H39.0817H39.0818H39.0819H39.0819H39.082H39.0821H39.0822C39.3507 35.3365 39.5639 35.1313 39.565 34.8652C39.8967 28.5162 38.288 21.4737 36.8854 16.679C36.8098 16.4136 36.5382 16.2686 36.2712 16.3411C36.0022 16.414 35.8501 16.6793 35.9255 16.9444L35.9255 16.9444L35.9257 16.945C37.3143 21.6733 38.8919 28.6102 38.5739 34.8219L38.5738 34.8219V34.8258C38.5738 35.1018 38.783 35.3218 39.0526 35.3364Z" fill="#F93F20" stroke="#F93F20" stroke-width="0.15"/>
<path d="M35.3018 14.8799L35.3017 14.8799L35.3027 14.8825C35.3773 15.0867 35.5714 15.2181 35.781 15.2181C35.8047 15.2181 35.8279 15.2145 35.846 15.2118C35.8478 15.2115 35.8494 15.2113 35.8511 15.211C35.8714 15.208 35.8889 15.2056 35.9084 15.2056H35.9203L35.9317 15.2019C36.1956 15.116 36.3515 14.8398 36.2599 14.5837C36.0559 13.9425 35.8838 13.4349 35.7609 13.0844C35.6995 12.909 35.6504 12.7728 35.6158 12.6789C35.5985 12.6319 35.5847 12.5953 35.5749 12.5697C35.5675 12.5502 35.5608 12.5329 35.5565 12.5235C35.4521 12.2772 35.1701 12.1459 34.9153 12.2337L34.9153 12.2337L34.9118 12.2351C34.661 12.3359 34.5229 12.6125 34.6143 12.8655L34.6143 12.8655L34.6145 12.8659L34.6848 12.84L34.6145 12.866L34.6145 12.866L34.6145 12.8661L34.6146 12.8665L34.6152 12.8681L34.6177 12.8746L34.6272 12.9007L34.6644 13.0036C34.697 13.0943 34.7447 13.2283 34.8052 13.4015C34.9261 13.7481 35.098 14.2518 35.3018 14.8799Z" fill="#F93F20" stroke="#F93F20" stroke-width="0.15"/>
</svg>
