<svg width="50" height="50" viewBox="0 0 50 50" fill="none" xmlns="http://www.w3.org/2000/svg">
<g clip-path="url(#clip0)">
<rect width="50" height="50" fill="white"/>
<mask id="path-1-outside-1" maskUnits="userSpaceOnUse" x="3.61869" y="6.38098" width="41" height="41" fill="black">
<rect fill="white" x="3.61869" y="6.38098" width="41" height="41"/>
<path d="M4.4841 39.2021L4.61494 39.0713C4.2121 38.4816 4.14349 37.6937 4.50505 37.028C4.75355 36.5704 5.16562 36.2376 5.66564 36.0906C6.16889 35.9429 6.70056 36.0007 7.16223 36.2541L7.3365 36.3498L8.99457 34.6917C8.59174 34.102 8.52305 33.3142 8.88468 32.6484C9.13327 32.1908 9.54541 31.8579 10.0455 31.711C10.5487 31.5632 11.0802 31.6212 11.5419 31.8746L11.7161 31.9701L13.3743 30.3121C12.9715 29.7224 12.9028 28.9345 13.2644 28.2688C13.5129 27.8112 13.925 27.4784 14.425 27.3314C14.9282 27.1836 15.4599 27.2415 15.9216 27.4949L16.0958 27.5905L17.754 25.9324C17.3512 25.3428 17.2825 24.5549 17.6441 23.8892C17.8926 23.4316 18.3048 23.0987 18.8048 22.9518C19.3081 22.804 19.8395 22.8619 20.3012 23.1153L20.4755 23.2109L22.1336 21.5528C21.7308 20.9631 21.6622 20.1753 22.0237 19.5095C22.2722 19.0519 22.6843 18.7191 23.1843 18.5722C23.6875 18.4243 24.2192 18.4822 24.6809 18.7357L24.8552 18.8312L27.6465 16.04L26.8109 15.2044C26.5853 14.9788 26.5853 14.6131 26.8109 14.3875C27.0365 14.162 27.4022 14.162 27.6278 14.3875L39.1464 25.9058C39.2794 26.0389 39.4563 26.1121 39.6445 26.1121C39.8326 26.1121 40.0096 26.0388 40.1426 25.9058L42.258 23.7904C42.5327 23.5158 42.5327 23.0689 42.258 22.7942L28.206 8.74249C28.0729 8.60935 27.896 8.53611 27.7079 8.53611C27.5198 8.53611 27.3428 8.60942 27.2097 8.74242L25.0944 10.8578C24.8197 11.1325 24.8197 11.5794 25.0944 11.8541L25.8439 12.6036C26.0695 12.8292 26.0695 13.1949 25.8439 13.4205C25.6183 13.646 25.2526 13.646 25.027 13.4205L24.2775 12.6709C23.5525 11.9458 23.5525 10.7661 24.2775 10.041L26.3929 7.92566C26.7441 7.57443 27.2111 7.38098 27.7079 7.38098C28.2047 7.38098 28.6717 7.57443 29.0229 7.92566L29.6217 8.52448C31.524 7.02767 34.2956 7.15458 36.0489 8.90775L42.0928 14.9515C43.0091 15.8677 43.5137 17.086 43.5137 18.3817C43.5137 19.4829 43.1481 20.5273 42.4763 21.3787L43.075 21.9774C43.7999 22.7024 43.7999 23.8822 43.075 24.6073L40.9595 26.7226C40.6083 27.0739 40.1413 27.2672 39.6445 27.2672C39.1478 27.2672 38.6808 27.0738 38.3295 26.7225L34.9603 23.3534L34.1437 24.17C34.5466 24.7597 34.6153 25.5475 34.2537 26.2133C34.0052 26.6709 33.5931 27.0038 33.093 27.1506C32.9105 27.2042 32.7245 27.2308 32.5393 27.2308C32.2135 27.2308 31.8909 27.1486 31.5965 26.9871L31.4221 26.8915L31.2526 27.0609C31.1399 27.1737 30.992 27.23 30.8442 27.23C30.6965 27.23 30.5486 27.1737 30.4358 27.0608C30.2331 26.8582 30.2131 26.5426 30.3749 26.3169L23.0319 22.2885L21.5307 23.7897L28.866 27.814L28.8752 27.8048C29.1008 27.5793 29.4665 27.5793 29.6921 27.8048C29.8926 28.0054 29.9144 28.3164 29.7584 28.5415C30.1662 29.1321 30.2372 29.9241 29.8739 30.593C29.6254 31.0506 29.2133 31.3835 28.7132 31.5303C28.5308 31.5839 28.3448 31.6105 28.1596 31.6105C27.8338 31.6105 27.5111 31.5283 27.2167 31.3669L27.0424 31.2713L25.3842 32.9294C25.7871 33.519 25.8558 34.3069 25.4942 34.9726C25.2457 35.4302 24.8336 35.7631 24.3335 35.91C24.151 35.9636 23.965 35.9901 23.7798 35.9901C23.454 35.9901 23.1314 35.908 22.8369 35.7465L22.6627 35.6509L21.0045 37.3091C21.4073 37.8987 21.476 38.6865 21.1144 39.3523C20.8659 39.8099 20.4538 40.1428 19.9537 40.2897C19.7713 40.3433 19.5853 40.3699 19.4001 40.3699C19.0743 40.3699 18.7516 40.2877 18.4572 40.1262L18.2829 40.0306L16.6247 41.6887C17.0276 42.2784 17.0963 43.0662 16.7347 43.732C16.4862 44.1896 16.0741 44.5225 15.574 44.6693C15.3916 44.7229 15.2055 44.7495 15.0203 44.7495C14.6945 44.7495 14.3719 44.6674 14.0774 44.5058L13.9032 44.4102L11.7977 46.5157C11.6017 46.7116 11.3443 46.8096 11.0869 46.8096C10.8295 46.8096 10.5722 46.7116 10.3762 46.5157L4.48402 40.6236C4.09228 40.2316 4.09228 39.594 4.4841 39.2021ZM41.2759 15.7683L35.232 9.72451C34.5115 9.00402 33.565 8.64377 32.6185 8.64377C31.8545 8.64377 31.0905 8.87849 30.4452 9.34801L41.6529 20.5553C42.1111 19.9277 42.3585 19.1737 42.3585 18.3817C42.3585 17.3945 41.9741 16.4664 41.2759 15.7683ZM34.1434 22.5367L28.4635 16.8569L25.9103 19.4101L33.2456 23.4344L34.1434 22.5367ZM23.3672 21.155L32.152 25.9744C32.3424 26.0788 32.5609 26.1029 32.7673 26.0423C32.9704 25.9826 33.1377 25.8476 33.2384 25.662C33.4493 25.2736 33.302 24.7829 32.9101 24.5678L24.1255 19.7485C24.0039 19.6817 23.8707 19.6478 23.7366 19.6478C23.6609 19.6478 23.5846 19.6586 23.5101 19.6805C23.3071 19.7402 23.1397 19.8752 23.039 20.0608C22.8282 20.4492 22.9754 20.94 23.3672 21.155ZM27.2078 30.0444C27.2089 30.0449 27.21 30.0455 27.211 30.0462L27.7722 30.354C27.9624 30.4585 28.1808 30.4828 28.3875 30.422C28.5906 30.3624 28.7579 30.2273 28.8586 30.0417C29.0695 29.6533 28.9222 29.1626 28.5304 28.9476L20.3118 24.4387C20.3089 24.4372 20.3061 24.4355 20.3031 24.4339L19.7457 24.128C19.6241 24.0614 19.4909 24.0274 19.3569 24.0274C19.2812 24.0274 19.2049 24.0383 19.1304 24.0601C18.9274 24.1197 18.76 24.2548 18.6593 24.4405C18.4484 24.8287 18.5956 25.3196 18.9875 25.5346L27.2078 30.0444ZM25.9874 30.6924L18.6521 26.6681L17.1508 28.1693L24.4861 32.1936L25.9874 30.6924ZM22.8277 34.4238C22.8292 34.4246 22.8308 34.4255 22.8323 34.4263L23.3926 34.7337C23.5829 34.8381 23.8015 34.8623 24.0079 34.8017C24.2109 34.742 24.3783 34.6069 24.479 34.4213C24.6899 34.033 24.5426 33.5422 24.1507 33.3272L15.9313 28.8179C15.9293 28.8168 15.9273 28.8156 15.9253 28.8146L15.366 28.5078C15.2444 28.441 15.1113 28.407 14.9772 28.407C14.9014 28.407 14.8252 28.4179 14.7507 28.4398C14.5477 28.4994 14.3803 28.6344 14.2796 28.8201C14.0687 29.2085 14.216 29.6992 14.6078 29.9142L22.8277 34.4238ZM21.6077 35.0721L14.2724 31.0477L12.7712 32.5489L20.1065 36.5733L21.6077 35.0721ZM17.2281 39.4518L16.2284 38.9033C15.9486 38.7497 15.8463 38.3987 15.9997 38.119C16.1531 37.8394 16.5041 37.737 16.7839 37.8905L18.4471 38.803C18.4495 38.8042 18.4519 38.8057 18.4544 38.807L19.0129 39.1133C19.2031 39.2177 19.4215 39.242 19.6282 39.1812C19.8312 39.1216 19.9986 38.9866 20.0993 38.801C20.3101 38.4126 20.1629 37.9218 19.7711 37.7068L11.5512 33.1972C11.5496 33.1964 11.5482 33.1955 11.5466 33.1947L10.9863 32.8873C10.796 32.7829 10.5775 32.7589 10.3711 32.8194C10.168 32.879 10.0006 33.0141 9.89988 33.1997C9.68903 33.5881 9.83628 34.0789 10.2282 34.2939L14.5214 36.6493C14.8011 36.8027 14.9034 37.1537 14.75 37.4334C14.5966 37.7131 14.2456 37.8155 13.9658 37.662L9.89272 35.4274L8.39152 36.9286L15.7268 40.953L17.2281 39.4518ZM14.0665 43.1821C14.0699 43.1838 14.0732 43.1858 14.0766 43.1876L14.6331 43.4929C14.8234 43.5974 15.0417 43.6216 15.2484 43.5609C15.4514 43.5012 15.6188 43.3662 15.7195 43.1805C15.9304 42.7922 15.7831 42.3014 15.3912 42.0864L7.17001 37.5761L6.60661 37.2669C6.48502 37.2002 6.35187 37.1662 6.21779 37.1662C6.14202 37.1662 6.06578 37.1771 5.99123 37.1989C5.78824 37.2586 5.6209 37.3936 5.52017 37.5793C5.30932 37.9676 5.45657 38.4584 5.84838 38.6734L14.0665 43.1821ZM11.0871 45.5926L12.8483 43.8312L5.51293 39.8069L5.40712 39.9127L11.0871 45.5926Z"/>
</mask>
<path d="M4.4841 39.2021L4.61494 39.0713C4.2121 38.4816 4.14349 37.6937 4.50505 37.028C4.75355 36.5704 5.16562 36.2376 5.66564 36.0906C6.16889 35.9429 6.70056 36.0007 7.16223 36.2541L7.3365 36.3498L8.99457 34.6917C8.59174 34.102 8.52305 33.3142 8.88468 32.6484C9.13327 32.1908 9.54541 31.8579 10.0455 31.711C10.5487 31.5632 11.0802 31.6212 11.5419 31.8746L11.7161 31.9701L13.3743 30.3121C12.9715 29.7224 12.9028 28.9345 13.2644 28.2688C13.5129 27.8112 13.925 27.4784 14.425 27.3314C14.9282 27.1836 15.4599 27.2415 15.9216 27.4949L16.0958 27.5905L17.754 25.9324C17.3512 25.3428 17.2825 24.5549 17.6441 23.8892C17.8926 23.4316 18.3048 23.0987 18.8048 22.9518C19.3081 22.804 19.8395 22.8619 20.3012 23.1153L20.4755 23.2109L22.1336 21.5528C21.7308 20.9631 21.6622 20.1753 22.0237 19.5095C22.2722 19.0519 22.6843 18.7191 23.1843 18.5722C23.6875 18.4243 24.2192 18.4822 24.6809 18.7357L24.8552 18.8312L27.6465 16.04L26.8109 15.2044C26.5853 14.9788 26.5853 14.6131 26.8109 14.3875C27.0365 14.162 27.4022 14.162 27.6278 14.3875L39.1464 25.9058C39.2794 26.0389 39.4563 26.1121 39.6445 26.1121C39.8326 26.1121 40.0096 26.0388 40.1426 25.9058L42.258 23.7904C42.5327 23.5158 42.5327 23.0689 42.258 22.7942L28.206 8.74249C28.0729 8.60935 27.896 8.53611 27.7079 8.53611C27.5198 8.53611 27.3428 8.60942 27.2097 8.74242L25.0944 10.8578C24.8197 11.1325 24.8197 11.5794 25.0944 11.8541L25.8439 12.6036C26.0695 12.8292 26.0695 13.1949 25.8439 13.4205C25.6183 13.646 25.2526 13.646 25.027 13.4205L24.2775 12.6709C23.5525 11.9458 23.5525 10.7661 24.2775 10.041L26.3929 7.92566C26.7441 7.57443 27.2111 7.38098 27.7079 7.38098C28.2047 7.38098 28.6717 7.57443 29.0229 7.92566L29.6217 8.52448C31.524 7.02767 34.2956 7.15458 36.0489 8.90775L42.0928 14.9515C43.0091 15.8677 43.5137 17.086 43.5137 18.3817C43.5137 19.4829 43.1481 20.5273 42.4763 21.3787L43.075 21.9774C43.7999 22.7024 43.7999 23.8822 43.075 24.6073L40.9595 26.7226C40.6083 27.0739 40.1413 27.2672 39.6445 27.2672C39.1478 27.2672 38.6808 27.0738 38.3295 26.7225L34.9603 23.3534L34.1437 24.17C34.5466 24.7597 34.6153 25.5475 34.2537 26.2133C34.0052 26.6709 33.5931 27.0038 33.093 27.1506C32.9105 27.2042 32.7245 27.2308 32.5393 27.2308C32.2135 27.2308 31.8909 27.1486 31.5965 26.9871L31.4221 26.8915L31.2526 27.0609C31.1399 27.1737 30.992 27.23 30.8442 27.23C30.6965 27.23 30.5486 27.1737 30.4358 27.0608C30.2331 26.8582 30.2131 26.5426 30.3749 26.3169L23.0319 22.2885L21.5307 23.7897L28.866 27.814L28.8752 27.8048C29.1008 27.5793 29.4665 27.5793 29.6921 27.8048C29.8926 28.0054 29.9144 28.3164 29.7584 28.5415C30.1662 29.1321 30.2372 29.9241 29.8739 30.593C29.6254 31.0506 29.2133 31.3835 28.7132 31.5303C28.5308 31.5839 28.3448 31.6105 28.1596 31.6105C27.8338 31.6105 27.5111 31.5283 27.2167 31.3669L27.0424 31.2713L25.3842 32.9294C25.7871 33.519 25.8558 34.3069 25.4942 34.9726C25.2457 35.4302 24.8336 35.7631 24.3335 35.91C24.151 35.9636 23.965 35.9901 23.7798 35.9901C23.454 35.9901 23.1314 35.908 22.8369 35.7465L22.6627 35.6509L21.0045 37.3091C21.4073 37.8987 21.476 38.6865 21.1144 39.3523C20.8659 39.8099 20.4538 40.1428 19.9537 40.2897C19.7713 40.3433 19.5853 40.3699 19.4001 40.3699C19.0743 40.3699 18.7516 40.2877 18.4572 40.1262L18.2829 40.0306L16.6247 41.6887C17.0276 42.2784 17.0963 43.0662 16.7347 43.732C16.4862 44.1896 16.0741 44.5225 15.574 44.6693C15.3916 44.7229 15.2055 44.7495 15.0203 44.7495C14.6945 44.7495 14.3719 44.6674 14.0774 44.5058L13.9032 44.4102L11.7977 46.5157C11.6017 46.7116 11.3443 46.8096 11.0869 46.8096C10.8295 46.8096 10.5722 46.7116 10.3762 46.5157L4.48402 40.6236C4.09228 40.2316 4.09228 39.594 4.4841 39.2021ZM41.2759 15.7683L35.232 9.72451C34.5115 9.00402 33.565 8.64377 32.6185 8.64377C31.8545 8.64377 31.0905 8.87849 30.4452 9.34801L41.6529 20.5553C42.1111 19.9277 42.3585 19.1737 42.3585 18.3817C42.3585 17.3945 41.9741 16.4664 41.2759 15.7683ZM34.1434 22.5367L28.4635 16.8569L25.9103 19.4101L33.2456 23.4344L34.1434 22.5367ZM23.3672 21.155L32.152 25.9744C32.3424 26.0788 32.5609 26.1029 32.7673 26.0423C32.9704 25.9826 33.1377 25.8476 33.2384 25.662C33.4493 25.2736 33.302 24.7829 32.9101 24.5678L24.1255 19.7485C24.0039 19.6817 23.8707 19.6478 23.7366 19.6478C23.6609 19.6478 23.5846 19.6586 23.5101 19.6805C23.3071 19.7402 23.1397 19.8752 23.039 20.0608C22.8282 20.4492 22.9754 20.94 23.3672 21.155ZM27.2078 30.0444C27.2089 30.0449 27.21 30.0455 27.211 30.0462L27.7722 30.354C27.9624 30.4585 28.1808 30.4828 28.3875 30.422C28.5906 30.3624 28.7579 30.2273 28.8586 30.0417C29.0695 29.6533 28.9222 29.1626 28.5304 28.9476L20.3118 24.4387C20.3089 24.4372 20.3061 24.4355 20.3031 24.4339L19.7457 24.128C19.6241 24.0614 19.4909 24.0274 19.3569 24.0274C19.2812 24.0274 19.2049 24.0383 19.1304 24.0601C18.9274 24.1197 18.76 24.2548 18.6593 24.4405C18.4484 24.8287 18.5956 25.3196 18.9875 25.5346L27.2078 30.0444ZM25.9874 30.6924L18.6521 26.6681L17.1508 28.1693L24.4861 32.1936L25.9874 30.6924ZM22.8277 34.4238C22.8292 34.4246 22.8308 34.4255 22.8323 34.4263L23.3926 34.7337C23.5829 34.8381 23.8015 34.8623 24.0079 34.8017C24.2109 34.742 24.3783 34.6069 24.479 34.4213C24.6899 34.033 24.5426 33.5422 24.1507 33.3272L15.9313 28.8179C15.9293 28.8168 15.9273 28.8156 15.9253 28.8146L15.366 28.5078C15.2444 28.441 15.1113 28.407 14.9772 28.407C14.9014 28.407 14.8252 28.4179 14.7507 28.4398C14.5477 28.4994 14.3803 28.6344 14.2796 28.8201C14.0687 29.2085 14.216 29.6992 14.6078 29.9142L22.8277 34.4238ZM21.6077 35.0721L14.2724 31.0477L12.7712 32.5489L20.1065 36.5733L21.6077 35.0721ZM17.2281 39.4518L16.2284 38.9033C15.9486 38.7497 15.8463 38.3987 15.9997 38.119C16.1531 37.8394 16.5041 37.737 16.7839 37.8905L18.4471 38.803C18.4495 38.8042 18.4519 38.8057 18.4544 38.807L19.0129 39.1133C19.2031 39.2177 19.4215 39.242 19.6282 39.1812C19.8312 39.1216 19.9986 38.9866 20.0993 38.801C20.3101 38.4126 20.1629 37.9218 19.7711 37.7068L11.5512 33.1972C11.5496 33.1964 11.5482 33.1955 11.5466 33.1947L10.9863 32.8873C10.796 32.7829 10.5775 32.7589 10.3711 32.8194C10.168 32.879 10.0006 33.0141 9.89988 33.1997C9.68903 33.5881 9.83628 34.0789 10.2282 34.2939L14.5214 36.6493C14.8011 36.8027 14.9034 37.1537 14.75 37.4334C14.5966 37.7131 14.2456 37.8155 13.9658 37.662L9.89272 35.4274L8.39152 36.9286L15.7268 40.953L17.2281 39.4518ZM14.0665 43.1821C14.0699 43.1838 14.0732 43.1858 14.0766 43.1876L14.6331 43.4929C14.8234 43.5974 15.0417 43.6216 15.2484 43.5609C15.4514 43.5012 15.6188 43.3662 15.7195 43.1805C15.9304 42.7922 15.7831 42.3014 15.3912 42.0864L7.17001 37.5761L6.60661 37.2669C6.48502 37.2002 6.35187 37.1662 6.21779 37.1662C6.14202 37.1662 6.06578 37.1771 5.99123 37.1989C5.78824 37.2586 5.6209 37.3936 5.52017 37.5793C5.30932 37.9676 5.45657 38.4584 5.84838 38.6734L14.0665 43.1821ZM11.0871 45.5926L12.8483 43.8312L5.51293 39.8069L5.40712 39.9127L11.0871 45.5926Z" fill="#F93F20"/>
<path d="M4.4841 39.2021L4.61494 39.0713C4.2121 38.4816 4.14349 37.6937 4.50505 37.028C4.75355 36.5704 5.16562 36.2376 5.66564 36.0906C6.16889 35.9429 6.70056 36.0007 7.16223 36.2541L7.3365 36.3498L8.99457 34.6917C8.59174 34.102 8.52305 33.3142 8.88468 32.6484C9.13327 32.1908 9.54541 31.8579 10.0455 31.711C10.5487 31.5632 11.0802 31.6212 11.5419 31.8746L11.7161 31.9701L13.3743 30.3121C12.9715 29.7224 12.9028 28.9345 13.2644 28.2688C13.5129 27.8112 13.925 27.4784 14.425 27.3314C14.9282 27.1836 15.4599 27.2415 15.9216 27.4949L16.0958 27.5905L17.754 25.9324C17.3512 25.3428 17.2825 24.5549 17.6441 23.8892C17.8926 23.4316 18.3048 23.0987 18.8048 22.9518C19.3081 22.804 19.8395 22.8619 20.3012 23.1153L20.4755 23.2109L22.1336 21.5528C21.7308 20.9631 21.6622 20.1753 22.0237 19.5095C22.2722 19.0519 22.6843 18.7191 23.1843 18.5722C23.6875 18.4243 24.2192 18.4822 24.6809 18.7357L24.8552 18.8312L27.6465 16.04L26.8109 15.2044C26.5853 14.9788 26.5853 14.6131 26.8109 14.3875C27.0365 14.162 27.4022 14.162 27.6278 14.3875L39.1464 25.9058C39.2794 26.0389 39.4563 26.1121 39.6445 26.1121C39.8326 26.1121 40.0096 26.0388 40.1426 25.9058L42.258 23.7904C42.5327 23.5158 42.5327 23.0689 42.258 22.7942L28.206 8.74249C28.0729 8.60935 27.896 8.53611 27.7079 8.53611C27.5198 8.53611 27.3428 8.60942 27.2097 8.74242L25.0944 10.8578C24.8197 11.1325 24.8197 11.5794 25.0944 11.8541L25.8439 12.6036C26.0695 12.8292 26.0695 13.1949 25.8439 13.4205C25.6183 13.646 25.2526 13.646 25.027 13.4205L24.2775 12.6709C23.5525 11.9458 23.5525 10.7661 24.2775 10.041L26.3929 7.92566C26.7441 7.57443 27.2111 7.38098 27.7079 7.38098C28.2047 7.38098 28.6717 7.57443 29.0229 7.92566L29.6217 8.52448C31.524 7.02767 34.2956 7.15458 36.0489 8.90775L42.0928 14.9515C43.0091 15.8677 43.5137 17.086 43.5137 18.3817C43.5137 19.4829 43.1481 20.5273 42.4763 21.3787L43.075 21.9774C43.7999 22.7024 43.7999 23.8822 43.075 24.6073L40.9595 26.7226C40.6083 27.0739 40.1413 27.2672 39.6445 27.2672C39.1478 27.2672 38.6808 27.0738 38.3295 26.7225L34.9603 23.3534L34.1437 24.17C34.5466 24.7597 34.6153 25.5475 34.2537 26.2133C34.0052 26.6709 33.5931 27.0038 33.093 27.1506C32.9105 27.2042 32.7245 27.2308 32.5393 27.2308C32.2135 27.2308 31.8909 27.1486 31.5965 26.9871L31.4221 26.8915L31.2526 27.0609C31.1399 27.1737 30.992 27.23 30.8442 27.23C30.6965 27.23 30.5486 27.1737 30.4358 27.0608C30.2331 26.8582 30.2131 26.5426 30.3749 26.3169L23.0319 22.2885L21.5307 23.7897L28.866 27.814L28.8752 27.8048C29.1008 27.5793 29.4665 27.5793 29.6921 27.8048C29.8926 28.0054 29.9144 28.3164 29.7584 28.5415C30.1662 29.1321 30.2372 29.9241 29.8739 30.593C29.6254 31.0506 29.2133 31.3835 28.7132 31.5303C28.5308 31.5839 28.3448 31.6105 28.1596 31.6105C27.8338 31.6105 27.5111 31.5283 27.2167 31.3669L27.0424 31.2713L25.3842 32.9294C25.7871 33.519 25.8558 34.3069 25.4942 34.9726C25.2457 35.4302 24.8336 35.7631 24.3335 35.91C24.151 35.9636 23.965 35.9901 23.7798 35.9901C23.454 35.9901 23.1314 35.908 22.8369 35.7465L22.6627 35.6509L21.0045 37.3091C21.4073 37.8987 21.476 38.6865 21.1144 39.3523C20.8659 39.8099 20.4538 40.1428 19.9537 40.2897C19.7713 40.3433 19.5853 40.3699 19.4001 40.3699C19.0743 40.3699 18.7516 40.2877 18.4572 40.1262L18.2829 40.0306L16.6247 41.6887C17.0276 42.2784 17.0963 43.0662 16.7347 43.732C16.4862 44.1896 16.0741 44.5225 15.574 44.6693C15.3916 44.7229 15.2055 44.7495 15.0203 44.7495C14.6945 44.7495 14.3719 44.6674 14.0774 44.5058L13.9032 44.4102L11.7977 46.5157C11.6017 46.7116 11.3443 46.8096 11.0869 46.8096C10.8295 46.8096 10.5722 46.7116 10.3762 46.5157L4.48402 40.6236C4.09228 40.2316 4.09228 39.594 4.4841 39.2021ZM41.2759 15.7683L35.232 9.72451C34.5115 9.00402 33.565 8.64377 32.6185 8.64377C31.8545 8.64377 31.0905 8.87849 30.4452 9.34801L41.6529 20.5553C42.1111 19.9277 42.3585 19.1737 42.3585 18.3817C42.3585 17.3945 41.9741 16.4664 41.2759 15.7683ZM34.1434 22.5367L28.4635 16.8569L25.9103 19.4101L33.2456 23.4344L34.1434 22.5367ZM23.3672 21.155L32.152 25.9744C32.3424 26.0788 32.5609 26.1029 32.7673 26.0423C32.9704 25.9826 33.1377 25.8476 33.2384 25.662C33.4493 25.2736 33.302 24.7829 32.9101 24.5678L24.1255 19.7485C24.0039 19.6817 23.8707 19.6478 23.7366 19.6478C23.6609 19.6478 23.5846 19.6586 23.5101 19.6805C23.3071 19.7402 23.1397 19.8752 23.039 20.0608C22.8282 20.4492 22.9754 20.94 23.3672 21.155ZM27.2078 30.0444C27.2089 30.0449 27.21 30.0455 27.211 30.0462L27.7722 30.354C27.9624 30.4585 28.1808 30.4828 28.3875 30.422C28.5906 30.3624 28.7579 30.2273 28.8586 30.0417C29.0695 29.6533 28.9222 29.1626 28.5304 28.9476L20.3118 24.4387C20.3089 24.4372 20.3061 24.4355 20.3031 24.4339L19.7457 24.128C19.6241 24.0614 19.4909 24.0274 19.3569 24.0274C19.2812 24.0274 19.2049 24.0383 19.1304 24.0601C18.9274 24.1197 18.76 24.2548 18.6593 24.4405C18.4484 24.8287 18.5956 25.3196 18.9875 25.5346L27.2078 30.0444ZM25.9874 30.6924L18.6521 26.6681L17.1508 28.1693L24.4861 32.1936L25.9874 30.6924ZM22.8277 34.4238C22.8292 34.4246 22.8308 34.4255 22.8323 34.4263L23.3926 34.7337C23.5829 34.8381 23.8015 34.8623 24.0079 34.8017C24.2109 34.742 24.3783 34.6069 24.479 34.4213C24.6899 34.033 24.5426 33.5422 24.1507 33.3272L15.9313 28.8179C15.9293 28.8168 15.9273 28.8156 15.9253 28.8146L15.366 28.5078C15.2444 28.441 15.1113 28.407 14.9772 28.407C14.9014 28.407 14.8252 28.4179 14.7507 28.4398C14.5477 28.4994 14.3803 28.6344 14.2796 28.8201C14.0687 29.2085 14.216 29.6992 14.6078 29.9142L22.8277 34.4238ZM21.6077 35.0721L14.2724 31.0477L12.7712 32.5489L20.1065 36.5733L21.6077 35.0721ZM17.2281 39.4518L16.2284 38.9033C15.9486 38.7497 15.8463 38.3987 15.9997 38.119C16.1531 37.8394 16.5041 37.737 16.7839 37.8905L18.4471 38.803C18.4495 38.8042 18.4519 38.8057 18.4544 38.807L19.0129 39.1133C19.2031 39.2177 19.4215 39.242 19.6282 39.1812C19.8312 39.1216 19.9986 38.9866 20.0993 38.801C20.3101 38.4126 20.1629 37.9218 19.7711 37.7068L11.5512 33.1972C11.5496 33.1964 11.5482 33.1955 11.5466 33.1947L10.9863 32.8873C10.796 32.7829 10.5775 32.7589 10.3711 32.8194C10.168 32.879 10.0006 33.0141 9.89988 33.1997C9.68903 33.5881 9.83628 34.0789 10.2282 34.2939L14.5214 36.6493C14.8011 36.8027 14.9034 37.1537 14.75 37.4334C14.5966 37.7131 14.2456 37.8155 13.9658 37.662L9.89272 35.4274L8.39152 36.9286L15.7268 40.953L17.2281 39.4518ZM14.0665 43.1821C14.0699 43.1838 14.0732 43.1858 14.0766 43.1876L14.6331 43.4929C14.8234 43.5974 15.0417 43.6216 15.2484 43.5609C15.4514 43.5012 15.6188 43.3662 15.7195 43.1805C15.9304 42.7922 15.7831 42.3014 15.3912 42.0864L7.17001 37.5761L6.60661 37.2669C6.48502 37.2002 6.35187 37.1662 6.21779 37.1662C6.14202 37.1662 6.06578 37.1771 5.99123 37.1989C5.78824 37.2586 5.6209 37.3936 5.52017 37.5793C5.30932 37.9676 5.45657 38.4584 5.84838 38.6734L14.0665 43.1821ZM11.0871 45.5926L12.8483 43.8312L5.51293 39.8069L5.40712 39.9127L11.0871 45.5926Z" stroke="#F93F20" stroke-width="0.2" mask="url(#path-1-outside-1)"/>
</g>
<defs>
<clipPath id="clip0">
<rect width="50" height="50" fill="white"/>
</clipPath>
</defs>
</svg>
