<svg xmlns="http://www.w3.org/2000/svg" viewBox="0 0 47 47"><defs><style>.cls-1{fill:#f93f20;stroke:#fff;stroke-miterlimit:10;}</style></defs><g id="Layer_2" data-name="Layer 2"><g id="Слой_1" data-name="Слой 1"><circle class="cls-1" cx="20.81" cy="39.68" r="1.35"/><circle class="cls-1" cx="7.33" cy="26.2" r="1.35"/><circle class="cls-1" cx="11.28" cy="35.73" r="1.35"/><circle class="cls-1" cx="30.34" cy="35.73" r="1.35"/><circle class="cls-1" cx="11.28" cy="16.67" r="1.35"/><path class="cls-1" d="M20.81,32.94a6.74,6.74,0,1,1,6.73-6.74A6.75,6.75,0,0,1,20.81,32.94Zm0-16.18a9.44,9.44,0,1,0,9.43,9.44A9.45,9.45,0,0,0,20.81,16.76Z"/><path class="cls-1" d="M20.81,27.55a1.35,1.35,0,1,1,1.34-1.35A1.35,1.35,0,0,1,20.81,27.55Zm0-5.39a4,4,0,1,0,4,4A4.05,4.05,0,0,0,20.81,22.16Z"/><path class="cls-1" d="M35.57,24.85A14.86,14.86,0,0,0,22.15,11.43V3.32C34.7,4.69,42.82,12.79,43.73,24.85Zm-14.76,19A17.56,17.56,0,0,1,19.46,8.73v4a1.34,1.34,0,0,0,1.35,1.35A12.15,12.15,0,0,1,32.94,26.2a1.35,1.35,0,0,0,1.34,1.35h4A17.58,17.58,0,0,1,20.81,43.81ZM39.64,8.6C35.11,3.82,28.63,1,20.9.5a1.35,1.35,0,0,0-1.44,1.35V6A20.26,20.26,0,1,0,41,27.55h4.17a1.35,1.35,0,0,0,1.35-1.39A26.19,26.19,0,0,0,39.64,8.6Z"/></g></g></svg>