<svg width="50" height="50" viewBox="0 0 50 50" fill="none" xmlns="http://www.w3.org/2000/svg">
<rect width="50" height="50" fill="white"/>
<path d="M23.4069 41.1677C23.4069 41.774 22.9154 42.2655 22.3091 42.2655C21.7028 42.2655 21.2113 41.774 21.2113 41.1677C21.2113 40.5614 21.7028 40.0699 22.3091 40.0699C22.9154 40.0699 23.4069 40.5614 23.4069 41.1677Z" fill="#F93F20" stroke="white" stroke-width="0.5"/>
<path d="M9.92945 27.691C9.92945 28.2973 9.43796 28.7888 8.83167 28.7888C8.22538 28.7888 7.73389 28.2973 7.73389 27.691C7.73389 27.0848 8.22538 26.5933 8.83167 26.5933C9.43796 26.5933 9.92945 27.0848 9.92945 27.691Z" fill="#F93F20" stroke="white" stroke-width="0.5"/>
<path d="M13.8774 37.221C13.8774 37.8272 13.3859 38.3187 12.7796 38.3187C12.1733 38.3187 11.6818 37.8272 11.6818 37.221C11.6818 36.6147 12.1733 36.1232 12.7796 36.1232C13.3859 36.1232 13.8774 36.6147 13.8774 37.221Z" fill="#F93F20" stroke="white" stroke-width="0.5"/>
<path d="M32.9372 37.221C32.9372 37.8272 32.4457 38.3187 31.8394 38.3187C31.2331 38.3187 30.7416 37.8272 30.7416 37.221C30.7416 36.6147 31.2331 36.1232 31.8394 36.1232C32.4457 36.1232 32.9372 36.6147 32.9372 37.221Z" fill="#F93F20" stroke="white" stroke-width="0.5"/>
<path d="M13.8774 18.161C13.8774 18.7673 13.3859 19.2588 12.7796 19.2588C12.1733 19.2588 11.6818 18.7673 11.6818 18.161C11.6818 17.5547 12.1733 17.0632 12.7796 17.0632C13.3859 17.0632 13.8774 17.5547 13.8774 18.161Z" fill="#F93F20" stroke="white" stroke-width="0.5"/>
<path d="M13.125 27.6908C13.125 22.6269 17.2453 18.5066 22.3092 18.5066C27.3732 18.5066 31.4935 22.6269 31.4935 27.6908C31.4935 32.7547 27.3732 36.875 22.3092 36.875C17.2453 36.875 13.125 32.7547 13.125 27.6908ZM15.3205 27.6908C15.3205 31.5446 18.4554 34.6796 22.3092 34.6796C26.1631 34.6796 29.298 31.5446 29.298 27.6908C29.298 23.837 26.1631 20.7021 22.3092 20.7021C18.4554 20.7021 15.3205 23.837 15.3205 27.6908Z" fill="#F93F20" stroke="white" stroke-width="0.5"/>
<path d="M18.5159 27.691C18.5159 25.5995 20.2178 23.8977 22.3092 23.8977C24.4005 23.8977 26.1024 25.5996 26.1024 27.691C26.1024 29.7824 24.4005 31.4842 22.3092 31.4842C20.2178 31.4842 18.5159 29.7823 18.5159 27.691ZM20.7114 27.691C20.7114 28.5722 21.428 29.2888 22.3092 29.2888C23.1904 29.2888 23.907 28.5722 23.907 27.691C23.907 26.8097 23.1904 26.0932 22.3092 26.0932C21.428 26.0932 20.7114 26.8097 20.7114 27.691Z" fill="#F93F20" stroke="white" stroke-width="0.5"/>
<path d="M21.2113 7.75422L20.9776 7.76954C10.5365 8.45408 2.25305 17.1279 2.25305 27.6905C2.25305 38.7288 11.2727 47.7465 22.309 47.7465C32.8716 47.7465 41.5454 39.4631 42.2301 29.0219L42.2454 28.7883H42.4795H46.6522C47.2712 28.7883 47.7675 28.2762 47.7495 27.6586C47.5488 20.7521 45.1968 14.7414 40.9593 10.2645C36.4867 5.53929 30.0691 2.75974 22.3825 2.24468L21.2113 7.75422ZM21.2113 7.75422V7.52007M21.2113 7.75422V7.52007M21.2113 7.52007V3.33997C21.2113 2.70578 21.7483 2.20242 22.3824 2.24468L21.2113 7.52007ZM21.2113 10.2208V9.95114L20.9424 9.97148C11.731 10.6684 4.44853 18.3478 4.44853 27.6906C4.44853 37.5392 12.4605 45.5511 22.309 45.5511C31.6518 45.5511 39.3312 38.2685 40.0282 29.0573L40.0486 28.7884H39.7789H35.7865C35.1803 28.7884 34.6887 28.2969 34.6887 27.6907C34.6887 20.8642 29.1354 15.311 22.309 15.311C21.7028 15.311 21.2113 14.8194 21.2113 14.2132V10.2208ZM36.8245 26.3652L36.8451 26.5927H37.0735H45.2329H45.5024L45.4822 26.3239C45.0238 20.2421 42.7456 15.1445 38.9873 11.3938C35.2295 7.64382 30.007 5.25491 23.684 4.56269L23.4068 4.53235V4.81121V12.9261V13.1545L23.6343 13.1751C30.6159 13.8068 36.1928 19.3836 36.8245 26.3652Z" fill="#F93F20" stroke="white" stroke-width="0.5"/>
</svg>
