<svg width="50" height="50" viewBox="0 0 50 50" fill="none" xmlns="http://www.w3.org/2000/svg">
<rect width="50" height="50" fill="white"/>
<g clip-path="url(#clip0)">
<path d="M25 3.07823C22.1086 3.06919 19.2439 3.63171 16.5706 4.73343C13.8973 5.83516 11.4681 7.45438 9.4226 9.49802C7.37749 11.5285 5.75437 13.9436 4.64674 16.6042C3.53911 19.2648 2.96887 22.1182 2.96887 25.0001C2.96887 27.882 3.53911 30.7355 4.64674 33.396C5.75437 36.0566 7.37749 38.4717 9.4226 40.5022C13.5642 44.6143 19.1637 46.922 25 46.922C30.8363 46.922 36.4358 44.6143 40.5774 40.5022C42.6225 38.4717 44.2456 36.0566 45.3532 33.396C46.4609 30.7355 47.0311 27.882 47.0311 25.0001C47.0311 22.1182 46.4609 19.2648 45.3532 16.6042C44.2456 13.9436 42.6225 11.5285 40.5774 9.49802C38.5319 7.45438 36.1027 5.83516 33.4294 4.73343C30.7561 3.63171 27.8914 3.06919 25 3.07823ZM39.8169 10.2623C39.8963 10.3413 39.9737 10.4215 40.0516 10.5016L33.3106 14.85C30.963 12.9387 28.0273 11.8968 25.0001 11.9004C24.9268 11.9004 24.854 11.9021 24.7811 11.9032L26.4318 4.20532C31.4807 4.533 36.2382 6.68581 39.8169 10.2623ZM37.084 25.0001C37.084 31.6289 31.6632 37.0218 25 37.0218C18.3368 37.0218 12.916 31.6289 12.916 25.0001C12.916 18.3713 18.3368 12.9784 25 12.9784C31.6632 12.9784 37.084 18.3713 37.084 25.0001ZM25 4.15636C25.1131 4.15636 25.2258 4.15869 25.3387 4.16049L23.6646 11.9673C20.5775 12.2796 17.7001 13.6729 15.5407 15.9012L11.2314 9.28868C15.0466 5.96464 19.9399 4.14063 25 4.15636ZM10.183 10.2623C10.2631 10.1826 10.3448 10.1049 10.4256 10.0267L14.7969 16.7345C12.8819 19.0632 11.8359 21.9851 11.8379 25.0001C11.8379 25.0734 11.8395 25.1464 11.8407 25.2193L4.09613 23.5752C4.43057 18.543 6.59581 13.8073 10.183 10.2623ZM9.20743 38.6986C5.87039 34.9169 4.03455 30.0436 4.04698 25.0001C4.04698 24.8892 4.04932 24.7787 4.05112 24.6681L11.9057 26.3353C12.2237 29.4099 13.6228 32.2718 15.8539 34.4111L9.20743 38.6986ZM10.183 39.7379C10.1047 39.66 10.0282 39.5807 9.95133 39.5017L16.6928 35.1533C19.0399 37.0628 21.9742 38.1037 25 38.1C25.0736 38.1 25.1467 38.0983 25.22 38.0972L23.5693 45.7952C18.5199 45.4677 13.7621 43.3147 10.183 39.7379ZM25 45.8439C24.8872 45.8439 24.7748 45.8415 24.6623 45.8397L26.3364 38.0328C29.4222 37.7204 32.2984 36.3278 34.4574 34.101L38.7665 40.7135C34.9516 44.0364 30.0591 45.8597 25 45.8439ZM39.8169 39.7379C39.7361 39.8182 39.6541 39.8967 39.5723 39.9754L35.2014 33.268C37.1174 30.9389 38.1641 28.0161 38.1621 25.0001C38.1621 24.9282 38.1605 24.8572 38.1594 24.7857L45.9039 26.4299C45.5683 31.4604 43.4031 36.1941 39.8169 39.7379ZM45.953 25.0001C45.953 25.1126 45.9506 25.2247 45.9489 25.337L38.0946 23.6704C37.7779 20.5953 36.3796 17.7326 34.1489 15.5925L40.7953 11.3052C44.1306 15.0864 45.9653 19.9582 45.953 25.0001Z" fill="#F93F20"/>
<path d="M18.615 11.5187C18.9838 11.5183 19.3442 11.4088 19.6509 11.204C19.9576 10.9992 20.1969 10.7083 20.3386 10.3678C20.4327 10.1424 20.481 9.90052 20.4808 9.65626C20.4806 9.41201 20.4318 9.17023 20.3373 8.94501C20.1459 8.48937 19.7821 8.12789 19.3253 7.93939C18.8684 7.75089 18.3556 7.75066 17.8986 7.93876C17.6721 8.03158 17.4662 8.16823 17.2927 8.34086C17.1192 8.51348 16.9815 8.71868 16.8875 8.94467C16.7935 9.17066 16.7451 9.41299 16.745 9.65775C16.7449 9.9025 16.7932 10.1449 16.887 10.3709C17.0297 10.7114 17.2699 11.002 17.5774 11.2062C17.8849 11.4104 18.2459 11.5192 18.615 11.5187ZM17.8821 9.36062C17.9215 9.26494 17.9796 9.17807 18.053 9.10503C18.1263 9.032 18.2134 8.97428 18.3093 8.93521C18.5026 8.85525 18.7197 8.85497 18.9132 8.93443C19.1068 9.01388 19.2611 9.16663 19.3425 9.35937C19.382 9.45371 19.4025 9.55497 19.4026 9.65728C19.4027 9.75958 19.3824 9.86089 19.343 9.9553C19.3035 10.051 19.2454 10.1379 19.1721 10.2109C19.0987 10.284 19.0116 10.3417 18.9157 10.3807C18.7225 10.4606 18.5055 10.4609 18.312 10.3814C18.1186 10.302 17.9644 10.1493 17.883 9.95665C17.8434 9.86232 17.8229 9.76106 17.8227 9.65873C17.8225 9.55641 17.8427 9.45508 17.8821 9.36062Z" fill="#F93F20"/>
<path d="M30.6739 38.6263C30.4474 38.7192 30.2415 38.8559 30.068 39.0285C29.8946 39.2012 29.7569 39.4065 29.6629 39.6325C29.569 39.8585 29.5206 40.1009 29.5206 40.3457C29.5206 40.5905 29.569 40.8328 29.6629 41.0589C29.8541 41.5147 30.2179 41.8763 30.6748 42.0648C31.1317 42.2534 31.6446 42.2535 32.1016 42.0651C32.3281 41.9723 32.534 41.8356 32.7075 41.663C32.881 41.4903 33.0186 41.2851 33.1126 41.0591C33.2066 40.8331 33.255 40.5908 33.255 40.346C33.2551 40.1013 33.2068 39.8589 33.1129 39.6329C32.9215 39.1771 32.5577 38.8155 32.1008 38.627C31.6439 38.4384 31.131 38.4381 30.6739 38.6263ZM32.1179 40.6432C32.0784 40.7389 32.0203 40.8257 31.9469 40.8988C31.8736 40.9718 31.7864 41.0295 31.6906 41.0686C31.4973 41.1485 31.2803 41.1487 31.0869 41.0693C30.8934 40.9899 30.7392 40.8372 30.6579 40.6445C30.6183 40.5502 30.5979 40.4489 30.5978 40.3466C30.5977 40.2443 30.618 40.143 30.6574 40.0486C30.6968 39.9529 30.7549 39.866 30.8283 39.7929C30.9016 39.7199 30.9888 39.6621 31.0847 39.6231C31.2779 39.5433 31.4949 39.5431 31.6883 39.6225C31.8818 39.702 32.036 39.8546 32.1173 40.0472C32.1569 40.1416 32.1773 40.2428 32.1774 40.3451C32.1775 40.4475 32.1573 40.5488 32.1179 40.6432Z" fill="#F93F20"/>
<path d="M30.6747 11.3785C31.1317 11.567 31.6447 11.5669 32.1016 11.3784C32.5585 11.1898 32.9223 10.8281 33.1135 10.3723C33.2074 10.1462 33.2558 9.90386 33.2557 9.65907C33.2557 9.41428 33.2073 9.1719 33.1134 8.94586C33.0194 8.71982 32.8817 8.51457 32.7082 8.3419C32.5347 8.16923 32.3288 8.03254 32.1023 7.93968C31.6453 7.75164 31.1324 7.75189 30.6756 7.94038C30.2187 8.12887 29.8549 8.49032 29.6635 8.94593C29.5696 9.17198 29.5212 9.41436 29.5212 9.65914C29.5213 9.90392 29.5696 10.1463 29.6636 10.3723C29.7576 10.5984 29.8952 10.8036 30.0688 10.9763C30.2423 11.1489 30.4482 11.2856 30.6747 11.3785V11.3785ZM30.6588 9.36038C30.7402 9.16768 30.8945 9.01496 31.088 8.93553C31.2816 8.8561 31.4987 8.85638 31.692 8.93632C31.7878 8.9754 31.875 9.03313 31.9483 9.10618C32.0216 9.17923 32.0797 9.26612 32.1192 9.36182C32.1586 9.45622 32.1789 9.55751 32.1787 9.65981C32.1786 9.7621 32.1582 9.86335 32.1186 9.95766C32.0373 10.1504 31.8831 10.3031 31.6896 10.3826C31.4962 10.462 31.2792 10.4618 31.0859 10.3818C30.99 10.3427 30.9029 10.285 30.8296 10.2119C30.7562 10.1389 30.6981 10.052 30.6586 9.95632C30.6191 9.86193 30.5988 9.76064 30.5989 9.65833C30.5989 9.55602 30.6193 9.45475 30.6588 9.36038Z" fill="#F93F20"/>
<path d="M19.3254 38.6262C18.8684 38.4382 18.3555 38.4384 17.8987 38.6269C17.4418 38.8154 17.078 39.1768 16.8865 39.6325C16.7926 39.8585 16.7442 40.1009 16.7443 40.3457C16.7443 40.5905 16.7927 40.8328 16.8866 41.0589C16.9806 41.2849 17.1183 41.4901 17.2918 41.6628C17.4653 41.8355 17.6712 41.9721 17.8977 42.065C18.3547 42.2534 18.8677 42.2533 19.3246 42.0648C19.7816 41.8763 20.1453 41.5146 20.3365 41.0587C20.4304 40.8327 20.4788 40.5903 20.4788 40.3455C20.4787 40.1007 20.4304 39.8584 20.3364 39.6323C20.2425 39.4063 20.1048 39.2011 19.9313 39.0284C19.7578 38.8557 19.5519 38.719 19.3254 38.6261V38.6262ZM19.3412 40.6444C19.2599 40.8372 19.1056 40.99 18.9121 41.0694C18.7185 41.1489 18.5014 41.1486 18.308 41.0685C18.2122 41.0294 18.1251 40.9717 18.0517 40.8986C17.9784 40.8256 17.9203 40.7387 17.8808 40.643C17.8414 40.5486 17.8212 40.4473 17.8213 40.345C17.8213 40.2427 17.8418 40.1414 17.8814 40.0471C17.9628 39.8544 18.1171 39.7017 18.3106 39.6222C18.5041 39.5428 18.7212 39.5431 18.9146 39.623C19.0104 39.6621 19.0975 39.7198 19.1709 39.7929C19.2442 39.8659 19.3023 39.9528 19.3419 40.0484C19.3812 40.1429 19.4015 40.2442 19.4014 40.3465C19.4013 40.4488 19.3808 40.55 19.3412 40.6444Z" fill="#F93F20"/>
<path d="M40.4251 20.5079C40.7939 20.5076 41.1544 20.3982 41.4611 20.1934C41.7678 19.9886 42.007 19.6976 42.1486 19.3571C42.2427 19.1317 42.2911 18.8898 42.2908 18.6455C42.2906 18.4013 42.2418 18.1595 42.1473 17.9342C41.9559 17.4786 41.5921 17.1172 41.1353 16.9287C40.6784 16.7402 40.1656 16.7399 39.7086 16.928C39.4821 17.0208 39.2762 17.1575 39.1026 17.3302C38.9291 17.5028 38.7914 17.7081 38.6974 17.9341C38.6035 18.1601 38.5551 18.4025 38.5551 18.6473C38.555 18.8921 38.6034 19.1345 38.6973 19.3605C38.84 19.7008 39.0802 19.9914 39.3876 20.1955C39.6951 20.3997 40.056 20.5084 40.4251 20.5079ZM39.692 18.3499C39.7315 18.2542 39.7896 18.1673 39.863 18.0943C39.9363 18.0212 40.0235 17.9635 40.1193 17.9244C40.3126 17.8446 40.5296 17.8444 40.723 17.9239C40.9164 18.0033 41.0706 18.156 41.152 18.3486C41.1916 18.4429 41.212 18.5442 41.2121 18.6465C41.2122 18.7488 41.192 18.8501 41.1525 18.9445C41.1131 19.0402 41.055 19.1271 40.9816 19.2001C40.9083 19.2732 40.8211 19.3309 40.7253 19.3699C40.532 19.4498 40.315 19.4501 40.1215 19.3706C39.9281 19.2912 39.7739 19.1385 39.6926 18.9458C39.653 18.8515 39.6326 18.7502 39.6325 18.648C39.6324 18.5457 39.6527 18.4444 39.692 18.35V18.3499Z" fill="#F93F20"/>
<path d="M8.86403 29.6379C8.63751 29.7308 8.43157 29.8674 8.25803 30.0401C8.0845 30.2128 7.94679 30.418 7.85281 30.6441C7.75884 30.8701 7.71046 31.1125 7.71045 31.3573C7.71044 31.6021 7.7588 31.8445 7.85275 32.0705C8.04388 32.5264 8.40764 32.8881 8.86458 33.0766C9.32151 33.2652 9.83449 33.2652 10.2915 33.0768C10.518 32.9839 10.7239 32.8473 10.8974 32.6746C11.0709 32.5019 11.2086 32.2967 11.3026 32.0707C11.3965 31.8446 11.4449 31.6023 11.4449 31.3575C11.4449 31.1127 11.3966 30.8703 11.3027 30.6443C11.1113 30.1886 10.7475 29.8272 10.2907 29.6386C9.83387 29.4501 9.32104 29.4499 8.86403 29.6379ZM10.308 31.6547C10.2685 31.7504 10.2104 31.8373 10.137 31.9104C10.0637 31.9834 9.97655 32.0411 9.8807 32.0802C9.68736 32.1603 9.47022 32.1606 9.27665 32.0811C9.08308 32.0016 8.92881 31.8488 8.8475 31.656C8.80791 31.5617 8.78748 31.4604 8.78739 31.3581C8.7873 31.2558 8.80755 31.1545 8.84696 31.0602C8.88642 30.9645 8.94453 30.8776 9.01788 30.8045C9.09124 30.7315 9.17839 30.6738 9.27426 30.6347C9.46751 30.5548 9.68451 30.5546 9.87795 30.634C10.0714 30.7135 10.2256 30.8662 10.3069 31.0588C10.3466 31.1531 10.3671 31.2544 10.3673 31.3567C10.3675 31.459 10.3473 31.5603 10.308 31.6547Z" fill="#F93F20"/>
<path d="M39.708 33.078C40.165 33.2663 40.6779 33.2662 41.1348 33.0777C41.5917 32.8891 41.9555 32.5275 42.1467 32.0717C42.2407 31.8457 42.289 31.6033 42.2891 31.3585C42.2891 31.1137 42.2407 30.8713 42.1468 30.6453C42.0529 30.4192 41.9152 30.2139 41.7417 30.0412C41.5682 29.8685 41.3623 29.7318 41.1359 29.6389C40.6788 29.4509 40.166 29.4511 39.7091 29.6396C39.2523 29.8281 38.8885 30.1896 38.697 30.6452C38.6031 30.8712 38.5548 31.1136 38.5548 31.3584C38.5548 31.6032 38.6032 31.8455 38.6972 32.0716C38.7911 32.2976 38.9288 32.5029 39.1023 32.6755C39.2758 32.8482 39.4817 32.9849 39.7082 33.0778L39.708 33.078ZM39.6922 31.0598C39.7735 30.8671 39.9276 30.7144 40.1211 30.6349C40.3145 30.5555 40.5316 30.5557 40.7248 30.6357C40.8207 30.6747 40.9078 30.7324 40.9811 30.8055C41.0545 30.8785 41.1126 30.9654 41.152 31.0611C41.1915 31.1555 41.2118 31.2568 41.2117 31.3591C41.2116 31.4615 41.1911 31.5627 41.1515 31.6571C41.0702 31.8497 40.916 32.0024 40.7225 32.0819C40.5291 32.1613 40.3121 32.161 40.1188 32.0811C40.023 32.0421 39.9358 31.9843 39.8625 31.9113C39.7891 31.8382 39.731 31.7513 39.6915 31.6556C39.6521 31.5612 39.6319 31.46 39.632 31.3577C39.6321 31.2554 39.6526 31.1541 39.6922 31.0598Z" fill="#F93F20"/>
<path d="M10.2919 16.927C9.83486 16.7389 9.32202 16.7392 8.86517 16.9277C8.40832 17.1162 8.04452 17.4776 7.85308 17.9333C7.7591 18.1593 7.71071 18.4017 7.71069 18.6465C7.71067 18.8913 7.75902 19.1337 7.85296 19.3598C7.94689 19.5858 8.08457 19.7911 8.25808 19.9638C8.43158 20.1365 8.6375 20.2732 8.864 20.3661C9.32099 20.5545 9.83398 20.5544 10.2909 20.3659C10.7479 20.1773 11.1116 19.8157 11.3028 19.3598C11.3967 19.1338 11.4451 18.8914 11.445 18.6466C11.445 18.4018 11.3967 18.1595 11.3027 17.9335C11.2088 17.7074 11.0711 17.5022 10.8976 17.3295C10.7241 17.1568 10.5182 17.0202 10.2917 16.9273L10.2919 16.927ZM10.3077 18.9452C10.2264 19.1379 10.0722 19.2906 9.87876 19.37C9.68531 19.4495 9.46828 19.4492 9.27504 19.3692C9.17916 19.3302 9.09201 19.2725 9.01866 19.1994C8.9453 19.1264 8.8872 19.0395 8.84774 18.9437C8.80834 18.8493 8.78811 18.748 8.78822 18.6458C8.78833 18.5435 8.80877 18.4422 8.84837 18.3479C8.9297 18.1552 9.0839 18.0026 9.27734 17.9231C9.47078 17.8437 9.68778 17.8439 9.88103 17.9238C9.9769 17.9629 10.064 18.0206 10.1374 18.0936C10.2108 18.1667 10.2689 18.2535 10.3083 18.3492C10.3477 18.4437 10.368 18.545 10.3678 18.6473C10.3677 18.7496 10.3473 18.8508 10.3077 18.9452Z" fill="#F93F20"/>
<path d="M20.7258 14.853V16.415C20.7261 16.7119 20.8372 16.998 21.0373 17.2173C21.2374 17.4366 21.5121 17.5734 21.8077 17.601C19.9841 18.3842 18.5102 19.808 17.6644 21.6035C17.6104 21.3334 17.4645 21.0903 17.2516 20.9156C17.0387 20.7408 16.7719 20.6451 16.4965 20.6447H14.9343C14.6186 20.645 14.3158 20.7706 14.0925 20.994C13.8692 21.2173 13.7436 21.52 13.7433 21.8358V28.1629C13.7436 28.4787 13.8692 28.7814 14.0925 29.0047C14.3158 29.228 14.6186 29.3537 14.9343 29.354H16.4965C16.7716 29.3537 17.0382 29.2582 17.251 29.0839C17.4639 28.9095 17.6099 28.6669 17.6644 28.3972C18.5093 30.1912 19.9811 31.6142 21.8026 32.398C21.5081 32.4268 21.2348 32.5641 21.0358 32.7831C20.8368 33.0022 20.7264 33.2874 20.726 33.5834V35.1455C20.7264 35.4613 20.852 35.764 21.0753 35.9873C21.2986 36.2106 21.6014 36.3362 21.9172 36.3365H28.2442C28.56 36.3362 28.8628 36.2106 29.0861 35.9873C29.3094 35.764 29.435 35.4613 29.4354 35.1455V33.5831C29.435 33.2673 29.3094 32.9645 29.0861 32.7412C28.8628 32.5179 28.56 32.3923 28.2442 32.3919H28.2112C30.1341 31.5607 31.6613 30.0184 32.4736 28.0874V28.1626C32.474 28.4784 32.5996 28.7812 32.8229 29.0045C33.0462 29.2278 33.3489 29.3534 33.6647 29.3538H35.2268C35.5425 29.3533 35.8451 29.2277 36.0684 29.0045C36.2916 28.7812 36.4172 28.4786 36.4177 28.1629V21.8356C36.4173 21.5198 36.2917 21.217 36.0684 20.9937C35.8451 20.7704 35.5423 20.6448 35.2265 20.6444H33.6644C33.3486 20.6448 33.0459 20.7704 32.8226 20.9937C32.5993 21.217 32.4737 21.5198 32.4734 21.8356V21.9134C31.6602 19.9802 30.1306 18.4368 28.2049 17.6062H28.244C28.5598 17.6058 28.8626 17.4802 29.0859 17.2569C29.3092 17.0336 29.4348 16.7308 29.4351 16.415V14.853C29.4347 14.5372 29.309 14.2345 29.0857 14.0113C28.8624 13.788 28.5597 13.6625 28.244 13.6621H21.9169C21.6012 13.6625 21.2984 13.7881 21.0752 14.0113C20.8519 14.2346 20.7262 14.5372 20.7258 14.853ZM16.6094 28.1629C16.609 28.1927 16.597 28.2212 16.5759 28.2423C16.5548 28.2635 16.5263 28.2755 16.4965 28.2759H14.9343C14.9045 28.2755 14.876 28.2635 14.8549 28.2423C14.8338 28.2212 14.8218 28.1927 14.8214 28.1629V27.8952H16.6093L16.6094 28.1629ZM16.6094 26.8173H14.8215V26.3241H16.6094V26.8173ZM16.6094 25.2459H14.8215V24.7527H16.6094V25.2459ZM16.6094 23.6746H14.8215V23.1814H16.6094V23.6746ZM16.6094 22.1033H14.8215V21.8358C14.8219 21.806 14.8339 21.7775 14.855 21.7564C14.8761 21.7353 14.9046 21.7232 14.9344 21.7228H16.4965C16.5264 21.7232 16.5549 21.7353 16.576 21.7564C16.5971 21.7775 16.6091 21.806 16.6095 21.8358L16.6094 22.1033ZM33.5515 21.8358C33.5519 21.806 33.5639 21.7775 33.585 21.7564C33.6061 21.7352 33.6346 21.7232 33.6644 21.7228H35.2265C35.2564 21.7232 35.2849 21.7352 35.306 21.7563C35.3271 21.7775 35.3392 21.806 35.3396 21.8358V22.1033H33.5517L33.5515 21.8358ZM33.5515 23.1814H35.3394V23.6746H33.5515V23.1814ZM33.5515 24.7527H35.3394V25.2459H33.5515V24.7527ZM33.5515 26.3241H35.3394V26.8173H33.5515V26.3241ZM33.5515 27.8954H35.3394V28.1629C35.339 28.1927 35.3269 28.2212 35.3058 28.2424C35.2847 28.2635 35.2562 28.2755 35.2264 28.2759H33.6644C33.6346 28.2755 33.6061 28.2635 33.585 28.2423C33.5639 28.2212 33.5519 28.1927 33.5515 28.1629V27.8954ZM22.1844 35.2581H21.9169C21.8871 35.2577 21.8586 35.2457 21.8375 35.2246C21.8163 35.2035 21.8043 35.175 21.8039 35.1452V33.5831C21.8043 33.5532 21.8163 33.5247 21.8374 33.5036C21.8585 33.4825 21.8871 33.4705 21.9169 33.4701H22.1844V35.2581ZM23.7556 35.2581H23.2625V33.4702H23.7556V35.2581ZM25.327 35.2581H24.8338V33.4702H25.327V35.2581ZM26.8984 35.2581H26.4051V33.4702H26.8984V35.2581ZM28.244 33.4702C28.2738 33.4706 28.3023 33.4827 28.3235 33.5038C28.3446 33.5249 28.3566 33.5534 28.357 33.5833V35.1454C28.3566 35.1752 28.3445 35.2037 28.3234 35.2248C28.3023 35.2459 28.2738 35.2579 28.244 35.2583H27.9765V33.4704L28.244 33.4702ZM32.0137 25.0004C32.0137 28.8466 28.8674 31.9758 25 31.9758C21.1326 31.9758 17.9862 28.8466 17.9862 25.0004C17.9862 21.1542 21.1326 18.025 25 18.025C28.8674 18.025 32.0137 21.1542 32.0137 25.0004ZM27.9765 14.7402H28.244C28.2738 14.7406 28.3023 14.7527 28.3235 14.7738C28.3446 14.7949 28.3566 14.8234 28.357 14.8533V16.4153C28.3566 16.4451 28.3446 16.4737 28.3235 16.4948C28.3023 16.5159 28.2738 16.5279 28.244 16.5283H27.9765V14.7402ZM26.4051 14.7402H26.8984V16.5281H26.4051V14.7402ZM24.8338 14.7402H25.327V16.5281H24.8338V14.7402ZM23.2625 14.7402H23.7556V16.5281H23.2625V14.7402ZM22.1844 16.5281H21.9169C21.8871 16.5277 21.8585 16.5157 21.8374 16.4946C21.8163 16.4735 21.8043 16.445 21.8039 16.4151V14.853C21.8043 14.8231 21.8163 14.7946 21.8374 14.7735C21.8585 14.7524 21.8871 14.7404 21.9169 14.74H22.1844V16.5281Z" fill="#F93F20"/>
<path d="M21.5889 24.9996C21.5859 25.6749 21.7835 26.3359 22.1565 26.8988C22.5295 27.4617 23.0612 27.9013 23.6842 28.1617C24.3072 28.4222 24.9935 28.4919 25.6562 28.362C26.3189 28.2321 26.9281 27.9084 27.4066 27.4319C27.8852 26.9555 28.2116 26.3477 28.3444 25.6856C28.4772 25.0235 28.4106 24.3369 28.1528 23.7127C27.8951 23.0886 27.4579 22.5549 26.8966 22.1794C26.3354 21.804 25.6753 21.6035 25 21.6035C24.0976 21.6026 23.2318 21.9596 22.5923 22.5963C21.9528 23.233 21.592 24.0973 21.5889 24.9996ZM25 22.6816C25.4579 22.6845 25.9048 22.8229 26.2842 23.0794C26.6636 23.3359 26.9585 23.6991 27.1317 24.123C27.305 24.5469 27.3488 25.0127 27.2577 25.4615C27.1665 25.9103 26.9445 26.322 26.6197 26.6448C26.2948 26.9676 25.8816 27.1869 25.4322 27.2752C24.9828 27.3634 24.5174 27.3166 24.0946 27.1406C23.6718 26.9646 23.3106 26.6674 23.0565 26.2863C22.8025 25.9053 22.6669 25.4576 22.667 24.9996C22.6698 24.3831 22.9169 23.7928 23.3543 23.3583C23.7916 22.9238 24.3835 22.6804 25 22.6816Z" fill="#F93F20"/>
<path d="M23.9235 19.5043C23.6426 19.3944 23.3303 19.3961 23.0505 19.5089L22.5589 19.7072C22.4145 19.7651 22.283 19.8511 22.1721 19.9602C22.0612 20.0693 21.9732 20.1994 21.913 20.3429L21.9081 20.3547C21.7502 20.3519 21.5933 20.3809 21.4469 20.44C21.3004 20.499 21.1674 20.587 21.0556 20.6985L20.6804 21.0718C20.4665 21.2836 20.3425 21.5698 20.3343 21.8707C20.0581 21.9909 19.8386 22.2123 19.7207 22.4894L19.5141 22.9755C19.4531 23.118 19.4211 23.2712 19.4199 23.4262C19.4187 23.5812 19.4484 23.7349 19.5072 23.8783C19.509 23.8828 19.5108 23.8873 19.5126 23.8917C19.3995 24.0013 19.3095 24.1326 19.2481 24.2776C19.1867 24.4227 19.1551 24.5787 19.1552 24.7362V25.2641C19.155 25.565 19.2705 25.8545 19.4777 26.0727C19.3677 26.3528 19.37 26.6645 19.4842 26.9429L19.6835 27.4321C19.743 27.5781 19.8312 27.7107 19.9429 27.822C20.0546 27.9333 20.1875 28.021 20.3337 28.08V28.0933C20.3332 28.2486 20.3636 28.4025 20.4231 28.5459C20.4826 28.6894 20.5701 28.8196 20.6804 28.9289L21.0556 29.3021C21.2693 29.5147 21.5563 29.6374 21.8577 29.6452C21.9788 29.9211 22.2014 30.1399 22.4795 30.2561L22.9681 30.4618C23.1136 30.5232 23.2699 30.5548 23.4279 30.5548C23.5858 30.5548 23.7421 30.5232 23.8876 30.4618C23.9978 30.5748 24.1295 30.6646 24.275 30.7259C24.4205 30.7872 24.5768 30.8188 24.7347 30.8186H25.2653C25.5669 30.8188 25.8572 30.7035 26.0765 30.4965C26.3575 30.6064 26.6698 30.6047 26.9495 30.4919L27.4412 30.2936C27.5856 30.2357 27.717 30.1497 27.8279 30.0406C27.9388 29.9315 28.0268 29.8014 28.087 29.6579C28.0887 29.654 28.0904 29.65 28.092 29.646C28.2498 29.6484 28.4065 29.6192 28.5529 29.5601C28.6993 29.5011 28.8324 29.4134 28.9444 29.3022L29.3196 28.9289C29.5335 28.7171 29.6575 28.431 29.6658 28.1301C29.9419 28.0098 30.1614 27.7884 30.2793 27.5114L30.486 27.0252C30.5469 26.8827 30.5789 26.7295 30.5801 26.5746C30.5812 26.4196 30.5516 26.2659 30.4928 26.1225C30.491 26.118 30.4892 26.1135 30.4873 26.1091C30.6005 25.9995 30.6904 25.8682 30.7519 25.7232C30.8133 25.5781 30.8449 25.4221 30.8448 25.2646V24.7367C30.8449 24.4358 30.7295 24.1463 30.5223 23.9281C30.6323 23.648 30.6299 23.3364 30.5158 23.058L30.3164 22.5687C30.2569 22.4227 30.1687 22.2901 30.057 22.1789C29.9453 22.0676 29.8125 21.9798 29.6662 21.9208V21.9075C29.6668 21.7522 29.6364 21.5983 29.5769 21.4549C29.5174 21.3114 29.4299 21.1812 29.3195 21.0719L28.9443 20.6986C28.7306 20.4861 28.4436 20.3634 28.1423 20.3557C28.0212 20.0797 27.7986 19.861 27.5205 19.7448L27.0318 19.539C26.8863 19.4777 26.73 19.4462 26.5721 19.4463C26.4142 19.4464 26.2579 19.4781 26.1124 19.5395C26.0022 19.4264 25.8704 19.3366 25.7249 19.2753C25.5794 19.214 25.4231 19.1825 25.2652 19.1826H24.7346C24.4331 19.1823 24.1429 19.2974 23.9235 19.5043ZM25.3705 20.3622V20.538C25.3705 20.6623 25.4135 20.7827 25.4921 20.879C25.5707 20.9752 25.6801 21.0414 25.8019 21.0662C25.9237 21.091 26.0503 21.073 26.1603 21.0152C26.2703 20.9574 26.357 20.8634 26.4056 20.749L26.4745 20.5873C26.4864 20.5622 26.5074 20.5425 26.5332 20.5324C26.5591 20.5222 26.5878 20.5223 26.6136 20.5326L27.1024 20.7383C27.1148 20.7436 27.1261 20.7512 27.1356 20.7609C27.145 20.7705 27.1525 20.7819 27.1574 20.7945C27.1625 20.8065 27.1652 20.8194 27.1652 20.8324C27.1652 20.8454 27.1625 20.8583 27.1574 20.8703C27.1088 20.9853 27.1016 21.1136 27.1371 21.2333C27.1725 21.353 27.2484 21.4566 27.3517 21.5266C27.4551 21.5966 27.5795 21.6285 27.7038 21.617C27.8281 21.6054 27.9445 21.5511 28.0332 21.4633C28.0536 21.4442 28.0805 21.4335 28.1085 21.4335C28.1364 21.4335 28.1634 21.4442 28.1837 21.4633L28.5589 21.8366C28.5775 21.8556 28.5879 21.8811 28.5879 21.9077C28.5879 21.9343 28.5775 21.9598 28.5589 21.9788L28.4339 22.1032C28.3458 22.1909 28.2906 22.3064 28.2779 22.4302C28.2652 22.5539 28.2957 22.6783 28.3641 22.7821C28.4326 22.886 28.535 22.9629 28.6537 23C28.7725 23.037 28.9004 23.0318 29.0158 22.9852L29.1796 22.9191C29.2055 22.9091 29.2343 22.9094 29.26 22.9199C29.2857 22.9305 29.3064 22.9505 29.3178 22.9758L29.5172 23.4651C29.5221 23.4772 29.5245 23.4901 29.5242 23.5031C29.524 23.5161 29.5212 23.5289 29.5159 23.5408C29.5108 23.5533 29.5032 23.5646 29.4936 23.5742C29.484 23.5838 29.4726 23.5913 29.46 23.5964C29.3444 23.6434 29.2486 23.7292 29.1891 23.839C29.1296 23.9488 29.1101 24.0758 29.1339 24.1984C29.1577 24.321 29.2233 24.4315 29.3196 24.5111C29.4158 24.5907 29.5367 24.6344 29.6616 24.6348C29.6889 24.6348 29.7151 24.6454 29.7347 24.6644C29.7542 24.6834 29.7657 24.7093 29.7665 24.7366V25.2645C29.7657 25.2918 29.7543 25.3178 29.7346 25.3368C29.715 25.3559 29.6887 25.3665 29.6613 25.3664H29.4846C29.3601 25.3664 29.2395 25.4094 29.1432 25.4882C29.0469 25.5671 28.9808 25.6768 28.9562 25.7987C28.9315 25.9207 28.9499 26.0475 29.0081 26.1575C29.0663 26.2675 29.1607 26.354 29.2754 26.4023L29.4382 26.4708C29.4507 26.4761 29.4621 26.4838 29.4716 26.4935C29.4811 26.5032 29.4886 26.5147 29.4936 26.5273C29.4986 26.5393 29.5012 26.5522 29.5012 26.5652C29.5012 26.5782 29.4986 26.5911 29.4936 26.6031L29.2869 27.0892C29.2751 27.1143 29.2541 27.134 29.2283 27.1441C29.2025 27.1543 29.1738 27.1543 29.148 27.144C29.0328 27.0959 28.9045 27.0893 28.785 27.1253C28.6654 27.1612 28.5621 27.2376 28.4926 27.3413C28.423 27.4449 28.3917 27.5695 28.4038 27.6938C28.4159 27.818 28.4708 27.9342 28.559 28.0225C28.5776 28.0415 28.588 28.067 28.588 28.0935C28.588 28.12 28.5776 28.1455 28.559 28.1645L28.1839 28.5377C28.1635 28.5569 28.1365 28.5676 28.1085 28.5676C28.0804 28.5676 28.0535 28.5569 28.0331 28.5377L27.9081 28.4133C27.8199 28.3257 27.7042 28.2712 27.5805 28.2591C27.4568 28.2469 27.3327 28.278 27.2292 28.3468C27.1257 28.4157 27.0492 28.5183 27.0127 28.6371C26.9762 28.7559 26.9818 28.8837 27.0287 28.9988L27.0951 29.1618C27.1 29.1739 27.1024 29.1868 27.1022 29.1998C27.102 29.2128 27.0992 29.2257 27.0939 29.2376C27.0888 29.2502 27.0811 29.2616 27.0715 29.2712C27.0618 29.2808 27.0503 29.2883 27.0377 29.2934L26.546 29.4916C26.5201 29.5016 26.4914 29.5013 26.4657 29.4908C26.4401 29.4803 26.4194 29.4604 26.4079 29.4352C26.3605 29.3199 26.2745 29.2246 26.1647 29.1655C26.0549 29.1065 25.928 29.0873 25.8057 29.1112C25.6833 29.1352 25.5731 29.2009 25.4937 29.297C25.4143 29.3932 25.3707 29.5138 25.3703 29.6385C25.3694 29.6658 25.3579 29.6917 25.3383 29.7106C25.3187 29.7296 25.2924 29.7402 25.2652 29.7401H24.7345C24.7072 29.7402 24.6809 29.7296 24.6613 29.7106C24.6416 29.6915 24.6302 29.6656 24.6294 29.6383V29.4624C24.6294 29.3381 24.5865 29.2176 24.5079 29.1214C24.4293 29.0251 24.3198 28.9589 24.198 28.9341C24.0762 28.9093 23.9496 28.9273 23.8395 28.9852C23.7295 29.043 23.6429 29.1371 23.5942 29.2515L23.5253 29.4132C23.5136 29.4384 23.4926 29.4581 23.4667 29.4683C23.4408 29.4784 23.412 29.4783 23.3863 29.4678L22.8976 29.2623C22.8851 29.2571 22.8738 29.2494 22.8643 29.2398C22.8548 29.2301 22.8474 29.2187 22.8424 29.2061C22.8373 29.1941 22.8347 29.1812 22.8347 29.1682C22.8347 29.1551 22.8373 29.1422 22.8424 29.1302C22.891 29.0152 22.8982 28.887 22.8628 28.7673C22.8274 28.6476 22.7515 28.5439 22.6481 28.4739C22.5448 28.4039 22.4203 28.372 22.296 28.3835C22.1718 28.3951 22.0553 28.4494 21.9666 28.5372C21.9463 28.5564 21.9194 28.5671 21.8914 28.5671C21.8634 28.5671 21.8365 28.5564 21.8161 28.5372L21.441 28.1638C21.4224 28.1449 21.4119 28.1193 21.4119 28.0928C21.4119 28.0662 21.4224 28.0407 21.441 28.0217L21.5659 27.8974C21.6541 27.8096 21.7093 27.6941 21.722 27.5703C21.7347 27.4466 21.7042 27.3222 21.6357 27.2184C21.5672 27.1145 21.4649 27.0376 21.3462 27.0006C21.2274 26.9635 21.0995 26.9687 20.9841 27.0153L20.8202 27.0814C20.7943 27.0914 20.7656 27.091 20.7399 27.0805C20.7142 27.07 20.6935 27.05 20.682 27.0247L20.4827 26.5356C20.4778 26.5235 20.4754 26.5106 20.4756 26.4976C20.4758 26.4845 20.4786 26.4717 20.4839 26.4598C20.489 26.4472 20.4967 26.4359 20.5063 26.4263C20.5159 26.4168 20.5273 26.4092 20.5399 26.4042C20.6556 26.3571 20.7514 26.2714 20.8108 26.1615C20.8703 26.0517 20.8898 25.9247 20.866 25.8021C20.8422 25.6795 20.7766 25.5689 20.6803 25.4894C20.5841 25.4098 20.4632 25.3661 20.3383 25.3657C20.311 25.3657 20.2848 25.3551 20.2652 25.3361C20.2456 25.3171 20.2342 25.2912 20.2334 25.264V24.736C20.2342 24.7087 20.2456 24.6828 20.2653 24.6637C20.2849 24.6447 20.3112 24.6341 20.3386 24.6341H20.5154C20.6399 24.6342 20.7605 24.5911 20.8568 24.5123C20.9532 24.4334 21.0192 24.3237 21.0438 24.2017C21.0685 24.0797 21.0501 23.9529 20.9919 23.8429C20.9336 23.7329 20.8391 23.6464 20.7244 23.5982L20.5617 23.5297C20.5491 23.5245 20.5378 23.5168 20.5283 23.507C20.5188 23.4973 20.5113 23.4858 20.5063 23.4732C20.5012 23.4612 20.4986 23.4483 20.4986 23.4353C20.4986 23.4223 20.5012 23.4094 20.5063 23.3975L20.713 22.9112C20.7248 22.8862 20.7457 22.8665 20.7715 22.8564C20.7973 22.8462 20.826 22.8463 20.8518 22.8565C20.9669 22.9046 21.0952 22.9112 21.2148 22.8752C21.3343 22.8392 21.4376 22.7628 21.5071 22.6592C21.5766 22.5555 21.608 22.4309 21.5959 22.3067C21.5837 22.1825 21.5289 22.0663 21.4407 21.978C21.4221 21.959 21.4118 21.9336 21.4118 21.907C21.4118 21.8805 21.4221 21.855 21.4407 21.8361L21.8159 21.4628C21.8363 21.4436 21.8632 21.4329 21.8912 21.4329C21.9192 21.4329 21.9462 21.4436 21.9665 21.4628L22.0914 21.5872C22.1795 21.675 22.2953 21.7296 22.4191 21.7418C22.5429 21.754 22.6671 21.723 22.7707 21.6541C22.8742 21.5851 22.9507 21.4825 22.9872 21.3636C23.0238 21.2446 23.018 21.1168 22.971 21.0016L22.9046 20.8388C22.8997 20.8267 22.8973 20.8138 22.8975 20.8008C22.8977 20.7877 22.9005 20.7749 22.9058 20.763C22.9109 20.7504 22.9186 20.7389 22.9282 20.7294C22.9379 20.7198 22.9494 20.7122 22.962 20.7072L23.4537 20.5089C23.4796 20.4989 23.5083 20.4992 23.534 20.5097C23.5597 20.5202 23.5804 20.5401 23.5918 20.5654C23.6392 20.6807 23.7252 20.776 23.835 20.8351C23.9448 20.8942 24.0717 20.9133 24.1941 20.8894C24.3164 20.8654 24.4267 20.7997 24.5061 20.7035C24.5855 20.6074 24.629 20.4867 24.6294 20.362C24.6303 20.3347 24.6418 20.3089 24.6614 20.2899C24.681 20.2709 24.7072 20.2603 24.7345 20.2604H25.2652C25.2925 20.2603 25.3188 20.2709 25.3385 20.2899C25.3582 20.3089 25.3697 20.3348 25.3705 20.3622Z" fill="#F93F20"/>
</g>
<defs>
<clipPath id="clip0">
<rect width="46" height="46" fill="white" transform="translate(2 2)"/>
</clipPath>
</defs>
</svg>
