<svg width="50" height="50" viewBox="0 0 50 50" fill="none" xmlns="http://www.w3.org/2000/svg">
<rect width="50" height="50" fill="white"/>
<path d="M45.8438 41.5312H45.125V14.9375H45.8438C45.9475 14.937 46.0499 14.9143 46.1441 14.8709C46.2384 14.8275 46.3222 14.7644 46.39 14.6859C46.4567 14.6058 46.5058 14.5126 46.5343 14.4123C46.5628 14.3121 46.5699 14.207 46.5553 14.1038L45.8366 9.79125C45.8092 9.62241 45.7225 9.46886 45.5921 9.35819C45.4617 9.24753 45.2961 9.18701 45.125 9.1875H44.4063V7.75C44.4063 7.55938 44.3305 7.37656 44.1958 7.24177C44.061 7.10698 43.8781 7.03125 43.6875 7.03125H41.5313C41.3406 7.03125 41.1578 7.10698 41.023 7.24177C40.8882 7.37656 40.8125 7.55938 40.8125 7.75V9.1875H37.2188V7.75H38.6563C38.8469 7.75 39.0297 7.67427 39.1645 7.53948C39.2993 7.40469 39.375 7.22187 39.375 7.03125V4.15625C39.375 3.96563 39.2993 3.78281 39.1645 3.64802C39.0297 3.51323 38.8469 3.4375 38.6563 3.4375H28.5938C28.4031 3.4375 28.2203 3.51323 28.0855 3.64802C27.9507 3.78281 27.875 3.96563 27.875 4.15625V7.03125C27.875 7.22187 27.9507 7.40469 28.0855 7.53948C28.2203 7.67427 28.4031 7.75 28.5938 7.75H30.0313V9.1875H8.46877V7.75C8.46877 7.55938 8.39305 7.37656 8.25826 7.24177C8.12346 7.10698 7.94065 7.03125 7.75002 7.03125H5.59377C5.40315 7.03125 5.22033 7.10698 5.08554 7.24177C4.95075 7.37656 4.87502 7.55938 4.87502 7.75V9.1875C4.70398 9.18701 4.53836 9.24753 4.40794 9.35819C4.27751 9.46886 4.19083 9.62241 4.16346 9.79125L3.44471 14.1038C3.43011 14.207 3.43728 14.3121 3.46575 14.4123C3.49422 14.5126 3.54336 14.6058 3.61002 14.6859C3.67784 14.7644 3.76168 14.8275 3.8559 14.8709C3.95012 14.9143 4.05254 14.937 4.15627 14.9375H4.87502V41.5312H4.15627C4.04985 41.5304 3.94466 41.554 3.84874 41.6001C3.75281 41.6462 3.6687 41.7136 3.60284 41.7972C3.53463 41.879 3.48567 41.9751 3.45954 42.0783C3.43342 42.1816 3.43081 42.2894 3.4519 42.3937L4.17065 45.9875C4.20379 46.1498 4.292 46.2958 4.42036 46.4005C4.54871 46.5053 4.70933 46.5625 4.87502 46.5625H45.125C45.2907 46.5625 45.4513 46.5053 45.5797 46.4005C45.708 46.2958 45.7963 46.1498 45.8294 45.9875L46.5481 42.3937C46.5692 42.2894 46.5666 42.1816 46.5405 42.0783C46.5144 41.9751 46.4654 41.879 46.3972 41.7972C46.3313 41.7136 46.2472 41.6462 46.1513 41.6001C46.0554 41.554 45.9502 41.5304 45.8438 41.5312ZM42.25 8.46875H42.9688V9.1875H42.25V8.46875ZM29.3125 6.3125V4.875H37.9375V6.3125H29.3125ZM35.7813 9.1875H31.4688V7.75H35.7813V9.1875ZM6.31252 8.46875H7.03127V9.1875H6.31252V8.46875ZM44.5356 45.125H5.4644L5.03315 42.9688H44.9669L44.5356 45.125ZM6.31252 41.5312V14.9375H43.6875V41.5312H6.31252ZM5.0044 13.5L5.48596 10.625H44.5141L44.9956 13.5H5.0044Z" fill="#F93F20"/>
<path d="M45.8438 41.5312H45.125V14.9375H45.8438C45.9475 14.937 46.0499 14.9143 46.1441 14.8709C46.2384 14.8275 46.3222 14.7644 46.39 14.6859C46.4567 14.6058 46.5058 14.5126 46.5343 14.4123C46.5628 14.3121 46.5699 14.207 46.5553 14.1038L45.8366 9.79125C45.8092 9.62241 45.7225 9.46886 45.5921 9.35819C45.4617 9.24753 45.2961 9.18701 45.125 9.1875H44.4063V7.75C44.4063 7.55938 44.3305 7.37656 44.1958 7.24177C44.061 7.10698 43.8781 7.03125 43.6875 7.03125H41.5313C41.3406 7.03125 41.1578 7.10698 41.023 7.24177C40.8882 7.37656 40.8125 7.55938 40.8125 7.75V9.1875H37.2188V7.75H38.6563C38.8469 7.75 39.0297 7.67427 39.1645 7.53948C39.2993 7.40469 39.375 7.22187 39.375 7.03125V4.15625C39.375 3.96563 39.2993 3.78281 39.1645 3.64802C39.0297 3.51323 38.8469 3.4375 38.6563 3.4375H28.5938C28.4031 3.4375 28.2203 3.51323 28.0855 3.64802C27.9507 3.78281 27.875 3.96563 27.875 4.15625V7.03125C27.875 7.22187 27.9507 7.40469 28.0855 7.53948C28.2203 7.67427 28.4031 7.75 28.5938 7.75H30.0313V9.1875H8.46877V7.75C8.46877 7.55938 8.39305 7.37656 8.25826 7.24177C8.12346 7.10698 7.94065 7.03125 7.75002 7.03125H5.59377C5.40315 7.03125 5.22033 7.10698 5.08554 7.24177C4.95075 7.37656 4.87502 7.55938 4.87502 7.75V9.1875C4.70398 9.18701 4.53836 9.24753 4.40794 9.35819C4.27751 9.46886 4.19083 9.62241 4.16346 9.79125L3.44471 14.1038C3.43011 14.207 3.43728 14.3121 3.46575 14.4123C3.49422 14.5126 3.54336 14.6058 3.61002 14.6859C3.67784 14.7644 3.76168 14.8275 3.8559 14.8709C3.95012 14.9143 4.05254 14.937 4.15627 14.9375H4.87502V41.5312H4.15627C4.04985 41.5304 3.94466 41.554 3.84874 41.6001C3.75281 41.6462 3.6687 41.7136 3.60284 41.7972C3.53463 41.879 3.48567 41.9751 3.45954 42.0783C3.43342 42.1816 3.43081 42.2894 3.4519 42.3937L4.17065 45.9875C4.20379 46.1498 4.292 46.2958 4.42036 46.4005C4.54871 46.5053 4.70933 46.5625 4.87502 46.5625H45.125C45.2907 46.5625 45.4513 46.5053 45.5797 46.4005C45.708 46.2958 45.7963 46.1498 45.8294 45.9875L46.5481 42.3937C46.5692 42.2894 46.5666 42.1816 46.5405 42.0783C46.5144 41.9751 46.4654 41.879 46.3972 41.7972C46.3313 41.7136 46.2472 41.6462 46.1513 41.6001C46.0554 41.554 45.9502 41.5304 45.8438 41.5312ZM42.25 8.46875H42.9688V9.1875H42.25V8.46875ZM29.3125 6.3125V4.875H37.9375V6.3125H29.3125ZM35.7813 9.1875H31.4688V7.75H35.7813V9.1875ZM6.31252 8.46875H7.03127V9.1875H6.31252V8.46875ZM44.5356 45.125H5.4644L5.03315 42.9688H44.9669L44.5356 45.125ZM6.31252 41.5312V14.9375H43.6875V41.5312H6.31252ZM5.0044 13.5L5.48596 10.625H44.5141L44.9956 13.5H5.0044Z" stroke="white"/>
<path d="M40.8125 15.6562H9.1875C8.99688 15.6562 8.81406 15.732 8.67927 15.8668C8.54448 16.0016 8.46875 16.1844 8.46875 16.375V40.0938C8.46875 40.2844 8.54448 40.4672 8.67927 40.602C8.81406 40.7368 8.99688 40.8125 9.1875 40.8125H40.8125C41.0031 40.8125 41.1859 40.7368 41.3207 40.602C41.4555 40.4672 41.5312 40.2844 41.5312 40.0938V16.375C41.5312 16.1844 41.4555 16.0016 41.3207 15.8668C41.1859 15.732 41.0031 15.6562 40.8125 15.6562ZM40.0938 39.375H9.90625V38.6562H40.0938V39.375ZM40.0938 37.2188H9.90625V36.5H40.0938V37.2188ZM40.0938 35.0625H9.90625V34.3438H40.0938V35.0625ZM40.0938 32.9062H9.90625V32.1875H40.0938V32.9062ZM40.0938 30.75H9.90625V30.0312H40.0938V30.75ZM40.0938 28.5938H9.90625V27.875H40.0938V28.5938ZM40.0938 26.4375H9.90625V25.7188H40.0938V26.4375ZM40.0938 24.2812H9.90625V23.5625H40.0938V24.2812ZM40.0938 22.125H9.90625V21.4062H40.0938V22.125ZM40.0938 19.9688H9.90625V19.25H40.0938V19.9688ZM40.0938 17.8125H9.90625V17.0938H40.0938V17.8125Z" fill="#F93F20"/>
<path d="M40.8125 15.6562H9.1875C8.99688 15.6562 8.81406 15.732 8.67927 15.8668C8.54448 16.0016 8.46875 16.1844 8.46875 16.375V40.0938C8.46875 40.2844 8.54448 40.4672 8.67927 40.602C8.81406 40.7368 8.99688 40.8125 9.1875 40.8125H40.8125C41.0031 40.8125 41.1859 40.7368 41.3207 40.602C41.4555 40.4672 41.5312 40.2844 41.5312 40.0938V16.375C41.5312 16.1844 41.4555 16.0016 41.3207 15.8668C41.1859 15.732 41.0031 15.6562 40.8125 15.6562ZM40.0938 39.375H9.90625V38.6562H40.0938V39.375ZM40.0938 37.2188H9.90625V36.5H40.0938V37.2188ZM40.0938 35.0625H9.90625V34.3438H40.0938V35.0625ZM40.0938 32.9062H9.90625V32.1875H40.0938V32.9062ZM40.0938 30.75H9.90625V30.0312H40.0938V30.75ZM40.0938 28.5938H9.90625V27.875H40.0938V28.5938ZM40.0938 26.4375H9.90625V25.7188H40.0938V26.4375ZM40.0938 24.2812H9.90625V23.5625H40.0938V24.2812ZM40.0938 22.125H9.90625V21.4062H40.0938V22.125ZM40.0938 19.9688H9.90625V19.25H40.0938V19.9688ZM40.0938 17.8125H9.90625V17.0938H40.0938V17.8125Z" stroke="white"/>
<path d="M7.75 11.3438H6.3125V12.7812H7.75V11.3438Z" fill="#F93F20"/>
<path d="M7.75 11.3438H6.3125V12.7812H7.75V11.3438Z" stroke="white"/>
<path d="M43.6875 11.3438H42.25V12.7812H43.6875V11.3438Z" fill="#F93F20"/>
<path d="M43.6875 11.3438H42.25V12.7812H43.6875V11.3438Z" stroke="white"/>
</svg>
