<svg xmlns="http://www.w3.org/2000/svg" viewBox="0 0 50 50"><defs><style>.cls-1{fill:#fff;}.cls-2{fill:#f93f20;stroke:#fff;stroke-miterlimit:10;}</style></defs><g id="Layer_2" data-name="Layer 2"><g id="Слой_1" data-name="Слой 1"><rect class="cls-1" width="50" height="50"/><path class="cls-2" d="M31.58,37.22H6.09V4.7H21.48L43.91,20.23v9.86A16.63,16.63,0,0,0,31.58,37.22ZM28.69,45.3H6.09V39.91h24A16.53,16.53,0,0,0,28.69,45.3ZM46.61,19.52A1.36,1.36,0,0,0,46,18.41L22.67,2.24A1.35,1.35,0,0,0,21.9,2H4.74A1.35,1.35,0,0,0,3.39,3.35v43.3A1.35,1.35,0,0,0,4.74,48H30a1.34,1.34,0,0,0,1.34-1.35A13.94,13.94,0,0,1,45.26,32.73a1.35,1.35,0,0,0,1-.4,1.31,1.31,0,0,0,.4-.95Z"/><path class="cls-2" d="M11.48,17.72V10.09h8.16L30.8,17.72ZM35.91,18,20.82,7.63a1.29,1.29,0,0,0-.76-.24H10.13A1.35,1.35,0,0,0,8.78,8.74V19.07a1.36,1.36,0,0,0,1.35,1.35h25a1.36,1.36,0,0,0,1.29-1A1.35,1.35,0,0,0,35.91,18Z"/><path class="cls-2" d="M14.44,24.55H10.13a1.35,1.35,0,0,0,0,2.7h4.31a1.35,1.35,0,1,0,0-2.7Z"/></g></g></svg>