<svg width="50" height="50" viewBox="0 0 50 50" fill="none" xmlns="http://www.w3.org/2000/svg">
<rect width="50" height="50" fill="white"/>
<path d="M3.96427 2.57152L3.96421 2.57158C3.75831 2.77741 3.64269 3.05656 3.64269 3.34765L3.96427 2.57152ZM3.96427 2.57152C4.17003 2.36569 4.44918 2.25 4.74035 2.25H21.9005C22.1237 2.25 22.3416 2.3181 22.5253 2.44516C22.5253 2.44517 22.5253 2.44519 22.5253 2.4452L45.8843 18.6174C46.1805 18.8224 46.3572 19.1597 46.3572 19.5199L46.3574 31.3788C46.3574 31.67 46.2417 31.9491 46.0358 32.155L46.0358 32.155M3.96427 2.57152L46.0358 32.155M46.0358 32.155C45.83 32.3609 45.5509 32.4766 45.2597 32.4766C37.443 32.4767 31.0841 38.8357 31.0841 46.6523C31.0841 47.2585 30.5926 47.75 29.9864 47.75H4.74071C4.13451 47.75 3.64305 47.2585 3.64305 46.6523L3.64269 3.34766L46.0358 32.155ZM28.693 45.5547H28.9236L28.9422 45.3248C29.0934 43.4486 29.5625 41.6611 30.2951 40.0158L30.4517 39.6641H30.0668H6.08836H5.83836V39.9141V45.3047V45.5547H6.08836H28.693ZM31.5831 37.4688H31.7141L31.7886 37.361C34.5093 33.4287 38.9037 30.74 43.9321 30.3345L44.162 30.316L44.162 30.0853L44.1619 20.226L44.1619 20.095L44.0542 20.0204L21.6218 4.48977L21.5576 4.44531H21.4795H6.088H5.838L5.838 4.69531L5.83827 37.2188L5.83828 37.4688H6.08827H31.5831Z" fill="#F93F20" stroke="white" stroke-width="0.5"/>
<path d="M35.7718 18.1646L35.7718 18.1646C36.1689 18.4364 36.3426 18.9351 36.2003 19.3948L36.2003 19.3949C36.058 19.8546 35.633 20.168 35.1517 20.168L10.131 20.1678C9.52478 20.1678 9.03332 19.6763 9.03332 19.0701V8.73828C9.03332 8.13209 9.52478 7.64062 10.131 7.64062H20.0586C20.2799 7.64062 20.4961 7.70751 20.6787 7.83257L20.6787 7.83258L35.7718 18.1646ZM11.2286 17.7225V17.9725L11.4786 17.9725L30.7973 17.9727L31.6051 17.9727L30.9385 17.5164L19.7827 9.87964L19.7188 9.83594H19.6415H11.4786H11.2286V10.0859V17.7225Z" fill="#F93F20" stroke="white" stroke-width="0.5"/>
<path d="M10.131 24.8008H14.4435C15.0497 24.8008 15.5411 25.2922 15.5411 25.8984C15.5411 26.5046 15.0497 26.9961 14.4435 26.9961H10.131C9.52478 26.9961 9.03332 26.5046 9.03332 25.8984C9.03332 25.2922 9.52478 24.8008 10.131 24.8008Z" fill="#F93F20" stroke="white" stroke-width="0.5"/>
</svg>
