<svg width="50" height="50" viewBox="0 0 50 50" fill="none" xmlns="http://www.w3.org/2000/svg">
<rect width="50" height="50" fill="white"/>
<mask id="path-1-inside-1" fill="white">
<path d="M47.7754 23.6916L46.242 22.1583C46.0983 22.0145 45.9034 21.9337 45.7 21.9337H43.4C42.9766 21.9337 42.6333 22.2769 42.6333 22.7003V26.5337H41.1V21.167C41.1 20.7436 40.7567 20.4003 40.3333 20.4003H35.3768L32.5402 16.1415C32.3975 15.9276 32.1571 15.7996 31.9 15.8003H27.3V14.267H32.6667C33.0901 14.267 33.4333 13.9237 33.4333 13.5003V10.4337C33.4333 10.0103 33.0901 9.66699 32.6667 9.66699H17.3333C16.9099 9.66699 16.5667 10.0103 16.5667 10.4337V13.5003C16.5667 13.9237 16.9099 14.267 17.3333 14.267H22.7V15.8003H18.1C17.8437 15.8003 17.6043 15.9283 17.4621 16.1415L14.6232 20.4003H10.4333C10.0099 20.4003 9.66667 20.7436 9.66667 21.167V25.767H8.13333V21.167C8.13333 20.7436 7.79006 20.4003 7.36667 20.4003H4.3C4.04374 20.4003 3.80435 20.5283 3.66213 20.7415L2.1288 23.0415C2.04504 23.1676 2.00029 23.3156 2 23.467V25.767C2.00029 25.9184 2.04504 26.0664 2.1288 26.1925L3.53333 28.297V34.967C3.53333 35.3904 3.87661 35.7337 4.3 35.7337H7.36667C7.79006 35.7337 8.13333 35.3904 8.13333 34.967V30.367H9.66667V34.967C9.66667 35.3904 10.0099 35.7337 10.4333 35.7337H14.6232L17.4598 39.9925C17.6025 40.2064 17.8429 40.3344 18.1 40.3337H40.3333C40.7567 40.3337 41.1 39.9904 41.1 39.567V32.667H42.6333V38.0337C42.6333 38.4571 42.9766 38.8003 43.4 38.8003H45.7C45.9034 38.8003 46.0983 38.7194 46.242 38.5757L47.7754 37.0424C47.9191 36.8986 48 36.7037 48 36.5003V24.2337C48 24.0303 47.9191 23.8354 47.7754 23.6916ZM6.6 26.5337V34.2003H5.06667V28.067C5.06638 27.9156 5.02163 27.7676 4.93787 27.6415L3.53333 25.537V23.697L4.71017 21.9337H6.6V26.5337ZM9.66667 28.8337H8.13333V27.3003H9.66667V28.8337ZM18.1 12.7337V11.2003H31.9V12.7337H18.1ZM25.7667 14.267V15.8003H24.2333V14.267H25.7667ZM36.5 38.8003H18.5102L15.6735 34.5415C15.5308 34.3276 15.2905 34.1996 15.0333 34.2003H11.2V21.9337H15.0333C15.2896 21.9337 15.529 21.8057 15.6712 21.5925L18.5102 17.3337H31.4898L34.3265 21.5925C34.4692 21.8064 34.7095 21.9344 34.9667 21.9337H36.5V38.8003ZM39.5667 27.3003V38.8003H38.0333V21.9337H39.5667V27.3003ZM42.6333 31.1337H41.1V28.067H42.6333V31.1337ZM46.4667 36.1829L45.3826 37.267H44.1667V23.467H45.3826L46.4667 24.5511V36.1829Z"/>
</mask>
<path d="M47.7754 23.6916L46.242 22.1583C46.0983 22.0145 45.9034 21.9337 45.7 21.9337H43.4C42.9766 21.9337 42.6333 22.2769 42.6333 22.7003V26.5337H41.1V21.167C41.1 20.7436 40.7567 20.4003 40.3333 20.4003H35.3768L32.5402 16.1415C32.3975 15.9276 32.1571 15.7996 31.9 15.8003H27.3V14.267H32.6667C33.0901 14.267 33.4333 13.9237 33.4333 13.5003V10.4337C33.4333 10.0103 33.0901 9.66699 32.6667 9.66699H17.3333C16.9099 9.66699 16.5667 10.0103 16.5667 10.4337V13.5003C16.5667 13.9237 16.9099 14.267 17.3333 14.267H22.7V15.8003H18.1C17.8437 15.8003 17.6043 15.9283 17.4621 16.1415L14.6232 20.4003H10.4333C10.0099 20.4003 9.66667 20.7436 9.66667 21.167V25.767H8.13333V21.167C8.13333 20.7436 7.79006 20.4003 7.36667 20.4003H4.3C4.04374 20.4003 3.80435 20.5283 3.66213 20.7415L2.1288 23.0415C2.04504 23.1676 2.00029 23.3156 2 23.467V25.767C2.00029 25.9184 2.04504 26.0664 2.1288 26.1925L3.53333 28.297V34.967C3.53333 35.3904 3.87661 35.7337 4.3 35.7337H7.36667C7.79006 35.7337 8.13333 35.3904 8.13333 34.967V30.367H9.66667V34.967C9.66667 35.3904 10.0099 35.7337 10.4333 35.7337H14.6232L17.4598 39.9925C17.6025 40.2064 17.8429 40.3344 18.1 40.3337H40.3333C40.7567 40.3337 41.1 39.9904 41.1 39.567V32.667H42.6333V38.0337C42.6333 38.4571 42.9766 38.8003 43.4 38.8003H45.7C45.9034 38.8003 46.0983 38.7194 46.242 38.5757L47.7754 37.0424C47.9191 36.8986 48 36.7037 48 36.5003V24.2337C48 24.0303 47.9191 23.8354 47.7754 23.6916ZM6.6 26.5337V34.2003H5.06667V28.067C5.06638 27.9156 5.02163 27.7676 4.93787 27.6415L3.53333 25.537V23.697L4.71017 21.9337H6.6V26.5337ZM9.66667 28.8337H8.13333V27.3003H9.66667V28.8337ZM18.1 12.7337V11.2003H31.9V12.7337H18.1ZM25.7667 14.267V15.8003H24.2333V14.267H25.7667ZM36.5 38.8003H18.5102L15.6735 34.5415C15.5308 34.3276 15.2905 34.1996 15.0333 34.2003H11.2V21.9337H15.0333C15.2896 21.9337 15.529 21.8057 15.6712 21.5925L18.5102 17.3337H31.4898L34.3265 21.5925C34.4692 21.8064 34.7095 21.9344 34.9667 21.9337H36.5V38.8003ZM39.5667 27.3003V38.8003H38.0333V21.9337H39.5667V27.3003ZM42.6333 31.1337H41.1V28.067H42.6333V31.1337ZM46.4667 36.1829L45.3826 37.267H44.1667V23.467H45.3826L46.4667 24.5511V36.1829Z" fill="#F93F20" stroke="white" stroke-width="0.4" mask="url(#path-1-inside-1)"/>
</svg>
