<svg width="50" height="50" viewBox="0 0 50 50" fill="none" xmlns="http://www.w3.org/2000/svg">
<rect width="50" height="50" fill="white"/>
<path d="M10.7782 41.179L10.7787 41.1794C11.364 41.5727 12.0536 41.7827 12.7439 41.7827C12.9791 41.7827 13.2001 41.7563 13.4189 41.7174L13.4189 41.7174L13.4209 41.717C14.3437 41.5336 15.1512 41.0091 15.6723 40.2212C15.6723 40.2212 15.6724 40.2211 15.6724 40.2211L27.533 22.4925L27.5333 22.492C28.0533 21.7059 28.2486 20.7615 28.0665 19.8303C27.8846 18.9008 27.3646 18.0871 26.5828 17.5617C26.5827 17.5616 26.5827 17.5616 26.5826 17.5615L22.2206 14.5922L22.2201 14.5918C21.4399 14.0675 20.5025 13.8704 19.5779 14.0542C18.6551 14.2376 17.8476 14.7621 17.3265 15.5499C17.3265 15.55 17.3265 15.55 17.3264 15.5501L5.46579 33.2787L5.4655 33.2792C4.94552 34.0653 4.75015 35.0096 4.93232 35.9409C5.11416 36.8704 5.63427 37.6841 6.41604 38.2095C6.4161 38.2096 6.41615 38.2096 6.41621 38.2097L10.7782 41.179ZM19.7801 15.079L19.7802 15.0791L19.7844 15.0781C19.9389 15.0422 20.1077 15.0297 20.2676 15.0297C20.7536 15.0297 21.2392 15.1768 21.639 15.4577L21.6402 15.4585L26.0019 18.4277C26.0021 18.4278 26.0022 18.4279 26.0023 18.428C26.5504 18.8087 26.9266 19.3722 27.0481 20.0333L27.0481 20.0336C27.1698 20.6838 27.0359 21.3582 26.6712 21.9099C26.6711 21.9099 26.6711 21.91 26.671 21.9101L14.8109 39.6379C14.8109 39.6381 14.8108 39.6382 14.8107 39.6383C14.4329 40.1909 13.8738 40.5699 13.2187 40.6922L13.2183 40.6922C12.574 40.8148 11.9055 40.68 11.3585 40.3126C11.3584 40.3125 11.3582 40.3124 11.3581 40.3124L6.99688 37.3435C6.99676 37.3434 6.99663 37.3433 6.99651 37.3432C6.44846 36.9626 6.07219 36.399 5.95074 35.7379L5.95068 35.7376C5.82897 35.0874 5.96288 34.4129 6.32766 33.8613C6.3277 33.8612 6.32774 33.8611 6.32778 33.8611L18.1879 16.1333C18.188 16.1331 18.188 16.133 18.1881 16.1329C18.5659 15.5803 19.125 15.2013 19.7801 15.079Z" fill="#F93F20" stroke="#F93F20" stroke-width="0.2"/>
<path d="M25.1413 17.1944L25.141 17.1949C24.985 17.4308 25.046 17.7605 25.2824 17.9194C25.3742 17.9811 25.482 18.0129 25.5785 18.0129C25.7359 18.0129 25.9042 17.9348 26.0117 17.7955L26.0119 17.7957L26.0156 17.7901L30.3528 11.3153L30.3531 11.3148C30.752 10.7117 31.5492 10.5575 32.1485 10.9603C32.1486 10.9603 32.1486 10.9603 32.1486 10.9603L33.7289 12.0307C33.7289 12.0307 33.7289 12.0307 33.7289 12.0307C35.2555 13.0652 37.1162 13.4533 38.9383 13.0912C40.7598 12.7291 42.338 11.6816 43.3771 10.13L43.3771 10.13L47.0181 4.68868C47.0969 4.57683 47.1279 4.43383 47.0966 4.29182L47.0966 4.29181L47.096 4.28928C47.0657 4.16693 46.9902 4.04362 46.8804 3.96454L46.8804 3.96451L46.8781 3.96297L43.9698 1.98741V1.98741L43.9694 1.98713C43.7343 1.8292 43.4062 1.89148 43.2486 2.12948C43.2486 2.12954 43.2486 2.12961 43.2485 2.12967L39.6072 7.57139C38.8667 8.67264 37.3736 8.96633 36.2688 8.21985L34.6884 7.14934C33.389 6.26754 31.8318 5.95629 30.3012 6.25448C28.7697 6.55284 27.4447 7.44794 26.5704 8.74386L26.5703 8.74402L22.2204 15.2188L22.2204 15.2188L22.22 15.2194C22.064 15.4552 22.1251 15.785 22.3615 15.9438C22.5965 16.1017 22.9246 16.0395 23.0821 15.8015C23.0822 15.8015 23.0823 15.8014 23.0823 15.8013L27.4192 9.32703L27.4192 9.32697C28.906 7.10405 31.9035 6.51786 34.0953 8.01565L34.0956 8.01588L35.6759 9.08629C35.676 9.08632 35.676 9.08634 35.676 9.08637C37.2524 10.1631 39.3885 9.7423 40.456 8.15458L40.4561 8.15442L43.8146 3.13931L45.8739 4.51921L42.5154 9.53437L42.5151 9.53485C41.6447 10.8509 40.3022 11.7529 38.7481 12.0537L38.7473 12.0538C37.1934 12.3671 35.6149 12.0415 34.3092 11.1516L34.309 11.1514L32.7283 10.0808L32.728 10.0806C31.658 9.36155 30.205 9.64129 29.4787 10.7195L29.4785 10.7197L25.1413 17.1944Z" fill="#F93F20" stroke="#F93F20" stroke-width="0.2"/>
<path d="M5.15129 47.9986L5.1517 47.9989C5.24349 48.0606 5.35132 48.0924 5.44773 48.0924C5.62046 48.0924 5.77723 48.0119 5.88392 47.8582L5.88394 47.8583L5.88491 47.8568L10.7785 40.5409L10.7788 40.5404C10.9348 40.3045 10.8737 39.9748 10.6373 39.816C10.4024 39.6581 10.0743 39.7203 9.91668 39.9582C9.91662 39.9583 9.91656 39.9584 9.91649 39.9585L5.30684 46.8462L3.25929 45.4546L7.85757 38.5652L7.8578 38.5649C8.01381 38.329 7.95276 37.9993 7.71637 37.8404C7.48136 37.6825 7.15325 37.7447 6.99567 37.9827C6.99562 37.9828 6.99557 37.9829 6.99552 37.9829L2.10292 45.2974C2.02416 45.4093 1.99316 45.5522 2.02446 45.6942L2.02443 45.6942L2.02506 45.6968C2.0554 45.8191 2.13088 45.9424 2.24072 46.0215L2.2407 46.0215L2.24296 46.0231L5.15129 47.9986Z" fill="#F93F20" stroke="#F93F20" stroke-width="0.2"/>
<path d="M18.9978 21.5391L18.9982 21.5393L24.8872 25.4626C24.9706 25.5281 25.0805 25.5582 25.1738 25.5582C25.3462 25.5582 25.5026 25.478 25.6093 25.3249C25.7842 25.0835 25.7015 24.7534 25.4698 24.5977L25.4694 24.5975L19.5788 20.6731C19.3389 20.4977 19.0122 20.5812 18.8576 20.8128C18.6836 21.0541 18.7664 21.3836 18.9978 21.5391Z" fill="#F93F20" stroke="#F93F20" stroke-width="0.2"/>
<path d="M15.5079 19.2196L15.5079 19.2196L15.5084 19.22L17.2372 20.3647C17.3206 20.4302 17.4304 20.4602 17.5236 20.4602C17.696 20.4602 17.8525 20.38 17.9592 20.2269C18.134 19.9855 18.0513 19.6554 17.8196 19.4997L17.8196 19.4997L17.8191 19.4993L16.0888 18.3536C15.8489 18.1782 15.5222 18.2618 15.3677 18.4933C15.1937 18.7347 15.2765 19.0641 15.5079 19.2196Z" fill="#F93F20" stroke="#F93F20" stroke-width="0.2"/>
<path d="M18.922 30.2066L18.9224 30.2068L20.8535 31.4918C20.937 31.5573 21.0468 31.5873 21.1401 31.5873C21.2982 31.5873 21.468 31.5084 21.5756 31.3541C21.7505 31.1126 21.6678 30.7825 21.4361 30.6268L21.4357 30.6266L19.503 29.3406C19.2631 29.1651 18.9364 29.2487 18.7818 29.4802C18.6078 29.7216 18.6906 30.0511 18.922 30.2066Z" fill="#F93F20" stroke="#F93F20" stroke-width="0.2"/>
<path d="M11.4741 25.2488L11.4744 25.249L17.1485 29.0321C17.2319 29.0976 17.3418 29.1277 17.4351 29.1277C17.6076 29.1277 17.777 29.0347 17.8713 28.8935C18.0453 28.6522 17.9625 28.3227 17.7311 28.1672L17.7308 28.167L12.0551 24.3829C11.8152 24.2074 11.4885 24.2909 11.3339 24.5225C11.1599 24.7638 11.2427 25.0933 11.4741 25.2488Z" fill="#F93F20" stroke="#F93F20" stroke-width="0.2"/>
<path d="M10.6901 33.4309L10.6904 33.4311L16.8071 37.5074C16.8905 37.5729 17.0004 37.603 17.0936 37.603C17.2603 37.603 17.4339 37.527 17.5312 37.3669C17.7034 37.1257 17.6205 36.7976 17.3897 36.6425L17.3894 36.6423L11.2711 32.565C11.0312 32.3895 10.7045 32.4731 10.5499 32.7046C10.3759 32.946 10.4587 33.2754 10.6901 33.4309Z" fill="#F93F20" stroke="#F93F20" stroke-width="0.2"/>
<path d="M7.4404 31.2638L7.44071 31.264L8.96726 32.2813C9.0507 32.3469 9.16054 32.3769 9.25381 32.3769C9.42621 32.3769 9.5827 32.2967 9.68939 32.1437C9.86424 31.9022 9.78154 31.5721 9.54984 31.4164L9.54952 31.4162L8.0214 30.3979C7.78149 30.2224 7.45477 30.306 7.30019 30.5375C7.1262 30.7788 7.20899 31.1083 7.4404 31.2638Z" fill="#F93F20" stroke="#F93F20" stroke-width="0.2"/>
</svg>
