<svg width="50" height="50" viewBox="0 0 50 50" fill="none" xmlns="http://www.w3.org/2000/svg">
<rect width="50" height="50" fill="white"/>
<g clip-path="url(#clip0)">
<mask id="path-1-outside-1" maskUnits="userSpaceOnUse" x="2.93164" y="1" width="44" height="48" fill="black">
<rect fill="white" x="2.93164" y="1" width="44" height="48"/>
<path d="M45.0352 33.8346H44.2575L43.9188 30.4134C43.8822 30.043 43.5523 29.7721 43.1819 29.8091C42.8116 29.8457 42.5411 30.1756 42.5778 30.546L42.9032 33.8346H39.5403L38.1092 7.48047H40.2953L42.2934 27.671C42.33 28.0413 42.6589 28.3114 43.0303 28.2753C43.4006 28.2386 43.6712 27.9087 43.6345 27.5384L41.6439 7.42396C42.0499 7.28461 42.343 6.8999 42.343 6.44727V3.0332C42.343 2.4635 41.8795 2 41.3098 2H16.6031C16.231 2 15.9293 2.30161 15.9293 2.67383C15.9293 3.04605 16.231 3.34766 16.6031 3.34766H40.9954V6.13281H9.00467V3.34766H13.7373C14.1094 3.34766 14.4111 3.04605 14.4111 2.67383C14.4111 2.30161 14.1094 2 13.7373 2H8.69021C8.12052 2 7.65701 2.4635 7.65701 3.0332V6.44727C7.65701 6.8999 7.95008 7.28461 8.35609 7.42396L5.74244 33.8346H4.96484C4.39514 33.8346 3.93164 34.2981 3.93164 34.8678V38.2819C3.93164 38.8516 4.39514 39.3151 4.96484 39.3151H7.65701V41.1231C7.65701 42.4051 8.69992 43.448 9.9819 43.448H13.4931C13.8652 43.448 14.1669 43.1464 14.1669 42.7742C14.1669 42.4019 13.8652 42.1003 13.4931 42.1003H9.9819C9.44302 42.1003 9.00467 41.6619 9.00467 41.1231V39.3152H40.9953V41.1231C40.9953 41.6619 40.557 42.1003 40.0181 42.1003H16.3819C16.0098 42.1003 15.7081 42.4019 15.7081 42.7742C15.7081 43.1464 16.0098 43.448 16.3819 43.448H18.7856V47.3262C18.7856 47.6984 19.0873 48 19.4594 48H30.5405C30.9126 48 31.2143 47.6984 31.2143 47.3262V43.448H40.0181C41.3001 43.448 42.343 42.4051 42.343 41.1231V39.3151H45.0352C45.6049 39.3151 46.0684 38.8516 46.0684 38.2819V34.8678C46.0684 34.2981 45.6049 33.8346 45.0352 33.8346ZM29.8667 46.6523H20.1333V43.448H29.8667V46.6523H29.8667ZM16.0361 7.48047L15.082 33.8346H11.8091L13.2404 7.48047H16.0361ZM30.2957 33.8346L29.8187 7.48047H32.6153L33.5695 33.8346H30.2957ZM28.9479 33.8346H25.6738V7.48047H28.4708L28.9479 33.8346ZM24.3262 33.8346H21.0521L21.5292 7.48047H24.3262V33.8346ZM19.7043 33.8346H16.4306L17.3847 7.48047H20.1813L19.7043 33.8346ZM38.1909 33.8346H34.918L33.9639 7.48047H36.7597L38.1909 33.8346ZM9.70473 7.48047H11.8908L10.4596 33.8346H7.09675L9.70473 7.48047ZM44.7207 37.9674H5.2793V35.1823H6.10909C6.18483 35.2111 6.26569 35.2272 6.34844 35.2272H43.6516C43.7344 35.2272 43.8152 35.2111 43.8909 35.1823H44.7207V37.9674Z"/>
</mask>
<path d="M45.0352 33.8346H44.2575L43.9188 30.4134C43.8822 30.043 43.5523 29.7721 43.1819 29.8091C42.8116 29.8457 42.5411 30.1756 42.5778 30.546L42.9032 33.8346H39.5403L38.1092 7.48047H40.2953L42.2934 27.671C42.33 28.0413 42.6589 28.3114 43.0303 28.2753C43.4006 28.2386 43.6712 27.9087 43.6345 27.5384L41.6439 7.42396C42.0499 7.28461 42.343 6.8999 42.343 6.44727V3.0332C42.343 2.4635 41.8795 2 41.3098 2H16.6031C16.231 2 15.9293 2.30161 15.9293 2.67383C15.9293 3.04605 16.231 3.34766 16.6031 3.34766H40.9954V6.13281H9.00467V3.34766H13.7373C14.1094 3.34766 14.4111 3.04605 14.4111 2.67383C14.4111 2.30161 14.1094 2 13.7373 2H8.69021C8.12052 2 7.65701 2.4635 7.65701 3.0332V6.44727C7.65701 6.8999 7.95008 7.28461 8.35609 7.42396L5.74244 33.8346H4.96484C4.39514 33.8346 3.93164 34.2981 3.93164 34.8678V38.2819C3.93164 38.8516 4.39514 39.3151 4.96484 39.3151H7.65701V41.1231C7.65701 42.4051 8.69992 43.448 9.9819 43.448H13.4931C13.8652 43.448 14.1669 43.1464 14.1669 42.7742C14.1669 42.4019 13.8652 42.1003 13.4931 42.1003H9.9819C9.44302 42.1003 9.00467 41.6619 9.00467 41.1231V39.3152H40.9953V41.1231C40.9953 41.6619 40.557 42.1003 40.0181 42.1003H16.3819C16.0098 42.1003 15.7081 42.4019 15.7081 42.7742C15.7081 43.1464 16.0098 43.448 16.3819 43.448H18.7856V47.3262C18.7856 47.6984 19.0873 48 19.4594 48H30.5405C30.9126 48 31.2143 47.6984 31.2143 47.3262V43.448H40.0181C41.3001 43.448 42.343 42.4051 42.343 41.1231V39.3151H45.0352C45.6049 39.3151 46.0684 38.8516 46.0684 38.2819V34.8678C46.0684 34.2981 45.6049 33.8346 45.0352 33.8346ZM29.8667 46.6523H20.1333V43.448H29.8667V46.6523H29.8667ZM16.0361 7.48047L15.082 33.8346H11.8091L13.2404 7.48047H16.0361ZM30.2957 33.8346L29.8187 7.48047H32.6153L33.5695 33.8346H30.2957ZM28.9479 33.8346H25.6738V7.48047H28.4708L28.9479 33.8346ZM24.3262 33.8346H21.0521L21.5292 7.48047H24.3262V33.8346ZM19.7043 33.8346H16.4306L17.3847 7.48047H20.1813L19.7043 33.8346ZM38.1909 33.8346H34.918L33.9639 7.48047H36.7597L38.1909 33.8346ZM9.70473 7.48047H11.8908L10.4596 33.8346H7.09675L9.70473 7.48047ZM44.7207 37.9674H5.2793V35.1823H6.10909C6.18483 35.2111 6.26569 35.2272 6.34844 35.2272H43.6516C43.7344 35.2272 43.8152 35.2111 43.8909 35.1823H44.7207V37.9674Z" fill="#F93F20"/>
<path d="M45.0352 33.8346H44.2575L43.9188 30.4134C43.8822 30.043 43.5523 29.7721 43.1819 29.8091C42.8116 29.8457 42.5411 30.1756 42.5778 30.546L42.9032 33.8346H39.5403L38.1092 7.48047H40.2953L42.2934 27.671C42.33 28.0413 42.6589 28.3114 43.0303 28.2753C43.4006 28.2386 43.6712 27.9087 43.6345 27.5384L41.6439 7.42396C42.0499 7.28461 42.343 6.8999 42.343 6.44727V3.0332C42.343 2.4635 41.8795 2 41.3098 2H16.6031C16.231 2 15.9293 2.30161 15.9293 2.67383C15.9293 3.04605 16.231 3.34766 16.6031 3.34766H40.9954V6.13281H9.00467V3.34766H13.7373C14.1094 3.34766 14.4111 3.04605 14.4111 2.67383C14.4111 2.30161 14.1094 2 13.7373 2H8.69021C8.12052 2 7.65701 2.4635 7.65701 3.0332V6.44727C7.65701 6.8999 7.95008 7.28461 8.35609 7.42396L5.74244 33.8346H4.96484C4.39514 33.8346 3.93164 34.2981 3.93164 34.8678V38.2819C3.93164 38.8516 4.39514 39.3151 4.96484 39.3151H7.65701V41.1231C7.65701 42.4051 8.69992 43.448 9.9819 43.448H13.4931C13.8652 43.448 14.1669 43.1464 14.1669 42.7742C14.1669 42.4019 13.8652 42.1003 13.4931 42.1003H9.9819C9.44302 42.1003 9.00467 41.6619 9.00467 41.1231V39.3152H40.9953V41.1231C40.9953 41.6619 40.557 42.1003 40.0181 42.1003H16.3819C16.0098 42.1003 15.7081 42.4019 15.7081 42.7742C15.7081 43.1464 16.0098 43.448 16.3819 43.448H18.7856V47.3262C18.7856 47.6984 19.0873 48 19.4594 48H30.5405C30.9126 48 31.2143 47.6984 31.2143 47.3262V43.448H40.0181C41.3001 43.448 42.343 42.4051 42.343 41.1231V39.3151H45.0352C45.6049 39.3151 46.0684 38.8516 46.0684 38.2819V34.8678C46.0684 34.2981 45.6049 33.8346 45.0352 33.8346ZM29.8667 46.6523H20.1333V43.448H29.8667V46.6523H29.8667ZM16.0361 7.48047L15.082 33.8346H11.8091L13.2404 7.48047H16.0361ZM30.2957 33.8346L29.8187 7.48047H32.6153L33.5695 33.8346H30.2957ZM28.9479 33.8346H25.6738V7.48047H28.4708L28.9479 33.8346ZM24.3262 33.8346H21.0521L21.5292 7.48047H24.3262V33.8346ZM19.7043 33.8346H16.4306L17.3847 7.48047H20.1813L19.7043 33.8346ZM38.1909 33.8346H34.918L33.9639 7.48047H36.7597L38.1909 33.8346ZM9.70473 7.48047H11.8908L10.4596 33.8346H7.09675L9.70473 7.48047ZM44.7207 37.9674H5.2793V35.1823H6.10909C6.18483 35.2111 6.26569 35.2272 6.34844 35.2272H43.6516C43.7344 35.2272 43.8152 35.2111 43.8909 35.1823H44.7207V37.9674Z" stroke="#F93F20" stroke-width="0.2" mask="url(#path-1-outside-1)"/>
</g>
<defs>
<clipPath id="clip0">
<rect width="46" height="46" fill="white" transform="translate(2 2)"/>
</clipPath>
</defs>
</svg>
