<svg width="50" height="50" viewBox="0 0 50 50" fill="none" xmlns="http://www.w3.org/2000/svg">
<rect width="50" height="50" fill="white"/>
<path d="M22.1834 27.4926H22.1833C21.9668 27.4928 21.7593 27.5789 21.6062 27.732C21.4531 27.8851 21.367 28.0927 21.3667 28.3092V28.3092C21.3667 28.4708 21.4146 28.6287 21.5043 28.763C21.5941 28.8973 21.7216 29.0019 21.8709 29.0637C22.0201 29.1255 22.1843 29.1417 22.3427 29.1102C22.5011 29.0787 22.6466 29.0009 22.7609 28.8867C22.8751 28.7725 22.9528 28.627 22.9844 28.4686C23.0159 28.3101 22.9997 28.1459 22.9379 27.9967C22.8761 27.8475 22.7714 27.7199 22.6371 27.6302C22.5028 27.5405 22.3449 27.4926 22.1834 27.4926ZM21.214 30.3394L21.1821 30.3241L21.1571 30.3491L19.485 32.0212L19.4433 32.0629L19.4914 32.0972C20.0618 32.5044 20.7173 32.7767 21.4084 32.8934L21.4667 32.9033V32.8441V30.4774V30.442L21.4334 30.4302C21.3587 30.4038 21.2855 30.3735 21.214 30.3394ZM22.9334 30.4302L22.9 30.442V30.4774V32.8441V32.9033L22.9584 32.8934C23.6495 32.7767 24.305 32.5044 24.8754 32.0972L24.9235 32.0629L24.8817 32.0212L23.2097 30.3491L23.1847 30.3241L23.1528 30.3394C23.0813 30.3735 23.0081 30.4038 22.9334 30.4302ZM24.2135 29.2786L24.1983 29.3105L24.2233 29.3355L25.8953 31.0076L25.937 31.0493L25.9714 31.0013C26.3786 30.4308 26.6509 29.7753 26.7676 29.0842L26.7774 29.0259H26.7183H24.3515H24.3161L24.3043 29.0593C24.278 29.1339 24.2477 29.2072 24.2135 29.2786ZM24.3043 27.5592L24.3161 27.5926H24.3515H26.7183H26.7774L26.7676 27.5342C26.6509 26.8432 26.3786 26.1876 25.9714 25.6172L25.937 25.5692L25.8953 25.6109L24.2233 27.2829L24.1983 27.3079L24.2135 27.3398C24.2477 27.4113 24.278 27.4845 24.3043 27.5592ZM23.1528 26.2791L23.1847 26.2943L23.2097 26.2693L24.8817 24.5973L24.9235 24.5556L24.8754 24.5213C24.305 24.114 23.6495 23.8417 22.9584 23.7251L22.9 23.7152V23.7744V26.1411V26.1765L22.9334 26.1882C23.0081 26.2146 23.0813 26.245 23.1528 26.2791ZM21.4334 26.1882L21.4667 26.1765V26.1411V23.7744V23.7152L21.4084 23.7251C20.7173 23.8417 20.0618 24.114 19.4913 24.5213L19.4433 24.5556L19.485 24.5973L21.1571 26.2693L21.1821 26.2943L21.214 26.2791C21.2855 26.245 21.3587 26.2146 21.4334 26.1882ZM20.1532 27.3398L20.1685 27.3079L20.1435 27.2829L18.4715 25.6109L18.4297 25.5692L18.3954 25.6172C17.9882 26.1876 17.7159 26.8432 17.5992 27.5342L17.5893 27.5926H17.6485H20.0153H20.0506L20.0624 27.5592C20.0888 27.4845 20.1191 27.4113 20.1532 27.3398ZM20.0624 29.0593L20.0506 29.0259H20.0153H17.6485H17.5893L17.5992 29.0842C17.7159 29.7753 17.9882 30.4309 18.3954 31.0013L18.4297 31.0493L18.4715 31.0076L20.1435 29.3355L20.1685 29.3105L20.1532 29.2786C20.1191 29.2072 20.0888 29.1339 20.0624 29.0593ZM25.5631 33.3673C24.5627 34.0358 23.3866 34.3926 22.1834 34.3926C20.5706 34.3908 19.0243 33.7492 17.8838 32.6088C16.7434 31.4683 16.1019 29.922 16.1 28.3092L16.05 28.3092H16.1C16.1 27.1061 16.4568 25.9299 17.1253 24.9295C17.7937 23.9291 18.7438 23.1494 19.8554 22.689C20.967 22.2285 22.1901 22.1081 23.3702 22.3428C24.5502 22.5775 25.6342 23.1569 26.4849 24.0077C27.3357 24.8584 27.9151 25.9424 28.1498 27.1224C28.3846 28.3025 28.2641 29.5256 27.8036 30.6372C27.3432 31.7488 26.5635 32.6989 25.5631 33.3673Z" fill="#F93F20" stroke="white" stroke-width="0.1"/>
<path d="M43.65 3.82552H43.7V3.77552V3.00886C43.7 2.81879 43.7755 2.6365 43.9099 2.50211C44.0443 2.36771 44.2266 2.2922 44.4167 2.29219H47.4833C47.6734 2.2922 47.8557 2.36771 47.9901 2.50211C48.1245 2.6365 48.2 2.81879 48.2 3.00885V21.4088C48.2 21.5989 48.1245 21.7812 47.9901 21.9156C47.8557 22.05 47.6734 22.1255 47.4833 22.1255H44.4167C44.2266 22.1255 44.0443 22.05 43.9099 21.9156C43.7755 21.7812 43.7 21.5989 43.7 21.4088V20.5573V20.5128L43.6558 20.5076L42.2101 20.3375C41.6067 20.2665 41.0027 20.2042 40.3984 20.1471L40.3132 20.1391L40.348 20.2172C40.8906 21.4376 41.309 22.7095 41.5966 24.0138L41.6039 24.0468L41.6372 24.0523L44.5345 24.5352C44.7018 24.5631 44.8538 24.6495 44.9635 24.7789C45.0731 24.9084 45.1333 25.0725 45.1333 25.2422V31.3755C45.1333 31.5452 45.0731 31.7093 44.9635 31.8388C44.8538 31.9682 44.7018 32.0546 44.5345 32.0825L41.6387 32.5651L41.6054 32.5707L41.5981 32.6037C41.0961 34.8734 40.1978 37.0368 38.9445 38.9946L38.9262 39.0231L38.9459 39.0506L40.6562 41.4452C40.7549 41.5832 40.8013 41.7518 40.7873 41.9208C40.7733 42.0899 40.6998 42.2485 40.5799 42.3685L36.243 46.7054C36.123 46.8253 35.9644 46.8988 35.7953 46.9128C35.6262 46.9268 35.4577 46.8804 35.3197 46.7818L32.9251 45.0714L32.8975 45.0517L32.8691 45.07C29.6799 47.113 25.9708 48.1967 22.1834 48.1922C11.2197 48.1922 2.3 39.2725 2.3 28.3088C2.29936 24.5312 3.37474 20.8316 5.40027 17.6429C7.42581 14.4542 10.3177 11.9085 13.7375 10.3036L13.7376 10.3035C22.7267 6.03823 32.5518 3.82549 42.5015 3.82552H43.65ZM39.1071 41.8141L39.137 41.7842L39.1124 41.7497L38.095 40.3253L38.0556 40.2701L38.0145 40.324C36.9202 41.7621 35.6366 43.0458 34.1985 44.14L34.1446 44.1811L34.1997 44.2205L35.6242 45.2379L35.6586 45.2625L35.6886 45.2326L39.1071 41.8141ZM43.7 25.8917V25.8493L43.6582 25.8424L41.9381 25.5557L41.8711 25.5445L41.8804 25.6118C42.1278 27.4011 42.1288 29.2159 41.8831 31.0055L41.8738 31.0727L41.9408 31.0616L43.6582 30.7753L43.7 30.7684V30.726V25.8917ZM42.0667 18.8341V18.8787L42.111 18.8838C42.1458 18.8877 42.1805 18.8916 42.2151 18.8955C42.2693 18.9015 42.3233 18.9076 42.3775 18.914L43.6441 19.063L43.7 19.0696V19.0133V5.30885V5.25885H43.65H42.5015C42.4216 5.25885 42.3413 5.2596 42.2613 5.26034C42.2129 5.26079 42.1645 5.26124 42.1164 5.26152L42.0667 5.26181V5.31152V7.55885H40.6333V5.33766V5.28618L40.5819 5.28768C31.4951 5.55254 22.5623 7.70191 14.3496 11.5996C11.1755 13.0885 8.49124 15.4508 6.6111 18.41C4.73093 21.3692 3.73272 24.8029 3.73333 28.3088C3.73333 38.4823 12.0099 46.7588 22.1833 46.7588C32.3567 46.7588 40.6333 38.4823 40.6333 28.3088C40.6324 25.4334 39.9612 22.5978 38.6729 20.0271L38.6602 20.0017L38.6318 19.9997C34.5457 19.7054 30.4429 19.7273 26.3601 20.0651L26.185 20.0796L26.3415 20.1595C28.2696 21.1435 29.7865 22.7791 30.6227 24.7757C31.459 26.7724 31.5605 29.0008 30.9093 31.0651C30.2581 33.1295 28.8962 34.8963 27.0656 36.0516C25.235 37.2069 23.0542 37.676 20.9105 37.3756C18.7667 37.0752 16.7989 36.0246 15.3564 34.4106C13.9139 32.7966 13.0902 30.7235 13.0316 28.5596C12.9729 26.3957 13.6831 24.2811 15.036 22.5913C16.3889 20.9015 18.297 19.7459 20.4213 19.3298L20.4294 19.3282L20.4294 19.3282L20.4315 19.3278C20.6862 19.2779 20.9443 19.239 21.2059 19.2111L21.2059 19.2112L21.2078 19.2109C27.622 18.2737 34.1254 18.11 40.5786 18.7234L40.6333 18.7286V18.6736V9.19219H42.0667V18.8341ZM29.9 28.3088V28.3088C29.8977 26.2629 29.0839 24.3015 27.6373 22.8549C26.1907 21.4082 24.2292 20.5945 22.1834 20.5922H22.1833C20.6571 20.5922 19.1652 21.0448 17.8962 21.8927C16.6272 22.7406 15.6381 23.9458 15.0541 25.3558C14.47 26.7658 14.3172 28.3174 14.6149 29.8143C14.9127 31.3112 15.6476 32.6862 16.7268 33.7654C17.806 34.8445 19.181 35.5795 20.6779 35.8772C22.1748 36.175 23.7263 36.0222 25.1364 35.4381C26.5464 34.8541 27.7516 33.865 28.5995 32.596C29.4474 31.327 29.9 29.8351 29.9 28.3088ZM46.7167 20.6922H46.7667V20.6422V3.77552V3.72552H46.7167H45.1833H45.1333V3.77552V20.6422V20.6922H45.1833H46.7167Z" fill="#F93F20" stroke="white" stroke-width="0.1"/>
<path d="M35.2167 23.6592L35.2166 23.6592C35.0001 23.6595 34.7926 23.7456 34.6395 23.8987C34.4864 24.0518 34.4003 24.2593 34.4 24.4758V24.4759C34.4 24.6374 34.4479 24.7953 34.5377 24.9296C34.6274 25.0639 34.7549 25.1686 34.9042 25.2304C35.0534 25.2922 35.2176 25.3084 35.376 25.2769C35.5344 25.2454 35.6799 25.1676 35.7942 25.0534C35.9084 24.9392 35.9862 24.7936 36.0177 24.6352C36.0492 24.4768 36.033 24.3126 35.9712 24.1634C35.9094 24.0142 35.8047 23.8866 35.6704 23.7969C35.5361 23.7071 35.3782 23.6592 35.2167 23.6592ZM36.4667 26.3467C36.0967 26.5939 35.6617 26.7259 35.2167 26.7259C34.6202 26.7252 34.0483 26.4879 33.6265 26.0661C33.2046 25.6443 32.9674 25.0724 32.9667 24.4758L32.9167 24.4759H32.9667C32.9667 24.0309 33.0986 23.5959 33.3459 23.2259C33.5931 22.8559 33.9445 22.5675 34.3557 22.3972C34.7668 22.2269 35.2192 22.1823 35.6556 22.2691C36.0921 22.356 36.493 22.5702 36.8077 22.8849C37.1223 23.1996 37.3366 23.6005 37.4235 24.037C37.5103 24.4734 37.4657 24.9258 37.2954 25.3369C37.1251 25.7481 36.8367 26.0995 36.4667 26.3467Z" fill="#F93F20" stroke="white" stroke-width="0.1"/>
<path d="M7.86939 21.0409C8.81783 19.1729 10.1236 17.5091 11.7127 16.1439L12.6447 17.2327C11.1998 18.4749 10.0122 19.988 9.14893 21.6867L7.86939 21.0409Z" fill="#F93F20" stroke="white" stroke-width="0.1"/>
<path d="M15.5617 41.3428L14.9158 42.6223C14.1014 42.2078 13.3238 41.7246 12.5914 41.178L13.4524 40.0321C14.1171 40.5279 14.8227 40.9664 15.5617 41.3428Z" fill="#F93F20" stroke="white" stroke-width="0.1"/>
<path d="M11.71 38.5046L10.6865 39.508C10.2177 39.0266 9.77926 38.5165 9.37379 37.9807L10.5198 37.1196C10.8876 37.6054 11.2851 38.068 11.71 38.5046Z" fill="#F93F20" stroke="white" stroke-width="0.1"/>
<path d="M7.56665 28.3088C7.56547 30.8575 8.23101 33.3618 9.49676 35.5732L8.25608 36.2909C7.0897 34.2516 6.38402 31.9814 6.18888 29.6397C5.99375 27.2981 6.31395 24.9424 7.12671 22.7381L8.46937 23.2399C7.86982 24.8624 7.56409 26.5788 7.56665 28.3088ZM7.56665 28.3088C7.56665 28.3088 7.56665 28.3088 7.56665 28.3088L7.61665 28.3088L7.56665 28.3089C7.56665 28.3088 7.56665 28.3088 7.56665 28.3088ZM8.23769 36.3593L8.28097 36.3343L8.23769 36.3593Z" fill="#F93F20" stroke="white" stroke-width="0.1"/>
</svg>
