<svg width="50" height="50" viewBox="0 0 50 50" fill="none" xmlns="http://www.w3.org/2000/svg">
<rect width="50" height="50" fill="white"/>
<path d="M7.03125 35.0625C7.4282 35.0625 7.75 34.7407 7.75 34.3438C7.75 33.9468 7.4282 33.625 7.03125 33.625C6.6343 33.625 6.3125 33.9468 6.3125 34.3438C6.3125 34.7407 6.6343 35.0625 7.03125 35.0625Z" fill="#F93F20"/>
<path d="M13.5 28.5938C13.897 28.5938 14.2188 28.272 14.2188 27.875C14.2188 27.478 13.897 27.1562 13.5 27.1562C13.103 27.1562 12.7812 27.478 12.7812 27.875C12.7812 28.272 13.103 28.5938 13.5 28.5938Z" fill="#F93F20"/>
<path d="M19.25 19.9688C19.647 19.9688 19.9688 19.647 19.9688 19.25C19.9688 18.853 19.647 18.5312 19.25 18.5312C18.853 18.5312 18.5312 18.853 18.5312 19.25C18.5312 19.647 18.853 19.9688 19.25 19.9688Z" fill="#F93F20"/>
<path d="M31.1094 31.8281C31.5063 31.8281 31.8281 31.5063 31.8281 31.1094C31.8281 30.7124 31.5063 30.3906 31.1094 30.3906C30.7124 30.3906 30.3906 30.7124 30.3906 31.1094C30.3906 31.5063 30.7124 31.8281 31.1094 31.8281Z" fill="#F93F20"/>
<path d="M15.6562 43.6875C16.0532 43.6875 16.375 43.3657 16.375 42.9688C16.375 42.5718 16.0532 42.25 15.6562 42.25C15.2593 42.25 14.9375 42.5718 14.9375 42.9688C14.9375 43.3657 15.2593 43.6875 15.6562 43.6875Z" fill="#F93F20"/>
<path d="M12.0625 42.25C12.4595 42.25 12.7812 41.9282 12.7812 41.5312C12.7812 41.1343 12.4595 40.8125 12.0625 40.8125C11.6655 40.8125 11.3438 41.1343 11.3438 41.5312C11.3438 41.9282 11.6655 42.25 12.0625 42.25Z" fill="#F93F20"/>
<path d="M8.46875 38.6562C8.8657 38.6562 9.1875 38.3345 9.1875 37.9375C9.1875 37.5405 8.8657 37.2188 8.46875 37.2188C8.0718 37.2188 7.75 37.5405 7.75 37.9375C7.75 38.3345 8.0718 38.6562 8.46875 38.6562Z" fill="#F93F20"/>
<path d="M34.3437 7.75C34.7407 7.75 35.0625 7.4282 35.0625 7.03125C35.0625 6.6343 34.7407 6.3125 34.3437 6.3125C33.9468 6.3125 33.625 6.6343 33.625 7.03125C33.625 7.4282 33.9468 7.75 34.3437 7.75Z" fill="#F93F20"/>
<path d="M27.875 14.2188C28.272 14.2188 28.5938 13.897 28.5938 13.5C28.5938 13.103 28.272 12.7812 27.875 12.7812C27.478 12.7812 27.1562 13.103 27.1562 13.5C27.1562 13.897 27.478 14.2188 27.875 14.2188Z" fill="#F93F20"/>
<path d="M42.9688 16.375C43.3657 16.375 43.6875 16.0532 43.6875 15.6562C43.6875 15.2593 43.3657 14.9375 42.9688 14.9375C42.5718 14.9375 42.25 15.2593 42.25 15.6562C42.25 16.0532 42.5718 16.375 42.9688 16.375Z" fill="#F93F20"/>
<path d="M36.5 22.8438C36.897 22.8438 37.2188 22.522 37.2188 22.125C37.2188 21.728 36.897 21.4062 36.5 21.4062C36.103 21.4062 35.7812 21.728 35.7812 22.125C35.7812 22.522 36.103 22.8438 36.5 22.8438Z" fill="#F93F20"/>
<path d="M22.125 37.2188C22.522 37.2188 22.8438 36.897 22.8438 36.5C22.8438 36.103 22.522 35.7812 22.125 35.7812C21.728 35.7812 21.4062 36.103 21.4062 36.5C21.4062 36.897 21.728 37.2188 22.125 37.2188Z" fill="#F93F20"/>
<path d="M41.5312 12.7812C41.9282 12.7812 42.25 12.4595 42.25 12.0625C42.25 11.6655 41.9282 11.3438 41.5312 11.3438C41.1343 11.3438 40.8125 11.6655 40.8125 12.0625C40.8125 12.4595 41.1343 12.7812 41.5312 12.7812Z" fill="#F93F20"/>
<path d="M37.9375 9.1875C38.3345 9.1875 38.6562 8.8657 38.6562 8.46875C38.6562 8.0718 38.3345 7.75 37.9375 7.75C37.5405 7.75 37.2188 8.0718 37.2188 8.46875C37.2188 8.8657 37.5405 9.1875 37.9375 9.1875Z" fill="#F93F20"/>
<path d="M15.6563 46.3879C15.2786 46.389 14.9044 46.3151 14.5555 46.1706C14.2066 46.0261 13.8897 45.8138 13.6234 45.546L13.0358 44.9585C12.8613 44.7829 12.6536 44.6436 12.4248 44.5488C12.196 44.454 11.9508 44.4055 11.7031 44.4062C11.2668 44.4063 10.8347 44.3204 10.4316 44.1534C10.0285 43.9864 9.66232 43.7415 9.35394 43.4328L6.56708 40.646C6.25757 40.3382 6.01218 39.9721 5.84511 39.5689C5.67803 39.1656 5.5926 38.7333 5.59375 38.2968C5.59386 38.0492 5.54514 37.8041 5.45036 37.5754C5.35559 37.3467 5.21663 37.139 5.04144 36.9641L4.4539 36.3766C3.91556 35.837 3.61323 35.1059 3.61322 34.3437C3.61321 33.5815 3.91553 32.8505 4.45386 32.3109L15.9929 20.7717C15.6812 20.1029 15.5828 19.3544 15.711 18.6277C15.8392 17.901 16.1878 17.2313 16.7096 16.7095C17.2314 16.1877 17.9011 15.8391 18.6278 15.7109C19.3545 15.5827 20.103 15.6811 20.7719 15.9928L32.3109 4.45378C32.8501 3.91474 33.5813 3.61192 34.3438 3.61194C35.1062 3.61196 35.8374 3.9148 36.3766 4.45387L36.9642 5.04137C37.1388 5.21699 37.3464 5.35623 37.5752 5.45103C37.804 5.54584 38.0493 5.59432 38.2969 5.59368C38.7332 5.59356 39.1653 5.67946 39.5684 5.84648C39.9715 6.0135 40.3377 6.25836 40.6461 6.56704L43.4329 9.35387C43.7424 9.66163 43.9878 10.0277 44.1549 10.431C44.322 10.8342 44.4074 11.2666 44.4063 11.7031C44.4061 11.9506 44.4549 12.1958 44.5496 12.4244C44.6444 12.6531 44.7834 12.8609 44.9586 13.0358L45.5461 13.6233C46.0844 14.1629 46.3868 14.8939 46.3868 15.6561C46.3868 16.4183 46.0845 17.1494 45.5462 17.689L45.5461 17.6891L34.0071 29.2281C34.3188 29.897 34.4172 30.6455 34.289 31.3722C34.1608 32.0989 33.8122 32.7686 33.2904 33.2903C32.7686 33.8121 32.0989 34.1608 31.3722 34.289C30.6455 34.4172 29.897 34.3188 29.2281 34.007L17.6891 45.5461C17.4227 45.8138 17.1059 46.0261 16.757 46.1706C16.4081 46.3151 16.0339 46.389 15.6563 46.3879ZM19.25 17.0937C18.8561 17.094 18.4698 17.2021 18.133 17.4063C17.7961 17.6105 17.5216 17.903 17.3392 18.2521C17.1567 18.6012 17.0733 18.9935 17.098 19.3867C17.1227 19.7798 17.2545 20.1587 17.4791 20.4822C17.5753 20.6206 17.6198 20.7884 17.6048 20.9563C17.5898 21.1241 17.5163 21.2814 17.3971 21.4006L5.47035 33.3273C5.20121 33.5971 5.05006 33.9626 5.05006 34.3437C5.05006 34.7248 5.20121 35.0903 5.47035 35.3601L6.05792 35.9476C6.3666 36.256 6.61145 36.6222 6.77846 37.0253C6.94548 37.4284 7.03138 37.8605 7.03125 38.2968C7.03062 38.5444 7.0791 38.7897 7.1739 39.0184C7.26869 39.2472 7.40792 39.4549 7.58352 39.6295L10.3704 42.4164C10.5453 42.5916 10.7531 42.7305 10.9817 42.8253C11.2104 42.9201 11.4556 42.9688 11.7031 42.9687C12.1396 42.9675 12.572 43.053 12.9752 43.22C13.3784 43.3871 13.7445 43.6325 14.0523 43.942L14.6398 44.5295C14.9094 44.799 15.275 44.9504 15.6562 44.9504C16.0374 44.9504 16.403 44.7991 16.6726 44.5296L28.5994 32.6028C28.7186 32.4836 28.8759 32.4101 29.0437 32.3951C29.2116 32.3801 29.3794 32.4246 29.5178 32.5208C29.9333 32.8093 30.4369 32.9427 30.9408 32.8976C31.4446 32.8525 31.9166 32.6318 32.2743 32.2742C32.6319 31.9165 32.8526 31.4445 32.8977 30.9406C32.9427 30.4368 32.8094 29.9331 32.5209 29.5176C32.4247 29.3792 32.3802 29.2114 32.3952 29.0436C32.4102 28.8757 32.4837 28.7185 32.6029 28.5993L44.5297 16.6725C44.7988 16.4027 44.95 16.0372 44.95 15.6561C44.95 15.275 44.7988 14.9095 44.5297 14.6397L43.9421 14.0522C43.6334 13.7439 43.3886 13.3776 43.2215 12.9745C43.0545 12.5714 42.9686 12.1394 42.9688 11.7031C42.9694 11.4554 42.9209 11.2102 42.8261 10.9814C42.7313 10.7527 42.5921 10.545 42.4165 10.3704L39.6296 7.58349C39.4547 7.40829 39.2469 7.26932 39.0183 7.17455C38.7896 7.07977 38.5444 7.03105 38.2969 7.03118C37.8604 7.03232 37.4281 6.94689 37.0248 6.77983C36.6216 6.61276 36.2555 6.36739 35.9477 6.0579L35.3602 5.47032C35.0906 5.20084 34.725 5.04946 34.3438 5.04944C33.9626 5.04942 33.597 5.20078 33.3274 5.47023L21.4006 17.3971C21.2814 17.5163 21.1242 17.5898 20.9563 17.6047C20.7884 17.6197 20.6206 17.5752 20.4822 17.479C20.1207 17.2273 19.6905 17.0928 19.25 17.0937Z" fill="#F93F20"/>
<path d="M35.7813 18.5313C34.9283 18.5313 34.0945 18.2783 33.3854 17.8045C32.6762 17.3306 32.1234 16.6571 31.797 15.8691C31.4706 15.0811 31.3852 14.214 31.5516 13.3774C31.718 12.5409 32.1287 11.7725 32.7319 11.1694C33.335 10.5662 34.1034 10.1555 34.9399 9.98912C35.7765 9.82272 36.6436 9.90812 37.4316 10.2345C38.2196 10.5609 38.8931 11.1137 39.367 11.8229C39.8408 12.532 40.0938 13.3658 40.0938 14.2188C40.0925 15.3621 39.6377 16.4583 38.8292 17.2667C38.0208 18.0752 36.9246 18.53 35.7813 18.5313ZM35.7813 11.3438C35.2126 11.3438 34.6568 11.5124 34.184 11.8283C33.7112 12.1442 33.3427 12.5932 33.1251 13.1185C32.9075 13.6439 32.8506 14.2219 32.9615 14.7796C33.0724 15.3373 33.3462 15.8496 33.7483 16.2517C34.1504 16.6538 34.6627 16.9276 35.2204 17.0385C35.7781 17.1494 36.3561 17.0925 36.8815 16.8749C37.4068 16.6573 37.8558 16.2888 38.1717 15.816C38.4876 15.3432 38.6563 14.7874 38.6563 14.2188C38.6554 13.4565 38.3522 12.7258 37.8132 12.1868C37.2742 11.6478 36.5435 11.3446 35.7813 11.3438Z" fill="#F93F20"/>
<path d="M28.5938 25.7187C27.7408 25.7187 26.907 25.4658 26.1979 24.992C25.4887 24.5181 24.9359 23.8446 24.6095 23.0566C24.2831 22.2686 24.1977 21.4015 24.3641 20.5649C24.5305 19.7284 24.9412 18.96 25.5444 18.3569C26.1475 17.7537 26.9159 17.343 27.7524 17.1766C28.589 17.0102 29.4561 17.0956 30.2441 17.422C31.0321 17.7484 31.7056 18.3012 32.1795 19.0104C32.6533 19.7195 32.9062 20.5533 32.9062 21.4062C32.905 22.5496 32.4502 23.6458 31.6417 24.4542C30.8333 25.2627 29.7371 25.7175 28.5938 25.7187ZM28.5938 18.5313C28.0251 18.5313 27.4693 18.6999 26.9965 19.0158C26.5237 19.3317 26.1552 19.7807 25.9376 20.306C25.72 20.8314 25.6631 21.4094 25.774 21.9671C25.8849 22.5248 26.1587 23.0371 26.5608 23.4392C26.9629 23.8413 27.4752 24.1151 28.0329 24.226C28.5906 24.3369 29.1686 24.28 29.694 24.0624C30.2193 23.8448 30.6683 23.4763 30.9842 23.0035C31.3001 22.5307 31.4688 21.9749 31.4688 21.4062C31.4679 20.644 31.1647 19.9133 30.6257 19.3743C30.0867 18.8353 29.356 18.5321 28.5938 18.5313Z" fill="#F93F20"/>
<path d="M21.4063 32.9062C20.5533 32.9062 19.7195 32.6533 19.0104 32.1795C18.3012 31.7056 17.7484 31.0321 17.422 30.2441C17.0956 29.4561 17.0102 28.589 17.1766 27.7524C17.343 26.9159 17.7537 26.1475 18.3569 25.5444C18.96 24.9412 19.7284 24.5305 20.5649 24.3641C21.4015 24.1977 22.2686 24.2831 23.0566 24.6095C23.8446 24.9359 24.5181 25.4887 24.992 26.1979C25.4658 26.907 25.7188 27.7408 25.7188 28.5937C25.7175 29.7371 25.2627 30.8333 24.4542 31.6417C23.6458 32.4502 22.5496 32.905 21.4063 32.9062ZM21.4063 25.7188C20.8376 25.7188 20.2818 25.8874 19.809 26.2033C19.3362 26.5192 18.9677 26.9682 18.7501 27.4935C18.5325 28.0189 18.4756 28.5969 18.5865 29.1546C18.6974 29.7123 18.9712 30.2246 19.3733 30.6267C19.7754 31.0288 20.2877 31.3026 20.8454 31.4135C21.4031 31.5244 21.9811 31.4675 22.5065 31.2499C23.0318 31.0323 23.4808 30.6638 23.7967 30.191C24.1126 29.7182 24.2813 29.1624 24.2813 28.5937C24.2804 27.8315 23.9772 27.1008 23.4382 26.5618C22.8992 26.0228 22.1685 25.7196 21.4063 25.7188Z" fill="#F93F20"/>
<path d="M14.2188 40.0938C13.3658 40.0938 12.532 39.8408 11.8229 39.367C11.1137 38.8931 10.5609 38.2196 10.2345 37.4316C9.90812 36.6436 9.82272 35.7765 9.98912 34.9399C10.1555 34.1034 10.5662 33.335 11.1694 32.7319C11.7725 32.1287 12.5409 31.718 13.3774 31.5516C14.214 31.3852 15.0811 31.4706 15.8691 31.797C16.6571 32.1234 17.3306 32.6762 17.8045 33.3854C18.2783 34.0945 18.5312 34.9283 18.5312 35.7813C18.53 36.9246 18.0752 38.0208 17.2667 38.8292C16.4583 39.6377 15.3621 40.0925 14.2188 40.0938ZM14.2188 32.9063C13.6501 32.9063 13.0943 33.0749 12.6215 33.3908C12.1487 33.7067 11.7802 34.1557 11.5626 34.681C11.345 35.2064 11.2881 35.7844 11.399 36.3421C11.5099 36.8998 11.7837 37.4121 12.1858 37.8142C12.5879 38.2163 13.1002 38.4901 13.6579 38.601C14.2156 38.7119 14.7936 38.655 15.319 38.4374C15.8443 38.2198 16.2933 37.8513 16.6092 37.3785C16.9251 36.9057 17.0938 36.3499 17.0938 35.7813C17.0929 35.019 16.7897 34.2883 16.2507 33.7493C15.7117 33.2103 14.981 32.9071 14.2188 32.9063Z" fill="#F93F20"/>
</svg>
