<svg width="50" height="50" viewBox="0 0 50 50" fill="none" xmlns="http://www.w3.org/2000/svg">
<g clip-path="url(#clip0)">
<rect width="50" height="50" fill="white"/>
<path d="M25.7566 14.2972C26.2828 13.6846 26.9046 13.1228 27.6024 12.6206L29.2387 14.0871C28.7249 14.4676 28.2694 14.8896 27.8774 15.3521L25.7566 14.2972Z" fill="#F93F20" stroke="white" stroke-width="0.5"/>
<path d="M43.6169 12.5271C44.3224 13.019 44.9512 13.5739 45.4926 14.1815L43.3995 15.2635C42.9968 14.8021 42.5291 14.3834 42.0113 14.0091L43.6169 12.5271Z" fill="#F93F20" stroke="white" stroke-width="0.5"/>
<path d="M30.8955 10.9369C31.7788 10.6353 32.705 10.4186 33.654 10.2923L34.0086 12.1789C33.2907 12.2801 32.5931 12.4475 31.9275 12.6761L30.8955 10.9369Z" fill="#F93F20" stroke="white" stroke-width="0.5"/>
<path d="M37.5235 10.275C38.4776 10.3907 39.4055 10.5979 40.2904 10.8901L39.2911 12.6384C38.6243 12.4163 37.9233 12.2574 37.2048 12.1657L37.5235 10.275Z" fill="#F93F20" stroke="white" stroke-width="0.5"/>
<path d="M23.7209 29.2093V27.3098H26.2726V29.2093H23.7209Z" fill="#F93F20" stroke="white" stroke-width="0.5"/>
<path d="M23.7209 33.2449V31.3483H26.2726V33.2449H23.7209Z" fill="#F93F20" stroke="white" stroke-width="0.5"/>
<path d="M23.7209 25.1726V23.2745H26.2726V25.1726H23.7209Z" fill="#F93F20" stroke="white" stroke-width="0.5"/>
<path d="M23.7209 18.7925V16.8929H26.2726V18.7925H23.7209Z" fill="#F93F20" stroke="white" stroke-width="0.5"/>
<path d="M4.39685 14.2972C4.92304 13.6846 5.54485 13.1228 6.24263 12.6206L7.8791 14.0872C7.3663 14.4674 6.90894 14.8892 6.51743 15.352L4.39685 14.2972Z" fill="#F93F20" stroke="white" stroke-width="0.5"/>
<path d="M22.257 12.5272C22.961 13.019 23.5885 13.5739 24.1296 14.1816L22.0382 15.2634C21.636 14.8022 21.1702 14.3834 20.6505 14.0088L22.257 12.5272Z" fill="#F93F20" stroke="white" stroke-width="0.5"/>
<path d="M9.53372 10.9371C10.4182 10.6353 11.3423 10.4186 12.2924 10.2922L12.647 12.179C11.9321 12.2802 11.2317 12.4476 10.5644 12.6762L9.53372 10.9371Z" fill="#F93F20" stroke="white" stroke-width="0.5"/>
<path d="M16.1654 10.275C17.1202 10.3908 18.0507 10.598 18.9361 10.8902L17.9394 12.6387C17.2688 12.4165 16.566 12.2575 15.8468 12.1657L16.1654 10.275Z" fill="#F93F20" stroke="white" stroke-width="0.5"/>
<path d="M49.4808 25.2678C41.9665 21.8194 33.4994 19.9971 24.9976 19.9971C16.4957 19.9971 8.02869 21.8194 0.514073 25.2678L-0.222351 25.6072L8.30811 39.5708L9.04958 39.2314C18.8388 34.7399 31.1608 34.7399 40.9504 39.2314L41.6885 39.5708L50.2223 25.6072L49.4808 25.2678ZM40.9871 37.6196C36.0423 35.4754 30.5299 34.3497 24.9973 34.3497C19.4647 34.3497 13.9526 35.4783 9.0075 37.6196L2.04051 26.2165C9.12645 23.0959 17.0459 21.4479 24.9973 21.4479C32.9487 21.4479 40.8665 23.0944 47.9541 26.2165L40.9871 37.6196Z" fill="#F93F20"/>
</g>
<defs>
<clipPath id="clip0">
<rect width="50" height="50" fill="white"/>
</clipPath>
</defs>
</svg>
