<svg width="50" height="50" viewBox="0 0 50 50" fill="none" xmlns="http://www.w3.org/2000/svg">
<rect width="50" height="50" fill="white"/>
<path d="M32.2271 24.2335H29.1363V8.90007C29.1363 7.62962 28.0984 6.59993 26.8183 6.59993V3.53331C26.8183 2.68646 26.1261 2 25.2725 2H23.7271C22.8736 2 22.1817 2.68646 22.1817 3.53331V6.59993C20.9016 6.59993 19.8637 7.62962 19.8637 8.90007V24.2332H16.7725C16.3459 24.2332 16 24.5764 16 25V29.5999C16 30.0235 16.3459 30.3668 16.7725 30.3668H18.3183V34.1999C18.3183 34.6235 18.6643 34.9667 19.0908 34.9667H19.8637V41.8668C19.8637 43.1369 20.9016 44.1665 22.1817 44.1665H23.7271V44.9334C23.7271 45.3566 24.0731 45.6999 24.5 45.6999C24.9266 45.6999 25.2725 45.3566 25.2725 44.9334V44.1665H26.0454V45.6999C26.0454 46.1235 25.6995 46.4667 25.2725 46.4667H24.5C24.0731 46.4667 23.7271 46.8099 23.7271 47.2332C23.7271 47.6568 24.0731 48 24.5 48H25.2725C26.553 48 27.5908 46.9703 27.5908 45.6999V44.0255C28.5137 43.7019 29.132 42.8378 29.1363 41.8668V34.9667H29.9088C30.3357 34.9667 30.6817 34.6235 30.6817 34.1999V30.3668H32.2271C32.6537 30.3668 33 30.0235 33 29.5999V25C33 24.5764 32.6541 24.2335 32.2271 24.2335ZM23.7271 3.53331H25.2725V6.59993H23.7271V3.53331ZM21.4092 8.90007C21.4092 8.47647 21.7551 8.13324 22.1817 8.13324H26.8183C27.2449 8.13324 27.5908 8.47647 27.5908 8.90007V24.2332H21.4092V8.90007ZM27.5908 39.5666H21.4092V38.0333H27.5908V39.5666ZM26.8183 42.6332H22.1817C21.7551 42.6332 21.4092 42.29 21.4092 41.8668V41.0999H27.5908V41.8668C27.5908 42.29 27.2449 42.6332 26.8183 42.6332ZM27.5908 36.5H21.4092V34.9667H27.5908V36.5ZM29.1363 33.4334H19.8637V30.3668H29.1363V33.4334ZM31.4546 28.8335H17.5454V25.7668H31.4546V28.8335Z" fill="#F93F20"/>
</svg>
