<svg width="50" height="50" viewBox="0 0 50 50" fill="none" xmlns="http://www.w3.org/2000/svg">
<rect width="50" height="50" fill="white"/>
<path d="M38.2031 38.3509C38.2031 38.3509 38.2031 38.3509 38.2031 38.3509C37.6018 38.1504 37.2768 37.5005 37.4773 36.8992C37.6781 36.2968 38.3287 35.9732 38.929 36.1733L47.0149 38.8686C47.6162 39.0691 47.9412 39.7191 47.7407 40.3203C47.5402 40.9216 46.8905 41.2466 46.289 41.0462L38.2031 38.3509ZM38.2031 38.3509L46.289 41.0462L38.2031 38.3509Z" fill="#F93F20" stroke="white" stroke-width="0.4"/>
<path d="M38.2031 30.2651C38.2031 30.2651 38.2031 30.2651 38.2031 30.2651C37.6018 30.0646 37.2768 29.4146 37.4773 28.8134C37.6781 28.211 38.3287 27.8874 38.929 28.0875L47.0149 30.7828C47.6162 30.9833 47.9412 31.6332 47.7407 32.2345C47.5402 32.8358 46.8905 33.1607 46.289 32.9604L38.2031 30.2651ZM38.2031 30.2651L46.289 32.9604L38.2031 30.2651Z" fill="#F93F20" stroke="white" stroke-width="0.4"/>
<path d="M38.2031 22.1794C38.2031 22.1794 38.2031 22.1794 38.2031 22.1794C37.6018 21.9789 37.2768 21.329 37.4773 20.7277C37.6781 20.1253 38.3287 19.8017 38.929 20.0018L47.0149 22.6971C47.6162 22.8976 47.9412 23.5475 47.7407 24.1488C47.5402 24.7501 46.8905 25.075 46.289 24.8747L38.2031 22.1794ZM38.2031 22.1794L46.289 24.8747L38.2031 22.1794Z" fill="#F93F20" stroke="white" stroke-width="0.4"/>
<path d="M46.289 16.7888L46.289 16.7888C46.8904 16.9893 47.5402 16.6643 47.7407 16.0629C47.9412 15.4617 47.6162 14.8117 47.0149 14.6112L38.929 11.9159C38.3287 11.7158 37.6781 12.0394 37.4773 12.6418C37.2768 13.2431 37.6018 13.893 38.2031 14.0935C38.2031 14.0935 38.2031 14.0935 38.2031 14.0935L46.289 16.7888Z" fill="#F93F20" stroke="white" stroke-width="0.4"/>
<path d="M29.4879 8.76143H29.6376L29.6798 8.90499C30.3601 11.2178 32.0278 17.6501 32.0278 25.1331C32.0278 32.6332 30.3613 39.052 29.6806 41.3614L29.6383 41.5048H29.4887H26.9054H26.6421L26.7127 41.2512C27.5173 38.3621 28.9325 32.2661 28.9325 25.1331C28.9325 18.0002 27.5174 11.9042 26.7127 9.01509L26.6421 8.76143H26.9054H29.4879ZM24.2899 41.3614L24.2476 41.5048H24.0981H20.867C11.8394 41.5048 4.49528 34.1606 4.49528 25.1331C4.49528 16.1056 11.8394 8.76143 20.867 8.76143H24.0973H24.2469L24.2891 8.90499C24.9695 11.2178 26.6372 17.6497 26.6372 25.1331C26.6372 32.6339 24.9706 39.0525 24.2899 41.3614ZM30.4801 6.46615H20.867C10.5742 6.46615 2.2 14.8402 2.2 25.133C2.2 35.4258 10.5742 43.8 20.867 43.8H30.4801C30.9702 43.8 31.4062 43.4888 31.5655 43.0253C31.6755 42.7053 34.3231 34.8893 34.3231 25.1331C34.3231 15.3769 31.6755 7.56089 31.5655 7.24081C31.4062 6.77732 30.9702 6.46615 30.4801 6.46615Z" fill="#F93F20" stroke="white" stroke-width="0.4"/>
</svg>
