<svg width="50" height="50" viewBox="0 0 50 50" fill="none" xmlns="http://www.w3.org/2000/svg">
<rect width="50" height="50" fill="white"/>
<path d="M47.3499 21.6939L44.8996 20.1146L44.7784 20.0365L44.666 20.1268L26.9677 34.3526H8.80318V33.1365V32.7247L8.55897 32.9168L0.26355 22.1759L4.04533 18.2296L9.17016 21.1819L9.21651 21.2086H9.27H17.2518H17.4518V21.0086V20.0764V19.8764H17.2518H14.3829V17.7369H22.6594V19.8764H19.7926H19.5926V20.0764V21.0086V21.2086H19.7926H26.8834L29.6625 22.8536L29.7431 22.9013L29.8314 22.8699L44.846 17.5319L48.5075 19.893L47.3499 21.6939ZM3.20151 22.1998L3.08215 22.3241L3.18749 22.4605L8.44293 29.2663L8.80123 29.7303V29.144V23.5539V23.4384L8.70114 23.3806L4.56723 20.9968L4.43153 20.9186L4.32305 21.0316L3.20151 22.1998ZM26.1423 32.2131H26.2127L26.2676 32.169L38.1932 22.5824L38.0009 22.2381L29.5159 25.2541L26.3454 23.3754L26.2983 23.3474H26.2435H11.144H10.944V23.5474V32.0131V32.2131H11.144H26.1423ZM49.8 27.2415C49.8 28.1813 49.0378 28.9447 48.0968 28.9447C47.1536 28.9447 46.3911 28.1829 46.3911 27.2415C46.3911 27.0198 46.4961 26.6456 46.6753 26.1831C46.851 25.7298 47.0863 25.2199 47.3233 24.7393C47.5601 24.2594 47.797 23.8118 47.9748 23.484C48.0195 23.4016 48.0605 23.3269 48.0967 23.2611C48.1329 23.3269 48.1737 23.4017 48.2183 23.484C48.396 23.8119 48.6326 24.2597 48.869 24.7397C49.1057 25.2203 49.3407 25.7304 49.5161 26.1835C49.6951 26.646 49.8 27.0201 49.8 27.2415Z" fill="#F93F20" stroke="white" stroke-width="0.4"/>
</svg>
