<svg width="50" height="50" viewBox="0 0 50 50" fill="none" xmlns="http://www.w3.org/2000/svg">
<rect width="50" height="50" fill="white"/>
<path d="M44.5132 5.30874C44.4567 5.20495 44.3803 5.11332 44.2884 5.0391C44.1964 4.96487 44.0908 4.90951 43.9774 4.87619C43.864 4.84287 43.7452 4.83223 43.6277 4.8449C43.5102 4.85756 43.3964 4.89328 43.2928 4.95L37.441 8.15113C37.1128 7.7464 36.653 7.46962 36.1417 7.369C35.6304 7.26838 35.1001 7.3503 34.643 7.60048L32.0477 9.02001C32.02 9.01156 31.9928 9.00204 31.9649 8.99306C31.0158 8.71068 30.0201 8.61965 29.0355 8.72525C28.051 8.83085 27.0972 9.13098 26.2296 9.60822L23.2062 11.2627C22.9522 11.4017 22.7451 11.6129 22.6109 11.8696C22.4768 12.1262 22.4218 12.4169 22.4527 12.7048C22.4836 12.9928 22.5991 13.2651 22.7846 13.4874C22.9702 13.7098 23.2174 13.8722 23.4951 13.9541C23.8527 14.0598 24.2372 14.0237 24.5688 13.8533L25.1583 14.9373L24.3599 15.7379C24.2584 15.8398 24.1378 15.9207 24.005 15.9759C23.8721 16.031 23.7297 16.0595 23.5859 16.0595C23.4421 16.0595 23.2996 16.031 23.1668 15.9759C23.034 15.9207 22.9134 15.8398 22.8119 15.7379L21.6496 14.5724C21.5512 14.4738 21.4344 14.3955 21.3057 14.3421C21.1771 14.2887 21.0392 14.2612 20.8999 14.2612C20.7606 14.2612 20.6227 14.2887 20.494 14.3421C20.3654 14.3955 20.2485 14.4738 20.1502 14.5724L14.7685 19.9678C14.5779 20.1601 14.4679 20.4178 14.4609 20.6885C14.4539 20.9591 14.5505 21.2222 14.7309 21.424C14.4292 21.2535 14.0766 21.196 13.7363 21.2618C13.3961 21.3277 13.0904 21.5126 12.8741 21.7834L10.7169 24.4755C10.0875 25.2607 9.62132 26.1638 9.34586 27.1317C9.07039 28.0997 8.99118 29.1129 9.11287 30.1119L7.2602 32.4241C6.93485 32.8316 6.76169 33.3397 6.77052 33.8611C6.77934 34.3824 6.96959 34.8844 7.30854 35.2806L3.1308 40.4944C2.98235 40.6802 2.91347 40.9172 2.93919 41.1536C2.96491 41.39 3.08316 41.6066 3.26808 41.7561L7.24645 44.9611C7.40542 45.0899 7.60383 45.1601 7.80843 45.16C7.84144 45.16 7.87443 45.1582 7.90726 45.1546C8.02483 45.1421 8.13876 45.1064 8.24242 45.0495C8.34608 44.9927 8.4374 44.9158 8.5111 44.8233L12.6867 39.6124C13.0091 39.7872 13.3701 39.8787 13.7369 39.8787C13.8189 39.8787 13.9008 39.8743 13.9823 39.8653C14.2741 39.8343 14.5568 39.7456 14.814 39.6044C15.0712 39.4632 15.2978 39.2723 15.4806 39.0427L17.3314 36.7327C17.3584 36.7301 17.3849 36.7279 17.4116 36.725C18.3982 36.6205 19.3543 36.3209 20.2242 35.8436C21.094 35.3664 21.8604 34.7211 22.4787 33.9451L24.6301 31.2421C24.8242 31.3231 25.038 31.3444 25.2443 31.3035C25.4505 31.2626 25.64 31.1613 25.7885 31.0125L31.1697 25.6171C31.3658 25.4198 31.4767 25.1534 31.4787 24.8752C31.4806 24.5969 31.3733 24.3291 31.1799 24.129L33.4559 22.8841C34.3383 22.4014 35.1151 21.7469 35.7405 20.9593C36.366 20.1716 36.8274 19.2667 37.0976 18.2979L39.6941 16.8777C40.1509 16.6265 40.5059 16.2237 40.6978 15.7389C40.8896 15.2541 40.9064 14.7175 40.7452 14.2216L46.5999 11.0189C46.8083 10.9044 46.963 10.7121 47.03 10.484C47.0971 10.2558 47.0712 10.0104 46.9578 9.80138L44.5132 5.30874ZM15.2969 21.9961L15.9315 22.6325C16.137 22.8393 16.2524 23.119 16.2524 23.4106C16.2524 23.7022 16.137 23.9819 15.9315 24.1887L15.9304 24.1898L15.179 23.5843C15.3491 23.3589 15.4507 23.0892 15.4716 22.8076C15.4925 22.5259 15.4318 22.2442 15.2969 21.9961ZM15.1648 24.9574L13.376 26.7509C12.6286 27.5028 12.2091 28.52 12.2091 29.5802C12.2091 30.6404 12.6286 31.6576 13.376 32.4096C14.1254 33.1578 15.141 33.5781 16.1999 33.5781C17.2589 33.5781 18.2745 33.1578 19.0238 32.4096L21.5792 29.8473C21.7637 29.6616 22.009 29.5489 22.27 29.5298L20.197 32.1126C19.8176 32.5857 19.3486 32.9795 18.8169 33.2713C18.2852 33.5631 17.7012 33.7472 17.0983 33.8131C16.4954 33.8791 15.8854 33.8255 15.3032 33.6555C14.721 33.4855 14.178 33.2023 13.7053 32.8223C12.751 32.0504 12.141 30.9321 12.0084 29.7119C11.8759 28.4916 12.2316 27.2685 12.9979 26.3096L14.5063 24.427L15.1648 24.9574ZM7.78228 44.0085L4.08377 41.029L6.59042 37.9008L10.289 40.8804L7.78228 44.0085ZM10.9628 40.0391L7.26487 37.0596L8.12468 35.9866L11.8231 38.9661L10.9628 40.0391ZM14.6392 38.3685C14.5447 38.4867 14.4278 38.5851 14.2951 38.658C14.1625 38.7309 14.0168 38.7769 13.8663 38.7933C13.7159 38.8098 13.5636 38.7964 13.4184 38.7539C13.2731 38.7114 13.1377 38.6407 13.0198 38.5457L8.27804 34.7259C8.03959 34.533 7.88719 34.2535 7.85411 33.9485C7.82103 33.6436 7.90997 33.3379 8.1015 33.0983L9.40315 31.4744C9.84736 32.9022 10.7063 34.1657 11.8706 35.104C13.0349 36.0423 14.4521 36.6131 15.9417 36.7436L14.6392 38.3685ZM21.6364 33.2723C21.1052 33.9348 20.4486 34.486 19.7043 34.8945C18.9599 35.303 18.1423 35.5607 17.2982 35.653C16.4541 35.7452 15.6001 35.6702 14.7851 35.4321C13.9701 35.194 13.2099 34.7976 12.5482 34.2656C11.2124 33.185 10.3585 31.6198 10.1729 29.9117C9.98737 28.2036 10.4853 26.4915 11.5579 25.1493L13.715 22.4573C13.7465 22.4179 13.7854 22.3852 13.8295 22.3609C13.8737 22.3366 13.9222 22.3212 13.9722 22.3157C14.0223 22.3102 14.073 22.3146 14.1214 22.3288C14.1697 22.3429 14.2148 22.3664 14.2541 22.398C14.3339 22.4626 14.3849 22.5562 14.396 22.6583C14.407 22.7604 14.3772 22.8627 14.3131 22.9429L12.1558 25.6351C11.2115 26.8169 10.7732 28.3244 10.9367 29.8283C11.1002 31.3322 11.8521 32.7103 13.0283 33.6615C13.6114 34.1305 14.2812 34.4799 14.9995 34.6898C15.7177 34.8996 16.4703 34.9658 17.2141 34.8846C17.9579 34.8034 18.6785 34.5763 19.3345 34.2164C19.9905 33.8564 20.5691 33.3707 21.0372 32.7869L23.2764 29.9974L23.8138 30.5364L21.6364 33.2723ZM25.039 30.2377L23.8903 29.0859C23.6886 28.8836 23.449 28.723 23.1852 28.6135C22.9214 28.504 22.6386 28.4476 22.353 28.4476C22.0673 28.4476 21.7845 28.504 21.5207 28.6135C21.2569 28.723 21.0173 28.8836 20.8156 29.0859L18.2601 31.6482C17.7131 32.1937 16.9721 32.5 16.1996 32.5C15.4271 32.5 14.6861 32.1937 14.1391 31.6482C13.5928 31.0986 13.2862 30.3552 13.2862 29.5802C13.2862 28.8053 13.5928 28.0618 14.1391 27.5122L16.6946 24.95C17.1014 24.541 17.3297 23.9875 17.3297 23.4106C17.3297 22.8337 17.1014 22.2802 16.6946 21.8712L15.544 20.7174L17.0184 19.239L26.5135 28.7592L25.039 30.2377ZM27.2748 27.9959L17.7797 18.4757L18.6641 17.589L28.1591 27.1093L27.2748 27.9959ZM28.9204 26.3459L19.4253 16.8257L20.8998 15.3473L22.0485 16.499C22.2501 16.7013 22.4897 16.8618 22.7535 16.9714C23.0173 17.0809 23.3002 17.1373 23.5858 17.1373C23.8715 17.1373 24.1543 17.0809 24.4182 16.9714C24.682 16.8618 24.9216 16.7013 25.1232 16.499L27.6787 13.9367C28.2258 13.3913 28.9668 13.0851 29.7392 13.0851C30.5117 13.0851 31.2527 13.3913 31.7998 13.9367C32.3461 14.4863 32.6527 15.2298 32.6527 16.0047C32.6527 16.7797 32.3461 17.5231 31.7998 18.0728L29.2442 20.6349C28.8367 21.0436 28.6079 21.5972 28.6079 22.1743C28.6079 22.7515 28.8367 23.3051 29.2442 23.7138L30.3949 24.8675L28.9204 26.3459ZM25.5156 13.3381L27.6317 12.1805C28.1643 11.8903 28.7489 11.7078 29.3521 11.6435C29.9552 11.5793 30.5651 11.6345 31.1469 11.8061C31.7287 11.9776 32.271 12.2622 32.7428 12.6434C33.2146 13.0246 33.6066 13.4951 33.8965 14.0279C34.4823 15.1064 34.6173 16.3729 34.2721 17.5506C33.9268 18.7283 33.1294 19.7215 32.0541 20.313L29.9466 21.4659C29.9664 21.4424 29.9856 21.4185 30.0076 21.3966L32.5631 18.8344C33.3105 18.0824 33.73 17.0653 33.73 16.005C33.73 14.9448 33.3105 13.9277 32.5631 13.1757C31.8138 12.4275 30.7981 12.0072 29.7392 12.0072C28.6803 12.0072 27.6646 12.4275 26.9153 13.1757L25.9524 14.1408L25.5156 13.3381ZM32.9386 21.9386L30.3879 23.334L30.0076 22.9527C29.9465 22.8913 29.8929 22.8229 29.8478 22.7489L32.5715 21.2588C33.897 20.5299 34.88 19.306 35.3058 17.8545C35.7315 16.403 35.5654 14.842 34.8437 13.5126C34.486 12.8553 34.0023 12.2748 33.4202 11.8045C32.838 11.3342 32.1689 10.9833 31.4511 10.7717C30.7332 10.5602 29.9807 10.4922 29.2366 10.5716C28.4924 10.6511 27.7712 10.8764 27.1142 11.2347L24.0908 12.8889C24.0465 12.9131 23.9979 12.9283 23.9476 12.9337C23.8974 12.9391 23.8467 12.9345 23.7982 12.9202C23.7498 12.9058 23.7047 12.8821 23.6655 12.8503C23.6263 12.8185 23.5937 12.7792 23.5697 12.7348C23.5206 12.6446 23.5092 12.5387 23.538 12.4402C23.5668 12.3417 23.6334 12.2586 23.7233 12.209L26.7469 10.5551C27.4925 10.1486 28.3108 9.89295 29.1553 9.80287C29.9997 9.7128 30.8536 9.79001 31.6682 10.0301C32.4827 10.2702 33.242 10.6685 33.9026 11.2022C34.5631 11.7359 35.1121 12.3945 35.5179 13.1404C36.3379 14.6501 36.5269 16.423 36.0435 18.0716C35.5602 19.7202 34.4439 21.1104 32.9386 21.9384V21.9386ZM39.1766 15.9323L37.3523 16.93C37.4896 15.4396 37.1811 13.9419 36.4658 12.627C35.7506 11.3122 34.6609 10.2394 33.335 9.54488L35.1605 8.54635C35.2933 8.47373 35.4392 8.42804 35.5897 8.41193C35.7402 8.39581 35.8925 8.40957 36.0377 8.45243C36.1829 8.49528 36.3182 8.56638 36.4358 8.66166C36.5535 8.75693 36.6512 8.8745 36.7233 9.00761L39.6366 14.3615C39.783 14.6309 39.8168 14.9474 39.7306 15.2417C39.6444 15.536 39.4452 15.7842 39.1766 15.932V15.9323ZM40.2628 13.2569L37.99 9.07949L39.1939 8.42084L41.4669 12.5978L40.2628 13.2569ZM42.4127 12.0808L40.1397 7.90388L43.6519 5.98248L45.9249 10.1594L42.4127 12.0808Z" fill="#F93F20"/>
<path d="M31.1559 17.4471C31.3436 17.2594 31.4925 17.0365 31.5941 16.7913C31.6957 16.546 31.748 16.2831 31.748 16.0177C31.748 15.7522 31.6957 15.4893 31.5941 15.2441C31.4925 14.9988 31.3436 14.776 31.1559 14.5882C30.8733 14.3058 30.5132 14.1136 30.1213 14.0358C29.7294 13.9579 29.3232 13.9981 28.9541 14.1511C28.585 14.304 28.2696 14.563 28.0476 14.8953C27.8257 15.2275 27.7072 15.6181 27.7072 16.0177C27.7072 16.4172 27.8257 16.8078 28.0476 17.14C28.2696 17.4723 28.585 17.7313 28.9541 17.8843C29.3232 18.0373 29.7294 18.0774 30.1213 17.9996C30.5132 17.9217 30.8733 17.7295 31.1559 17.4471ZM28.7832 16.0177C28.7832 15.8311 28.8385 15.6487 28.9422 15.4936C29.0458 15.3385 29.1932 15.2176 29.3655 15.1462C29.5379 15.0748 29.7275 15.0561 29.9105 15.0925C30.0935 15.1289 30.2616 15.2187 30.3935 15.3507C30.5032 15.4604 30.5841 15.5954 30.6292 15.7439C30.6742 15.8923 30.6819 16.0496 30.6516 16.2018C30.6214 16.3539 30.554 16.4963 30.4556 16.6162C30.3572 16.7361 30.2307 16.8299 30.0874 16.8892C29.9441 16.9486 29.7883 16.9717 29.6339 16.9565C29.4795 16.9413 29.3313 16.8882 29.2023 16.802C29.0733 16.7158 28.9676 16.5992 28.8944 16.4624C28.8213 16.3255 28.7831 16.1728 28.7831 16.0177H28.7832Z" fill="#F93F20"/>
<path d="M14.7829 28.138C14.5952 28.3257 14.4462 28.5486 14.3447 28.7938C14.2431 29.0391 14.1908 29.302 14.1908 29.5674C14.1908 29.8329 14.2431 30.0958 14.3447 30.341C14.4462 30.5863 14.5952 30.8091 14.7829 30.9968C15.0656 31.2795 15.4258 31.472 15.8179 31.55C16.21 31.628 16.6165 31.588 16.9858 31.435C17.3552 31.282 17.6709 31.0229 17.893 30.6904C18.1151 30.358 18.2337 29.9672 18.2337 29.5674C18.2337 29.1676 18.1151 28.7767 17.893 28.4443C17.6709 28.1119 17.3552 27.8528 16.9858 27.6998C16.6165 27.5468 16.21 27.5067 15.8179 27.5847C15.4258 27.6627 15.0656 27.8552 14.7829 28.1379V28.138ZM17.1556 29.5674C17.1556 29.754 17.1003 29.9364 16.9967 30.0915C16.893 30.2466 16.7457 30.3675 16.5733 30.4389C16.401 30.5103 16.2113 30.529 16.0283 30.4926C15.8453 30.4563 15.6772 30.3664 15.5453 30.2345C15.4356 30.1248 15.3546 29.9897 15.3096 29.8413C15.2646 29.6928 15.2569 29.5356 15.2871 29.3834C15.3174 29.2313 15.3847 29.0889 15.4832 28.969C15.5816 28.8491 15.7081 28.7553 15.8514 28.6959C15.9947 28.6366 16.1505 28.6135 16.3049 28.6287C16.4593 28.6439 16.6075 28.6969 16.7365 28.7831C16.8655 28.8693 16.9712 28.986 17.0444 29.1228C17.1175 29.2596 17.1557 29.4124 17.1557 29.5675L17.1556 29.5674Z" fill="#F93F20"/>
</svg>
