<svg width="50" height="50" viewBox="0 0 50 50" fill="none" xmlns="http://www.w3.org/2000/svg">
<path d="M39.3442 27.6465C39.3327 27.5903 39.316 27.5349 39.2941 27.4822C39.2721 27.4294 39.2449 27.3776 39.2132 27.3301C39.1807 27.2827 39.1447 27.237 39.1034 27.1965C39.0629 27.1561 39.0181 27.1192 38.9698 27.0875C38.9223 27.0559 38.8713 27.0287 38.8186 27.0067C38.7659 26.9847 38.7105 26.968 38.6542 26.9566C38.5409 26.9337 38.424 26.9337 38.3106 26.9566C38.2542 26.968 38.199 26.9847 38.1462 27.0067C38.0936 27.0287 38.0416 27.0559 37.9942 27.0875C37.9466 27.1192 37.901 27.1561 37.8606 27.1965C37.8202 27.237 37.7832 27.2827 37.7516 27.3301C37.72 27.3776 37.6927 27.4294 37.6707 27.4822C37.6488 27.5349 37.6322 27.5903 37.6206 27.6465C37.6092 27.7028 37.6031 27.7608 37.6031 27.8179C37.6031 27.875 37.6092 27.9331 37.6206 27.9902C37.6322 28.0456 37.6488 28.1009 37.6707 28.1545C37.6927 28.2073 37.72 28.2582 37.7516 28.3057C37.7832 28.354 37.8202 28.3989 37.8606 28.4393C37.901 28.4797 37.9467 28.5166 37.9942 28.5492C38.0416 28.5808 38.0935 28.608 38.1462 28.63C38.1989 28.652 38.2542 28.6687 38.3106 28.6801C38.3676 28.6915 38.4248 28.6968 38.482 28.6968C38.5399 28.6968 38.5971 28.6915 38.6542 28.6801C38.7105 28.6687 38.7658 28.652 38.8186 28.63C38.8713 28.608 38.9223 28.5808 38.9698 28.5492C39.0181 28.5166 39.0629 28.4797 39.1034 28.4393C39.1447 28.3989 39.1807 28.354 39.2132 28.3057C39.2449 28.2582 39.2721 28.2073 39.2941 28.1545C39.316 28.1009 39.3327 28.0456 39.3442 27.9902C39.3555 27.9331 39.3609 27.875 39.3609 27.8179C39.3609 27.7608 39.3556 27.7028 39.3442 27.6465Z" fill="#F93F20"/>
<path d="M39.3442 27.6465C39.3327 27.5903 39.316 27.5349 39.2941 27.4822C39.2721 27.4294 39.2449 27.3776 39.2132 27.3301C39.1807 27.2827 39.1447 27.237 39.1034 27.1965C39.0629 27.1561 39.0181 27.1192 38.9698 27.0875C38.9223 27.0559 38.8713 27.0287 38.8186 27.0067C38.7659 26.9847 38.7105 26.968 38.6542 26.9566C38.5409 26.9337 38.424 26.9337 38.3106 26.9566C38.2542 26.968 38.199 26.9847 38.1462 27.0067C38.0936 27.0287 38.0416 27.0559 37.9942 27.0875C37.9466 27.1192 37.901 27.1561 37.8606 27.1965C37.8202 27.237 37.7832 27.2827 37.7516 27.3301C37.72 27.3776 37.6927 27.4294 37.6707 27.4822C37.6488 27.5349 37.6322 27.5903 37.6206 27.6465C37.6092 27.7028 37.6031 27.7608 37.6031 27.8179C37.6031 27.875 37.6092 27.9331 37.6206 27.9902C37.6322 28.0456 37.6488 28.1009 37.6707 28.1545C37.6927 28.2073 37.72 28.2582 37.7516 28.3057C37.7832 28.354 37.8202 28.3989 37.8606 28.4393C37.901 28.4797 37.9467 28.5166 37.9942 28.5492C38.0416 28.5808 38.0935 28.608 38.1462 28.63C38.1989 28.652 38.2542 28.6687 38.3106 28.6801C38.3676 28.6915 38.4248 28.6968 38.482 28.6968C38.5399 28.6968 38.5971 28.6915 38.6542 28.6801C38.7105 28.6687 38.7658 28.652 38.8186 28.63C38.8713 28.608 38.9223 28.5808 38.9698 28.5492C39.0181 28.5166 39.0629 28.4797 39.1034 28.4393C39.1447 28.3989 39.1807 28.354 39.2132 28.3057C39.2449 28.2582 39.2721 28.2073 39.2941 28.1545C39.316 28.1009 39.3327 28.0456 39.3442 27.9902C39.3555 27.9331 39.3609 27.875 39.3609 27.8179C39.3609 27.7608 39.3556 27.7028 39.3442 27.6465Z" stroke="#F93F20"/>
<path d="M19.5046 23.7909C19.4931 23.7346 19.4765 23.6793 19.4537 23.6265C19.4317 23.5729 19.4052 23.5218 19.3728 23.4745C19.3412 23.4261 19.3042 23.3813 19.2638 23.3409C19.2235 23.3005 19.1786 23.2635 19.1302 23.2319C19.0828 23.2003 19.0318 23.173 18.9791 23.151C18.9254 23.1291 18.8701 23.1124 18.8138 23.1009C18.7013 23.0781 18.5844 23.0781 18.471 23.1009C18.4148 23.1124 18.3595 23.1291 18.3067 23.151C18.2532 23.173 18.2022 23.2003 18.1547 23.2319C18.1064 23.2635 18.0615 23.3005 18.021 23.3409C17.9806 23.3813 17.9437 23.4261 17.9121 23.4745C17.8805 23.5218 17.8533 23.5729 17.8313 23.6265C17.8093 23.6793 17.7917 23.7346 17.7812 23.7909C17.7698 23.8471 17.7636 23.9051 17.7636 23.9623C17.7636 24.0194 17.7698 24.0774 17.7812 24.1345C17.7917 24.1899 17.8093 24.2453 17.8313 24.2989C17.8533 24.3516 17.8805 24.4026 17.9121 24.4501C17.9437 24.4984 17.9806 24.5432 18.021 24.5837C18.0615 24.6241 18.1064 24.661 18.1547 24.6935C18.2022 24.7252 18.2532 24.7524 18.3067 24.7744C18.3594 24.7964 18.4148 24.8131 18.471 24.8245C18.5274 24.8359 18.5853 24.8412 18.6424 24.8412C18.6996 24.8412 18.7576 24.8359 18.8138 24.8245C18.8701 24.8131 18.9254 24.7964 18.9791 24.7744C19.0318 24.7524 19.0828 24.7252 19.1302 24.6935C19.1785 24.661 19.2234 24.6241 19.2638 24.5837C19.3042 24.5432 19.3412 24.4984 19.3728 24.4501C19.4052 24.4026 19.4317 24.3516 19.4537 24.2989C19.4765 24.2453 19.4931 24.1899 19.5046 24.1345C19.5161 24.0774 19.5212 24.0194 19.5212 23.9623C19.5212 23.9051 19.5161 23.8471 19.5046 23.7909Z" fill="#F93F20"/>
<path d="M19.5046 23.7909C19.4931 23.7346 19.4765 23.6793 19.4537 23.6265C19.4317 23.5729 19.4052 23.5218 19.3728 23.4745C19.3412 23.4261 19.3042 23.3813 19.2638 23.3409C19.2235 23.3005 19.1786 23.2635 19.1302 23.2319C19.0828 23.2003 19.0318 23.173 18.9791 23.151C18.9254 23.1291 18.8701 23.1124 18.8138 23.1009C18.7013 23.0781 18.5844 23.0781 18.471 23.1009C18.4148 23.1124 18.3595 23.1291 18.3067 23.151C18.2532 23.173 18.2022 23.2003 18.1547 23.2319C18.1064 23.2635 18.0615 23.3005 18.021 23.3409C17.9806 23.3813 17.9437 23.4261 17.9121 23.4745C17.8805 23.5218 17.8533 23.5729 17.8313 23.6265C17.8093 23.6793 17.7917 23.7346 17.7812 23.7909C17.7698 23.8471 17.7636 23.9051 17.7636 23.9623C17.7636 24.0194 17.7698 24.0774 17.7812 24.1345C17.7917 24.1899 17.8093 24.2453 17.8313 24.2989C17.8533 24.3516 17.8805 24.4026 17.9121 24.4501C17.9437 24.4984 17.9806 24.5432 18.021 24.5837C18.0615 24.6241 18.1064 24.661 18.1547 24.6935C18.2022 24.7252 18.2532 24.7524 18.3067 24.7744C18.3594 24.7964 18.4148 24.8131 18.471 24.8245C18.5274 24.8359 18.5853 24.8412 18.6424 24.8412C18.6996 24.8412 18.7576 24.8359 18.8138 24.8245C18.8701 24.8131 18.9254 24.7964 18.9791 24.7744C19.0318 24.7524 19.0828 24.7252 19.1302 24.6935C19.1785 24.661 19.2234 24.6241 19.2638 24.5837C19.3042 24.5432 19.3412 24.4984 19.3728 24.4501C19.4052 24.4026 19.4317 24.3516 19.4537 24.2989C19.4765 24.2453 19.4931 24.1899 19.5046 24.1345C19.5161 24.0774 19.5212 24.0194 19.5212 23.9623C19.5212 23.9051 19.5161 23.8471 19.5046 23.7909Z" stroke="#F93F20"/>
<path d="M35.8101 12.4614C33.852 12.4614 32.259 14.0545 32.259 16.0125V30.4926C31.5018 29.794 30.5467 29.3068 29.4885 29.1257V20.8765H29.9288C30.4142 20.8765 30.8077 20.483 30.8077 19.9976V16.5084C30.8077 16.0229 30.4142 15.6295 29.9288 15.6295H24.6497V8.48615H27.984C28.4694 8.48615 28.8629 8.09267 28.8629 7.60725V6.12198H29.9838V6.72799C29.9838 7.21341 30.3774 7.60689 30.8627 7.60689H35.4785C35.9638 7.60689 36.3574 7.21341 36.3574 6.72799V3.75816C36.3574 3.27274 35.9638 2.87926 35.4785 2.87926H30.8627C30.3774 2.87926 29.9838 3.27274 29.9838 3.75816V4.36426H28.8629V2.87891C28.8629 2.39349 28.4694 2 27.984 2H16.3336C15.8483 2 15.4547 2.39349 15.4547 2.87891V4.36417H14.3338V3.75808C14.3338 3.27266 13.9404 2.87917 13.4549 2.87917H8.83936C8.35402 2.87917 7.96045 3.27266 7.96045 3.75808V6.72799C7.96045 7.21341 8.35402 7.60689 8.83936 7.60689H13.455C13.9404 7.60689 14.3339 7.21341 14.3339 6.72799V6.12198H15.4548V7.60725C15.4548 8.09267 15.8484 8.48615 16.3337 8.48615H19.6679V15.6295H14.3889C13.9036 15.6295 13.51 16.0229 13.51 16.5084V19.9976C13.51 20.483 13.9036 20.8765 14.3889 20.8765H14.8293V41.7529H12.6303C12.145 41.7529 11.7514 42.1464 11.7514 42.6318V46.1211C11.7514 46.6065 12.145 47 12.6303 47H31.6872C32.1726 47 32.5661 46.6065 32.5661 46.1211V42.6318C32.5661 42.1464 32.1726 41.7529 31.6872 41.7529H29.4884V39.8708C31.8207 39.4716 33.652 37.5853 33.9683 35.2261C33.9996 35.1358 34.0167 35.0389 34.0167 34.9379V16.0125C34.0167 15.0236 34.8211 14.2193 35.81 14.2193C36.7989 14.2193 37.6033 15.0237 37.6033 16.0125V24.36H37.6034C37.6034 24.8454 37.997 25.2389 38.4823 25.2389C38.9676 25.2389 39.3612 24.8454 39.3612 24.36V16.0125C39.3612 14.0545 37.7682 12.4614 35.8101 12.4614ZM31.7416 4.63707H34.5996V5.84908H31.7416V4.63707ZM12.5761 5.84908H9.71826V4.63707H12.5761V5.84908ZM17.2125 6.72834V3.75781H27.1051V6.72834H17.2125ZM22.892 8.48615V15.6295H21.4257V8.48615H22.892ZM29.0499 17.3873V19.1187H15.2678V17.3873H29.0499ZM27.7307 39.8849V41.7529H19.5214V27.1273C19.5214 26.6419 19.1278 26.2484 18.6425 26.2484C18.1571 26.2484 17.7636 26.6419 17.7636 27.1273V41.7529H16.587V20.8765H27.7307V29.1115C25.1202 29.5147 23.1153 31.7767 23.1153 34.4982C23.1153 37.2197 25.1202 39.4817 27.7307 39.8849ZM30.8083 43.5107V45.2422H13.5092V43.5107H30.8083ZM28.5661 38.191C26.5298 38.191 24.8732 36.5344 24.8732 34.4982C24.8732 32.4619 26.5298 30.8054 28.5661 30.8054C30.6023 30.8054 32.259 32.4619 32.259 34.4982C32.259 36.5344 30.6023 38.191 28.5661 38.191Z" fill="#F93F20"/>
<path d="M46.3808 38.1311L42.981 37.2518C42.7179 37.184 42.4378 37.2413 42.2229 37.4078C42.0079 37.5742 41.882 37.8308 41.882 38.1028V38.8063H41.1545C40.1657 38.8063 39.3612 38.0019 39.3612 37.013V31.0693C39.3612 30.5839 38.9677 30.1904 38.4823 30.1904C37.997 30.1904 37.6034 30.5839 37.6034 31.0693V37.013C37.6034 38.9711 39.1964 40.5642 41.1545 40.5642H41.882V41.4436C41.882 41.7155 42.0079 41.9721 42.2229 42.1385C42.3785 42.2591 42.5683 42.3225 42.7609 42.3225C42.8344 42.3225 42.9084 42.3133 42.981 42.2946L46.3808 41.4153C46.7687 41.3149 47.0396 40.965 47.0396 40.5643V38.982C47.0396 38.5813 46.7687 38.2315 46.3808 38.1311ZM45.2818 39.8839L43.6398 40.3085V39.2379L45.2818 39.6625V39.8839Z" fill="#F93F20"/>
<path d="M46.3808 38.1311L42.981 37.2518C42.7179 37.184 42.4378 37.2413 42.2229 37.4078C42.0079 37.5742 41.882 37.8308 41.882 38.1028V38.8063H41.1545C40.1657 38.8063 39.3612 38.0019 39.3612 37.013V31.0693C39.3612 30.5839 38.9677 30.1904 38.4823 30.1904C37.997 30.1904 37.6034 30.5839 37.6034 31.0693V37.013C37.6034 38.9711 39.1964 40.5642 41.1545 40.5642H41.882V41.4436C41.882 41.7155 42.0079 41.9721 42.2229 42.1385C42.3785 42.2591 42.5683 42.3225 42.7609 42.3225C42.8344 42.3225 42.9084 42.3133 42.981 42.2946L46.3808 41.4153C46.7687 41.3149 47.0396 40.965 47.0396 40.5643V38.982C47.0396 38.5813 46.7687 38.2315 46.3808 38.1311ZM45.2818 39.8839L43.6398 40.3085V39.2379L45.2818 39.6625V39.8839Z" stroke="#F93F20"/>
</svg>
