<svg width="50" height="50" viewBox="0 0 50 50" fill="none" xmlns="http://www.w3.org/2000/svg">
<rect width="50" height="50" fill="white"/>
<path d="M10.9286 6.5H39.0714C43.7184 6.5 47.5 10.2816 47.5 14.9286V36.0678C47.5 36.7842 46.9195 37.3647 46.2031 37.3647H40.9322H40.4322V37.8647V43.1357C40.4322 43.8517 39.8516 44.4325 39.1353 44.4325C38.419 44.4325 37.8384 43.8517 37.8384 43.1357V37.8647V37.3647H37.3384H19.729H19.229V37.8647V43.1357C19.229 43.8517 18.6485 44.4325 17.9322 44.4325C17.2159 44.4325 16.6353 43.8517 16.6353 43.1357V37.8647V37.3647H16.1353H12.6616H12.1616V37.8647V43.1357C12.1616 43.8517 11.581 44.4325 10.8647 44.4325C10.1484 44.4325 9.56783 43.8517 9.56783 43.1357V37.8647V37.3647H9.06783H3.79688C3.08052 37.3647 2.5 36.7842 2.5 36.0678V14.9286C2.5 10.2816 6.28156 6.5 10.9286 6.5ZM44.4062 27.7031H44.9062V27.2031V14.9286C44.9062 11.7108 42.2892 9.09375 39.0714 9.09375H10.9286C7.71075 9.09375 5.09375 11.7108 5.09375 14.9286V27.2031V27.7031H5.59375H44.4062ZM5.09375 34.271V34.771H5.59375H44.4062H44.9062V34.271V30.7969V30.2969H44.4062H5.59375H5.09375V30.7969V34.271Z" fill="#F93F20" stroke="white"/>
</svg>
