<svg width="50" height="50" viewBox="0 0 50 50" fill="none" xmlns="http://www.w3.org/2000/svg">
<g clip-path="url(#clip0)">
<rect width="50" height="50" fill="white"/>
<path d="M16.2416 8.29403L16.2417 8.29404L36.7105 20.3403C38.4947 21.3904 39.8047 23.1609 40.305 25.1977L44.2017 41.0626H46.5486C48.4803 41.0626 50.0501 42.6643 50.05 44.631V46.8939C50.05 47.5305 49.5418 48.05 48.9149 48.05H11.274C10.6471 48.05 10.1389 47.5305 10.1389 46.8939V44.631C10.1389 42.6644 11.7088 41.0627 13.6404 41.0627H17.0546C17.1889 38.4912 17.9696 36.0102 19.337 33.8433C19.5706 33.4732 20.0551 33.3656 20.4189 33.6042C20.7823 33.8425 20.8867 34.3351 20.6535 34.7046C19.4485 36.6139 18.7542 38.7973 18.6217 41.0626H42.5887L38.7869 25.5842C38.3888 23.9634 37.3463 22.5547 35.9273 21.7196L28.0533 17.0857L24.8754 22.6969L25.577 23.1099C26.2025 23.478 26.6376 24.104 26.7711 24.8271L26.9879 26.0022C27.3103 27.7493 26.5098 29.5348 24.9953 30.4456L24.9695 30.4027L24.9953 30.4456C24.1813 30.935 23.4172 31.5175 22.7243 32.1768C22.5736 32.3203 22.3817 32.3915 22.1902 32.3915C21.9807 32.3915 21.7718 32.3063 21.6178 32.1381L21.6178 32.1381C21.3235 31.8165 21.3404 31.313 21.6559 31.0128C22.4317 30.2745 23.2875 29.622 24.1995 29.0737C25.1486 28.5029 25.6512 27.3867 25.45 26.2965L25.2332 25.1214C25.184 24.8549 25.0237 24.6247 24.794 24.4894L3.56132 11.9922C3.16276 11.7577 2.87775 11.379 2.75882 10.9264M16.2416 8.29403L3.24741 3.18102C2.94194 3.00112 2.58608 2.95334 2.24555 3.04652L2.23238 2.99829C2.23237 2.99829 2.23236 2.99829 2.23236 2.99829C1.8786 3.09494 1.58312 3.32625 1.40038 3.64896C1.40038 3.64896 1.40038 3.64896 1.40038 3.64896L0.133095 5.8868C-0.244105 6.55277 -0.0198227 7.40776 0.634438 7.79296L0.634444 7.79296L3.12214 9.25712L2.93076 9.59492L2.93076 9.59493C2.70087 10.0008 2.63979 10.4738 2.75882 10.9264M16.2416 8.29403C15.8667 8.07359 15.388 8.20463 15.1723 8.58577M16.2416 8.29403L3.27278 3.13793M2.75882 10.9264L2.80718 10.9136M2.75882 10.9264L2.80718 10.9136M2.80718 10.9136C2.69145 10.4736 2.75083 10.0141 2.97427 9.61957L3.58667 11.9491C3.19966 11.7214 2.9228 11.3537 2.80718 10.9136ZM3.27278 3.13793L5.75914 4.60134L5.94972 4.26489L5.94972 4.26489C6.42448 3.42686 7.48043 3.13765 8.30365 3.62225L13.2918 6.55805C13.666 6.77829 13.7935 7.26524 13.5781 7.64569C13.3623 8.02672 12.8834 8.15767 12.5087 7.93743L12.5087 7.93742L7.5205 5.00171L7.52047 5.0017C7.44569 4.95762 7.34909 4.98354 7.30528 5.06082C7.30528 5.06082 7.30528 5.06083 7.30528 5.06083L6.04143 7.2922L19.2243 15.0511C20.3788 15.7306 21.2551 16.8116 21.6923 18.0948L22.8549 21.5077L23.5206 21.8995L26.6985 16.2883L15.4585 9.67341C15.4585 9.67341 15.4585 9.67341 15.4585 9.67341C15.0843 9.45326 14.9568 8.96631 15.1723 8.58577M3.27278 3.13793C3.27278 3.13793 3.27278 3.13793 3.27277 3.13793L3.27278 3.13793ZM15.1723 8.58577L15.2158 8.6104M15.1723 8.58577C15.1723 8.58577 15.1723 8.58577 15.1723 8.58578L15.2158 8.6104M15.2158 8.6104C15.0136 8.9676 15.1336 9.42424 15.4839 9.63032M15.2158 8.6104C15.418 8.25321 15.8658 8.13106 16.2163 8.33713L15.4839 9.63032M15.4839 9.63032L26.7662 16.2702L15.4839 9.63032ZM4.28642 10.3909L4.28643 10.3909L5.25972 8.67241L18.4412 16.4305C19.2701 16.9184 19.8997 17.6949 20.2139 18.6169L20.7833 20.2884L4.34438 10.6128C4.26852 10.5681 4.24197 10.4693 4.28642 10.3909ZM3.90387 7.87682L1.58526 6.51231L2.65873 4.61695L4.97743 5.98155L3.90387 7.87682ZM48.4852 46.4566H11.7038V44.631C11.7038 43.541 12.5735 42.6559 13.6404 42.6559H46.5486C47.6155 42.6559 48.4852 43.541 48.4852 44.631V46.4566Z" fill="#F93F20" stroke="#F93F20" stroke-width="0.1"/>
</g>
<defs>
<clipPath id="clip0">
<rect width="50" height="50" fill="white"/>
</clipPath>
</defs>
</svg>
