<svg width="50" height="50" viewBox="0 0 50 50" fill="none" xmlns="http://www.w3.org/2000/svg">
<rect width="50" height="50" fill="white"/>
<path d="M10.8863 38.8482L10.886 38.8483C10.0489 39.0184 9.28917 39.4633 8.75138 40.119C8.13607 40.8525 7.83433 41.7833 7.91293 42.7277C8.05758 44.6192 9.73604 46.1088 11.7217 46.1088H12.9708C13.2535 46.1088 13.4914 45.8876 13.4914 45.5881C13.4914 45.3035 13.2555 45.0675 12.9708 45.0675H11.7217C10.2651 45.0675 9.06366 44.0066 8.95352 42.648L8.95353 42.648L8.95344 42.647C8.89218 41.9731 9.10006 41.3236 9.54234 40.7952L9.54236 40.7953L9.54394 40.7933C9.9232 40.316 10.4753 39.9961 11.0788 39.8729C13.4037 39.4041 16.3144 39.435 19.1203 39.6738C21.9238 39.9124 24.6153 40.3577 26.4998 40.7143C26.7827 40.7762 27.0661 40.589 27.1151 40.3039C27.1765 40.0208 26.9887 39.7375 26.7032 39.6892C22.0259 38.797 15.483 37.9262 10.8863 38.8482Z" fill="#F93F20" stroke="#F93F20" stroke-width="0.2"/>
<path d="M33.8871 36.9056L33.792 36.8744L40.4155 16.6691C40.4366 15.9724 40.2028 15.3024 39.7271 14.7779L39.7265 14.7771C39.2353 14.2244 38.5605 13.9049 37.8231 13.8673L37.8206 13.8673C37.7889 13.8674 37.7328 13.8675 37.6823 13.8541C36.1867 13.8118 34.915 14.9787 34.8537 16.4741L34.8537 16.4746C34.7641 18.4082 34.4184 20.4302 33.8175 22.5149C33.7361 22.7995 33.5745 23.0681 33.3737 23.2822L33.3725 23.2835C32.7495 23.9257 31.6882 25.0699 30.6655 26.4152C29.6415 27.7621 28.6618 29.3036 28.1955 30.7407C27.7023 32.2649 27.4384 34.3647 27.2983 36.2199C27.1583 38.073 27.1424 39.6735 27.1424 40.1946C27.1424 40.4793 26.9065 40.7153 26.6218 40.7153C26.3372 40.7153 26.1012 40.4793 26.1012 40.1946C26.1012 39.6577 26.1172 38.0168 26.2624 36.1092C26.4075 34.2035 26.6822 32.0233 27.2022 30.4115C27.6851 28.911 28.6421 27.3549 29.6756 25.9714C30.71 24.5867 31.8253 23.369 32.6301 22.5448L32.631 22.544C32.7213 22.4536 32.7885 22.3412 32.8219 22.2187L32.8223 22.217C33.4067 20.2096 33.7365 18.2671 33.8126 16.4276L33.8127 16.4273C33.9043 14.3586 35.6577 12.7357 37.751 12.8132H37.751H37.7511H37.7512H37.7512H37.7513H37.7514H37.7514H37.7515H37.7516H37.7516H37.7517H37.7518H37.7518H37.7519H37.7519H37.752H37.7521H37.7521H37.7522H37.7523H37.7523H37.7524H37.7524H37.7525H37.7526H37.7526H37.7527H37.7528H37.7528H37.7529H37.7529H37.753H37.7531H37.7531H37.7532H37.7532H37.7533H37.7533H37.7534H37.7535H37.7535H37.7536H37.7536H37.7537H37.7537H37.7538H37.7539H37.7539H37.754H37.754H37.7541H37.7541H37.7542H37.7543H37.7543H37.7544H37.7544H37.7545H37.7545H37.7546H37.7546H37.7547H37.7547H37.7548H37.7548H37.7549H37.755H37.755H37.7551H37.7551H37.7552H37.7552H37.7553H37.7553H37.7554H37.7554H37.7555H37.7555H37.7556H37.7556H37.7557H37.7557H37.7558H37.7558H37.7559H37.7559H37.756H37.756H37.7561H37.7561H37.7562H37.7562H37.7563H37.7563H37.7564H37.7564H37.7564H37.7565H37.7565H37.7566H37.7566H37.7567H37.7567H37.7568H37.7568H37.7569H37.7569H37.757H37.757H37.7571H37.7571H37.7571H37.7572H37.7572H37.7573H37.7573H37.7574H37.7574H37.7575H37.7575H37.7575H37.7576H37.7576H37.7577H37.7577H37.7578H37.7578H37.7579H37.7579H37.7579H37.758H37.758H37.7581H37.7581H37.7582H37.7582H37.7582H37.7583H37.7583H37.7584H37.7584H37.7584H37.7585H37.7585H37.7586H37.7586H37.7587H37.7587H37.7587H37.7588H37.7588H37.7589H37.7589H37.7589H37.759H37.759H37.7591H37.7591H37.7591H37.7592H37.7592H37.7593H37.7593H37.7593H37.7594H37.7594H37.7595H37.7595H37.7595H37.7596H37.7596H37.7597H37.7597H37.7597H37.7598H37.7598H37.7599H37.7599H37.7599H37.76H37.76H37.76H37.7601H37.7601H37.7602H37.7602H37.7602H37.7603H37.7603H37.7604H37.7604H37.7604H37.7605H37.7605H37.7605H37.7606H37.7606H37.7607H37.7607H37.7607H37.7608H37.7608H37.7608H37.7609H37.7609H37.761H37.761H37.761H37.7611H37.7611H37.7612H37.7612H37.7612H37.7613H37.7613H37.7613H37.7614H37.7614H37.7614H37.7615H37.7615H37.7616H37.7616H37.7616H37.7617H37.7617H37.7617H37.7618H37.7618H37.7619H37.7619H37.7619H37.762H37.762H37.762H37.7621H37.7621H37.7622H37.7622H37.7622H37.7623H37.7623H37.7623H37.7624H37.7624H37.7625H37.7625H37.7625H37.7626H37.7626H37.7626H37.7627H37.7627H37.7628H37.7628H37.7628H37.7629H37.7629H37.7629H37.763H37.763H37.7631H37.7631H37.7631H37.7632H37.7632H37.7633H37.7633H37.7633H37.7634H37.7634H37.7634H37.7635H37.7635H37.7636H37.7636H37.7636H37.7637H37.7637H37.7638H37.7638H37.7638H37.7639H37.7639H37.7639H37.764H37.764H37.7641H37.7641H37.7641H37.7642H37.7642H37.7643H37.7643H37.7643H37.7644H37.7644H37.7645H37.7645H37.7645H37.7646H37.7646H37.7647H37.7647H37.7647H37.7648H37.7648H37.7649H37.7649H37.7649H37.765H37.765H37.7651H37.7651H37.7652H37.7652H37.7652H37.7653H37.7653H37.7654H37.7654H37.7654H37.7655H37.7655H37.7656H37.7656H37.7657H37.7657H37.7657H37.7658H37.7658H37.7659H37.7659H37.766H37.766H37.766H37.7661H37.7661H37.7662H37.7662H37.7663H37.7663H37.7664H37.7664H37.7664H37.7665H37.7665H37.7666H37.7666H37.7667H37.7667H37.7668H37.7668H37.7669H37.7669H37.7669H37.767H37.767H37.7671H37.7671H37.7672H37.7672H37.7673H37.7673H37.7674H37.7674H37.7675H37.7675H37.7676H37.7676H37.7677H37.7677H37.7678H37.7678H37.7679H37.7679H37.768H37.768H37.7681H37.7681H37.7682H37.7682H37.7683H37.7683H37.7684H37.7684H37.7685H37.7685H37.7686H37.7686H37.7687H37.7687H37.7688H37.7688H37.7689H37.7689H37.769H37.769H37.7691H37.7691H37.7692H37.7693H37.7693H37.7694H37.7694H37.7695H37.7695H37.7696H37.7696H37.7697H37.7697H37.7698H37.7699H37.7699H37.77H37.77H37.7701H37.7701H37.7702H37.7703H37.7703H37.7704H37.7704H37.7705H37.7706H37.7706H37.7707H37.7707H37.7708H37.7708H37.7709H37.771H37.771H37.7711H37.7712H37.7712H37.7713H37.7713H37.7714H37.7715H37.7715H37.7716H37.7717H37.7717H37.7718H37.7718H37.7719H37.772H37.772H37.7721H37.7722H37.7722H37.7723H37.7724H37.7724H37.7725H37.7726H37.7726H37.7727H37.7728H37.7728H37.7729H37.773H37.773H37.7731H37.7732H37.7732H37.7733H37.7734H37.7735H37.7735H37.7736H37.7737H37.7737H37.7738H37.7739H37.7739H37.774H37.7741H37.7742H37.7742H37.7743H37.7744H37.7745H37.7745H37.7746H37.7748H37.7749H37.7751H37.7752H37.7754H37.7755H37.7757H37.7758H37.776H37.7761H37.7763H37.7764H37.7766H37.7767H37.7769H37.777H37.7772H37.7773H37.7775H37.7777H37.7778H37.778H37.7781H37.7783H37.7784H37.7786H37.7787H37.7789H37.7791H37.7792H37.7794H37.7795H37.7797H37.7798H37.78H37.7802H37.7803H37.7805H37.7806H37.7808H37.781H37.7811H37.7813H37.7814H37.7816H37.7818H37.7819H37.7821H37.7823H37.7824H37.7826H37.7827H37.7829H37.7831H37.7832H37.7834H37.7836H37.7837H37.7839H37.7841H37.7842H37.7844H37.7845H37.7847H37.7849H37.785H37.7852H37.7854H37.7855H37.7857H37.7859H37.786H37.7862H37.7864H37.7866H37.7867H37.7869H37.7871H37.7872H37.7874H37.7876H37.7877H37.7879H37.7881H37.7882H37.7884H37.7886H37.7888H37.7889H37.7891H37.7893H37.7894H37.7896H37.7898H37.79H37.7901H37.7903H37.7905H37.7906H37.7908H37.791H37.7912H37.7913H37.7915H37.7917H37.7919H37.792H37.7922H37.7924H37.7926H37.7927H37.7929H37.7931H37.7933H37.7934H37.7936H37.7938H37.794H37.7941H37.7943H37.7945H37.7947H37.7948H37.795H37.7952H37.7954H37.7955H37.7957H37.7959H37.7961H37.7963H37.7964H37.7966H37.7968H37.797H37.7971H37.7973H37.7975H37.7977H37.7979H37.798H37.7982H37.7984H37.7986H37.7988H37.7989H37.7991H37.7993H37.7995H37.7997H37.7998H37.8H37.8002H37.8004H37.8006H37.8007H37.8009H37.8011H37.8013H37.8015H37.8016H37.8018H37.802H37.8022H37.8024H37.8026H37.8027H37.8029H37.8031H37.8033H37.8035H37.8036H37.8038H37.804H37.8042H37.8044H37.8046H37.8047H37.8049H37.8051H37.8053H37.8055H37.8057H37.8058H37.806H37.8062H37.8064H37.8066H37.8068H37.807H37.8071H37.8073H37.8075H37.8077H37.8079H37.8081H37.8082H37.8084H37.8086H37.8088H37.809H37.8092H37.8094H37.8095H37.8097H37.8099H37.8101H37.8103H37.8105H37.8106H37.8108H37.811H37.8112H37.8114H37.8116H37.8118H37.8119H37.8121H37.8123H37.8125H37.8127H37.8129H37.8131H37.8132H37.8134H37.8136H37.8138H37.814H37.8142H37.8144H37.8146H37.8147H37.8149H37.8151H37.8153H37.8155H37.8157H37.8159H37.816H37.8162H37.8164H37.8166H37.8168H37.817H37.8172H37.8174H37.8175H37.8177H37.8179H37.8181H37.8183H37.8185H37.8187H37.8188H37.819H37.8192H37.8194H37.8196H37.8198H37.82H37.8202H37.8203H37.8205H37.8207H37.8209H37.8211H37.8213H37.8215H37.8216H37.8218H37.822H37.8222H37.8224H37.8226H37.8228H37.823H37.8231H37.8233H37.8235H37.8237H37.8239H37.8241H37.8243H37.8244H37.8246H37.8248H37.825H37.8252H37.8254H37.8256H37.8257H37.8259H37.8261H37.8263H37.8265H37.8267H37.8269H37.827H37.8272H37.8274H37.8276H37.8278H37.828H37.8282H37.8283H37.8285H37.8287H37.8289H37.8291H37.8293H37.8295H37.8296H37.8298H37.83H37.8302H37.8304H37.8306H37.8307H37.8309H37.8311H37.8313H37.8315H37.8317H37.8319H37.832H37.8322H37.8324H37.8326H37.8328H37.833H37.8331H37.8333H37.8335H37.8337H37.8339H37.8341H37.8342H37.8344H37.8346H37.8348H37.835H37.8352H37.8353H37.8355H37.8357H37.8359H37.8361H37.8362H37.8364H37.8366H37.8368H37.837H37.8372H37.8373H37.8375H37.8377H37.8379H37.8381H37.8382H37.8384H37.8386H37.8388H37.839H37.8391H37.8393H37.8395H37.8397H37.8399H37.84H37.8402H37.8404H37.8406H37.8408H37.8409H37.8411H37.8413H37.8415H37.8417H37.8418H37.842H37.8422H37.8424H37.8425H37.8427H37.8429H37.8431H37.8433H37.8434H37.8436H37.8438H37.844H37.8441H37.8443H37.8445H37.8447H37.8448H37.845H37.8452H37.8454H37.8455H37.8457H37.8459H37.8461H37.8462H37.8464H37.8466H37.8468H37.8469H37.8471H37.8473H37.8475H37.8476H37.8478H37.848H37.8481H37.8483H37.8485H37.8487H37.8488H37.849H37.8492H37.8493H37.8495H37.8497H37.8499H37.85H37.8502H37.8504H37.8505H37.8507H37.8509H37.851H37.8512H37.8514H37.8516H37.8517H37.8519H37.8521H37.8522H37.8524H37.8526H37.8527H37.8529H37.8531H37.8532H37.8534H37.8536H37.8537H37.8539H37.8541H37.8542H37.8544H37.8545H37.8547H37.8549H37.855H37.8552H37.8554H37.8555H37.8557H37.8559H37.856H37.8562H37.8563H37.8565H37.8567H37.8568H37.857H37.8572H37.8573H37.8575H37.8576H37.8578H37.858H37.8581H37.8583H37.8584H37.8586H37.8587H37.8589H37.8591H37.8592H37.8594H37.8595H37.8597H37.8599H37.86H37.8602H37.8603H37.8605H37.8606H37.8608H37.8609H37.8611H37.8612H37.8614H37.8616H37.8617H37.8619H37.862H37.8622H37.8623H37.8625H37.8626H37.8628H37.8629H37.8631H37.8632H37.8634H37.8635H37.8637H37.8638H37.8689L37.8689 12.8133C38.9023 12.8656 39.8323 13.3109 40.513 14.0703L40.5131 14.0704C41.18 14.8159 41.5209 15.7844 41.4562 16.7796C41.4555 16.8324 41.4397 16.8814 41.4237 16.9154L34.7851 37.1789C34.3166 38.61 34.0375 40.1947 33.9487 41.8827L33.9487 41.8828C33.884 43.0795 33.5179 44.0558 32.8732 44.7728C32.23 45.4882 31.3175 45.9364 30.1748 46.093C30.1566 46.0988 30.1403 46.1029 30.1236 46.1053C30.1053 46.1079 30.0895 46.1079 30.0778 46.1079H30.076H14.8572C14.5726 46.1079 14.3366 45.8719 14.3366 45.5872C14.3366 45.3025 14.5726 45.0665 14.8572 45.0665H30.0436C30.9468 44.9407 31.6311 44.6051 32.1027 44.0739C32.5759 43.5408 32.8448 42.7999 32.895 41.8468L33.8871 36.9056ZM33.8871 36.9056L33.792 36.8744M33.8871 36.9056L33.792 36.8744M33.792 36.8744C33.292 38.4004 32.9846 40.0664 32.895 41.8467L33.792 36.8744Z" fill="#F93F20" stroke="#F93F20" stroke-width="0.2"/>
<path d="M37.3177 13.3473C37.3177 13.632 37.5536 13.868 37.8383 13.868C38.123 13.868 38.3589 13.632 38.3589 13.3473V12.0852C38.3589 11.8006 38.123 11.5646 37.8383 11.5646C37.5536 11.5646 37.3177 11.8006 37.3177 12.0852V13.3473Z" fill="#F93F20" stroke="#F93F20" stroke-width="0.2"/>
<path d="M35.374 11.151L35.3746 11.1516L40.8209 10.1344L40.9209 10.1358L40.9209 10.1356L40.9974 4.56476L40.9974 4.56469C41.0108 3.53259 40.2475 2.63638 39.2175 2.47584V2.47584L39.2171 2.47577C38.1126 2.30878 36.5583 2.31662 35.4027 3.30169L35.4027 3.30169L35.4023 3.30202C34.4545 4.11833 33.9782 5.42652 33.9782 7.18955C33.9782 8.95235 34.4415 10.2841 35.374 11.151ZM39.8669 10.1203H39.8669V10.1217C39.8669 10.6677 39.4619 11.097 38.9265 11.1438C38.0789 11.207 36.9054 11.1276 36.0964 10.3798C35.3986 9.73081 35.0322 8.66721 35.0322 7.1768C35.0322 5.69781 35.3865 4.6754 36.0807 4.07839C36.6669 3.57769 37.4293 3.4268 38.157 3.4268C38.4811 3.4268 38.7812 3.46419 39.0612 3.50237C39.5714 3.57197 39.955 4.02538 39.9434 4.53562L39.9434 4.53652L39.8669 10.1203Z" fill="#F93F20" stroke="#F93F20" stroke-width="0.2"/>
<path d="M11.8747 48.5941H29.8848C30.1695 48.5941 30.4054 48.3581 30.4054 48.0734V45.5874C30.4054 45.3028 30.1695 45.0667 29.8848 45.0667C29.6001 45.0667 29.3642 45.3028 29.3642 45.5874V47.5527H12.3953V45.5874C12.3953 45.3028 12.1593 45.0667 11.8747 45.0667C11.59 45.0667 11.354 45.3028 11.354 45.5874V48.0734C11.354 48.3581 11.59 48.5941 11.8747 48.5941Z" fill="#F93F20" stroke="#F93F20" stroke-width="0.2"/>
<path d="M27.8729 42.2216C27.8729 43.2202 28.6952 44.0427 29.6936 44.0427C30.7048 44.0427 31.5143 43.233 31.5143 42.2216C31.5143 41.2231 30.6921 40.4006 29.6936 40.4006C28.6952 40.4006 27.8729 41.2231 27.8729 42.2216ZM28.9141 42.2344C28.9141 41.8052 29.2645 41.4547 29.6936 41.4547C30.1237 41.4547 30.4731 41.7934 30.4731 42.2344C30.4731 42.6636 30.1227 43.014 29.6936 43.014C29.2645 43.014 28.9141 42.6636 28.9141 42.2344Z" fill="#F93F20" stroke="#F93F20" stroke-width="0.2"/>
</svg>
