<svg width="50" height="50" viewBox="0 0 50 50" fill="none" xmlns="http://www.w3.org/2000/svg">
<rect width="50" height="50" fill="white"/>
<path d="M30.336 36.129H25.7419V34.6452H21.2903V36.129H16.8387V39.0968H12.3871C9.11442 39.0968 6.45161 36.434 6.45161 33.1613C6.45161 29.8886 9.11442 27.2258 12.3871 27.2258H37.6129C43.3406 27.2258 48 22.5665 48 16.8387C48 11.111 43.3406 6.45161 37.6129 6.45161H25.7419V5.70968C25.7419 4.48252 24.7433 3.48387 23.5161 3.48387H13.871V2H2V15.3548H13.871V13.871H23.5161C24.7433 13.871 25.7419 12.8723 25.7419 11.6452V10.9032H37.6129C40.8856 10.9032 43.5484 13.566 43.5484 16.8387C43.5484 20.1114 40.8856 22.7742 37.6129 22.7742H12.3871C6.65936 22.7742 2 27.4335 2 33.1613C2 38.889 6.65936 43.5484 12.3871 43.5484H16.8387V46.5161H21.2903V48H25.7419V46.5161H30.336L34.0457 45.0323H48V37.6129H34.0457L30.336 36.129ZM12.3871 13.871H3.48387V3.48387H12.3871V13.871ZM24.2581 11.6452C24.2581 12.0547 23.9257 12.3871 23.5161 12.3871H13.871V4.96774H23.5161C23.9257 4.96774 24.2581 5.30013 24.2581 5.70968V11.6452ZM16.8387 42.0645H12.3871C7.47771 42.0645 3.48387 38.0707 3.48387 33.1613C3.48387 28.2519 7.47771 24.2581 12.3871 24.2581H37.6129C41.7039 24.2581 45.0323 20.9297 45.0323 16.8387C45.0323 12.7477 41.7039 9.41935 37.6129 9.41935H25.7419V7.93548H37.6129C42.5223 7.93548 46.5161 11.9293 46.5161 16.8387C46.5161 21.7481 42.5223 25.7419 37.6129 25.7419H12.3871C8.29606 25.7419 4.96774 29.0703 4.96774 33.1613C4.96774 37.2523 8.29606 40.5806 12.3871 40.5806H16.8387V42.0645ZM21.2903 45.0323H18.3226V37.6129H21.2903V45.0323ZM24.2581 46.5161H22.7742V45.0323H24.2581V46.5161ZM24.2581 43.5484H22.7742V42.0645H24.2581V43.5484ZM24.2581 40.5806H22.7742V39.0968H24.2581V40.5806ZM24.2581 37.6129H22.7742V36.129H24.2581V37.6129ZM33.1613 43.788L30.9355 44.6784V43.5484H29.4516V45.0323H25.7419V37.6129H29.4516V42.0645H30.9355V37.9668L33.1613 38.8571V43.788ZM45.0323 39.0968H46.5161V43.5484H45.0323V39.0968ZM39.0968 39.0968H43.5484V43.5484H39.0968V39.0968ZM34.6452 39.0968H37.6129V43.5484H34.6452V39.0968Z" fill="#F93F20"/>
<path d="M10.9032 10.9032H4.96775V12.3871H10.9032V10.9032Z" fill="#F93F20"/>
<path d="M10.9032 4.96802H4.96775V6.45189H10.9032V4.96802Z" fill="#F93F20"/>
<path d="M10.9032 7.93518H4.96775V9.41905H10.9032V7.93518Z" fill="#F93F20"/>
</svg>
