<svg width="50" height="50" viewBox="0 0 50 50" fill="none" xmlns="http://www.w3.org/2000/svg">
<rect width="50" height="50" fill="white"/>
<path d="M44.4473 6.80595L43.1876 6.12282L43.8707 4.86305L45.1305 5.54617L44.4473 6.80595Z" fill="#F93F20" stroke="white" stroke-width="0.1"/>
<path d="M42.2083 20.3679L42.2084 20.3179C42.1464 20.3177 42.0847 20.3097 42.0246 20.2942C42.0246 20.2942 42.0246 20.2942 42.0245 20.2942L32.622 17.81L32.6224 17.8083H32.6157C32.2368 17.7048 32.0114 17.315 32.1118 16.9344L32.1134 16.9348V16.9281C32.2169 16.5492 32.6068 16.3238 32.9874 16.4242C32.9874 16.4242 32.9874 16.4242 32.9874 16.4242L42.3909 18.9085L42.391 18.9085C42.7057 18.9914 42.925 19.2761 42.925 19.6015C42.9249 19.9972 42.604 20.318 42.2083 20.3179L42.2083 20.3679ZM42.2083 20.3679C42.6316 20.368 42.9749 20.0249 42.975 19.6016C42.975 19.2534 42.7404 18.9489 42.4037 18.8602L42.012 20.3426C42.0761 20.3592 42.1421 20.3677 42.2083 20.3679Z" fill="#F93F20" stroke="white" stroke-width="0.1"/>
<path d="M34.0902 15.116L34.0902 15.116C33.7068 15.0183 33.4752 14.6282 33.5729 14.2447C33.6706 13.8613 34.0607 13.6297 34.4442 13.7274C34.4442 13.7274 34.4442 13.7274 34.4442 13.7274L43.9273 16.148C43.9273 16.148 43.9274 16.148 43.9274 16.148C44.2423 16.2298 44.4627 16.5134 44.4641 16.8388C44.4656 17.2345 44.146 17.5566 43.7503 17.5581L43.7503 17.5581C43.6907 17.5584 43.6314 17.551 43.5738 17.536L43.5735 17.5359L34.0902 15.116Z" fill="#F93F20" stroke="white" stroke-width="0.1"/>
<path d="M29.551 32.1526V30.7196H30.984V32.1526H29.551Z" fill="#F93F20" stroke="white" stroke-width="0.1"/>
<path d="M44.2241 8.17127C44.6384 8.16077 45.0426 8.04085 45.3957 7.82364C46.5009 7.14374 46.8456 5.69652 46.1656 4.59136C45.4857 3.48619 44.0385 3.14139 42.9334 3.82139C41.8281 4.50127 41.4834 5.94843 42.1633 7.05358C42.296 7.27147 42.3028 7.54352 42.1812 7.76786L41.2468 9.49021L41.2229 9.53421L41.267 9.55803L42.6145 10.287L42.6584 10.3107L42.6822 10.2668L43.6158 8.54602L43.6159 8.546C43.7374 8.32177 43.969 8.17901 44.2241 8.17127ZM44.2241 8.17127C44.224 8.17127 44.224 8.17127 44.2239 8.17128L44.2227 8.12129L44.2242 8.17127C44.2241 8.17127 44.2241 8.17127 44.2241 8.17127ZM40.7276 7.44773L40.7396 7.4257L40.7291 7.4029C40.5796 7.07723 40.4772 6.73188 40.4249 6.37727L40.3754 6.38456L40.4249 6.37726C40.12 4.31056 41.5482 2.38807 43.6149 2.0832C45.6816 1.77832 47.6041 3.20652 47.909 5.27323C48.2139 7.33993 46.7856 9.26242 44.719 9.5673L44.6942 9.57094L44.6823 9.59291L43.9434 10.9542L43.9196 10.9982L43.9635 11.022L44.6372 11.3876C44.6372 11.3876 44.6372 11.3876 44.6372 11.3877C44.9845 11.5769 45.1128 12.0118 44.9238 12.3592L44.9238 12.3593L44.5351 13.076L44.505 13.1316L44.566 13.1481L45.479 13.3949L45.4791 13.3949C45.7931 13.4789 46.0112 13.7638 46.0104 14.0889C46.0094 14.4846 45.6878 14.8046 45.2921 14.8036H45.2919C45.2288 14.8037 45.1659 14.7953 45.1052 14.7785L45.105 14.7785L35.4868 12.1723L35.4867 12.1723C35.1046 12.0691 34.8787 11.6756 34.9819 11.2935C35.0852 10.9114 35.4787 10.6855 35.8608 10.7887L35.8609 10.7888L36.9624 11.0831L37.0004 11.0933L37.0192 11.0587L38.2747 8.74616C38.464 8.39883 38.8989 8.27057 39.2463 8.45956L39.2702 8.41563L39.2463 8.45956L39.9186 8.82518L39.9624 8.84903L39.9863 8.80522L40.7276 7.44773ZM43.0429 12.7334L43.0811 12.7437L43.1 12.709L43.2962 12.3472L43.3201 12.3032L43.2761 12.2794L42.6046 11.9153L42.6046 11.9153L40.7206 10.8928L40.7206 10.8928L39.2328 10.0849L39.1888 10.061L39.165 10.1049L38.449 11.4241L38.4189 11.4797L38.4799 11.4962L41.4624 12.3041L41.4624 12.3041L43.0429 12.7334Z" fill="#F93F20" stroke="white" stroke-width="0.1"/>
<mask id="path-6-inside-1" fill="white">
<path d="M47.2243 25.764H42.6252C42.2019 25.764 41.8587 26.1072 41.8587 26.5305V28.8301H36.9147L37.9656 26.8938C38.1678 26.5222 38.0306 26.0569 37.659 25.8545L36.3115 25.1232L37.8039 22.3722L40.4667 23.0996C40.8753 23.2111 41.2969 22.9704 41.4084 22.5619C41.5199 22.1533 41.2792 21.7318 40.8707 21.6202L31.5445 19.0731C31.1342 18.9687 30.7171 19.2166 30.6126 19.6269C30.5108 20.027 30.7442 20.436 31.1406 20.5517L33.2454 21.1274L32.2673 22.9279L30.9198 22.1966C30.5482 21.995 30.0836 22.1322 29.8812 22.5033L28.4187 25.1983C28.2165 25.57 28.3537 26.0353 28.7253 26.2377L30.0728 26.9682L29.7003 27.6581C29.4423 27.6961 29.1887 27.7603 28.9437 27.8497C28.3855 28.0562 27.8843 28.3922 27.4812 28.8301H21.9294V26.5305C21.9294 26.1072 21.5862 25.764 21.1629 25.764H18.8633V19.6319C18.8608 17.5163 17.1463 15.8018 15.0307 15.7993H5.83257C3.71699 15.8018 2.00249 17.5163 2 19.6319V44.1603C2.00249 46.2759 3.71699 47.9904 5.83257 47.9929H15.0307C17.1463 47.9904 18.8608 46.2759 18.8633 44.1603V38.0282H21.1629C21.5862 38.0282 21.9294 37.685 21.9294 37.2617V34.9622H28.8081C29.7446 35.3627 30.8043 35.3627 31.7407 34.9622H41.8587V37.2617C41.8587 37.685 42.2019 38.0282 42.6252 38.0282H47.2243C47.6476 38.0282 47.9908 37.685 47.9908 37.2617V26.5305C47.9908 26.1072 47.6476 25.764 47.2243 25.764ZM5.06606 46.3189C4.15055 45.9952 3.53705 45.1313 3.53303 44.1603V19.6319C3.53705 18.6609 4.15055 17.797 5.06606 17.4734V46.3189ZM8.13211 46.4599H6.59908V17.3323H8.13211V46.4599ZM11.1982 46.4599H9.66514V17.3323H11.1982V46.4599ZM14.2642 46.4599H12.7312V17.3323H14.2642V46.4599ZM17.3303 26.5305V44.1603C17.3263 45.1313 16.7128 45.9952 15.7973 46.3189V17.4734C16.7128 17.797 17.3263 18.6609 17.3303 19.6319V26.5305ZM20.3963 29.5966V36.4952H18.8633V27.297H20.3963V29.5966ZM21.9294 33.4291V30.3631H26.589C26.5283 30.5751 26.4864 30.7921 26.4641 31.0116C26.4641 31.0392 26.4564 31.0667 26.4533 31.0943C26.4349 31.3117 26.4349 31.5301 26.4533 31.7474C26.4533 31.7811 26.4579 31.8141 26.4618 31.8478C26.485 32.0599 26.526 32.2697 26.5844 32.4748C26.5936 32.5086 26.6036 32.5423 26.6143 32.576C26.6772 32.7798 26.757 32.978 26.8527 33.1685C26.868 33.1984 26.8849 33.2276 26.901 33.2582C26.9316 33.3149 26.9592 33.374 26.993 33.4291H21.9294ZM34.6458 21.7613L36.1145 22.2672L34.9601 24.3919L33.6126 23.6607L34.6458 21.7613ZM30.8623 23.9121L36.2524 26.8371L35.5212 28.1839L32.3417 26.4592L31.4794 25.994L30.1311 25.2596L30.8623 23.9121ZM32.2198 30.2458C32.881 31.3211 32.5454 32.7289 31.47 33.3902C30.8093 33.7964 29.9877 33.8399 29.2879 33.5058C29.2672 33.4958 29.1944 33.4682 29.1729 33.4606C28.057 32.8548 27.6432 31.4593 28.2485 30.3432C28.3046 30.2442 28.3684 30.1499 28.4394 30.0611C28.7015 29.7111 29.0597 29.4447 29.4703 29.2946C29.7061 29.209 29.9539 29.1614 30.2046 29.1535C30.4773 29.1455 30.7251 28.993 30.8554 28.7534L31.4234 27.7056L32.7709 28.4368L32.2007 29.4816C32.0704 29.7216 32.0777 30.0127 32.2198 30.2458ZM38.7927 33.4291H33.5421C33.575 33.3755 33.6064 33.3211 33.6363 33.2651C33.7432 33.064 33.8314 32.8537 33.9 32.6366C33.9115 32.599 33.9253 32.5599 33.936 32.5254C33.996 32.3196 34.0383 32.1091 34.0625 31.8961C34.0671 31.854 34.0702 31.8118 34.074 31.7696C34.0928 31.5514 34.0928 31.3318 34.074 31.1135C34.074 31.0943 34.0679 31.0767 34.0663 31.0576C34.0434 30.8467 34.0031 30.638 33.946 30.4336C33.9399 30.4114 33.9391 30.3876 33.933 30.3654H38.7927V33.4291ZM41.8587 33.4291H40.3257V30.3631H41.8587V33.4291ZM46.4578 36.4952H43.3918V27.297H46.4578V36.4952Z"/>
</mask>
<path d="M47.2243 25.764H42.6252C42.2019 25.764 41.8587 26.1072 41.8587 26.5305V28.8301H36.9147L37.9656 26.8938C38.1678 26.5222 38.0306 26.0569 37.659 25.8545L36.3115 25.1232L37.8039 22.3722L40.4667 23.0996C40.8753 23.2111 41.2969 22.9704 41.4084 22.5619C41.5199 22.1533 41.2792 21.7318 40.8707 21.6202L31.5445 19.0731C31.1342 18.9687 30.7171 19.2166 30.6126 19.6269C30.5108 20.027 30.7442 20.436 31.1406 20.5517L33.2454 21.1274L32.2673 22.9279L30.9198 22.1966C30.5482 21.995 30.0836 22.1322 29.8812 22.5033L28.4187 25.1983C28.2165 25.57 28.3537 26.0353 28.7253 26.2377L30.0728 26.9682L29.7003 27.6581C29.4423 27.6961 29.1887 27.7603 28.9437 27.8497C28.3855 28.0562 27.8843 28.3922 27.4812 28.8301H21.9294V26.5305C21.9294 26.1072 21.5862 25.764 21.1629 25.764H18.8633V19.6319C18.8608 17.5163 17.1463 15.8018 15.0307 15.7993H5.83257C3.71699 15.8018 2.00249 17.5163 2 19.6319V44.1603C2.00249 46.2759 3.71699 47.9904 5.83257 47.9929H15.0307C17.1463 47.9904 18.8608 46.2759 18.8633 44.1603V38.0282H21.1629C21.5862 38.0282 21.9294 37.685 21.9294 37.2617V34.9622H28.8081C29.7446 35.3627 30.8043 35.3627 31.7407 34.9622H41.8587V37.2617C41.8587 37.685 42.2019 38.0282 42.6252 38.0282H47.2243C47.6476 38.0282 47.9908 37.685 47.9908 37.2617V26.5305C47.9908 26.1072 47.6476 25.764 47.2243 25.764ZM5.06606 46.3189C4.15055 45.9952 3.53705 45.1313 3.53303 44.1603V19.6319C3.53705 18.6609 4.15055 17.797 5.06606 17.4734V46.3189ZM8.13211 46.4599H6.59908V17.3323H8.13211V46.4599ZM11.1982 46.4599H9.66514V17.3323H11.1982V46.4599ZM14.2642 46.4599H12.7312V17.3323H14.2642V46.4599ZM17.3303 26.5305V44.1603C17.3263 45.1313 16.7128 45.9952 15.7973 46.3189V17.4734C16.7128 17.797 17.3263 18.6609 17.3303 19.6319V26.5305ZM20.3963 29.5966V36.4952H18.8633V27.297H20.3963V29.5966ZM21.9294 33.4291V30.3631H26.589C26.5283 30.5751 26.4864 30.7921 26.4641 31.0116C26.4641 31.0392 26.4564 31.0667 26.4533 31.0943C26.4349 31.3117 26.4349 31.5301 26.4533 31.7474C26.4533 31.7811 26.4579 31.8141 26.4618 31.8478C26.485 32.0599 26.526 32.2697 26.5844 32.4748C26.5936 32.5086 26.6036 32.5423 26.6143 32.576C26.6772 32.7798 26.757 32.978 26.8527 33.1685C26.868 33.1984 26.8849 33.2276 26.901 33.2582C26.9316 33.3149 26.9592 33.374 26.993 33.4291H21.9294ZM34.6458 21.7613L36.1145 22.2672L34.9601 24.3919L33.6126 23.6607L34.6458 21.7613ZM30.8623 23.9121L36.2524 26.8371L35.5212 28.1839L32.3417 26.4592L31.4794 25.994L30.1311 25.2596L30.8623 23.9121ZM32.2198 30.2458C32.881 31.3211 32.5454 32.7289 31.47 33.3902C30.8093 33.7964 29.9877 33.8399 29.2879 33.5058C29.2672 33.4958 29.1944 33.4682 29.1729 33.4606C28.057 32.8548 27.6432 31.4593 28.2485 30.3432C28.3046 30.2442 28.3684 30.1499 28.4394 30.0611C28.7015 29.7111 29.0597 29.4447 29.4703 29.2946C29.7061 29.209 29.9539 29.1614 30.2046 29.1535C30.4773 29.1455 30.7251 28.993 30.8554 28.7534L31.4234 27.7056L32.7709 28.4368L32.2007 29.4816C32.0704 29.7216 32.0777 30.0127 32.2198 30.2458ZM38.7927 33.4291H33.5421C33.575 33.3755 33.6064 33.3211 33.6363 33.2651C33.7432 33.064 33.8314 32.8537 33.9 32.6366C33.9115 32.599 33.9253 32.5599 33.936 32.5254C33.996 32.3196 34.0383 32.1091 34.0625 31.8961C34.0671 31.854 34.0702 31.8118 34.074 31.7696C34.0928 31.5514 34.0928 31.3318 34.074 31.1135C34.074 31.0943 34.0679 31.0767 34.0663 31.0576C34.0434 30.8467 34.0031 30.638 33.946 30.4336C33.9399 30.4114 33.9391 30.3876 33.933 30.3654H38.7927V33.4291ZM41.8587 33.4291H40.3257V30.3631H41.8587V33.4291ZM46.4578 36.4952H43.3918V27.297H46.4578V36.4952Z" fill="#F93F20" stroke="white" stroke-width="0.2" mask="url(#path-6-inside-1)"/>
</svg>
