<svg width="50" height="50" viewBox="0 0 50 50" fill="none" xmlns="http://www.w3.org/2000/svg">
<rect width="50" height="50" fill="white"/>
<path d="M36.5347 10.6626L33.327 5.98401C33.1593 5.73975 32.882 5.59375 32.5858 5.59375C32.2896 5.59375 32.0124 5.73975 31.845 5.98401L30.0249 8.63826L25.7412 2.39026C25.5735 2.146 25.2962 2 25 2C24.7038 2 24.4265 2.146 24.2591 2.39026L16.9649 13.0287C14.3128 16.8965 14.7947 22.111 18.1112 25.4271C20.0102 27.3265 22.5051 28.2761 25 28.2761C27.4949 28.2761 29.9898 27.3265 31.8892 25.4271C33.9482 23.3684 34.9653 20.5524 34.7042 17.663C35.1618 17.4377 35.5914 17.1362 35.9715 16.7558C37.6013 15.126 37.8382 12.5633 36.5347 10.6626ZM30.6187 24.1567C27.5205 27.2545 22.4795 27.2549 19.3816 24.1567C16.6768 21.4519 16.2837 17.1994 18.4467 14.0447L25 4.4872L28.9356 10.2267L28.6369 10.6626C27.3335 12.5633 27.5704 15.126 29.2002 16.7558C30.1337 17.689 31.3596 18.1557 32.5858 18.1557C32.7027 18.1557 32.8192 18.1501 32.9361 18.1417C33.0501 20.3864 32.2222 22.5532 30.6187 24.1567ZM34.701 15.4853C33.5348 16.6516 31.6369 16.6516 30.4706 15.4853C29.4525 14.4672 29.3048 12.8662 30.119 11.6786L32.5858 8.0806L35.0527 11.6786C35.8672 12.8662 35.7191 14.4672 34.701 15.4853Z" fill="#F93F20"/>
<path d="M29.1669 48.0001H20.8335C20.3372 48.0001 19.9351 47.5979 19.9351 47.1016V44.4498C18.7608 44.1006 17.6251 43.6297 16.5452 43.0439L14.6687 44.9205C14.5002 45.0889 14.2717 45.1833 14.0334 45.1833C13.7952 45.1833 13.5667 45.0889 13.3982 44.9205L7.50574 39.0276C7.33728 38.8592 7.24252 38.6307 7.24252 38.3924C7.24252 38.1541 7.33728 37.9256 7.50574 37.7572L9.38228 35.8806C8.79619 34.8008 8.32521 33.6654 7.97601 32.4908H5.32422C4.82797 32.4908 4.42578 32.0886 4.42578 31.5924V24.999C4.42578 24.5031 4.82797 24.1006 5.32422 24.1006H14.7719C15.0466 24.1006 15.306 24.2262 15.4766 24.4417C15.6468 24.6572 15.7092 24.9387 15.6461 25.2061C15.4748 25.929 15.3881 26.6759 15.3881 27.4259C15.3881 31.3793 17.8672 34.9868 21.5572 36.4032C22.0204 36.5808 22.252 37.1006 22.0741 37.5638C21.8962 38.0271 21.3768 38.2583 20.9135 38.0804C18.7822 37.2627 16.9611 35.8378 15.6471 33.9606C14.3023 32.0388 13.5912 29.7793 13.5912 27.4259C13.5912 26.9138 13.6256 26.4028 13.6934 25.8975H6.22266V30.6943H8.66037C9.07098 30.6943 9.42966 30.9729 9.53073 31.3713C9.9059 32.8456 10.492 34.2592 11.2736 35.5729C11.4834 35.9263 11.4273 36.3769 11.1367 36.6675L9.41141 38.3924L14.0334 43.0145L15.7587 41.2892C16.0493 40.9989 16.4999 40.9424 16.8533 41.1523C18.167 41.9339 19.5806 42.5203 21.0549 42.8951C21.4533 42.9962 21.7319 43.3549 21.7319 43.7655V46.2032H28.2684V43.7655C28.2684 43.3549 28.5474 42.9962 28.9454 42.8951C30.4201 42.52 31.8337 41.9339 33.1474 41.1523C33.5008 40.9424 33.9514 40.9986 34.242 41.2892L35.9673 43.0145L40.5889 38.3924L38.864 36.6675C38.5734 36.3769 38.5169 35.9259 38.7271 35.5729C39.5084 34.2592 40.0948 32.8456 40.4696 31.3709C40.5707 30.9729 40.9294 30.6939 41.3403 30.6939H43.778V25.8975H36.307C36.3747 26.4028 36.4091 26.9138 36.4091 27.4259C36.4091 29.911 35.6237 32.2736 34.1381 34.2575C32.7023 36.1754 30.6573 37.62 28.3797 38.3254C27.9059 38.4724 27.4026 38.2071 27.2559 37.733C27.1092 37.2592 27.3742 36.7559 27.8483 36.6089C31.8938 35.356 34.6119 31.6654 34.6119 27.4259C34.6119 26.6759 34.5252 25.929 34.3543 25.2061C34.2908 24.9387 34.3532 24.6572 34.5238 24.4417C34.694 24.2266 34.9537 24.1006 35.2285 24.1006H44.6761C45.1724 24.1006 45.5746 24.5031 45.5746 24.999V31.5924C45.5746 32.0886 45.1724 32.4908 44.6761 32.4908H42.024C41.6751 33.6651 41.2042 34.8008 40.6181 35.8806L42.4946 37.7572C42.8456 38.1081 42.8456 38.677 42.4946 39.028L36.6021 44.9205C36.4337 45.0889 36.2052 45.1837 35.9669 45.1837C35.7286 45.1837 35.5001 45.0889 35.3317 44.9205L33.4551 43.0439C32.3753 43.6297 31.2396 44.101 30.0653 44.4498V47.1016C30.0653 47.5979 29.6631 48.0001 29.1669 48.0001Z" fill="#F93F20"/>
<path d="M25 38.835C24.5041 38.835 24.1019 38.4324 24.1019 37.9365C24.1019 37.4403 24.5041 37.0381 25 37.0381H25.0396H25.0453C25.5387 37.0381 25.9405 37.4368 25.9433 37.9309C25.9462 38.4272 25.5464 38.8318 25.0505 38.8346L25 38.835Z" fill="#F93F20"/>
<path d="M25 24.6842C24.5041 24.6842 24.0998 24.282 24.0998 23.7858C24.0998 23.2899 24.5003 22.8877 24.9965 22.8877H25C25.4963 22.8877 25.8985 23.2899 25.8985 23.7858C25.8985 24.282 25.4963 24.6842 25 24.6842Z" fill="#F93F20"/>
<path d="M21.6189 23.455C21.4143 23.455 21.209 23.3855 21.0402 23.2434C20.9061 23.1304 20.7756 23.0103 20.652 22.8864C18.559 20.7937 18.2547 17.5028 19.9287 15.0613C20.2091 14.652 20.7686 14.5478 21.1778 14.8286C21.587 15.109 21.6912 15.6684 21.4105 16.0773C20.2256 17.8054 20.4411 20.1346 21.9225 21.616C22.0106 21.7041 22.1032 21.7894 22.1983 21.8694C22.5777 22.1891 22.6262 22.7559 22.3064 23.1353C22.1285 23.3462 21.8748 23.455 21.6189 23.455Z" fill="#F93F20"/>
</svg>
