<svg width="50" height="50" viewBox="0 0 50 50" fill="none" xmlns="http://www.w3.org/2000/svg">
<rect width="50" height="50" fill="white"/>
<g clip-path="url(#clip0)">
<path d="M45.9133 44.0375L45.6996 44.1819L45.8716 44.374L47.1659 45.8197L47.1659 45.8197C47.4361 46.1215 47.5145 46.4319 47.4815 46.7086C47.4479 46.991 47.2956 47.2577 47.0706 47.4559C46.8456 47.6541 46.5594 47.7735 46.2721 47.7751C45.9905 47.7766 45.6927 47.6652 45.4311 47.373C45.4311 47.373 45.4311 47.373 45.4311 47.373L43.0477 44.7112L42.9806 44.6362H42.8801H42.0926H41.8676V44.8612V46.5961C41.8676 46.9926 41.7196 47.2744 41.5095 47.4598C41.2952 47.6489 41.0028 47.7488 40.7029 47.7493C40.403 47.7498 40.1109 47.6508 39.8969 47.4622C39.6871 47.2773 39.5389 46.9951 39.5389 46.5961V38.7852C39.5389 38.1424 40.0598 37.6209 40.7033 37.6209H43.9553C47.3984 37.6209 48.7785 42.1015 45.9133 44.0375ZM42.0927 39.9495H41.8677V40.1745V42.0825V42.3075H42.0927H43.9553C44.3323 42.3075 44.6312 42.1626 44.8334 41.9331C45.0318 41.708 45.126 41.4144 45.1259 41.1285C45.1259 40.8426 45.0317 40.549 44.8333 40.3239C44.6311 40.0944 44.3322 39.9495 43.9553 39.9495H42.0927Z" fill="#F93F20" stroke="white" stroke-width="0.45"/>
<path d="M8.15712 43.1426C8.00797 43.17 7.8624 43.1941 7.7204 43.2177C6.77054 43.3754 5.98047 43.5066 5.34821 44.3803L5.08994 44.7372H5.53049H9.44878C9.84653 44.7372 10.1285 44.8852 10.3134 45.0951C10.5022 45.3093 10.6015 45.6015 10.6014 45.9014C10.6013 46.2013 10.5018 46.4936 10.3129 46.7079C10.1278 46.9178 9.84598 47.0658 9.44878 47.0658H3.69238C3.21767 47.0658 2.85855 46.7914 2.66414 46.325C2.46657 45.851 2.44626 45.1837 2.68741 44.4626C3.16582 43.032 4.67165 41.4139 7.73743 40.8522L7.73748 40.8522C8.13832 40.7787 8.30566 40.4292 8.2795 40.128C8.25333 39.8266 8.02766 39.5114 7.61923 39.5114H3.69238C3.29463 39.5114 3.01268 39.3634 2.82771 39.1535C2.63897 38.9393 2.53968 38.6471 2.53978 38.3472C2.53988 38.0473 2.63938 37.7549 2.82823 37.5407C3.01331 37.3308 3.29518 37.1828 3.69238 37.1828H7.61923C11.2407 37.1828 11.7225 42.4892 8.15712 43.1426ZM8.15712 43.1426L8.19767 43.364L8.15711 43.1427C8.15711 43.1427 8.15711 43.1426 8.15712 43.1426Z" fill="#F93F20" stroke="white" stroke-width="0.45"/>
<path d="M5.40682 4.77876V4.55376H5.18182H4.47324C4.07708 4.55376 3.79527 4.40586 3.60987 4.19573C3.42072 3.98135 3.32073 3.6889 3.32016 3.38901C3.31959 3.08913 3.41844 2.79704 3.607 2.58302C3.79178 2.37329 4.07401 2.22512 4.47315 2.22512H6.57109C7.21383 2.22512 7.73546 2.74603 7.73546 3.38949V10.9863C7.73546 11.3828 7.58752 11.6647 7.37744 11.8501C7.16309 12.0392 6.87068 12.1391 6.57081 12.1395C6.27094 12.14 5.97881 12.041 5.76475 11.8523C5.55497 11.6674 5.40682 11.3852 5.40682 10.9863V4.77876Z" fill="#F93F20" stroke="white" stroke-width="0.45"/>
<path d="M28.5185 7.0366L28.4265 7.16658L28.5185 7.29654C29.9416 9.30766 28.4968 12.1081 26.0254 12.1081H22.1575C21.7597 12.1081 21.4778 11.96 21.2928 11.7501C21.1041 11.536 21.0048 11.2437 21.0049 10.9438C21.005 10.6439 21.1045 10.3516 21.2933 10.1374C21.4784 9.92741 21.7603 9.77942 22.1575 9.77942H26.0254C26.2521 9.77942 26.4384 9.69137 26.5654 9.54716C26.6887 9.40724 26.7454 9.22737 26.7453 9.05513C26.7453 8.8829 26.6887 8.70305 26.5654 8.56315C26.4383 8.41897 26.2521 8.33088 26.0254 8.33084H26.0254H23.6692C23.2714 8.33084 22.9895 8.1828 22.8045 7.97292C22.6158 7.75875 22.5165 7.4665 22.5166 7.1666C22.5167 6.8667 22.6162 6.57439 22.805 6.36016C22.9901 6.1502 23.272 6.00221 23.6692 6.00221H26.0254C26.2521 6.00221 26.4384 5.91414 26.5654 5.76993C26.6887 5.63 26.7453 5.45011 26.7453 5.27788C26.7453 5.10565 26.6886 4.9258 26.5653 4.78591C26.4383 4.64173 26.2521 4.55364 26.0254 4.55364H22.1575C21.7597 4.55364 21.4778 4.4056 21.2928 4.19571C21.1041 3.98154 21.0048 3.6893 21.0049 3.3894C21.005 3.08949 21.1045 2.79718 21.2933 2.58295C21.4784 2.37299 21.7603 2.225 22.1575 2.225H26.0254C28.5001 2.225 29.9393 5.0287 28.5185 7.0366Z" fill="#F93F20" stroke="white" stroke-width="0.45"/>
<path d="M27.3559 41.2994V41.5244H27.5809H28.3845C28.7822 41.5244 29.0642 41.6724 29.2491 41.8823C29.4379 42.0965 29.5372 42.3887 29.5371 42.6886C29.537 42.9885 29.4375 43.2809 29.2486 43.4951C29.0636 43.7051 28.7817 43.8531 28.3846 43.8531H27.581H27.356V44.0781V46.1576C27.356 46.5554 27.208 46.8373 26.9981 47.0223C26.7839 47.211 26.4917 47.3103 26.1918 47.3102C25.8919 47.3101 25.5996 47.2106 25.3853 47.0218C25.1754 46.8367 25.0274 46.5548 25.0274 46.1576V44.0781V43.8531H24.8024H21.6067C20.9636 43.8531 20.4423 43.3317 20.4423 42.6887V38.6033C20.4423 38.2056 20.5904 37.9236 20.8003 37.7386C21.0144 37.5499 21.3067 37.4506 21.6066 37.4507C21.9065 37.4508 22.1988 37.5503 22.413 37.7392C22.623 37.9242 22.771 38.2061 22.771 38.6033V41.2994V41.5244H22.996H24.8023H25.0273V41.2994V38.6033C25.0273 38.2056 25.1753 37.9236 25.3852 37.7386C25.5994 37.5499 25.8916 37.4506 26.1915 37.4507C26.4914 37.4508 26.7837 37.5503 26.998 37.7392C27.2079 37.9242 27.3559 38.2061 27.3559 38.6033V41.2994Z" fill="#F93F20" stroke="white" stroke-width="0.45"/>
<path d="M42.3086 5.75088L42.279 6.00221H42.5321H44.1328C45.1581 6.00221 45.9107 6.38649 46.4093 6.95057C46.9116 7.51889 47.1677 8.28323 47.1676 9.0551C47.1675 9.82698 46.9112 10.5913 46.4088 11.1597C45.9101 11.7238 45.1577 12.1081 44.1328 12.1081H40.9695C40.5717 12.1081 40.2898 11.96 40.1048 11.7501C39.9161 11.536 39.8168 11.2437 39.8169 10.9438C39.817 10.6439 39.9165 10.3516 40.1053 10.1374C40.2904 9.92741 40.5723 9.77942 40.9695 9.77942H44.1328C44.3614 9.77942 44.5499 9.69263 44.6792 9.54894C44.805 9.40918 44.8634 9.22871 44.8634 9.05518C44.8634 8.88164 44.8051 8.70116 44.6792 8.56138C44.5499 8.41767 44.3614 8.33088 44.1328 8.33084H44.1327H40.9694C40.2726 8.33084 39.7316 7.72168 39.8132 7.03025L39.8132 7.03023L40.2583 3.25302L40.2583 3.253C40.3273 2.66675 40.8241 2.225 41.4145 2.225H46.0322C46.4299 2.225 46.7119 2.37304 46.8968 2.58292C47.0856 2.79709 47.1849 3.08934 47.1848 3.38924C47.1847 3.68914 47.0852 3.98145 46.8963 4.19569C46.7112 4.40565 46.4294 4.55364 46.0322 4.55364H42.6498H42.4497L42.4263 4.75231L42.3086 5.75088Z" fill="#F93F20" stroke="white" stroke-width="0.45"/>
<path d="M42.0712 23.8288H42.2962V23.6038V15.8479C42.2962 15.4502 42.4443 15.1682 42.6542 14.9833C42.8683 14.7945 43.1606 14.6952 43.4605 14.6953C43.7604 14.6954 44.0527 14.7949 44.2669 14.9838C44.4769 15.1689 44.6249 15.4507 44.6249 15.8479V34.1383C44.6249 34.5361 44.4768 34.818 44.2669 35.003C44.0528 35.1917 43.7605 35.291 43.4606 35.2909C43.1607 35.2908 42.8684 35.1913 42.6542 35.0025C42.4442 34.8174 42.2962 34.5355 42.2962 34.1383V26.3825V26.1575H42.0712H30.3287H30.1548L30.1109 26.3258C29.6303 28.1716 28.1739 29.6281 26.3281 30.1086L26.1598 30.1525V30.3264V34.1388C26.1598 34.5367 26.0117 34.8187 25.8019 35.0036C25.5877 35.1923 25.2955 35.2916 24.9956 35.2914C24.6957 35.2912 24.4034 35.1917 24.1891 35.0028C23.9791 34.8177 23.8311 34.5358 23.8311 34.1388V30.3264V30.1525L23.6628 30.1086C21.817 29.628 20.3605 28.1716 19.88 26.3258L19.8362 26.1575H19.6622H7.91969H7.69469V26.3825V34.1383C7.69469 34.5361 7.54665 34.818 7.33676 35.003C7.12259 35.1917 6.83035 35.291 6.53045 35.2909C6.23055 35.2908 5.93823 35.1913 5.724 35.0025C5.51404 34.8174 5.36605 34.5355 5.36605 34.1383V15.8479C5.36605 15.4502 5.51409 15.1682 5.72398 14.9833C5.93815 14.7945 6.23039 14.6952 6.53029 14.6953C6.83019 14.6954 7.12251 14.7949 7.33674 14.9838C7.5467 15.1689 7.69469 15.4507 7.69469 15.8479V23.6038V23.8288H7.91969H19.6622H19.8362L19.88 23.6605C20.3606 21.8146 21.817 20.3581 23.6628 19.8776L23.8311 19.8338V19.6599V15.8475C23.8311 15.4495 23.9792 15.1676 24.1891 14.9826C24.4032 14.7939 24.6954 14.6947 24.9953 14.6948C25.2952 14.695 25.5876 14.7946 25.8018 14.9835C26.0118 15.1686 26.1598 15.4504 26.1598 15.8475V19.6599V19.8338L26.3281 19.8776C28.1739 20.3582 29.6304 21.8147 30.1109 23.6604L30.1548 23.8288H30.3287H42.0712ZM24.9955 27.9505C26.6264 27.9505 27.9528 26.6237 27.9528 24.9931C27.9528 23.3613 26.6251 22.0358 24.9955 22.0358C23.3637 22.0358 22.0382 23.3635 22.0382 24.9931C22.0382 26.6241 23.365 27.9505 24.9955 27.9505Z" fill="#F93F20" stroke="white" stroke-width="0.45"/>
</g>
<defs>
<clipPath id="clip0">
<rect width="46" height="46" fill="white" transform="translate(2 2)"/>
</clipPath>
</defs>
</svg>
