<svg width="50" height="50" viewBox="0 0 50 50" fill="none" xmlns="http://www.w3.org/2000/svg">
<rect width="50" height="50" fill="white"/>
<g clip-path="url(#clip0)">
<path d="M33.6922 40.9739C25.2416 40.9739 18.3716 34.0198 18.3716 25.487C18.3716 16.9541 25.2416 10 33.6922 10C42.1427 10 49.0128 16.9541 49.0128 25.487C49 34.0328 42.13 40.9739 33.6922 40.9739ZM33.6922 10.8611C25.7132 10.8611 19.2256 17.4238 19.2256 25.487C19.2256 33.5501 25.7132 40.1128 33.6922 40.1128C41.6711 40.1128 48.1588 33.5501 48.1588 25.487C48.1588 17.4238 41.6711 10.8611 33.6922 10.8611Z" fill="#F93F20"/>
<path d="M33.6922 37.7385C27.0133 37.7385 21.5836 32.2457 21.5836 25.4873C21.5836 20.9208 24.069 16.7718 28.0712 14.6451C28.2752 14.5407 28.5301 14.619 28.6448 14.8278C28.7468 15.0365 28.6703 15.2975 28.4664 15.4149C24.7445 17.398 22.4375 21.26 22.4375 25.5003C22.4375 31.776 27.4849 36.8774 33.7049 36.8774C39.9122 36.8774 44.9723 31.776 44.9723 25.5003C44.9723 19.2246 39.9249 14.1232 33.7049 14.1232C32.5833 14.1232 31.4871 14.2928 30.4292 14.619C30.1998 14.6842 29.9704 14.5538 29.9066 14.332C29.8429 14.0971 29.9704 13.8623 30.1871 13.797C31.3214 13.4448 32.5068 13.2751 33.7049 13.2751C40.3838 13.2751 45.8135 18.768 45.8135 25.5264C45.8135 32.2848 40.371 37.7385 33.6922 37.7385Z" fill="#F93F20"/>
<path d="M33.6922 33.9156C29.1037 33.9156 25.3564 30.1319 25.3564 25.4872C25.3564 20.8424 29.0909 17.0587 33.6922 17.0587C38.2807 17.0587 42.028 20.8424 42.028 25.4872C42.0153 30.1319 38.2807 33.9156 33.6922 33.9156ZM33.6922 17.9329C29.5625 17.9329 26.2103 21.3251 26.2103 25.4872C26.2103 29.6492 29.5625 33.0415 33.6922 33.0415C37.8219 33.0415 41.174 29.6492 41.174 25.4872C41.174 21.3251 37.8091 17.9329 33.6922 17.9329Z" fill="#F93F20"/>
<path d="M14.3948 41.0008H5.37074C4.07066 41.0008 3 39.9178 3 38.574V12.4536C3 11.1228 4.07066 10.0269 5.37074 10.0269H14.3821C15.6949 10.0269 16.7528 11.1228 16.7528 12.4536V38.574C16.7656 39.9178 15.6949 41.0008 14.3948 41.0008ZM5.37074 10.901C4.52951 10.901 3.84123 11.6056 3.84123 12.4667V38.574C3.84123 39.4351 4.52951 40.1397 5.37074 40.1397H14.3821C15.2233 40.1397 15.9116 39.4351 15.9116 38.574V12.4536C15.9116 11.5925 15.2233 10.888 14.3821 10.888H5.37074V10.901Z" fill="#F93F20"/>
<path d="M12.5849 10.4567H11.7437V40.5695H12.5849V10.4567Z" fill="#F93F20"/>
<path d="M8.02189 10.4567H7.18066V40.5695H8.02189V10.4567Z" fill="#F93F20"/>
<path d="M9.88283 39.0824C9.65341 39.0824 9.46222 38.8867 9.46222 38.6519V12.401C9.46222 12.1662 9.65341 11.9705 9.88283 11.9705C10.1123 11.9705 10.3035 12.1662 10.3035 12.401V38.6519C10.3035 38.8867 10.1123 39.0824 9.88283 39.0824Z" fill="#F93F20"/>
<path d="M3.42064 14.932C3.31867 14.932 3.2167 14.8929 3.12748 14.8146C2.96178 14.645 2.94904 14.371 3.10199 14.2014L5.20506 11.892C5.37076 11.7224 5.63843 11.7094 5.80412 11.8659C5.96982 12.0355 5.98257 12.3095 5.82961 12.4792L3.73928 14.7885C3.65006 14.8798 3.53535 14.932 3.42064 14.932Z" fill="#F93F20"/>
<path d="M3.42064 18.0242C3.31867 18.0242 3.2167 17.985 3.12748 17.9068C2.96178 17.7371 2.94904 17.4631 3.10199 17.2935L5.20506 14.9842C5.37076 14.8146 5.63843 14.8015 5.80412 14.9581C5.96982 15.1277 5.98257 15.4017 5.82961 15.5713L3.73928 17.8807C3.65006 17.972 3.53535 18.0242 3.42064 18.0242Z" fill="#F93F20"/>
<path d="M3.42064 21.1161C3.31867 21.1161 3.2167 21.077 3.12748 20.9987C2.96178 20.8291 2.94904 20.5551 3.10199 20.3855L5.20506 18.0761C5.37076 17.9065 5.63843 17.8935 5.80412 18.05C5.96982 18.2196 5.98257 18.4936 5.82961 18.6632L3.73928 20.9726C3.65006 21.0639 3.53535 21.1161 3.42064 21.1161Z" fill="#F93F20"/>
<path d="M3.42064 24.2089C3.31867 24.2089 3.2167 24.1697 3.12748 24.0914C2.96178 23.9218 2.94904 23.6478 3.10199 23.4782L5.20506 21.1689C5.37076 20.9993 5.63843 20.9862 5.80412 21.1428C5.96982 21.3124 5.98257 21.5864 5.82961 21.756L3.73928 24.0653C3.65006 24.1567 3.53535 24.2089 3.42064 24.2089Z" fill="#F93F20"/>
<path d="M3.42064 27.2876C3.31867 27.2876 3.2167 27.2485 3.12748 27.1702C2.96178 27.0006 2.94904 26.7266 3.10199 26.557L5.20506 24.2476C5.37076 24.078 5.63843 24.065 5.80412 24.2215C5.96982 24.3911 5.98257 24.6651 5.82961 24.8347L3.73928 27.1571C3.65006 27.2485 3.53535 27.2876 3.42064 27.2876Z" fill="#F93F20"/>
<path d="M3.42064 30.3795C3.31867 30.3795 3.2167 30.3404 3.12748 30.2621C2.96178 30.0925 2.94904 29.8185 3.10199 29.6489L5.20506 27.3395C5.37076 27.1699 5.63843 27.1569 5.80412 27.3134C5.96982 27.4831 5.98257 27.757 5.82961 27.9267L3.73928 30.2491C3.65006 30.3404 3.53535 30.3795 3.42064 30.3795Z" fill="#F93F20"/>
<path d="M3.42064 33.4723C3.31867 33.4723 3.2167 33.4332 3.12748 33.3549C2.96178 33.1853 2.94904 32.9113 3.10199 32.7417L5.20506 30.4323C5.37076 30.2627 5.63843 30.2497 5.80412 30.4062C5.96982 30.5758 5.98257 30.8498 5.82961 31.0194L3.73928 33.3418C3.65006 33.4332 3.53535 33.4723 3.42064 33.4723Z" fill="#F93F20"/>
<path d="M3.42064 36.5642C3.31867 36.5642 3.2167 36.5251 3.12748 36.4468C2.96178 36.2772 2.94904 36.0032 3.10199 35.8336L5.20506 33.5242C5.37076 33.3546 5.63843 33.3416 5.80412 33.4981C5.96982 33.6677 5.98257 33.9417 5.82961 34.1114L3.73928 36.4207C3.65006 36.512 3.53535 36.5642 3.42064 36.5642Z" fill="#F93F20"/>
<path d="M3.52263 39.5389C3.42066 39.5389 3.31869 39.4998 3.22947 39.4215C3.06377 39.2519 3.05103 38.9779 3.20398 38.8083L5.21783 36.6164C5.38353 36.4468 5.65119 36.4337 5.81689 36.5903C5.98259 36.7599 5.99533 37.0339 5.84238 37.2035L3.82853 39.4085C3.75205 39.4998 3.63734 39.5389 3.52263 39.5389Z" fill="#F93F20"/>
<path d="M16.345 14.9315C16.2303 14.9315 16.1156 14.8793 16.0391 14.788L13.9233 12.4786C13.7576 12.309 13.7703 12.035 13.9487 11.8654C14.1144 11.6958 14.3821 11.7089 14.5478 11.8915L16.6509 14.2009C16.8166 14.3705 16.8038 14.6445 16.6254 14.8141C16.5489 14.8924 16.4469 14.9315 16.345 14.9315Z" fill="#F93F20"/>
<path d="M16.345 18.0237C16.2303 18.0237 16.1156 17.9715 16.0391 17.8802L13.9233 15.5708C13.7576 15.4012 13.7703 15.1272 13.9487 14.9576C14.1144 14.788 14.3821 14.801 14.5478 14.9837L16.6509 17.293C16.8166 17.4626 16.8038 17.7366 16.6254 17.9062C16.5489 17.9845 16.4469 18.0237 16.345 18.0237Z" fill="#F93F20"/>
<path d="M16.345 21.1156C16.2303 21.1156 16.1156 21.0634 16.0391 20.9721L13.9233 18.6627C13.7576 18.4931 13.7703 18.2191 13.9487 18.0495C14.1144 17.8799 14.3821 17.893 14.5478 18.0756L16.6509 20.385C16.8166 20.5546 16.8038 20.8286 16.6254 20.9982C16.5489 21.0765 16.4469 21.1156 16.345 21.1156Z" fill="#F93F20"/>
<path d="M16.345 24.2084C16.2303 24.2084 16.1156 24.1562 16.0391 24.0648L13.9233 21.7555C13.7576 21.5859 13.7703 21.3119 13.9487 21.1423C14.1144 20.9727 14.3821 20.9857 14.5478 21.1684L16.6509 23.4777C16.8166 23.6473 16.8038 23.9213 16.6254 24.0909C16.5489 24.1692 16.4469 24.2084 16.345 24.2084Z" fill="#F93F20"/>
<path d="M16.345 27.2871C16.2303 27.2871 16.1156 27.2349 16.0391 27.1436L13.936 24.8342C13.7703 24.6646 13.7831 24.3906 13.9615 24.221C14.1272 24.0514 14.3949 24.0645 14.5606 24.2471L16.6636 26.5565C16.8293 26.7261 16.8166 27.0001 16.6381 27.1697C16.5489 27.248 16.447 27.2871 16.345 27.2871Z" fill="#F93F20"/>
<path d="M16.345 30.379C16.2303 30.379 16.1156 30.3268 16.0391 30.2355L13.936 27.9262C13.7703 27.7565 13.7831 27.4826 13.9615 27.3129C14.1272 27.1433 14.3949 27.1564 14.5606 27.339L16.6636 29.6484C16.8293 29.818 16.8166 30.092 16.6381 30.2616C16.5489 30.3399 16.447 30.379 16.345 30.379Z" fill="#F93F20"/>
<path d="M16.345 33.4718C16.2303 33.4718 16.1156 33.4196 16.0391 33.3283L13.936 31.0189C13.7703 30.8493 13.7831 30.5753 13.9615 30.4057C14.1272 30.2361 14.3949 30.2492 14.5606 30.4318L16.6636 32.7412C16.8293 32.9108 16.8166 33.1848 16.6381 33.3544C16.5489 33.4327 16.447 33.4718 16.345 33.4718Z" fill="#F93F20"/>
<path d="M16.345 36.5637C16.2303 36.5637 16.1156 36.5115 16.0391 36.4202L13.936 34.1109C13.7703 33.9412 13.7831 33.6672 13.9615 33.4976C14.1272 33.328 14.3949 33.3411 14.5606 33.5237L16.6636 35.8331C16.8293 36.0027 16.8166 36.2767 16.6381 36.4463C16.5489 36.5246 16.447 36.5637 16.345 36.5637Z" fill="#F93F20"/>
<path d="M16.243 39.5383C16.1283 39.5383 16.0136 39.4861 15.9371 39.3948L13.936 37.1898C13.7703 37.0202 13.7831 36.7462 13.9615 36.5766C14.1272 36.4201 14.3949 36.4201 14.5606 36.6027L16.5617 38.8077C16.7274 38.9773 16.7146 39.2513 16.5362 39.4209C16.447 39.4992 16.345 39.5383 16.243 39.5383Z" fill="#F93F20"/>
<path d="M29.5753 12.9617C29.486 12.9617 29.3968 12.9356 29.3203 12.8703L27.9565 11.8266C27.7653 11.683 27.7271 11.409 27.8673 11.2264C28.0075 11.0307 28.2752 10.9915 28.4536 11.1351L29.8174 12.1788C30.0086 12.3223 30.0469 12.5963 29.9066 12.779C29.8302 12.8964 29.7027 12.9617 29.5753 12.9617Z" fill="#F93F20"/>
<path d="M27.4212 13.8753C27.3575 13.8753 27.2938 13.8623 27.23 13.8231L25.7133 13.0272C25.5093 12.9229 25.4201 12.6619 25.5221 12.4401C25.624 12.2314 25.879 12.14 26.0956 12.2444L27.6124 13.0403C27.8163 13.1447 27.9056 13.4056 27.8036 13.6274C27.7144 13.797 27.5742 13.8753 27.4212 13.8753Z" fill="#F93F20"/>
<path d="M25.4456 15.1668C25.4074 15.1668 25.3691 15.1668 25.3181 15.1537L23.6867 14.6449C23.4572 14.5797 23.3425 14.3318 23.4062 14.11C23.47 13.8751 23.7121 13.7577 23.9288 13.8229L25.5603 14.3318C25.7897 14.397 25.9044 14.6449 25.8407 14.8667C25.7897 15.0363 25.624 15.1668 25.4456 15.1668Z" fill="#F93F20"/>
<path d="M23.7249 16.7714C23.7121 16.7714 23.6866 16.7714 23.6739 16.7714L21.9787 16.5496C21.7493 16.5235 21.5836 16.3017 21.6091 16.0668C21.6346 15.832 21.8512 15.6623 22.0807 15.6884L23.7759 15.9102C24.0053 15.9363 24.171 16.1581 24.1455 16.393C24.1073 16.6148 23.9288 16.7714 23.7249 16.7714Z" fill="#F93F20"/>
<path d="M20.5894 18.7417C20.36 18.7417 20.1815 18.559 20.1688 18.3241C20.156 18.0893 20.3345 17.8805 20.5766 17.8675L22.2846 17.7762C22.514 17.7631 22.7179 17.9458 22.7307 18.1937C22.7434 18.4285 22.565 18.6373 22.3228 18.6503L20.6149 18.7417C20.6021 18.7417 20.6021 18.7417 20.5894 18.7417Z" fill="#F93F20"/>
<path d="M19.557 21.1552C19.3658 21.1552 19.1873 21.0247 19.1491 20.816C19.0981 20.5811 19.2383 20.3463 19.4677 20.2941L21.1375 19.9157C21.3669 19.8635 21.5963 20.0071 21.6473 20.2419C21.6983 20.4768 21.5581 20.7116 21.3286 20.7638L19.6589 21.1422C19.6207 21.1552 19.5825 21.1552 19.557 21.1552Z" fill="#F93F20"/>
<path d="M18.9579 23.7122C18.7922 23.7122 18.6393 23.6078 18.5628 23.4512C18.4736 23.2294 18.5755 22.9815 18.7922 22.8902L20.3727 22.2248C20.5894 22.1335 20.8316 22.2379 20.9208 22.4597C21.01 22.6815 20.908 22.9294 20.6914 23.0207L19.1109 23.6861C19.0599 23.6991 19.0089 23.7122 18.9579 23.7122Z" fill="#F93F20"/>
<path d="M18.7922 26.3223C18.652 26.3223 18.5118 26.2571 18.4353 26.1266C18.3079 25.9309 18.3716 25.6569 18.5628 25.5264L20.0031 24.587C20.1943 24.4566 20.4619 24.5218 20.5894 24.7175C20.7168 24.9132 20.6531 25.1872 20.4619 25.3177L19.0216 26.2571C18.9579 26.3093 18.8687 26.3223 18.7922 26.3223Z" fill="#F93F20"/>
<path d="M19.0853 28.9314C18.9706 28.9314 18.8559 28.8792 18.7667 28.7879C18.6137 28.6052 18.6265 28.3313 18.7922 28.1747L20.0413 27.0005C20.2197 26.8439 20.4874 26.8569 20.6403 27.0266C20.7933 27.2092 20.7805 27.4832 20.6148 27.6398L19.3657 28.814C19.2893 28.8923 19.1873 28.9314 19.0853 28.9314Z" fill="#F93F20"/>
<path d="M19.8246 31.4498C19.7354 31.4498 19.6462 31.4237 19.5697 31.3584C19.3785 31.2149 19.353 30.9409 19.4932 30.7452L20.5257 29.3622C20.6659 29.1665 20.9335 29.1404 21.1247 29.284C21.3159 29.4275 21.3414 29.7015 21.2012 29.8972L20.1688 31.2802C20.0796 31.3976 19.9521 31.4498 19.8246 31.4498Z" fill="#F93F20"/>
<path d="M20.9845 33.7978C20.9208 33.7978 20.857 33.7848 20.7933 33.7456C20.5894 33.6413 20.5001 33.3673 20.6149 33.1585L21.3924 31.619C21.4943 31.4102 21.762 31.3189 21.9659 31.4363C22.1699 31.5407 22.2591 31.8147 22.1444 32.0234L21.3669 33.563C21.2904 33.7196 21.1374 33.7978 20.9845 33.7978Z" fill="#F93F20"/>
<path d="M22.5395 35.9116C22.5013 35.9116 22.4503 35.9116 22.4121 35.8855C22.1826 35.8202 22.0679 35.5723 22.1316 35.3375L22.6415 33.6805C22.7052 33.4457 22.9474 33.3282 23.1768 33.3935C23.4062 33.4587 23.5209 33.7066 23.4572 33.9415L22.9474 35.5984C22.8837 35.7941 22.718 35.9116 22.5395 35.9116Z" fill="#F93F20"/>
<path d="M24.4259 37.7122C24.4132 37.7122 24.3877 37.7122 24.3749 37.7122C24.1455 37.6861 23.9798 37.4643 24.0053 37.2295L24.222 35.5203C24.2475 35.2855 24.4642 35.1158 24.6936 35.1419C24.923 35.168 25.0887 35.3898 25.0632 35.6247L24.8465 37.3338C24.8083 37.5557 24.6299 37.7122 24.4259 37.7122Z" fill="#F93F20"/>
<path d="M26.5927 39.1605C26.3633 39.1605 26.1848 38.9779 26.1721 38.743L26.0829 37.0208C26.0701 36.7859 26.2486 36.5772 26.4907 36.5641C26.7202 36.5511 26.9241 36.7337 26.9368 36.9816L27.0261 38.7039C27.0388 38.9387 26.8604 39.1475 26.6182 39.1605C26.6054 39.1605 26.5927 39.1605 26.5927 39.1605Z" fill="#F93F20"/>
<path d="M28.9635 40.2041C28.7723 40.2041 28.5939 40.0736 28.5556 39.8648L28.1732 38.1818C28.1222 37.9469 28.2625 37.7121 28.4919 37.6599C28.7213 37.6077 28.9507 37.7512 29.0017 37.986L29.3841 39.6691C29.4351 39.904 29.2949 40.1388 29.0655 40.191C29.0272 40.2041 29.0017 40.2041 28.9635 40.2041Z" fill="#F93F20"/>
<path d="M31.4999 40.8173C31.3342 40.8173 31.1813 40.713 31.1048 40.5564L30.442 38.9647C30.3528 38.7429 30.4547 38.495 30.6714 38.3906C30.8881 38.2993 31.1303 38.4036 31.2323 38.6254L31.895 40.2172C31.9843 40.439 31.8823 40.6869 31.6656 40.7913C31.6019 40.8043 31.5509 40.8173 31.4999 40.8173Z" fill="#F93F20"/>
<path d="M34.0873 40.9736C33.9471 40.9736 33.8197 40.9083 33.7304 40.7779L32.8 39.3296C32.6725 39.1339 32.7235 38.8599 32.9274 38.7295C33.1186 38.599 33.3863 38.6512 33.5138 38.8599L34.4442 40.3082C34.5717 40.5039 34.5207 40.7779 34.3168 40.9083C34.253 40.9475 34.1638 40.9736 34.0873 40.9736Z" fill="#F93F20"/>
<path d="M36.662 40.6738C36.5473 40.6738 36.4326 40.6216 36.3561 40.5434L35.1962 39.2778C35.0305 39.1082 35.0433 38.8342 35.209 38.6646C35.3746 38.495 35.6423 38.508 35.808 38.6776L36.9679 39.9432C37.1336 40.1128 37.1208 40.3868 36.9551 40.5564C36.8787 40.6347 36.7767 40.6738 36.662 40.6738Z" fill="#F93F20"/>
<path d="M39.1602 39.93C39.071 39.93 38.9817 39.9039 38.9053 39.8387L37.5414 38.7949C37.3502 38.6514 37.312 38.3774 37.4522 38.1948C37.5924 37.9991 37.8601 37.9599 38.0385 38.1034L39.4024 39.1472C39.5935 39.2907 39.6318 39.5647 39.4916 39.7474C39.4151 39.8648 39.2876 39.93 39.1602 39.93Z" fill="#F93F20"/>
<path d="M41.4799 38.756C41.4162 38.756 41.3525 38.743 41.2887 38.7039L39.772 37.908C39.568 37.8036 39.4788 37.5427 39.5808 37.3209C39.6828 37.1121 39.9377 37.0208 40.1544 37.1252L41.6711 37.921C41.8751 38.0254 41.9643 38.2864 41.8623 38.5082C41.7858 38.6647 41.6329 38.756 41.4799 38.756Z" fill="#F93F20"/>
<path d="M43.5703 37.1905C43.532 37.1905 43.4938 37.1905 43.4428 37.1774L41.8113 36.6686C41.5819 36.6033 41.4672 36.3554 41.5309 36.1336C41.5946 35.8988 41.8368 35.7814 42.0535 35.8466L43.685 36.3554C43.9144 36.4207 44.0291 36.6686 43.9654 36.8904C43.9144 37.073 43.7487 37.1905 43.5703 37.1905Z" fill="#F93F20"/>
<path d="M45.3547 35.2855C45.3419 35.2855 45.3164 35.2855 45.3037 35.2855L43.6085 35.0637C43.3791 35.0376 43.2134 34.8158 43.2389 34.581C43.2643 34.3461 43.481 34.1765 43.7105 34.2026L45.4057 34.4244C45.6351 34.4505 45.8008 34.6723 45.7753 34.9071C45.7498 35.1289 45.5586 35.2855 45.3547 35.2855Z" fill="#F93F20"/>
<path d="M45.0743 33.1849C44.8448 33.1849 44.6664 33.0022 44.6537 32.7674C44.6409 32.5325 44.8194 32.3238 45.0615 32.3107L46.7695 32.2194C46.9989 32.2064 47.2028 32.389 47.2156 32.6369C47.2283 32.8718 47.0499 33.0805 46.8077 33.0936L45.0998 33.1849C45.087 33.1849 45.087 33.1849 45.0743 33.1849Z" fill="#F93F20"/>
<path d="M46.1449 31.0712C45.9538 31.0712 45.7753 30.9408 45.7371 30.732C45.6861 30.4971 45.8263 30.2623 46.0557 30.2101L47.7254 29.8317C47.9549 29.7796 48.1843 29.9231 48.2353 30.1579C48.2863 30.3928 48.1461 30.6276 47.9166 30.6798L46.2469 31.0582C46.2087 31.0712 46.1832 31.0712 46.1449 31.0712Z" fill="#F93F20"/>
<path d="M46.846 28.8007C46.6803 28.8007 46.5273 28.6963 46.4509 28.5397C46.3616 28.3179 46.4636 28.07 46.6803 27.9787L48.2608 27.3133C48.4775 27.222 48.7196 27.3264 48.8089 27.5482C48.8981 27.77 48.7961 28.0179 48.5794 28.1092L46.9989 28.7746C46.9607 28.8007 46.897 28.8007 46.846 28.8007Z" fill="#F93F20"/>
<path d="M47.1391 26.4528C46.9989 26.4528 46.8587 26.3876 46.7823 26.2571C46.6548 26.0614 46.7185 25.7874 46.9097 25.6569L48.35 24.7175C48.5412 24.5871 48.8088 24.6523 48.9363 24.848C49.0638 25.0437 49 25.3177 48.8088 25.4482L47.3686 26.3876C47.2921 26.4267 47.2156 26.4528 47.1391 26.4528Z" fill="#F93F20"/>
<path d="M47.0244 24.078C46.9097 24.078 46.795 24.0259 46.7057 23.9345C46.5528 23.7519 46.5655 23.4779 46.7312 23.3213L47.9803 22.1471C48.1588 21.9905 48.4264 22.0035 48.5794 22.1732C48.7323 22.3558 48.7196 22.6298 48.5539 22.7864L47.3048 23.9606C47.2283 24.0519 47.1264 24.078 47.0244 24.078Z" fill="#F93F20"/>
<path d="M46.5145 21.7683C46.4253 21.7683 46.3361 21.7422 46.2596 21.6769C46.0684 21.5334 46.0429 21.2594 46.1832 21.0637L47.2156 19.6807C47.3558 19.485 47.6234 19.4589 47.8146 19.6024C48.0058 19.7459 48.0313 20.0199 47.8911 20.2156L46.8459 21.5986C46.7567 21.7161 46.642 21.7683 46.5145 21.7683Z" fill="#F93F20"/>
<path d="M45.5969 19.5764C45.5331 19.5764 45.4694 19.5634 45.4057 19.5242C45.2017 19.4198 45.1125 19.1458 45.2272 18.9371L46.0047 17.3975C46.1067 17.1888 46.3743 17.0974 46.5783 17.2149C46.7822 17.3192 46.8714 17.5932 46.7567 17.802L45.9792 19.3416C45.9028 19.4981 45.7498 19.5764 45.5969 19.5764Z" fill="#F93F20"/>
<path d="M44.335 17.5936C44.2968 17.5936 44.2458 17.5936 44.2076 17.5675C43.9781 17.5022 43.8634 17.2544 43.9272 17.0195L44.437 15.3625C44.5007 15.1277 44.7429 15.0102 44.9723 15.0755C45.2017 15.1407 45.3165 15.3886 45.2527 15.6235L44.7429 17.2804C44.6792 17.4631 44.5135 17.5936 44.335 17.5936Z" fill="#F93F20"/>
<path d="M42.7418 15.8449C42.729 15.8449 42.7035 15.8449 42.6908 15.8449C42.4614 15.8188 42.2957 15.597 42.3212 15.3622L42.5378 13.653C42.5633 13.4181 42.78 13.2485 43.0094 13.2746C43.2389 13.3007 43.4046 13.5225 43.3791 13.7574L43.1624 15.4665C43.1369 15.6883 42.9457 15.8449 42.7418 15.8449Z" fill="#F93F20"/>
<path d="M40.8681 14.4101C40.6387 14.4101 40.4603 14.2275 40.4475 13.9926L40.3583 12.2704C40.3456 12.0356 40.524 11.8268 40.7662 11.8138C40.9956 11.8007 41.1995 11.9834 41.2123 12.2313L41.3015 13.9535C41.3143 14.1883 41.1358 14.3971 40.8936 14.4101C40.8809 14.4101 40.8809 14.4101 40.8681 14.4101Z" fill="#F93F20"/>
<path d="M38.7778 13.3271C38.5866 13.3271 38.4082 13.1966 38.3699 12.9879L37.9876 11.3048C37.9366 11.07 38.0768 10.8351 38.3062 10.7829C38.5356 10.7307 38.7651 10.8742 38.816 11.1091L39.1984 12.7922C39.2494 13.027 39.1092 13.2619 38.8798 13.3141C38.8415 13.3141 38.816 13.3271 38.7778 13.3271Z" fill="#F93F20"/>
<path d="M36.5472 12.6222C36.3815 12.6222 36.2286 12.5178 36.1521 12.3612L35.4893 10.7695C35.4001 10.5477 35.5021 10.2998 35.7188 10.1954C35.9354 10.1041 36.1776 10.2084 36.2796 10.4302L36.9424 12.022C37.0316 12.2438 36.9296 12.4917 36.7129 12.5961C36.6492 12.6091 36.5982 12.6222 36.5472 12.6222Z" fill="#F93F20"/>
<path d="M34.2148 12.3223C34.0746 12.3223 33.9471 12.2571 33.8579 12.1266L32.9275 10.6784C32.8 10.4827 32.851 10.2087 33.0549 10.0782C33.2461 9.94774 33.5138 9.99993 33.6412 10.2087L34.5717 11.6569C34.6991 11.8526 34.6482 12.1266 34.4442 12.2571C34.3677 12.2962 34.2913 12.3223 34.2148 12.3223Z" fill="#F93F20"/>
<path d="M31.8695 12.4399C31.7548 12.4399 31.6401 12.3877 31.5636 12.3095L30.4038 11.0308C30.2381 10.8612 30.2508 10.5872 30.4165 10.4176C30.5822 10.248 30.8499 10.2611 31.0156 10.4307L32.1754 11.6962C32.3411 11.8659 32.3284 12.1398 32.1627 12.3095C32.0735 12.4008 31.9715 12.4399 31.8695 12.4399Z" fill="#F93F20"/>
</g>
<defs>
<clipPath id="clip0">
<rect width="46" height="31" fill="white" transform="translate(3 10)"/>
</clipPath>
</defs>
</svg>
