<svg width="50" height="50" viewBox="0 0 50 50" fill="none" xmlns="http://www.w3.org/2000/svg">
<rect width="50" height="50" fill="white"/>
<g clip-path="url(#clip0)">
<path d="M20.5705 28.3059C20.5705 25.8579 22.5614 23.8669 25.0084 23.8669C27.4565 23.8669 29.447 25.8578 29.447 28.3059C29.447 30.7529 27.4564 32.7434 25.0084 32.7434L20.5705 28.3059ZM20.5705 28.3059C20.5705 30.7528 22.5614 32.7438 25.0084 32.7434L20.5705 28.3059ZM47.2301 31.3922L47.2301 31.3924C48.1933 34.3641 47.8072 37.7 46.1615 40.5436L46.1615 40.5437C44.5164 43.3873 41.8164 45.3857 38.7604 46.0311L38.7603 46.0311L38.1659 46.1568L27.1481 34.7295L27.0424 34.6199L26.8964 34.6636C26.2982 34.8426 25.665 34.9377 25.0084 34.9377C24.3459 34.9377 23.7066 34.8399 23.1039 34.6584L22.9582 34.6145L22.8523 34.7238L20.7705 36.872L20.5263 37.1239L20.8441 37.2725C22.0394 37.831 23.3634 38.1562 24.7584 38.1909V40.3858C22.7119 40.3441 20.7893 39.7914 19.1127 38.8495L18.9448 38.7552L18.8108 38.8934L16.7721 40.996L16.5573 41.2175L16.8186 41.3817C19.2064 42.8817 22.0231 43.7433 25.0084 43.7433C25.9911 43.7433 26.9714 43.6514 27.9279 43.4684L28.3755 45.6169C27.2726 45.8302 26.1414 45.9376 25.0084 45.9376C21.4838 45.9376 18.0649 44.8856 15.1739 42.9412L15.0004 42.8246L14.8549 42.9746L11.8032 46.1216L11.2087 45.9944C11.2087 45.9944 11.2086 45.9944 11.2086 45.9944C8.15432 45.34 5.46049 43.3348 3.82267 40.4867C2.18482 37.6378 1.80738 34.3009 2.77909 31.332L2.77912 31.3319L2.96805 30.754L12.7378 28.3355L12.9245 28.2893L12.9277 28.0969C12.9545 26.4636 13.302 24.8878 13.9611 23.4054L15.9483 24.3379C15.5203 25.3117 15.2571 26.3354 15.1623 27.3942L15.131 27.7435L15.4713 27.6592L18.3769 26.9398L18.5245 26.9032L18.5599 26.7553C18.8634 25.4882 19.5339 24.3605 20.4519 23.4912L20.5622 23.3868L20.5203 23.2408L19.6949 20.3612L19.5982 20.0237L19.3109 20.2256C18.7689 20.6063 18.2624 21.0443 17.8017 21.5343L16.1652 20.0719C16.9473 19.2324 17.8387 18.5165 18.807 17.9371L18.9719 17.8384L18.919 17.6537L18.1054 14.8138L18.0205 14.5174L17.7481 14.6617C14.3106 16.4829 11.6177 19.5862 10.3406 23.476L8.24511 22.8243C9.36391 19.4059 11.5632 16.3412 14.4583 14.1767L14.4584 14.1766C15.3351 13.5204 16.2598 12.9536 17.2223 12.4782L17.4094 12.3857L17.3519 12.1851L16.146 7.97711L16.5526 7.52593L16.5527 7.5258C18.6422 5.20391 21.7228 3.86707 25.0084 3.86707C28.294 3.86707 31.3756 5.20393 33.4651 7.5258L33.4652 7.52587L33.8715 7.97705L29.4965 23.2398L29.4546 23.3858L29.5649 23.4902C30.488 24.3639 31.1605 25.4986 31.4623 26.7736L31.4974 26.9216L31.6449 26.9586L34.5476 27.685L34.8891 27.7705L34.8573 27.42C34.6859 25.5267 33.9709 23.7103 32.796 22.2111L34.4891 20.8136C36.1332 22.8928 37.0508 25.4742 37.0891 28.1298L37.0919 28.322L37.2784 28.3687L40.1263 29.0818L40.4241 29.1564L40.4369 28.8497C40.4444 28.6683 40.4469 28.4867 40.4469 28.3059C40.4469 23.9742 38.6218 19.8372 35.4295 16.9152L36.8851 15.273C40.5462 18.6113 42.6412 23.3467 42.6412 28.3059C42.6412 28.704 42.629 29.0977 42.6024 29.4895L42.5883 29.6982L42.7911 29.749L47.0429 30.8138L47.2301 31.3922ZM29.2699 33.3833L29.065 33.5555L29.2508 33.7482L38.7784 43.631L38.885 43.7416L39.0317 43.6965C41.1882 43.0347 43.0644 41.5148 44.2625 39.445L44.2626 39.445C45.4599 37.3748 45.8422 34.9897 45.3417 32.791L45.3076 32.6413L45.1587 32.604L31.846 29.271L31.5861 29.2059L31.5391 29.4697C31.2616 31.0304 30.4363 32.4033 29.2699 33.3833ZM18.7089 8.45984L18.5964 8.56432L18.6387 8.71193L22.4195 21.9049L22.4935 22.163L22.7456 22.0709C23.4513 21.813 24.2136 21.6726 25.0084 21.6726C25.8032 21.6726 26.5655 21.813 27.2712 22.0709L27.5233 22.163L27.5973 21.9049L31.3781 8.71193L31.4204 8.56437L31.3079 8.4599C29.6563 6.92544 27.4003 6.06133 25.0084 6.06133C22.6175 6.06133 20.3615 6.92546 18.7089 8.45984ZM10.9441 43.6584L11.0907 43.7038L11.1975 43.5936L20.7533 33.7371L20.9397 33.5448L20.735 33.372C19.5704 32.3895 18.7492 31.014 18.476 29.4518L18.4299 29.1878L18.1697 29.2522L4.8472 32.5498L4.69818 32.5866L4.66367 32.7362C4.15662 34.9336 4.53353 37.3195 5.72513 39.3924C6.91677 41.4655 8.78938 42.9912 10.9441 43.6584Z" fill="#F93F20" stroke="white" stroke-width="0.5"/>
</g>
<defs>
<clipPath id="clip0">
<rect width="46" height="46" fill="white" transform="translate(2 2)"/>
</clipPath>
</defs>
</svg>
