<svg width="50" height="50" viewBox="0 0 50 50" fill="none" xmlns="http://www.w3.org/2000/svg">
<g clip-path="url(#clip0)">
<rect width="50" height="50" fill="white"/>
<path d="M24.9615 2.93464C30.8555 2.93464 36.3964 5.22972 40.5642 9.39739C44.7318 13.5651 47.0269 19.1061 47.0269 25C47.0269 30.894 44.7318 36.4349 40.5642 40.6027C36.3964 44.7703 30.8555 47.0654 24.9615 47.0654C19.0676 47.0654 13.5266 44.7703 9.3589 40.6027C5.19123 36.4349 2.89615 30.894 2.89615 25C2.89615 20.5148 4.23497 16.1973 6.76791 12.514C7.02265 12.1436 7.52928 12.05 7.89969 12.3046C8.27 12.5592 8.36377 13.066 8.1091 13.4364C5.7637 16.847 4.52392 20.8457 4.52392 25C4.52392 36.2694 13.6921 45.4376 24.9615 45.4376C36.2309 45.4376 45.3992 36.2694 45.3992 25C45.3992 13.7306 36.2309 4.56241 24.9615 4.56241C20.8078 4.56241 16.8088 5.80227 13.3973 8.14802C13.0268 8.40261 12.5202 8.30885 12.2655 7.93854C12.0108 7.56813 12.1046 7.06141 12.475 6.80675C16.1591 4.27363 20.4768 2.93464 24.9615 2.93464Z" fill="#F93F20" stroke="white" stroke-width="0.1"/>
<path d="M41.7253 19.1777L41.7252 19.1777L41.7262 19.1801L41.7277 19.1843L41.7279 19.1849C41.7285 19.1867 41.7295 19.1896 41.7306 19.1925C42.3628 21.013 42.7075 22.9668 42.7075 25C42.7075 34.7851 34.7467 42.7459 24.9615 42.7459C15.1765 42.7459 7.21557 34.7851 7.21557 25C7.21557 15.2148 15.1765 7.25398 24.9615 7.25398C32.7079 7.25398 39.3102 12.2436 41.7253 19.1777ZM40.9858 26.2787L41.0297 26.2764L41.033 26.2325C41.064 25.8257 41.0798 25.4146 41.0798 25C41.0798 23.3313 40.8248 21.7211 40.3519 20.2061L40.3432 20.1783L40.3146 20.1721C39.3265 19.9609 38.3336 19.77 37.3369 19.5997L37.2462 19.5842L37.2825 19.6687C38.217 21.8427 38.5686 24.2607 38.2892 26.6176L38.2807 26.6895L38.3509 26.672C39.2014 26.46 40.0822 26.3258 40.9858 26.2787ZM35.2928 19.2999L35.2807 19.2781L35.256 19.2746C31.8469 18.7922 28.4022 18.5473 24.9615 18.5473C21.5207 18.5473 18.076 18.7923 14.667 19.2747L14.6423 19.2782L14.6302 19.3C13.3117 21.6915 12.8612 24.5371 13.3741 27.2297L13.3792 27.2565L13.4045 27.2668C17.3337 28.8524 20.3805 32.1781 21.5852 36.2838L21.5929 36.31L21.6191 36.3177C23.7902 36.9568 26.1327 36.9568 28.3039 36.3177L28.3301 36.31L28.3378 36.2838C29.5426 32.178 32.5894 28.8524 36.5186 27.2667L36.5439 27.2565L36.549 27.2297C37.0619 24.5368 36.6116 21.6917 35.2928 19.2999ZM11.5721 26.672L11.6423 26.6895L11.6338 26.6176C11.3545 24.2609 11.7062 21.8426 12.6406 19.6687L12.6769 19.5842L12.5862 19.5997C11.5894 19.77 10.5965 19.9609 9.60845 20.1721L9.57988 20.1783L9.57118 20.2061C9.09827 21.7211 8.84333 23.3313 8.84333 25C8.84333 25.4146 8.8591 25.8257 8.89004 26.2325L8.89337 26.2764L8.93729 26.2787C9.84085 26.3258 10.7216 26.4601 11.5721 26.672ZM9.17455 27.9254L9.10943 27.9203L9.1215 27.9845C10.2461 33.9664 14.6855 38.7924 20.4526 40.4754L20.5154 40.4937L20.5166 40.4284L20.5166 40.428C20.518 40.3537 20.5194 40.2789 20.5194 40.2043C20.5194 33.7397 15.5135 28.4228 9.17455 27.9254ZM22.1327 40.8248L22.1307 40.8686L22.174 40.8762C23.0798 41.0348 24.0111 41.1182 24.9615 41.1182C25.9121 41.1182 26.8434 41.0348 27.7491 40.8763L27.7924 40.8687L27.7904 40.8249C27.7813 40.6175 27.776 40.4102 27.776 40.2043C27.776 39.512 27.8274 38.8317 27.9253 38.1663L27.9359 38.0947L27.8651 38.1102C26.9115 38.3198 25.9365 38.4251 24.9615 38.4251C23.9864 38.4251 23.0115 38.3198 22.058 38.1102L21.9872 38.0947L21.9978 38.1663C22.0956 38.8317 22.1471 39.512 22.1471 40.2042C22.1471 40.4102 22.1418 40.6174 22.1327 40.8248ZM29.4065 40.4284L29.4077 40.4937L29.4705 40.4754C35.2376 38.7924 39.677 33.9664 40.8017 27.9846L40.8137 27.9204L40.7486 27.9255C34.4097 28.4229 29.4037 33.7398 29.4037 40.2043C29.4037 40.2789 29.4051 40.354 29.4065 40.4284ZM39.5571 18.3543L39.6532 18.3733L39.6123 18.2843C37.061 12.7405 31.4539 8.88174 24.9615 8.88174C18.4692 8.88174 12.8621 12.7404 10.3107 18.2844L10.2698 18.3734L10.3659 18.3543C15.1659 17.403 20.0677 16.9196 24.9615 16.9196C29.8552 16.9196 34.757 17.4029 39.5571 18.3543Z" fill="#F93F20" stroke="white" stroke-width="0.1"/>
<path d="M24.9615 29.2694C22.6074 29.2694 20.6921 27.3541 20.6921 25C20.6921 22.6458 22.6074 20.7305 24.9615 20.7305C27.3156 20.7305 29.2309 22.6458 29.2309 25C29.2309 27.3541 27.3156 29.2694 24.9615 29.2694ZM27.6032 25C27.6032 23.5433 26.4182 22.3583 24.9615 22.3583C23.5049 22.3583 22.3199 23.5433 22.3199 25C22.3199 26.4566 23.5049 27.6416 24.9615 27.6416C26.4182 27.6416 27.6032 26.4566 27.6032 25Z" fill="#F93F20" stroke="white" stroke-width="0.1"/>
<path d="M9.35901 9.39765L9.35903 9.39762C9.67694 9.07979 10.1922 9.0798 10.51 9.39762C10.8279 9.71544 10.8279 10.2308 10.51 10.5486C10.3511 10.7076 10.1427 10.7872 9.93419 10.7872C9.72583 10.7872 9.51766 10.7078 9.3588 10.5488L9.35878 10.5488C9.04095 10.2309 9.0408 9.71586 9.35861 9.39805L9.35901 9.39765Z" fill="#F93F20" stroke="white" stroke-width="0.1"/>
</g>
<defs>
<clipPath id="clip0">
<rect width="50" height="50" fill="white"/>
</clipPath>
</defs>
</svg>
