<svg width="50" height="50" viewBox="0 0 50 50" fill="none" xmlns="http://www.w3.org/2000/svg">
<path d="M49.9503 23.4208C49.568 17.3477 46.9852 11.6308 42.6776 7.32324C37.9558 2.60147 31.6777 0.000976562 25 0.000976562C18.6349 0.000976562 12.633 2.36348 7.9957 6.67403L6.93398 5.70186C6.64834 5.44024 6.23545 5.37217 5.88105 5.52832C5.52666 5.68438 5.29795 6.03496 5.29795 6.42207V13.7218C5.29795 14.261 5.73525 14.6983 6.27451 14.6983H13.5742C13.9639 14.6983 14.3163 14.4667 14.4708 14.1089C14.6253 13.7512 14.5522 13.3357 14.2851 13.0522L12.5659 11.2273C19.8405 4.65283 31.1107 4.87002 38.1208 11.8803C45.3557 19.115 45.3557 30.887 38.1208 38.1218C34.6161 41.6264 29.9563 43.5566 25 43.5566C20.0437 43.5566 15.3839 41.6264 11.8793 38.1218C8.37451 34.617 6.44434 29.9574 6.44434 25.001C6.44434 24.4617 6.00703 24.0244 5.46777 24.0244H0.976562C0.437305 24.0244 0 24.4617 0 25.001C0 31.6787 2.60049 37.9567 7.32227 42.6787C11.6009 46.9573 17.2783 49.5375 23.3086 49.9441C23.8729 49.9821 24.4358 50.0009 24.9982 50.0009C30.3875 50.0009 35.6456 48.2653 39.9622 45.0331C40.3939 44.7098 40.4817 44.0978 40.1586 43.666C39.8352 43.2344 39.2232 43.1465 38.7915 43.4696C29.6911 50.284 16.7559 49.3502 8.70332 41.2976C4.58115 37.1755 2.21279 31.7672 1.97324 25.9775H4.51387C4.75186 31.0891 6.85547 35.8603 10.4981 39.5028C18.4945 47.4992 31.5055 47.4992 39.5019 39.5028C47.4981 31.5065 47.4981 18.4955 39.5019 10.4991C31.5055 2.50273 18.4945 2.50273 10.4981 10.4991C10.1248 10.8725 10.1158 11.475 10.4779 11.8594L11.3125 12.7452H7.25107V8.64043L7.35342 8.73409C7.73877 9.08702 8.33369 9.07403 8.70342 8.7044C13.0563 4.35137 18.8439 1.9541 25 1.9541C31.1561 1.9541 36.9437 4.35137 41.2966 8.7044C49.4255 16.8333 50.3034 29.8423 43.3388 38.9645C43.0114 39.3932 43.0937 40.006 43.5224 40.3333C43.9509 40.6608 44.5639 40.5784 44.8912 40.1497C48.5326 35.3804 50.3293 29.4393 49.9503 23.4208Z" fill="#F93F20"/>
</svg>
