<?xml version="1.0" encoding="utf-8"?>
<!-- Generator: Adobe Illustrator 25.0.0, SVG Export Plug-In . SVG Version: 6.00 Build 0)  -->
<svg version="1.1" id="Layer_1" xmlns="http://www.w3.org/2000/svg" xmlns:xlink="http://www.w3.org/1999/xlink" x="0px" y="0px"
	 viewBox="0 0 60 38.4" style="enable-background:new 0 0 60 38.4;" xml:space="preserve">
<style type="text/css">
	.st0{fill:#F93F20;}
</style>
<path class="st0" d="M57.2,21.2c-1.7-0.9-3.4-1.6-5.3-2.1c-0.5-0.1-1,0.1-1.1,0.6s0.1,1,0.6,1.1c1.7,0.5,3.3,1.2,4.9,2
	c0.2,0.1,0.3,0.2,0.5,0.3c-1,0-1.9,0-2.6,0.2c-1.6,0.3-2,1.1-2,1.8c0,1.8,2.4,3.4,5.2,3.4c0.3,0,0.5,0,0.7,0v0.8h-4.5
	c-1.1-1.5-2.8-2.6-4.8-2.6s-3.8,1-4.8,2.6H18.8c-1.1-1.5-2.8-2.6-4.8-2.6s-3.8,1-4.8,2.6H1.8v-2.1H3c0.5,0,0.9-0.4,0.9-0.9v-0.7h2
	c1.2,0,2.2-1,2.2-2.2v-0.8c0-0.4-0.1-0.9-0.4-1.2l-1.8-2.6H8c0.3,0,0.6-0.2,0.7-0.4c1.1-1.7,2.7-3.3,4.9-4.7c1.3-0.9,2.8-1.5,4.3-2
	c-0.3,0.2-0.5,0.3-0.8,0.5c-1.7,1.1-3.1,2.3-4.2,3.6c-0.5,0.5-0.6,1.3-0.3,1.9s0.9,1.1,1.6,1.1l28.3,1l0,0c0,0,0,0,0.1,0l0,0
	c1.6-0.2,3.3-0.2,5.1,0.1c0.5,0.1,0.9-0.3,1-0.8c0.1-0.5-0.3-0.9-0.8-1c-1.7-0.2-3.4-0.2-5.1-0.1c-1.4-1.3-2.7-2.5-4-3.7
	c-3.1-2.8-7.1-4.5-11.3-4.7l-4.1-0.2c-3.9-0.1-7.6,0.9-10.8,2.9c-2.2,1.4-3.9,3-5.1,4.8c-2.9,0-3.2,0-3.5,0
	c-1.1,0.2-1.9,1.2-1.9,2.3v5.3l0,0l0,0v0.7H1.2C0.5,25.4,0,26,0,26.6V32c0,0.6,0.4,1.1,1,1.2l7.5,1.5c0.9,2.2,3,3.7,5.5,3.7
	c2.3,0,4.3-1.4,5.3-3.3h3.2c0.5,0,0.9-0.4,0.9-0.9s-0.4-0.9-0.9-0.9h-2.7c0-0.3,0.1-0.5,0.1-0.8c0-0.5-0.1-1.1-0.2-1.6h23.6
	c-0.1,0.5-0.2,1-0.2,1.6c0,0.3,0,0.5,0.1,0.8H26.6c-0.5,0-0.9,0.4-0.9,0.9s0.4,0.9,0.9,0.9h17c0.9,2,3,3.3,5.3,3.3s4.3-1.4,5.3-3.3
	h2.7c1.8,0,3.2-1.4,3.2-3.2v-6.2C60,23.8,58.9,22.1,57.2,21.2z M14.2,17.2C14.2,17.1,14.2,17.1,14.2,17.2c2.5-3,6.3-5.3,10.8-5.8
	l1.8,0.1c0.3,1.1,0.7,3.7,0,6.2L14.2,17.2L14.2,17.2z M40.2,18.1l-11.6-0.4c0.5-2.3,0.4-4.6,0-6.1c3.3,0.4,6.4,1.9,8.9,4.1
	C38.4,16.5,39.3,17.2,40.2,18.1z M6.2,22.7v0.8c0,0.2-0.2,0.4-0.4,0.4h-2v-4.4c0-0.1,0-0.2,0.1-0.2l2.3,3.3
	C6.2,22.5,6.2,22.6,6.2,22.7z M1.8,31.6V31h6.5c-0.2,0.6-0.2,1.2-0.2,1.8L1.8,31.6z M13.9,36.7c-2.3,0-4.1-1.8-4.1-4.1
	s1.8-4.1,4.1-4.1s4.1,1.8,4.1,4.1S16.2,36.7,13.9,36.7z M57.5,26.7c-2,0-3.3-1-3.4-1.5c0.4-0.2,1.5-0.3,3.4-0.3c0.2,0,0.4,0,0.6,0
	c0.1,0.3,0.1,0.6,0.1,0.9v0.9C58,26.7,57.8,26.7,57.5,26.7z M48.8,36.7c-2.3,0-4.1-1.8-4.1-4.1s1.8-4.1,4.1-4.1s4.1,1.8,4.1,4.1
	S51.1,36.7,48.8,36.7z M56.8,33.3h-2.2c0-0.3,0.1-0.5,0.1-0.8c0-0.5-0.1-1.1-0.2-1.6h3.7v0.9C58.2,32.7,57.6,33.3,56.8,33.3z"/>
<path class="st0" d="M13.9,29.7c-1.6,0-2.9,1.3-2.9,2.9c0,1.6,1.3,2.9,2.9,2.9s2.9-1.3,2.9-2.9C16.8,31,15.5,29.7,13.9,29.7z
	 M13.9,33.7c-0.6,0-1.1-0.5-1.1-1.1c0-0.6,0.5-1.1,1.1-1.1S15,32,15,32.6C15,33.2,14.5,33.7,13.9,33.7z"/>
<path class="st0" d="M48.8,29.7c-1.6,0-2.9,1.3-2.9,2.9c0,1.6,1.3,2.9,2.9,2.9c1.6,0,2.9-1.3,2.9-2.9C51.7,31,50.4,29.7,48.8,29.7z
	 M48.8,33.7c-0.6,0-1.1-0.5-1.1-1.1c0-0.6,0.5-1.1,1.1-1.1s1.1,0.5,1.1,1.1C50,33.2,49.5,33.7,48.8,33.7z"/>
<path class="st0" d="M30,20.7c-0.5,0-0.9,0.4-0.9,0.9s0.4,0.9,0.9,0.9h0.6c0.5,0,0.9-0.4,0.9-0.9s-0.4-0.9-0.9-0.9H30z"/>
<path class="st0" d="M16.9,20.7c-0.5,0-0.9,0.4-0.9,0.9s0.4,0.9,0.9,0.9h0.6c0.5,0,0.9-0.4,0.9-0.9s-0.4-0.9-0.9-0.9H16.9z"/>
</svg>
