<?xml version="1.0" encoding="utf-8"?>
<!-- Generator: Adobe Illustrator 25.0.0, SVG Export Plug-In . SVG Version: 6.00 Build 0)  -->
<svg version="1.1" id="Layer_1" xmlns="http://www.w3.org/2000/svg" xmlns:xlink="http://www.w3.org/1999/xlink" x="0px" y="0px"
	 viewBox="0 0 67 55.7" style="enable-background:new 0 0 67 55.7;" xml:space="preserve">
<style type="text/css">
	.st0{clip-path:url(#SVGID_2_);}
	.st1{fill:#F93F20;}
</style>
<g>
	<defs>
		<rect id="SVGID_1_" y="-11.3" width="67" height="67"/>
	</defs>
	<clipPath id="SVGID_2_">
		<use xlink:href="#SVGID_1_"  style="overflow:visible;"/>
	</clipPath>
	<g class="st0">
		<path class="st1" d="M18.1,41.7h-5.6c-0.8,0-1.4-0.6-1.4-1.4s0.6-1.4,1.4-1.4h5.6c0.8,0,1.4,0.6,1.4,1.4S18.9,41.7,18.1,41.7z"/>
		<path class="st1" d="M63.5,41.7H60c-0.8,0-1.4-0.6-1.4-1.4s0.6-1.4,1.4-1.4h2.3l1.9-10c0-5.1-4.4-9.5-9.8-9.5h-9.2l-4.4,19.5h8
			c0.8,0,1.4,0.6,1.4,1.4s-0.6,1.4-1.4,1.4h-9.8c-0.4,0-0.8-0.2-1.1-0.5c-0.3-0.3-0.4-0.8-0.3-1.2l5.1-22.3c0.1-0.6,0.7-1.1,1.4-1.1
			h10.3c6.9,0,12.6,5.6,12.6,12.6l-2.1,11.4C64.8,41.2,64.2,41.7,63.5,41.7z"/>
		<path class="st1" d="M54.4,47.3c-3.8,0-7-3.1-7-7s3.1-7,7-7s7,3.1,7,7S58.3,47.3,54.4,47.3z M54.4,36.1c-2.3,0-4.2,1.9-4.2,4.2
			s1.9,4.2,4.2,4.2s4.2-1.9,4.2-4.2S56.7,36.1,54.4,36.1z"/>
		<path class="st1" d="M23.7,47.3c-3.8,0-7-3.1-7-7s3.1-7,7-7c3.8,0,7,3.1,7,7S27.6,47.3,23.7,47.3z M23.7,36.1
			c-2.3,0-4.2,1.9-4.2,4.2c0,2.3,1.9,4.2,4.2,4.2s4.2-1.9,4.2-4.2S26,36.1,23.7,36.1z"/>
		<path class="st1" d="M18.1,16.6H7c-0.8,0-1.4-0.6-1.4-1.4s0.6-1.4,1.4-1.4h11.2c0.8,0,1.4,0.6,1.4,1.4S18.9,16.6,18.1,16.6z"/>
		<path class="st1" d="M18.1,25h-14c-0.8,0-1.4-0.6-1.4-1.4s0.6-1.4,1.4-1.4h14c0.8,0,1.4,0.6,1.4,1.4S18.9,25,18.1,25z"/>
		<path class="st1" d="M18.1,33.3H1.4C0.6,33.3,0,32.7,0,32s0.6-1.4,1.4-1.4h16.7c0.8,0,1.4,0.6,1.4,1.4S18.9,33.3,18.1,33.3z"/>
		<path class="st1" d="M39.1,41.7h-9.8c-0.8,0-1.4-0.6-1.4-1.4s0.6-1.4,1.4-1.4H38L44.3,11H12.6c-0.8,0-1.4-0.6-1.4-1.4
			c0-0.8,0.6-1.4,1.4-1.4h33.5c0.4,0,0.8,0.2,1.1,0.5c0.3,0.3,0.4,0.8,0.3,1.2l-7,30.7C40.3,41.3,39.7,41.7,39.1,41.7z"/>
	</g>
</g>
</svg>
