<svg width="52" height="64" viewBox="0 0 52 64" fill="none" xmlns="http://www.w3.org/2000/svg">
<path d="M25.9995 5.91211C20.7543 5.91211 15.8406 7.97273 12.1618 11.7162L12.1067 11.7726C11.7457 12.1421 11.7524 12.7342 12.1218 13.0954C12.4912 13.4564 13.0834 13.4496 13.4446 13.0802L13.4978 13.0257C16.8203 9.64473 21.2602 7.78286 25.9995 7.78286C35.6638 7.78286 43.5263 15.6452 43.5263 25.3096C43.5263 34.974 35.6638 42.8364 25.9995 42.8364C16.3353 42.8364 8.4728 34.9739 8.4728 25.3096C8.4728 22.1524 9.3213 19.0577 10.9266 16.3602C11.1907 15.9162 11.0451 15.3422 10.6011 15.0781C10.1569 14.814 9.58305 14.9597 9.31893 15.4036C7.54155 18.3904 6.60205 21.8159 6.60205 25.3097C6.60205 36.0055 15.3037 44.7072 25.9994 44.7072C36.6952 44.7072 45.3968 36.0055 45.3968 25.3097C45.3968 14.614 36.6953 5.91211 25.9995 5.91211Z" fill="#F93F20"/>
<path d="M49.6916 21.4165C49.1841 20.6609 48.7048 19.9471 48.5247 19.2735C48.3326 18.5546 48.3899 17.669 48.4508 16.7314C48.5416 15.3327 48.6354 13.8864 47.9209 12.6516C47.1954 11.3976 45.8848 10.754 44.6173 10.1315C43.7839 9.72225 42.9967 9.33563 42.4851 8.824C41.9734 8.31225 41.5868 7.52513 41.1774 6.69163C40.5551 5.42425 39.9114 4.11363 38.6573 3.38812C37.4226 2.67375 35.9763 2.76762 34.5776 2.85825C33.6399 2.91912 32.7544 2.97662 32.0353 2.78437C31.3617 2.60425 30.6479 2.125 29.8923 1.6175C28.7637 0.859375 27.4841 0 25.9998 0C24.5156 0 23.2359 0.859375 22.1069 1.61762C21.3513 2.12512 20.6377 2.60437 19.9641 2.78437C19.2452 2.97662 18.3596 2.91912 17.4219 2.85825C16.0232 2.76762 14.5771 2.67375 13.3422 3.38812C12.0882 4.11363 11.4446 5.42425 10.8221 6.69163C10.4128 7.52513 10.0262 8.31238 9.51443 8.824C9.0028 9.33563 8.21568 9.72225 7.38218 10.1315C6.11468 10.7539 4.80418 11.3976 4.07855 12.6516C3.36405 13.8864 3.45793 15.3328 3.54868 16.7315C3.60955 17.669 3.66693 18.5546 3.4748 19.2735C3.29468 19.9471 2.81543 20.6609 2.30793 21.4165C1.5498 22.5455 0.69043 23.825 0.69043 25.3092C0.69043 26.7935 1.54968 28.0731 2.30793 29.2021C2.8153 29.9578 3.29468 30.6715 3.47468 31.3451C3.66681 32.064 3.60943 32.9496 3.54855 33.8872C3.4578 35.2859 3.36393 36.7321 4.07843 37.967C4.80393 39.221 6.11455 39.8647 7.38205 40.4871C8.21543 40.8964 9.00268 41.283 9.5143 41.7946C9.98868 42.269 10.3557 42.981 10.7328 43.7463L3.93893 56.245C3.64743 56.7812 3.6558 57.4169 3.96143 57.9451C4.26705 58.4735 4.81368 58.7976 5.4238 58.8124L10.6339 58.9385L13.5733 63.2421C13.9004 63.7211 14.4309 64 15.0059 64C15.0359 64 15.0662 63.9992 15.0964 63.9977C15.7059 63.9669 16.2438 63.6283 16.5353 63.092L23.6691 49.9681C24.3871 50.3439 25.1606 50.6186 25.9997 50.6186C26.8387 50.6186 27.6123 50.3439 28.3303 49.9681L35.4641 63.0921C35.7556 63.6284 36.2934 63.967 36.9029 63.9979C36.9333 63.9994 36.9634 64.0001 36.9934 64.0001C37.5684 64.0001 38.0989 63.7212 38.4261 63.2422L41.3654 58.9386L46.5754 58.8125C47.1856 58.7977 47.7323 58.4735 48.0378 57.9453C48.3434 57.4169 48.3518 56.7814 48.0603 56.2451L45.5759 51.6745C45.3292 51.2205 44.7613 51.0524 44.3074 51.2994C43.8536 51.5461 43.6857 52.114 43.9323 52.5679L46.3129 56.9475L41.2519 57.07C40.6942 57.0835 40.1734 57.3666 39.8589 57.8273L37.0037 62.0076L29.9227 48.9806C30.6671 48.4808 31.3708 48.0117 32.0353 47.8341C32.7542 47.642 33.6398 47.6994 34.5774 47.7603C35.9763 47.851 37.4224 47.9449 38.6572 47.2304C39.3108 46.8522 39.7978 46.3145 40.2032 45.7074L41.8743 48.7819C42.1209 49.2358 42.6886 49.4036 43.1428 49.157C43.5967 48.9103 43.7646 48.3424 43.5179 47.8885L41.2663 43.7461C41.6434 42.9809 42.0104 42.269 42.4848 41.7946C42.9964 41.283 43.7836 40.8964 44.6171 40.4871C45.8846 39.8647 47.1951 39.221 47.9207 37.967C48.6352 36.7323 48.5413 35.2859 48.4506 33.8871C48.3897 32.9496 48.3323 32.064 48.5244 31.345C48.7046 30.6714 49.1838 29.9578 49.6912 29.2021C50.4493 28.0731 51.3087 26.7935 51.3087 25.3092C51.3091 23.825 50.4497 22.5454 49.6916 21.4165ZM14.9957 62.0076L12.1406 57.8274C11.8259 57.3667 11.3052 57.0836 10.7474 57.0701L5.68655 56.9476L11.7962 45.7076C12.2016 46.3146 12.6886 46.8524 13.3422 47.2305C14.5771 47.9449 16.0236 47.8511 17.4219 47.7604C18.3596 47.6995 19.2452 47.6421 19.9641 47.8343C20.6287 48.0119 21.3324 48.481 22.0767 48.9808L14.9957 62.0076ZM48.1384 28.1591C47.5679 29.0087 46.9779 29.8872 46.7174 30.862C46.4458 31.878 46.5161 32.961 46.5841 34.0083C46.6601 35.18 46.7318 36.2868 46.3017 37.0301C45.8607 37.7923 44.8562 38.2856 43.7927 38.808C42.8589 39.2665 41.8934 39.7406 41.1623 40.4719C40.4311 41.203 39.9569 42.1686 39.4983 43.1024C38.9761 44.1659 38.4827 45.1702 37.7207 45.6113C36.9772 46.0414 35.8707 45.9695 34.6988 45.8936C33.6514 45.8256 32.5686 45.7555 31.5526 46.027C30.5779 46.2876 29.6994 46.8775 28.8498 47.4481C27.8544 48.1166 26.9143 48.748 25.9998 48.748C25.0854 48.748 24.1453 48.1166 23.1499 47.4481C22.3003 46.8776 21.4219 46.2876 20.4471 46.027C19.8893 45.8779 19.3116 45.8319 18.7304 45.8319C18.2529 45.8319 17.7732 45.863 17.3008 45.8937C16.1289 45.9696 15.0223 46.0416 14.2789 45.6114C13.5168 45.1704 13.0234 44.1659 12.5012 43.1024C12.0427 42.1686 11.5684 41.2031 10.8372 40.4719C10.1061 39.7407 9.14055 39.2665 8.2068 38.808C7.1433 38.2857 6.1388 37.7924 5.6978 37.0301C5.26768 36.2868 5.33943 35.18 5.41543 34.0084C5.48343 32.9611 5.55368 31.8781 5.28205 30.8621C5.02155 29.8874 4.43155 29.0088 3.86093 28.1593C3.19255 27.1639 2.56118 26.2238 2.56118 25.3094C2.56118 24.395 3.19255 23.4549 3.86093 22.4595C4.43155 21.6099 5.02143 20.7314 5.28205 19.7566C5.55368 18.7406 5.48343 17.6576 5.41543 16.6104C5.33943 15.4386 5.26768 14.3319 5.6978 13.5885C6.1388 12.8264 7.1433 12.333 8.2068 11.8106C9.14055 11.3521 10.1061 10.8779 10.8372 10.1468C11.5683 9.41563 12.0426 8.45 12.5012 7.51625C13.0234 6.45288 13.5168 5.44837 14.2789 5.00737C15.0223 4.57737 16.1289 4.64913 17.3008 4.725C18.3481 4.793 19.4309 4.86325 20.4471 4.59163C21.4217 4.331 22.3002 3.74113 23.1498 3.1705C24.1452 2.502 25.0853 1.87063 25.9998 1.87063C26.9142 1.87063 27.8543 2.502 28.8497 3.17038C29.6993 3.741 30.5778 4.331 31.5526 4.5915C32.5686 4.86312 33.6517 4.79287 34.6989 4.72487C35.8707 4.649 36.9774 4.57712 37.7207 5.00725C38.4828 5.44825 38.9762 6.45275 39.4984 7.51613C39.9569 8.44987 40.4312 9.41537 41.1624 10.1466C41.8936 10.8777 42.8592 11.352 43.7928 11.8105C44.8563 12.3328 45.8607 12.8261 46.3017 13.5883C46.7318 14.3316 46.6601 15.4384 46.5841 16.61C46.5161 17.6573 46.4458 18.7402 46.7174 19.7563C46.9779 20.731 47.5679 21.6096 48.1386 22.4591C48.8069 23.4545 49.4383 24.3946 49.4383 25.309C49.4383 26.2236 48.8069 27.1637 48.1384 28.1591Z" fill="#F93F20"/>
<path d="M38.8445 24.4335C39.4765 23.8174 39.6997 22.9132 39.4269 22.0739C39.1542 21.2345 38.4422 20.6341 37.5688 20.5072L31.2253 19.5855C31.0848 19.5651 30.9634 19.4769 30.9007 19.3496L28.0638 13.6015C27.6732 12.81 26.8822 12.3184 25.9997 12.3184C25.1172 12.3184 24.3262 12.81 23.9355 13.6015L21.0987 19.3496C21.0359 19.4769 20.9145 19.5651 20.774 19.5855L14.4307 20.5072C13.5573 20.6341 12.8452 21.2344 12.5724 22.0739C12.2997 22.9132 12.5228 23.8174 13.1549 24.4335L17.745 28.9077C17.8468 29.0069 17.893 29.1495 17.869 29.2894L16.7854 35.6072C16.6361 36.4772 16.9872 37.3399 17.7012 37.8586C18.1047 38.1517 18.5767 38.3006 19.0519 38.3006C19.4177 38.3006 19.7854 38.2124 20.1253 38.0337L25.7989 35.0509C25.9247 34.9849 26.0747 34.9849 26.2002 35.0509L31.8739 38.0337C32.655 38.4444 33.5839 38.3772 34.298 37.8586C35.0121 37.3399 35.363 36.4771 35.2138 35.6072L34.1302 29.2894C34.1062 29.1495 34.1525 29.0069 34.254 28.9079L38.8445 24.4335ZM32.2865 29.6056L33.3701 35.9235C33.411 36.1619 33.2638 36.2977 33.1987 36.3451C33.1334 36.3925 32.9588 36.4904 32.7446 36.3779L27.0708 33.395C26.4 33.0424 25.5993 33.0425 24.9285 33.395L19.2548 36.378C19.0409 36.4905 18.866 36.3925 18.8008 36.3451C18.7357 36.2977 18.5884 36.1619 18.6293 35.9235L19.7129 29.6057C19.841 28.859 19.5937 28.0974 19.0509 27.5682L14.4608 23.094C14.2875 22.9251 14.3268 22.7286 14.3516 22.6521C14.3765 22.5755 14.4603 22.3935 14.6997 22.3587L21.0432 21.437C21.793 21.328 22.4409 20.8574 22.7763 20.1779L25.6132 14.4297C25.7202 14.2129 25.9192 14.1895 25.9998 14.1895C26.0804 14.1895 26.2793 14.2129 26.3864 14.4297L29.2233 20.1779C29.5587 20.8574 30.2065 21.3281 30.9564 21.437L37.2999 22.3587C37.5393 22.3935 37.6229 22.5755 37.6479 22.6521C37.6728 22.7287 37.712 22.9252 37.5389 23.094L32.9485 27.5684C32.4058 28.0974 32.1584 28.859 32.2865 29.6056Z" fill="#F93F20"/>
</svg>
