<svg width="45" height="45" viewBox="0 0 45 45" fill="none" xmlns="http://www.w3.org/2000/svg">
<g clip-path="url(#clip0)">
<path d="M41.6152 11.2096L41.6138 11.1746C41.5942 10.7424 41.5812 10.2851 41.5733 9.77627C41.5366 7.29508 39.5642 5.24271 37.0826 5.104C31.9088 4.81527 27.9063 3.12819 24.4865 -0.205124L24.4573 -0.232933C23.3419 -1.25569 21.6593 -1.25569 20.5435 -0.232933L20.5143 -0.205124C17.0945 3.12819 13.092 4.81527 7.91815 5.10435C5.43696 5.24271 3.46423 7.29508 3.4275 9.77661C3.41994 10.282 3.40655 10.7393 3.38698 11.1746L3.38492 11.256C3.28433 16.5318 3.15936 23.0978 5.35594 29.0576C6.56374 32.3349 8.39296 35.1838 10.7924 37.5256C13.5253 40.1925 17.1048 42.3098 21.4313 43.8183C21.5721 43.8674 21.7183 43.9073 21.8673 43.9371C22.0774 43.979 22.2889 44 22.5004 44C22.7119 44 22.9237 43.979 23.1335 43.9371C23.2825 43.9073 23.4298 43.8671 23.5712 43.8177C27.8926 42.3064 31.4683 40.1881 34.1987 37.5215C36.5972 35.179 38.4264 32.3294 39.6352 29.0514C41.8401 23.0738 41.7154 16.4954 41.6152 11.2096ZM37.1578 28.1378C34.8411 34.4192 30.1118 38.7331 22.6999 41.3251C22.6734 41.3341 22.6453 41.342 22.6161 41.3478C22.5395 41.3629 22.4616 41.3629 22.384 41.3475C22.3552 41.3416 22.327 41.3341 22.3009 41.3251C14.8811 38.7379 10.1487 34.4264 7.83369 28.1447C5.80912 22.6512 5.92379 16.6238 6.02507 11.3065L6.02576 11.2769C6.04636 10.82 6.06009 10.3414 6.06764 9.81541C6.08412 8.71369 6.96165 7.80217 8.06543 7.74072C10.9933 7.5773 13.5654 7.0115 15.9289 6.01106C18.2892 5.01199 20.3855 3.60369 22.337 1.70581C22.4362 1.62203 22.5649 1.62169 22.6638 1.70581C24.6156 3.60369 26.7119 5.01199 29.0719 6.01106C31.4353 7.0115 34.0075 7.5773 36.9357 7.74072C38.0395 7.80217 38.917 8.71369 38.9332 9.81575C38.941 10.3445 38.9548 10.8231 38.9754 11.2769C39.0763 16.6005 39.1882 22.6326 37.1578 28.1378Z" fill="#F93F20"/>
<path d="M22.4997 10.2861C16.3158 10.2861 11.2851 15.3172 11.2851 21.5008C11.2851 27.6847 16.3158 32.7158 22.4997 32.7158C28.6833 32.7158 33.7144 27.6847 33.7144 21.5008C33.7144 15.3172 28.6833 10.2861 22.4997 10.2861ZM22.4997 30.0749C17.7718 30.0749 13.9256 26.2287 13.9256 21.5008C13.9256 16.7729 17.7718 12.9266 22.4997 12.9266C27.2273 12.9266 31.0735 16.7729 31.0735 21.5008C31.0735 26.2287 27.2273 30.0749 22.4997 30.0749Z" fill="#F93F20"/>
<path d="M25.7229 18.0192L20.514 23.228L19.1002 21.8142C18.5845 21.2986 17.7485 21.2986 17.2328 21.8142C16.7175 22.3299 16.7175 23.1659 17.2328 23.6812L19.5805 26.0289C19.8383 26.2867 20.1761 26.4155 20.514 26.4155C20.8518 26.4155 21.1896 26.2867 21.4475 26.0289L27.5902 19.8861C28.1055 19.3705 28.1055 18.5345 27.5902 18.0192C27.0745 17.5031 26.2385 17.5031 25.7229 18.0192Z" fill="#F93F20"/>
</g>
<defs>
<clipPath id="clip0">
<rect width="45" height="45" fill="white"/>
</clipPath>
</defs>
</svg>
