<svg width="14" height="14" viewBox="0 0 14 14" fill="none" xmlns="http://www.w3.org/2000/svg">
<path d="M0.435272 9.4346C1.42432 12.1002 3.99012 13.9998 6.99988 13.9998C10.0096 13.9998 12.5754 12.1002 13.5645 9.4346L6.99988 8.82593L0.435272 9.4346Z" fill="#FFDA44"/>
<path d="M6.99988 0C3.99012 0 1.42432 1.89962 0.435272 4.56523L6.99988 5.1739L13.5645 4.5652C12.5754 1.89962 10.0096 0 6.99988 0Z" fill="black"/>
<path d="M0.435395 4.56543C0.154027 5.32375 0 6.14396 0 7.0002C0 7.85644 0.154027 8.67664 0.435395 9.43497H13.5646C13.846 8.67664 14 7.85644 14 7.0002C14 6.14396 13.846 5.32375 13.5646 4.56543H0.435395Z" fill="#D80027"/>
</svg>
